{
  "accessors": [
    {
      "bufferView": 3,
      "componentType": 5126,
      "count": 678,
      "max": [
        2.798421859741211,
        1.6155284643173218,
        0.48218652606010437
      ],
      "min": [
        -1.7833510637283325,
        -1.5290825366973877,
        -0.48218652606010437
      ],
      "type": "VEC3"
    },
    {
      "bufferView": 3,
      "byteOffset": 8136,
      "componentType": 5126,
      "count": 678,
      "max": [
        0.9745749235153198,
        0.9987843632698059,
        0.9997344613075256
      ],
      "min": [
        -0.9990417957305908,
        -0.9993171095848083,
        -0.9997344613075256
      ],
      "type": "VEC3"
    },
    {
      "bufferView": 2,
      "componentType": 5126,
      "count": 678,
      "max": [
        0.9995267987251282,
        0.9527894854545593
      ],
      "min": [
        0.00047319658915512264,
        0.00047319658915512264
      ],
      "type": "VEC2"
    },
    {
      "bufferView": 1,
      "componentType": 5125,
      "count": 2472,
      "type": "SCALAR"
    },
    {
      "bufferView": 5,
      "componentType": 5126,
      "count": 50,
      "max": [
        100.00000762939453,
        0.5093767642974854,
        0.5095359086990356,
        0.0,
        0.14170394837856293,
        99.99999237060547,
        0.5095962882041931,
        0.0,
        0.5095973610877991,
        0.13682949542999268,
        100.0,
        0.0,
        0.5791324973106384,
        0.8346720337867737,
        0.839462161064148,
        1.0
      ],
      "min": [
        -0.4538131058216095,
        -0.5095975399017334,
        -0.40249139070510864,
        0.0,
        -0.14170390367507935,
        -0.5095075964927673,
        -0.5040755867958069,
        0.0,
        -0.5095974206924438,
        -0.13682952523231506,
        -0.44977232813835144,
        0.0,
        -0.5791324377059937,
        -1.2231863737106323,
        -0.9238039255142212,
        1.0
      ],
      "type": "MAT4"
    },
    {
      "bufferView": 0,
      "componentType": 5123,
      "count": 678,
      "type": "VEC4"
    },
    {
      "bufferView": 4,
      "componentType": 5126,
      "count": 678,
      "max": [
        1.0,
        0.4999999701976776,
        0.29382118582725525,
        0.18607035279273987
      ],
      "min": [
        0.31392961740493774,
        0.0,
        0.0,
        0.0
      ],
      "type": "VEC4"
    },
    {
      "bufferView": 6,
      "componentType": 5126,
      "count": 68,
      "max": [
        1.4166666269302368
      ],
      "min": [
        0.0
      ],
      "type": "SCALAR"
    },
    {
      "bufferView": 7,
      "componentType": 5126,
      "count": 68,
      "max": [
        2.2351741790771484e-08,
        0.17568901181221008,
        4.6566128730773926e-08
      ],
      "min": [
        -1.4901161193847656e-08,
        0.17568889260292053,
        1.4901161193847656e-08
      ],
      "type": "VEC3"
    },
    {
      "bufferView": 6,
      "byteOffset": 272,
      "componentType": 5126,
      "count": 4,
      "max": [
        1.4166666269302368
      ],
      "min": [
        0.0
      ],
      "type": "SCALAR"
    },
    {
      "bufferView": 7,
      "byteOffset": 816,
      "componentType": 5126,
      "count": 4,
      "max": [
        1.0,
        1.0,
        1.0
      ],
      "min": [
        0.9999999403953552,
        1.0,
        0.9999999403953552
      ],
      "type": "VEC3"
    },
    {
      "bufferView": 6,
      "byteOffset": 288,
      "componentType": 5126,
      "count": 68,
      "max": [
        1.4166666269302368
      ],
      "min": [
        0.0
      ],
      "type": "SCALAR"
    },
    {
      "bufferView": 8,
      "componentType": 5126,
      "count": 68,
      "max": [
        0.2425159066915512,
        -3.744970999974839e-09,
        0.0770147442817688,
        0.994745135307312
      ],
      "min": [
        0.10238194465637207,
        -0.009494714438915253,
        -6.085576487180333e-09,
        0.9670391082763672
      ],
      "type": "VEC4"
    },
    {
      "bufferView": 6,
      "byteOffset": 560,
      "componentType": 5126,
      "count": 68,
      "max": [
        1.4166666269302368
      ],
      "min": [
        0.0
      ],
      "type": "SCALAR"
    },
    {
      "bufferView": 7,
      "byteOffset": 864,
      "componentType": 5126,
      "count": 68,
      "max": [
        3.725290298461914e-08,
        0.2266305387020111,
        -3.4924596548080444e-08
      ],
      "min": [
        -2.2351741790771484e-08,
        0.22663050889968872,
        -1.0989606380462646e-07
      ],
      "type": "VEC3"
    },
    {
      "bufferView": 6,
      "byteOffset": 832,
      "componentType": 5126,
      "count": 6,
      "max": [
        1.4166666269302368
      ],
      "min": [
        0.0
      ],
      "type": "SCALAR"
    },
    {
      "bufferView": 7,
      "byteOffset": 1680,
      "componentType": 5126,
      "count": 6,
      "max": [
        1.0,
        1.0,
        1.0
      ],
      "min": [
        0.9999998807907104,
        0.9999998807907104,
        0.9999998807907104
      ],
      "type": "VEC3"
    },
    {
      "bufferView": 6,
      "byteOffset": 856,
      "componentType": 5126,
      "count": 68,
      "max": [
        1.4166666269302368
      ],
      "min": [
        0.0
      ],
      "type": "SCALAR"
    },
    {
      "bufferView": 8,
      "byteOffset": 1088,
      "componentType": 5126,
      "count": 68,
      "max": [
        0.2477242797613144,
        0.008412298746407032,
        0.20215299725532532,
        0.9935563206672668
      ],
      "min": [
        -0.11564292013645172,
        0.0012196579482406378,
        -0.024707842618227005,
        0.9684789180755615
      ],
      "type": "VEC4"
    },
    {
      "bufferView": 6,
      "byteOffset": 1128,
      "componentType": 5126,
      "count": 68,
      "max": [
        1.4166666269302368
      ],
      "min": [
        0.0
      ],
      "type": "SCALAR"
    },
    {
      "bufferView": 7,
      "byteOffset": 1752,
      "componentType": 5126,
      "count": 68,
      "max": [
        -3.026798367500305e-09,
        0.21358069777488708,
        1.1445081327110529e-08
      ],
      "min": [
        -1.862645149230957e-08,
        0.2135806679725647,
        -1.4435499906539917e-08
      ],
      "type": "VEC3"
    },
    {
      "bufferView": 6,
      "byteOffset": 1400,
      "componentType": 5126,
      "count": 4,
      "max": [
        1.4166666269302368
      ],
      "min": [
        0.0
      ],
      "type": "SCALAR"
    },
    {
      "bufferView": 7,
      "byteOffset": 2568,
      "componentType": 5126,
      "count": 4,
      "max": [
        1.0,
        1.0,
        1.0
      ],
      "min": [
        0.9999999403953552,
        0.9999999403953552,
        0.9999999403953552
      ],
      "type": "VEC3"
    },
    {
      "bufferView": 6,
      "byteOffset": 1416,
      "componentType": 5126,
      "count": 68,
      "max": [
        1.4166666269302368
      ],
      "min": [
        0.0
      ],
      "type": "SCALAR"
    },
    {
      "bufferView": 8,
      "byteOffset": 2176,
      "componentType": 5126,
      "count": 68,
      "max": [
        -0.08297104388475418,
        0.017863309010863304,
        0.29049262404441833,
        0.996178150177002
      ],
      "min": [
        -0.0857178196310997,
        0.014964229427278042,
        -0.09186829626560211,
        0.9531557559967041
      ],
      "type": "VEC4"
    },
    {
      "bufferView": 6,
      "byteOffset": 1688,
      "componentType": 5126,
      "count": 5,
      "max": [
        1.4166666269302368
      ],
      "min": [
        0.0
      ],
      "type": "SCALAR"
    },
    {
      "bufferView": 7,
      "byteOffset": 2616,
      "componentType": 5126,
      "count": 5,
      "max": [
        0.9999999403953552,
        1.000000238418579,
        1.0000026226043701
      ],
      "min": [
        0.9999999403953552,
        1.0000001192092896,
        1.0000025033950806
      ],
      "type": "VEC3"
    },
    {
      "bufferView": 6,
      "byteOffset": 1708,
      "componentType": 5126,
      "count": 68,
      "max": [
        1.4166666269302368
      ],
      "min": [
        0.0
      ],
      "type": "SCALAR"
    },
    {
      "bufferView": 8,
      "byteOffset": 3264,
      "componentType": 5126,
      "count": 68,
      "max": [
        -0.016378281638026237,
        -0.03805648535490036,
        0.9978066682815552,
        0.1549665629863739
      ],
      "min": [
        -0.01889161579310894,
        -0.06345430761575699,
        0.9870057106018066,
        0.009336484596133232
      ],
      "type": "VEC4"
    },
    {
      "bufferView": 6,
      "byteOffset": 1980,
      "componentType": 5126,
      "count": 43,
      "max": [
        1.4166666269302368
      ],
      "min": [
        0.0
      ],
      "type": "SCALAR"
    },
    {
      "bufferView": 7,
      "byteOffset": 2676,
      "componentType": 5126,
      "count": 43,
      "max": [
        6.750155989720952e-14,
        0.07349780201911926,
        -3.725290298461914e-08
      ],
      "min": [
        1.3988810110276972e-14,
        0.07349780201911926,
        -8.195635814445268e-08
      ],
      "type": "VEC3"
    },
    {
      "bufferView": 6,
      "byteOffset": 2152,
      "componentType": 5126,
      "count": 4,
      "max": [
        1.4166666269302368
      ],
      "min": [
        0.0
      ],
      "type": "SCALAR"
    },
    {
      "bufferView": 7,
      "byteOffset": 3192,
      "componentType": 5126,
      "count": 4,
      "max": [
        1.0,
        1.0000001192092896,
        1.0
      ],
      "min": [
        1.0,
        1.0,
        0.9999999403953552
      ],
      "type": "VEC3"
    },
    {
      "bufferView": 6,
      "byteOffset": 2168,
      "componentType": 5126,
      "count": 43,
      "max": [
        1.4166666269302368
      ],
      "min": [
        0.0
      ],
      "type": "SCALAR"
    },
    {
      "bufferView": 8,
      "byteOffset": 4352,
      "componentType": 5126,
      "count": 43,
      "max": [
        -0.13481149077415466,
        7.35252143613252e-08,
        -1.2288361972423445e-07,
        0.990871250629425
      ],
      "min": [
        -0.13481150567531586,
        7.352520725589784e-08,
        -1.2288364814594388e-07,
        0.990871250629425
      ],
      "type": "VEC4"
    },
    {
      "bufferView": 6,
      "byteOffset": 2340,
      "componentType": 5126,
      "count": 43,
      "max": [
        1.4166666269302368
      ],
      "min": [
        0.0
      ],
      "type": "SCALAR"
    },
    {
      "bufferView": 7,
      "byteOffset": 3240,
      "componentType": 5126,
      "count": 43,
      "max": [
        1.5409895581797173e-13,
        0.11498937755823135,
        2.1234161806660268e-07
      ],
      "min": [
        -2.0605739337042905e-13,
        0.11498933285474777,
        3.352760558072987e-08
      ],
      "type": "VEC3"
    },
    {
      "bufferView": 6,
      "byteOffset": 2512,
      "componentType": 5126,
      "count": 6,
      "max": [
        1.4166666269302368
      ],
      "min": [
        0.0
      ],
      "type": "SCALAR"
    },
    {
      "bufferView": 7,
      "byteOffset": 3756,
      "componentType": 5126,
      "count": 6,
      "max": [
        1.0,
        0.9999998807907104,
        1.0
      ],
      "min": [
        1.0,
        0.9999998807907104,
        0.9999998807907104
      ],
      "type": "VEC3"
    },
    {
      "bufferView": 6,
      "byteOffset": 2536,
      "componentType": 5126,
      "count": 43,
      "max": [
        1.4166666269302368
      ],
      "min": [
        0.0
      ],
      "type": "SCALAR"
    },
    {
      "bufferView": 8,
      "byteOffset": 5040,
      "componentType": 5126,
      "count": 43,
      "max": [
        0.024747665971517563,
        -4.46508096274556e-07,
        5.049060192163779e-08,
        0.999693751335144
      ],
      "min": [
        0.024747664108872414,
        -4.4650815311797487e-07,
        5.0490591263496754e-08,
        0.999693751335144
      ],
      "type": "VEC4"
    },
    {
      "bufferView": 6,
      "byteOffset": 2708,
      "componentType": 5126,
      "count": 6,
      "max": [
        1.4166666269302368
      ],
      "min": [
        0.0
      ],
      "type": "SCALAR"
    },
    {
      "bufferView": 7,
      "byteOffset": 3828,
      "componentType": 5126,
      "count": 6,
      "max": [
        6.383933381925999e-09,
        0.3421058654785156,
        0.08368781208992004
      ],
      "min": [
        6.3839324937475794e-09,
        0.3421058654785156,
        0.08368781208992004
      ],
      "type": "VEC3"
    },
    {
      "bufferView": 6,
      "byteOffset": 2732,
      "componentType": 5126,
      "count": 4,
      "max": [
        1.4166666269302368
      ],
      "min": [
        0.0
      ],
      "type": "SCALAR"
    },
    {
      "bufferView": 7,
      "byteOffset": 3900,
      "componentType": 5126,
      "count": 4,
      "max": [
        1.0,
        1.0000001192092896,
        1.0
      ],
      "min": [
        1.0,
        1.0,
        1.0
      ],
      "type": "VEC3"
    },
    {
      "bufferView": 6,
      "byteOffset": 2748,
      "componentType": 5126,
      "count": 43,
      "max": [
        1.4166666269302368
      ],
      "min": [
        0.0
      ],
      "type": "SCALAR"
    },
    {
      "bufferView": 8,
      "byteOffset": 5728,
      "componentType": 5126,
      "count": 43,
      "max": [
        0.6607213020324707,
        5.432410148387135e-07,
        4.0699669057175925e-07,
        0.7506313323974609
      ],
      "min": [
        0.6607212424278259,
        5.432410148387135e-07,
        4.069966621500498e-07,
        0.7506312727928162
      ],
      "type": "VEC4"
    },
    {
      "bufferView": 6,
      "byteOffset": 2920,
      "componentType": 5126,
      "count": 43,
      "max": [
        1.4166666269302368
      ],
      "min": [
        0.0
      ],
      "type": "SCALAR"
    },
    {
      "bufferView": 7,
      "byteOffset": 3948,
      "componentType": 5126,
      "count": 43,
      "max": [
        1.1102230246251565e-15,
        0.41393932700157166,
        2.9802322387695313e-08
      ],
      "min": [
        -7.105427357601002e-15,
        0.4139391779899597,
        5.828670879282072e-16
      ],
      "type": "VEC3"
    },
    {
      "bufferView": 6,
      "byteOffset": 3092,
      "componentType": 5126,
      "count": 43,
      "max": [
        1.4166666269302368
      ],
      "min": [
        0.0
      ],
      "type": "SCALAR"
    },
    {
      "bufferView": 8,
      "byteOffset": 6416,
      "componentType": 5126,
      "count": 43,
      "max": [
        0.698431134223938,
        4.143129928024791e-08,
        -2.352311980757804e-07,
        0.7156772613525391
      ],
      "min": [
        0.698431134223938,
        4.143129928024791e-08,
        -2.3523122649748984e-07,
        0.7156772613525391
      ],
      "type": "VEC4"
    },
    {
      "bufferView": 6,
      "byteOffset": 3264,
      "componentType": 5126,
      "count": 68,
      "max": [
        1.4166666269302368
      ],
      "min": [
        0.0
      ],
      "type": "SCALAR"
    },
    {
      "bufferView": 7,
      "byteOffset": 4464,
      "componentType": 5126,
      "count": 68,
      "max": [
        1.2434497875801753e-14,
        0.06691378355026245,
        1.0824674490095276e-15
      ],
      "min": [
        -7.105427357601002e-15,
        0.06691378355026245,
        -8.940696716308594e-08
      ],
      "type": "VEC3"
    },
    {
      "bufferView": 6,
      "byteOffset": 3536,
      "componentType": 5126,
      "count": 4,
      "max": [
        1.4166666269302368
      ],
      "min": [
        0.0
      ],
      "type": "SCALAR"
    },
    {
      "bufferView": 7,
      "byteOffset": 5280,
      "componentType": 5126,
      "count": 4,
      "max": [
        1.0,
        1.0,
        1.0
      ],
      "min": [
        1.0,
        0.9999999403953552,
        1.0
      ],
      "type": "VEC3"
    },
    {
      "bufferView": 6,
      "byteOffset": 3552,
      "componentType": 5126,
      "count": 68,
      "max": [
        1.4166666269302368
      ],
      "min": [
        0.0
      ],
      "type": "SCALAR"
    },
    {
      "bufferView": 8,
      "byteOffset": 7104,
      "componentType": 5126,
      "count": 68,
      "max": [
        -0.361181378364563,
        -2.8712120681007036e-08,
        9.214009821789659e-08,
        0.9324955940246582
      ],
      "min": [
        -0.4051702320575714,
        -3.7354716653226205e-08,
        7.467777152214694e-08,
        0.9142412543296814
      ],
      "type": "VEC4"
    },
    {
      "bufferView": 6,
      "byteOffset": 3824,
      "componentType": 5126,
      "count": 68,
      "max": [
        1.4166666269302368
      ],
      "min": [
        0.0
      ],
      "type": "SCALAR"
    },
    {
      "bufferView": 7,
      "byteOffset": 5328,
      "componentType": 5126,
      "count": 68,
      "max": [
        -8.88178366760566e-16,
        0.06688240170478821,
        8.940696716308594e-08
      ],
      "min": [
        -7.993605777301127e-15,
        0.06688234210014343,
        2.9802322387695313e-08
      ],
      "type": "VEC3"
    },
    {
      "bufferView": 6,
      "byteOffset": 4096,
      "componentType": 5126,
      "count": 4,
      "max": [
        1.4166666269302368
      ],
      "min": [
        0.0
      ],
      "type": "SCALAR"
    },
    {
      "bufferView": 7,
      "byteOffset": 6144,
      "componentType": 5126,
      "count": 4,
      "max": [
        1.0,
        1.0000001192092896,
        0.9999999403953552
      ],
      "min": [
        1.0,
        1.0,
        0.9999999403953552
      ],
      "type": "VEC3"
    },
    {
      "bufferView": 6,
      "byteOffset": 4112,
      "componentType": 5126,
      "count": 68,
      "max": [
        1.4166666269302368
      ],
      "min": [
        0.0
      ],
      "type": "SCALAR"
    },
    {
      "bufferView": 8,
      "byteOffset": 8192,
      "componentType": 5126,
      "count": 68,
      "max": [
        -0.07667191326618195,
        7.190343875862482e-10,
        -2.6243760942179506e-08,
        0.9970563650131226
      ],
      "min": [
        -0.08134893327951431,
        5.028146787822152e-10,
        -2.7930402879405847e-08,
        0.9966856837272644
      ],
      "type": "VEC4"
    },
    {
      "bufferView": 6,
      "byteOffset": 4384,
      "componentType": 5126,
      "count": 4,
      "max": [
        1.4166666269302368
      ],
      "min": [
        0.0
      ],
      "type": "SCALAR"
    },
    {
      "bufferView": 7,
      "byteOffset": 6192,
      "componentType": 5126,
      "count": 4,
      "max": [
        1.0,
        1.0,
        1.0
      ],
      "min": [
        1.0,
        0.9999999403953552,
        1.0
      ],
      "type": "VEC3"
    },
    {
      "bufferView": 6,
      "byteOffset": 4400,
      "componentType": 5126,
      "count": 68,
      "max": [
        1.4166666269302368
      ],
      "min": [
        0.0
      ],
      "type": "SCALAR"
    },
    {
      "bufferView": 8,
      "byteOffset": 9280,
      "componentType": 5126,
      "count": 68,
      "max": [
        -0.2318403720855713,
        3.2282454753840284e-07,
        6.993579404479533e-08,
        0.9727538228034973
      ],
      "min": [
        -0.27546894550323486,
        3.0843142440062365e-07,
        2.7108431055467008e-08,
        0.9613099694252014
      ],
      "type": "VEC4"
    },
    {
      "bufferView": 6,
      "byteOffset": 4672,
      "componentType": 5126,
      "count": 1,
      "max": [
        0.0
      ],
      "min": [
        0.0
      ],
      "type": "SCALAR"
    },
    {
      "bufferView": 7,
      "byteOffset": 6240,
      "componentType": 5126,
      "count": 1,
      "max": [
        0.059599973261356354,
        0.14824648201465607,
        -0.040769387036561966
      ],
      "min": [
        0.059599973261356354,
        0.14824648201465607,
        -0.040769387036561966
      ],
      "type": "VEC3"
    },
    {
      "bufferView": 6,
      "byteOffset": 4676,
      "componentType": 5126,
      "count": 1,
      "max": [
        0.0
      ],
      "min": [
        0.0
      ],
      "type": "SCALAR"
    },
    {
      "bufferView": 8,
      "byteOffset": 10368,
      "componentType": 5126,
      "count": 1,
      "max": [
        -0.007680505979806185,
        0.8366637229919434,
        -0.5476506352424622,
        0.0036892269272357225
      ],
      "min": [
        -0.007680505979806185,
        0.8366637229919434,
        -0.5476506352424622,
        0.0036892269272357225
      ],
      "type": "VEC4"
    },
    {
      "bufferView": 6,
      "byteOffset": 4680,
      "componentType": 5126,
      "count": 1,
      "max": [
        0.0
      ],
      "min": [
        0.0
      ],
      "type": "SCALAR"
    },
    {
      "bufferView": 8,
      "byteOffset": 10384,
      "componentType": 5126,
      "count": 1,
      "max": [
        -0.1381673663854599,
        -0.024510489776730537,
        0.013711642473936081,
        0.9900106191635132
      ],
      "min": [
        -0.1381673663854599,
        -0.024510489776730537,
        0.013711642473936081,
        0.9900106191635132
      ],
      "type": "VEC4"
    },
    {
      "bufferView": 6,
      "byteOffset": 4684,
      "componentType": 5126,
      "count": 1,
      "max": [
        0.0
      ],
      "min": [
        0.0
      ],
      "type": "SCALAR"
    },
    {
      "bufferView": 8,
      "byteOffset": 10400,
      "componentType": 5126,
      "count": 1,
      "max": [
        -0.15743136405944824,
        0.014844448305666447,
        -0.027462689206004143,
        0.9870363473892212
      ],
      "min": [
        -0.15743136405944824,
        0.014844448305666447,
        -0.027462689206004143,
        0.9870363473892212
      ],
      "type": "VEC4"
    },
    {
      "bufferView": 6,
      "byteOffset": 4688,
      "componentType": 5126,
      "count": 1,
      "max": [
        0.0
      ],
      "min": [
        0.0
      ],
      "type": "SCALAR"
    },
    {
      "bufferView": 8,
      "byteOffset": 10416,
      "componentType": 5126,
      "count": 1,
      "max": [
        0.43968039751052856,
        0.04256453365087509,
        -0.13671718537807465,
        0.8866667151451111
      ],
      "min": [
        0.43968039751052856,
        0.04256453365087509,
        -0.13671718537807465,
        0.8866667151451111
      ],
      "type": "VEC4"
    },
    {
      "bufferView": 6,
      "byteOffset": 4692,
      "componentType": 5126,
      "count": 1,
      "max": [
        0.0
      ],
      "min": [
        0.0
      ],
      "type": "SCALAR"
    },
    {
      "bufferView": 7,
      "byteOffset": 6252,
      "componentType": 5126,
      "count": 1,
      "max": [
        -0.05959995836019516,
        0.25675538182258606,
        -0.032739054411649704
      ],
      "min": [
        -0.05959995836019516,
        0.25675538182258606,
        -0.032739054411649704
      ],
      "type": "VEC3"
    },
    {
      "bufferView": 6,
      "byteOffset": 4696,
      "componentType": 5126,
      "count": 1,
      "max": [
        0.0
      ],
      "min": [
        0.0
      ],
      "type": "SCALAR"
    },
    {
      "bufferView": 8,
      "byteOffset": 10432,
      "componentType": 5126,
      "count": 1,
      "max": [
        0.4218839704990387,
        -0.13358940184116364,
        0.05154672637581825,
        0.8952713012695313
      ],
      "min": [
        0.4218839704990387,
        -0.13358940184116364,
        0.05154672637581825,
        0.8952713012695313
      ],
      "type": "VEC4"
    },
    {
      "bufferView": 6,
      "byteOffset": 4700,
      "componentType": 5126,
      "count": 68,
      "max": [
        1.4166666269302368
      ],
      "min": [
        0.0
      ],
      "type": "SCALAR"
    },
    {
      "bufferView": 7,
      "byteOffset": 6264,
      "componentType": 5126,
      "count": 68,
      "max": [
        0.034000080078840256,
        0.08726926892995834,
        0.07822779566049576
      ],
      "min": [
        0.03400002419948578,
        0.08365994691848755,
        0.01138260867446661
      ],
      "type": "VEC3"
    },
    {
      "bufferView": 6,
      "byteOffset": 4972,
      "componentType": 5126,
      "count": 68,
      "max": [
        1.4166666269302368
      ],
      "min": [
        0.0
      ],
      "type": "SCALAR"
    },
    {
      "bufferView": 7,
      "byteOffset": 7080,
      "componentType": 5126,
      "count": 68,
      "max": [
        -0.033999938517808914,
        0.08726926892995834,
        0.07822784036397934
      ],
      "min": [
        -0.03399999439716339,
        0.08365994691848755,
        0.01138265524059534
      ],
      "type": "VEC3"
    },
    {
      "bufferView": 6,
      "byteOffset": 5244,
      "componentType": 5126,
      "count": 1,
      "max": [
        0.0
      ],
      "min": [
        0.0
      ],
      "type": "SCALAR"
    },
    {
      "bufferView": 8,
      "byteOffset": 10448,
      "componentType": 5126,
      "count": 1,
      "max": [
        -0.001663639908656478,
        0.8456268906593323,
        -0.53375643491745,
        0.004059573169797659
      ],
      "min": [
        -0.001663639908656478,
        0.8456268906593323,
        -0.53375643491745,
        0.004059573169797659
      ],
      "type": "VEC4"
    },
    {
      "bufferView": 6,
      "byteOffset": 5248,
      "componentType": 5126,
      "count": 1,
      "max": [
        0.0
      ],
      "min": [
        0.0
      ],
      "type": "SCALAR"
    },
    {
      "bufferView": 8,
      "byteOffset": 10464,
      "componentType": 5126,
      "count": 1,
      "max": [
        -0.36597397923469543,
        -0.022522184997797012,
        0.014938405714929104,
        0.930232584476471
      ],
      "min": [
        -0.36597397923469543,
        -0.022522184997797012,
        0.014938405714929104,
        0.930232584476471
      ],
      "type": "VEC4"
    },
    {
      "bufferView": 6,
      "byteOffset": 5252,
      "componentType": 5126,
      "count": 1,
      "max": [
        0.0
      ],
      "min": [
        0.0
      ],
      "type": "SCALAR"
    },
    {
      "bufferView": 8,
      "byteOffset": 10480,
      "componentType": 5126,
      "count": 1,
      "max": [
        0.3144415318965912,
        0.0007955895271152258,
        -0.04359273985028267,
        0.9482750296592712
      ],
      "min": [
        0.3144415318965912,
        0.0007955895271152258,
        -0.04359273985028267,
        0.9482750296592712
      ],
      "type": "VEC4"
    },
    {
      "bufferView": 6,
      "byteOffset": 5256,
      "componentType": 5126,
      "count": 1,
      "max": [
        0.0
      ],
      "min": [
        0.0
      ],
      "type": "SCALAR"
    },
    {
      "bufferView": 8,
      "byteOffset": 10496,
      "componentType": 5126,
      "count": 1,
      "max": [
        0.5907585620880127,
        -0.001127242692746222,
        0.017777863889932632,
        0.8066517114639282
      ],
      "min": [
        0.5907585620880127,
        -0.001127242692746222,
        0.017777863889932632,
        0.8066517114639282
      ],
      "type": "VEC4"
    },
    {
      "bufferView": 6,
      "byteOffset": 5260,
      "componentType": 5126,
      "count": 1,
      "max": [
        0.0
      ],
      "min": [
        0.0
      ],
      "type": "SCALAR"
    },
    {
      "bufferView": 8,
      "byteOffset": 10512,
      "componentType": 5126,
      "count": 1,
      "max": [
        -0.5,
        -0.5,
        -0.5,
        0.5
      ],
      "min": [
        -0.5,
        -0.5,
        -0.5,
        0.5
      ],
      "type": "VEC4"
    },
    {
      "bufferView": 6,
      "byteOffset": 5264,
      "componentType": 5126,
      "count": 17,
      "max": [
        0.5416666865348816
      ],
      "min": [
        0.0
      ],
      "type": "SCALAR"
    },
    {
      "bufferView": 8,
      "byteOffset": 10528,
      "componentType": 5126,
      "count": 17,
      "max": [
        0.2658337354660034,
        -0.00048562209121882915,
        0.00033300515497103333,
        0.964018702507019
      ],
      "min": [
        0.2658337354660034,
        -0.00048562209121882915,
        0.00033300515497103333,
        0.964018702507019
      ],
      "type": "VEC4"
    },
    {
      "bufferView": 6,
      "byteOffset": 5332,
      "componentType": 5126,
      "count": 26,
      "max": [
        0.5416666865348816
      ],
      "min": [
        0.0
      ],
      "type": "SCALAR"
    },
    {
      "bufferView": 8,
      "byteOffset": 10800,
      "componentType": 5126,
      "count": 26,
      "max": [
        0.1270398199558258,
        0.006007752846926451,
        0.0461728498339653,
        0.9919856786727905
      ],
      "min": [
        0.1253223717212677,
        -0.007425935938954353,
        -0.051603831350803375,
        0.9907549023628235
      ],
      "type": "VEC4"
    },
    {
      "bufferView": 6,
      "byteOffset": 5436,
      "componentType": 5126,
      "count": 26,
      "max": [
        0.5416666865348816
      ],
      "min": [
        0.0
      ],
      "type": "SCALAR"
    },
    {
      "bufferView": 8,
      "byteOffset": 11216,
      "componentType": 5126,
      "count": 26,
      "max": [
        -0.4135919213294983,
        0.024631310254335403,
        0.101515032351017,
        0.9091020226478577
      ],
      "min": [
        -0.41687461733818054,
        -0.030641023069620132,
        -0.11247818917036057,
        0.9023285508155823
      ],
      "type": "VEC4"
    },
    {
      "bufferView": 6,
      "byteOffset": 5540,
      "componentType": 5126,
      "count": 26,
      "max": [
        0.5416666865348816
      ],
      "min": [
        0.0
      ],
      "type": "SCALAR"
    },
    {
      "bufferView": 8,
      "byteOffset": 11632,
      "componentType": 5126,
      "count": 26,
      "max": [
        0.08380655944347382,
        -0.12510895729064941,
        0.9913724660873413,
        0.1468069702386856
      ],
      "min": [
        -0.07659362256526947,
        -0.13508036732673645,
        0.9763081073760986,
        -0.12685611844062805
      ],
      "type": "VEC4"
    },
    {
      "bufferView": 6,
      "byteOffset": 5644,
      "componentType": 5126,
      "count": 16,
      "max": [
        0.5416666865348816
      ],
      "min": [
        0.0
      ],
      "type": "SCALAR"
    },
    {
      "bufferView": 7,
      "byteOffset": 7896,
      "componentType": 5126,
      "count": 16,
      "max": [
        -2.131622786269438e-14,
        0.07349784672260284,
        -1.0430815677864302e-07
      ],
      "min": [
        -2.1316295625330162e-14,
        0.07349784672260284,
        -1.0430815677864302e-07
      ],
      "type": "VEC3"
    },
    {
      "bufferView": 6,
      "byteOffset": 5708,
      "componentType": 5126,
      "count": 17,
      "max": [
        0.5416666865348816
      ],
      "min": [
        0.0
      ],
      "type": "SCALAR"
    },
    {
      "bufferView": 8,
      "byteOffset": 12048,
      "componentType": 5126,
      "count": 17,
      "max": [
        -0.0029284486081451178,
        7.334415386139881e-08,
        -2.785051078646461e-09,
        0.9999957084655762
      ],
      "min": [
        -0.0029284486081451178,
        7.334415386139881e-08,
        -2.785051078646461e-09,
        0.9999957084655762
      ],
      "type": "VEC4"
    },
    {
      "bufferView": 6,
      "byteOffset": 5776,
      "componentType": 5126,
      "count": 12,
      "max": [
        0.5416666865348816
      ],
      "min": [
        0.0
      ],
      "type": "SCALAR"
    },
    {
      "bufferView": 7,
      "byteOffset": 8088,
      "componentType": 5126,
      "count": 12,
      "max": [
        1.1723963271557947e-13,
        0.11498931050300598,
        -3.725296693346536e-08
      ],
      "min": [
        1.1723955140041653e-13,
        0.11498931050300598,
        -3.725296693346536e-08
      ],
      "type": "VEC3"
    },
    {
      "bufferView": 6,
      "byteOffset": 5824,
      "componentType": 5126,
      "count": 17,
      "max": [
        0.5416666865348816
      ],
      "min": [
        0.0
      ],
      "type": "SCALAR"
    },
    {
      "bufferView": 8,
      "byteOffset": 12320,
      "componentType": 5126,
      "count": 17,
      "max": [
        0.0018449272029101849,
        -4.47217047394588e-07,
        2.4438173706897715e-09,
        0.9999982714653015
      ],
      "min": [
        0.0018449272029101849,
        -4.47217047394588e-07,
        2.4438173706897715e-09,
        0.9999982714653015
      ],
      "type": "VEC4"
    },
    {
      "bufferView": 6,
      "byteOffset": 5892,
      "componentType": 5126,
      "count": 17,
      "max": [
        0.5416666865348816
      ],
      "min": [
        0.0
      ],
      "type": "SCALAR"
    },
    {
      "bufferView": 8,
      "byteOffset": 12592,
      "componentType": 5126,
      "count": 17,
      "max": [
        0.7184798717498779,
        5.037352934778028e-07,
        4.4258749198888836e-07,
        0.6955477595329285
      ],
      "min": [
        0.7184798717498779,
        5.037352934778028e-07,
        4.4258749198888836e-07,
        0.6955477595329285
      ],
      "type": "VEC4"
    },
    {
      "bufferView": 6,
      "byteOffset": 5960,
      "componentType": 5126,
      "count": 26,
      "max": [
        0.5416666865348816
      ],
      "min": [
        0.0
      ],
      "type": "SCALAR"
    },
    {
      "bufferView": 7,
      "byteOffset": 8232,
      "componentType": 5126,
      "count": 26,
      "max": [
        3.552781441436281e-15,
        0.4139392375946045,
        1.4901166522918174e-08
      ],
      "min": [
        3.5526865737461888e-15,
        0.4139392375946045,
        1.4901166522918174e-08
      ],
      "type": "VEC3"
    },
    {
      "bufferView": 6,
      "byteOffset": 6064,
      "componentType": 5126,
      "count": 26,
      "max": [
        0.5416666865348816
      ],
      "min": [
        0.0
      ],
      "type": "SCALAR"
    },
    {
      "bufferView": 8,
      "byteOffset": 12864,
      "componentType": 5126,
      "count": 26,
      "max": [
        0.7289167046546936,
        2.7428954126662575e-05,
        -1.6809939040740574e-07,
        0.7028077840805054
      ],
      "min": [
        0.7113797664642334,
        -7.79334907718976e-09,
        -2.6958850867231376e-05,
        0.6846023797988892
      ],
      "type": "VEC4"
    },
    {
      "bufferView": 6,
      "byteOffset": 6168,
      "componentType": 5126,
      "count": 24,
      "max": [
        0.5416666865348816
      ],
      "min": [
        0.0
      ],
      "type": "SCALAR"
    },
    {
      "bufferView": 7,
      "byteOffset": 8544,
      "componentType": 5126,
      "count": 24,
      "max": [
        -1.3322540770230318e-15,
        0.06691381335258484,
        -4.842877388000488e-08
      ],
      "min": [
        -1.3322947346045e-15,
        0.06691381335258484,
        -4.842877388000488e-08
      ],
      "type": "VEC3"
    },
    {
      "bufferView": 6,
      "byteOffset": 6264,
      "componentType": 5126,
      "count": 26,
      "max": [
        0.5416666865348816
      ],
      "min": [
        0.0
      ],
      "type": "SCALAR"
    },
    {
      "bufferView": 8,
      "byteOffset": 13280,
      "componentType": 5126,
      "count": 26,
      "max": [
        -0.6305705308914185,
        -3.314517726948907e-08,
        1.014514268149469e-07,
        0.7761319279670715
      ],
      "min": [
        -0.6329193711280823,
        -8.364814902961371e-07,
        -6.140995537862182e-05,
        0.7742177248001099
      ],
      "type": "VEC4"
    },
    {
      "bufferView": 6,
      "byteOffset": 6368,
      "componentType": 5126,
      "count": 24,
      "max": [
        0.5416666865348816
      ],
      "min": [
        0.0
      ],
      "type": "SCALAR"
    },
    {
      "bufferView": 7,
      "byteOffset": 8832,
      "componentType": 5126,
      "count": 24,
      "max": [
        -1.3322608532866098e-15,
        0.06688236445188522,
        4.0978193283081055e-08
      ],
      "min": [
        -1.3322744058137659e-15,
        0.06688236445188522,
        4.0978193283081055e-08
      ],
      "type": "VEC3"
    },
    {
      "bufferView": 6,
      "byteOffset": 6464,
      "componentType": 5126,
      "count": 26,
      "max": [
        0.5416666865348816
      ],
      "min": [
        0.0
      ],
      "type": "SCALAR"
    },
    {
      "bufferView": 8,
      "byteOffset": 13696,
      "componentType": 5126,
      "count": 26,
      "max": [
        -0.10093161463737488,
        3.962756234265896e-10,
        1.2137236105047577e-08,
        0.9948933720588684
      ],
      "min": [
        -0.10173875838518143,
        -4.4998087105341256e-05,
        -5.1126251491950825e-05,
        0.9948111772537231
      ],
      "type": "VEC4"
    },
    {
      "bufferView": 6,
      "byteOffset": 6568,
      "componentType": 5126,
      "count": 26,
      "max": [
        0.5416666865348816
      ],
      "min": [
        0.0
      ],
      "type": "SCALAR"
    },
    {
      "bufferView": 8,
      "byteOffset": 14112,
      "componentType": 5126,
      "count": 26,
      "max": [
        0.020911261439323425,
        3.370952583736653e-07,
        -1.608380983952884e-08,
        0.9998877048492432
      ],
      "min": [
        0.014987434260547161,
        -4.844069553655572e-05,
        -5.5899752624100074e-05,
        0.9997813105583191
      ],
      "type": "VEC4"
    },
    {
      "bufferView": 6,
      "byteOffset": 6672,
      "componentType": 5126,
      "count": 1,
      "max": [
        0.0
      ],
      "min": [
        0.0
      ],
      "type": "SCALAR"
    },
    {
      "bufferView": 8,
      "byteOffset": 14528,
      "componentType": 5126,
      "count": 1,
      "max": [
        -0.5,
        -0.5,
        -0.5,
        0.5
      ],
      "min": [
        -0.5,
        -0.5,
        -0.5,
        0.5
      ],
      "type": "VEC4"
    }
  ],
  "animations": [
    {
      "channels": [
        {
          "sampler": 0,
          "target": {
            "node": 11,
            "path": "translation"
          }
        },
        {
          "sampler": 1,
          "target": {
            "node": 11,
            "path": "scale"
          }
        },
        {
          "sampler": 2,
          "target": {
            "node": 11,
            "path": "rotation"
          }
        },
        {
          "sampler": 3,
          "target": {
            "node": 10,
            "path": "translation"
          }
        },
        {
          "sampler": 4,
          "target": {
            "node": 10,
            "path": "scale"
          }
        },
        {
          "sampler": 5,
          "target": {
            "node": 10,
            "path": "rotation"
          }
        },
        {
          "sampler": 6,
          "target": {
            "node": 9,
            "path": "translation"
          }
        },
        {
          "sampler": 7,
          "target": {
            "node": 9,
            "path": "scale"
          }
        },
        {
          "sampler": 8,
          "target": {
            "node": 9,
            "path": "rotation"
          }
        },
        {
          "sampler": 9,
          "target": {
            "node": 8,
            "path": "scale"
          }
        },
        {
          "sampler": 10,
          "target": {
            "node": 8,
            "path": "rotation"
          }
        },
        {
          "sampler": 11,
          "target": {
            "node": 22,
            "path": "translation"
          }
        },
        {
          "sampler": 12,
          "target": {
            "node": 22,
            "path": "scale"
          }
        },
        {
          "sampler": 13,
          "target": {
            "node": 22,
            "path": "rotation"
          }
        },
        {
          "sampler": 14,
          "target": {
            "node": 21,
            "path": "translation"
          }
        },
        {
          "sampler": 15,
          "target": {
            "node": 21,
            "path": "scale"
          }
        },
        {
          "sampler": 16,
          "target": {
            "node": 21,
            "path": "rotation"
          }
        },
        {
          "sampler": 17,
          "target": {
            "node": 20,
            "path": "translation"
          }
        },
        {
          "sampler": 18,
          "target": {
            "node": 20,
            "path": "scale"
          }
        },
        {
          "sampler": 19,
          "target": {
            "node": 20,
            "path": "rotation"
          }
        },
        {
          "sampler": 20,
          "target": {
            "node": 24,
            "path": "translation"
          }
        },
        {
          "sampler": 21,
          "target": {
            "node": 24,
            "path": "rotation"
          }
        },
        {
          "sampler": 22,
          "target": {
            "node": 19,
            "path": "translation"
          }
        },
        {
          "sampler": 23,
          "target": {
            "node": 19,
            "path": "scale"
          }
        },
        {
          "sampler": 24,
          "target": {
            "node": 19,
            "path": "rotation"
          }
        },
        {
          "sampler": 25,
          "target": {
            "node": 18,
            "path": "translation"
          }
        },
        {
          "sampler": 26,
          "target": {
            "node": 18,
            "path": "scale"
          }
        },
        {
          "sampler": 27,
          "target": {
            "node": 18,
            "path": "rotation"
          }
        },
        {
          "sampler": 28,
          "target": {
            "node": 17,
            "path": "scale"
          }
        },
        {
          "sampler": 29,
          "target": {
            "node": 17,
            "path": "rotation"
          }
        },
        {
          "sampler": 30,
          "target": {
            "node": 26,
            "path": "translation"
          }
        },
        {
          "sampler": 31,
          "target": {
            "node": 36,
            "path": "rotation"
          }
        },
        {
          "sampler": 32,
          "target": {
            "node": 35,
            "path": "rotation"
          }
        },
        {
          "sampler": 33,
          "target": {
            "node": 34,
            "path": "rotation"
          }
        },
        {
          "sampler": 34,
          "target": {
            "node": 33,
            "path": "rotation"
          }
        },
        {
          "sampler": 35,
          "target": {
            "node": 32,
            "path": "translation"
          }
        },
        {
          "sampler": 36,
          "target": {
            "node": 32,
            "path": "rotation"
          }
        },
        {
          "sampler": 37,
          "target": {
            "node": 38,
            "path": "translation"
          }
        },
        {
          "sampler": 38,
          "target": {
            "node": 40,
            "path": "translation"
          }
        },
        {
          "sampler": 39,
          "target": {
            "node": 54,
            "path": "rotation"
          }
        },
        {
          "sampler": 40,
          "target": {
            "node": 53,
            "path": "rotation"
          }
        },
        {
          "sampler": 41,
          "target": {
            "node": 52,
            "path": "rotation"
          }
        },
        {
          "sampler": 42,
          "target": {
            "node": 51,
            "path": "rotation"
          }
        },
        {
          "sampler": 43,
          "target": {
            "node": 4,
            "path": "rotation"
          }
        }
      ],
      "name": "metarig|metarig.001Action",
      "samplers": [
        {
          "input": 7,
          "interpolation": "LINEAR",
          "output": 8
        },
        {
          "input": 9,
          "interpolation": "LINEAR",
          "output": 10
        },
        {
          "input": 11,
          "interpolation": "LINEAR",
          "output": 12
        },
        {
          "input": 13,
          "interpolation": "LINEAR",
          "output": 14
        },
        {
          "input": 15,
          "interpolation": "LINEAR",
          "output": 16
        },
        {
          "input": 17,
          "interpolation": "LINEAR",
          "output": 18
        },
        {
          "input": 19,
          "interpolation": "LINEAR",
          "output": 20
        },
        {
          "input": 21,
          "interpolation": "LINEAR",
          "output": 22
        },
        {
          "input": 23,
          "interpolation": "LINEAR",
          "output": 24
        },
        {
          "input": 25,
          "interpolation": "LINEAR",
          "output": 26
        },
        {
          "input": 27,
          "interpolation": "LINEAR",
          "output": 28
        },
        {
          "input": 29,
          "interpolation": "LINEAR",
          "output": 30
        },
        {
          "input": 31,
          "interpolation": "LINEAR",
          "output": 32
        },
        {
          "input": 33,
          "interpolation": "LINEAR",
          "output": 34
        },
        {
          "input": 35,
          "interpolation": "LINEAR",
          "output": 36
        },
        {
          "input": 37,
          "interpolation": "LINEAR",
          "output": 38
        },
        {
          "input": 39,
          "interpolation": "LINEAR",
          "output": 40
        },
        {
          "input": 41,
          "interpolation": "LINEAR",
          "output": 42
        },
        {
          "input": 43,
          "interpolation": "LINEAR",
          "output": 44
        },
        {
          "input": 45,
          "interpolation": "LINEAR",
          "output": 46
        },
        {
          "input": 47,
          "interpolation": "LINEAR",
          "output": 48
        },
        {
          "input": 49,
          "interpolation": "LINEAR",
          "output": 50
        },
        {
          "input": 51,
          "interpolation": "LINEAR",
          "output": 52
        },
        {
          "input": 53,
          "interpolation": "LINEAR",
          "output": 54
        },
        {
          "input": 55,
          "interpolation": "LINEAR",
          "output": 56
        },
        {
          "input": 57,
          "interpolation": "LINEAR",
          "output": 58
        },
        {
          "input": 59,
          "interpolation": "LINEAR",
          "output": 60
        },
        {
          "input": 61,
          "interpolation": "LINEAR",
          "output": 62
        },
        {
          "input": 63,
          "interpolation": "LINEAR",
          "output": 64
        },
        {
          "input": 65,
          "interpolation": "LINEAR",
          "output": 66
        },
        {
          "input": 67,
          "interpolation": "LINEAR",
          "output": 68
        },
        {
          "input": 69,
          "interpolation": "LINEAR",
          "output": 70
        },
        {
          "input": 71,
          "interpolation": "LINEAR",
          "output": 72
        },
        {
          "input": 73,
          "interpolation": "LINEAR",
          "output": 74
        },
        {
          "input": 75,
          "interpolation": "LINEAR",
          "output": 76
        },
        {
          "input": 77,
          "interpolation": "LINEAR",
          "output": 78
        },
        {
          "input": 79,
          "interpolation": "LINEAR",
          "output": 80
        },
        {
          "input": 81,
          "interpolation": "LINEAR",
          "output": 82
        },
        {
          "input": 83,
          "interpolation": "LINEAR",
          "output": 84
        },
        {
          "input": 85,
          "interpolation": "LINEAR",
          "output": 86
        },
        {
          "input": 87,
          "interpolation": "LINEAR",
          "output": 88
        },
        {
          "input": 89,
          "interpolation": "LINEAR",
          "output": 90
        },
        {
          "input": 91,
          "interpolation": "LINEAR",
          "output": 92
        },
        {
          "input": 93,
          "interpolation": "LINEAR",
          "output": 94
        }
      ]
    },
    {
      "channels": [
        {
          "sampler": 0,
          "target": {
            "node": 11,
            "path": "rotation"
          }
        },
        {
          "sampler": 1,
          "target": {
            "node": 10,
            "path": "rotation"
          }
        },
        {
          "sampler": 2,
          "target": {
            "node": 9,
            "path": "rotation"
          }
        },
        {
          "sampler": 3,
          "target": {
            "node": 8,
            "path": "rotation"
          }
        },
        {
          "sampler": 4,
          "target": {
            "node": 22,
            "path": "translation"
          }
        },
        {
          "sampler": 5,
          "target": {
            "node": 22,
            "path": "rotation"
          }
        },
        {
          "sampler": 6,
          "target": {
            "node": 21,
            "path": "translation"
          }
        },
        {
          "sampler": 7,
          "target": {
            "node": 21,
            "path": "rotation"
          }
        },
        {
          "sampler": 8,
          "target": {
            "node": 20,
            "path": "rotation"
          }
        },
        {
          "sampler": 9,
          "target": {
            "node": 24,
            "path": "translation"
          }
        },
        {
          "sampler": 10,
          "target": {
            "node": 24,
            "path": "rotation"
          }
        },
        {
          "sampler": 11,
          "target": {
            "node": 19,
            "path": "translation"
          }
        },
        {
          "sampler": 12,
          "target": {
            "node": 19,
            "path": "rotation"
          }
        },
        {
          "sampler": 13,
          "target": {
            "node": 18,
            "path": "translation"
          }
        },
        {
          "sampler": 14,
          "target": {
            "node": 18,
            "path": "rotation"
          }
        },
        {
          "sampler": 15,
          "target": {
            "node": 17,
            "path": "rotation"
          }
        },
        {
          "sampler": 16,
          "target": {
            "node": 4,
            "path": "rotation"
          }
        }
      ],
      "name": "metarig|metarigAction",
      "samplers": [
        {
          "input": 95,
          "interpolation": "LINEAR",
          "output": 96
        },
        {
          "input": 97,
          "interpolation": "LINEAR",
          "output": 98
        },
        {
          "input": 99,
          "interpolation": "LINEAR",
          "output": 100
        },
        {
          "input": 101,
          "interpolation": "LINEAR",
          "output": 102
        },
        {
          "input": 103,
          "interpolation": "LINEAR",
          "output": 104
        },
        {
          "input": 105,
          "interpolation": "LINEAR",
          "output": 106
        },
        {
          "input": 107,
          "interpolation": "LINEAR",
          "output": 108
        },
        {
          "input": 109,
          "interpolation": "LINEAR",
          "output": 110
        },
        {
          "input": 111,
          "interpolation": "LINEAR",
          "output": 112
        },
        {
          "input": 113,
          "interpolation": "LINEAR",
          "output": 114
        },
        {
          "input": 115,
          "interpolation": "LINEAR",
          "output": 116
        },
        {
          "input": 117,
          "interpolation": "LINEAR",
          "output": 118
        },
        {
          "input": 119,
          "interpolation": "LINEAR",
          "output": 120
        },
        {
          "input": 121,
          "interpolation": "LINEAR",
          "output": 122
        },
        {
          "input": 123,
          "interpolation": "LINEAR",
          "output": 124
        },
        {
          "input": 125,
          "interpolation": "LINEAR",
          "output": 126
        },
        {
          "input": 127,
          "interpolation": "LINEAR",
          "output": 128
        }
      ]
    }
  ],
  "asset": {
    "extras": {
      "author": "victory_mirosya (https://sketchfab.com/victory_mirosya)",
      "license": "CC-BY-4.0 (http://creativecommons.org/licenses/by/4.0/)",
      "source": "https://sketchfab.com/3d-models/dog-747ddf0ca12e4bc882a93c8d09ccbfc7",
      "title": "Dog"
    },
    "generator": "Sketchfab-13.0.0",
    "version": "2.0"
  },
  "bufferViews": [
    {
      "buffer": 0,
      "byteLength": 5424,
      "byteStride": 8,
      "name": "shortBufferViews",
      "target": 34962
    },
    {
      "buffer": 0,
      "byteLength": 9888,
      "byteOffset": 5424,
      "name": "floatBufferViews",
      "target": 34963
    },
    {
      "buffer": 0,
      "byteLength": 5424,
      "byteOffset": 15312,
      "byteStride": 8,
      "name": "floatBufferViews",
      "target": 34962
    },
    {
      "buffer": 0,
      "byteLength": 16272,
      "byteOffset": 20736,
      "byteStride": 12,
      "name": "floatBufferViews",
      "target": 34962
    },
    {
      "buffer": 0,
      "byteLength": 10848,
      "byteOffset": 37008,
      "byteStride": 16,
      "name": "floatBufferViews",
      "target": 34962
    },
    {
      "buffer": 0,
      "byteLength": 3200,
      "byteOffset": 47856,
      "name": "floatBufferViews"
    },
    {
      "buffer": 0,
      "byteLength": 6676,
      "byteOffset": 51056,
      "name": "floatBufferViews"
    },
    {
      "buffer": 0,
      "byteLength": 9120,
      "byteOffset": 57732,
      "byteStride": 12,
      "name": "floatBufferViews"
    },
    {
      "buffer": 0,
      "byteLength": 14544,
      "byteOffset": 66852,
      "byteStride": 16,
      "name": "floatBufferViews"
    }
  ],
  "buffers": [
    {
      "byteLength": 81396,
      "uri": "scene.bin"
    }
  ],
  "extensionsUsed": [
    "KHR_materials_unlit"
  ],
  "images": [
    {
      "uri": "textures/Material.001_baseColor.png"
    }
  ],
  "materials": [
    {
      "doubleSided": true,
      "extensions": {
        "KHR_materials_unlit": {}
      },
      "name": "Material.001",
      "pbrMetallicRoughness": {
        "baseColorTexture": {
          "index": 0
        },
        "metallicFactor": 0.0
      }
    }
  ],
  "meshes": [
    {
      "name": "Plane_Material.001_0",
      "primitives": [
        {
          "attributes": {
            "JOINTS_0": 5,
            "NORMAL": 1,
            "POSITION": 0,
            "TEXCOORD_0": 2,
            "WEIGHTS_0": 6
          },
          "indices": 3,
          "material": 0,
          "mode": 4
        }
      ]
    }
  ],
  "nodes": [
    {
      "children": [
        1
      ],
      "matrix": [
        1.0,
        0.0,
        0.0,
        0.0,
        0.0,
        2.220446049250313e-16,
        -1.0,
        0.0,
        0.0,
        1.0,
        2.220446049250313e-16,
        0.0,
        0.0,
        0.0,
        0.0,
        1.0
      ],
      "name": "Sketchfab_model"
    },
    {
      "children": [
        2
      ],
      "matrix": [
        0.009999999776482582,
        0.0,
        0.0,
        0.0,
        0.0,
        0.0,
        0.009999999776482582,
        0.0,
        0.0,
        -0.009999999776482582,
        0.0,
        0.0,
        0.0,
        0.0,
        0.0,
        1.0
      ],
      "name": "6831a762046f4f5e9c0f22a119264944.fbx"
    },
    {
      "children": [
        3
      ],
      "name": "Object_2"
    },
    {
      "children": [
        4,
        58
      ],
      "name": "RootNode"
    },
    {
      "children": [
        5
      ],
      "name": "metarig",
      "rotation": [
        0.5,
        0.4999999701976776,
        0.5,
        -0.5
      ],
      "scale": [
        196.2333526611328,
        196.2333526611328,
        196.2333526611328
      ],
      "translation": [
        38.6340217590332,
        -131.9995880126953,
        1.7735308574629016e-05
      ]
    },
    {
      "children": [
        6,
        57,
        56
      ],
      "name": "Object_5"
    },
    {
      "children": [
        7
      ],
      "name": "_rootJoint"
    },
    {
      "children": [
        8,
        13
      ],
      "name": "spine.004_01",
      "rotation": [
        3.2925925097515574e-07,
        -0.026476269587874413,
        0.9996494650840759,
        -6.680376429812895e-08
      ],
      "scale": [
        1.0,
        1.0000001192092896,
        1.0000020265579224
      ],
      "translation": [
        -1.3473114179873846e-08,
        0.45407357811927795,
        0.8782505393028259
      ]
    },
    {
      "children": [
        9
      ],
      "name": "spine.003_02",
      "rotation": [
        -0.06788765639066696,
        -0.12599380314350128,
        0.9833486080169678,
        -0.11199256777763367
      ],
      "scale": [
        1.0,
        1.0,
        1.0000027418136597
      ],
      "translation": [
        -7.460698725481052e-14,
        0.0,
        2.60770232074492e-08
      ]
    },
    {
      "children": [
        10
      ],
      "name": "spine.002_03",
      "rotation": [
        -0.41419893503189087,
        0.021597187966108322,
        0.08977601677179337,
        0.905490517616272
      ],
      "scale": [
        1.0,
        0.9999999403953552,
        0.9999999403953552
      ],
      "translation": [
        -3.725290298461914e-09,
        0.21358074247837067,
        -5.727633833885193e-08
      ]
    },
    {
      "children": [
        11
      ],
      "name": "spine.001_04",
      "rotation": [
        0.1269770860671997,
        -0.006683504208922386,
        0.04076708108186722,
        0.9910449981689453
      ],
      "scale": [
        0.9999999403953552,
        1.0,
        1.0
      ],
      "translation": [
        0.0,
        0.22663050889968872,
        1.1175870895385742e-07
      ]
    },
    {
      "children": [
        12
      ],
      "name": "spine_05",
      "rotation": [
        0.26583370566368103,
        -0.00048560669529251754,
        0.0003330129256937653,
        0.964018702507019
      ],
      "scale": [
        0.9999999403953552,
        0.9999998807907104,
        1.0
      ],
      "translation": [
        2.2351741790771484e-08,
        0.17568892240524292,
        -2.2351741790771484e-08
      ]
    },
    {
      "name": "spine_end_038",
      "rotation": [
        2.7755575615628914e-17,
        -1.3877787807814457e-17,
        2.7755575615628914e-17,
        1.0
      ],
      "translation": [
        5.551115123125783e-17,
        0.17731386423110962,
        -2.7755575615628914e-17
      ]
    },
    {
      "children": [
        14,
        42,
        44,
        46,
        51
      ],
      "name": "spine.005_06",
      "rotation": [
        -6.534065022378854e-08,
        0.9988869428634644,
        -0.04716821387410164,
        5.560359568335116e-07
      ],
      "scale": [
        1.0,
        0.9999997615814209,
        1.0
      ],
      "translation": [
        -9.237055564881302e-14,
        0.16142956912517548,
        9.313217752549008e-09
      ]
    },
    {
      "children": [
        15
      ],
      "name": "spine.006_07",
      "rotation": [
        -7.389027700810402e-08,
        0.9972879886627197,
        -0.07359839230775833,
        -9.06984496396035e-07
      ],
      "scale": [
        1.0,
        0.9999997019767761,
        0.9999999403953552
      ],
      "translation": [
        -1.545430450278218e-13,
        0.18320003151893616,
        5.774201383701438e-08
      ]
    },
    {
      "children": [
        16
      ],
      "name": "spine.007_08",
      "rotation": [
        1.2111497360578483e-09,
        0.9968609809875488,
        0.07917197793722153,
        7.583182792814114e-08
      ],
      "scale": [
        1.0,
        1.0000001192092896,
        1.0000001192092896
      ],
      "translation": [
        2.603627449203924e-15,
        0.11060000956058502,
        1.572131314020453e-11
      ]
    },
    {
      "children": [
        17,
        26,
        32,
        38,
        40
      ],
      "name": "spine.008_09",
      "rotation": [
        0.12292660027742386,
        -2.9163322778913425e-07,
        -6.392700413471175e-08,
        0.9924157857894897
      ],
      "scale": [
        1.0,
        1.0,
        0.9999999403953552
      ],
      "translation": [
        0.0,
        0.10896605253219604,
        -5.587934559514451e-09
      ]
    },
    {
      "children": [
        18
      ],
      "name": "spine.009_010",
      "rotation": [
        0.02058316580951214,
        -2.3648858586966526e-06,
        -3.111684236500878e-06,
        0.9997881650924683
      ],
      "translation": [
        8.526512829121202e-14,
        0.25624576210975647,
        4.842877388000488e-08
      ]
    },
    {
      "children": [
        19
      ],
      "name": "spine.010_00",
      "rotation": [
        -0.10097633302211761,
        -2.4922323973441962e-06,
        -2.8206056867929874e-06,
        0.9948888421058655
      ],
      "scale": [
        1.0,
        1.0,
        0.9999999403953552
      ],
      "translation": [
        2.8421709430404007e-13,
        0.06688231974840164,
        -2.2715718195343015e-12
      ]
    },
    {
      "children": [
        20,
        24
      ],
      "name": "spine.011_011",
      "rotation": [
        -0.6327790021896362,
        -7.965498838302665e-08,
        -3.3058538519981084e-06,
        0.7743324637413025
      ],
      "scale": [
        1.0,
        1.0,
        0.9999999403953552
      ],
      "translation": [
        6.821210263296962e-13,
        0.06691377609968185,
        3.35164891396289e-08
      ]
    },
    {
      "children": [
        21
      ],
      "name": "jaw_012",
      "rotation": [
        0.7184798717498779,
        5.037340429225878e-07,
        4.4258769094085437e-07,
        0.6955477595329285
      ],
      "scale": [
        1.0,
        1.0,
        0.9999999403953552
      ],
      "translation": [
        6.384652806445956e-09,
        0.34210580587387085,
        0.08368770778179169
      ]
    },
    {
      "children": [
        22
      ],
      "name": "chin_013",
      "rotation": [
        0.0018449239432811737,
        -4.472171326597163e-07,
        2.4434758660873968e-09,
        0.9999983906745911
      ],
      "scale": [
        1.0,
        0.9999998807907104,
        0.9999999403953552
      ],
      "translation": [
        -1.8189894035458565e-12,
        0.11498929560184479,
        2.0101359154978127e-07
      ]
    },
    {
      "children": [
        23
      ],
      "name": "chin.001_014",
      "rotation": [
        -0.00292845256626606,
        7.334407570169788e-08,
        -2.7848847672373722e-09,
        0.9999957084655762
      ],
      "scale": [
        1.0,
        0.9999998807907104,
        0.9999998211860657
      ],
      "translation": [
        -9.094947017729282e-13,
        0.07349781692028046,
        1.4883232779538957e-07
      ]
    },
    {
      "name": "chin.001_end_039",
      "rotation": [
        1.2058972943970356e-18,
        -2.0428689532312913e-39,
        -1.6940658945086007e-21,
        1.0
      ],
      "translation": [
        -1.6940658945086007e-21,
        0.04243127629160881,
        0.0
      ]
    },
    {
      "children": [
        25
      ],
      "name": "spine.012_015",
      "rotation": [
        0.7279574275016785,
        1.5431801330123562e-06,
        -1.6214115703405696e-06,
        0.6856223344802856
      ],
      "scale": [
        1.0,
        0.9999999403953552,
        1.0
      ],
      "translation": [
        0.0,
        0.4139391779899597,
        -1.4778150259076028e-08
      ]
    },
    {
      "name": "spine.012_end_040",
      "rotation": [
        1.0752084031213379e-17,
        1.8214738852169134e-38,
        1.6940658945086007e-21,
        1.0
      ],
      "translation": [
        3.3881317890172014e-21,
        0.31632018089294434,
        0.0
      ]
    },
    {
      "children": [
        27
      ],
      "name": "shoulder.L_016",
      "rotation": [
        0.43734419345855713,
        0.13446392118930817,
        -0.04922277107834816,
        0.8878212571144104
      ],
      "scale": [
        0.9999999403953552,
        1.0000001192092896,
        1.0
      ],
      "translation": [
        0.059599995613098145,
        0.011448770761489868,
        -0.012788561172783375
      ]
    },
    {
      "children": [
        28
      ],
      "name": "front_thigh.L_017",
      "rotation": [
        0.43968039751052856,
        -0.042564522475004196,
        0.13671717047691345,
        0.8866667151451111
      ],
      "scale": [
        1.0000001192092896,
        1.0000001192092896,
        1.0000001192092896
      ],
      "translation": [
        0.05419142171740532,
        0.33836764097213745,
        0.04709555208683014
      ]
    },
    {
      "children": [
        29
      ],
      "name": "front_shin.L_018",
      "rotation": [
        -0.15743134915828705,
        -0.014844456687569618,
        0.027462700381875038,
        0.987036406993866
      ],
      "scale": [
        1.0,
        1.0000001192092896,
        0.9999999403953552
      ],
      "translation": [
        -8.565428366580363e-09,
        0.26475057005882263,
        -8.113499205819608e-09
      ]
    },
    {
      "children": [
        30
      ],
      "name": "front_foot.L_019",
      "rotation": [
        -0.1381673365831375,
        0.02451048605144024,
        -0.013711645267903805,
        0.9900106191635132
      ],
      "scale": [
        1.0,
        1.0000001192092896,
        0.9999999403953552
      ],
      "translation": [
        -8.614733815193176e-09,
        0.2725105285644531,
        1.5599653124809265e-08
      ]
    },
    {
      "children": [
        31
      ],
      "name": "front_toe.L_020",
      "rotation": [
        0.007680428214371204,
        0.8366636037826538,
        -0.5476508140563965,
        -0.0036893479991704226
      ],
      "scale": [
        1.0,
        1.0000004768371582,
        1.0000001192092896
      ],
      "translation": [
        -9.080395102500916e-09,
        0.15398310124874115,
        -5.209585651755333e-09
      ]
    },
    {
      "name": "front_toe.L_end_041",
      "rotation": [
        2.1234032381062865e-17,
        -1.6940658945086007e-21,
        -1.6874484496081765e-22,
        1.0
      ],
      "translation": [
        -2.7755575615628914e-17,
        0.08967328071594238,
        0.0
      ]
    },
    {
      "children": [
        33
      ],
      "name": "shoulder.R_021",
      "rotation": [
        0.4373442232608795,
        -0.13446331024169922,
        0.04922251030802727,
        0.8878213763237
      ],
      "translation": [
        -0.059600017964839935,
        0.25194692611694336,
        -0.0379781499505043
      ]
    },
    {
      "children": [
        34
      ],
      "name": "front_thigh.R_022",
      "rotation": [
        0.4129156768321991,
        0.05310570448637009,
        -0.1344241201877594,
        0.8992277979850769
      ],
      "scale": [
        1.0,
        0.9999998807907104,
        1.0000001192092896
      ],
      "translation": [
        -0.05419144406914711,
        0.3383677005767822,
        0.04709563031792641
      ]
    },
    {
      "children": [
        35
      ],
      "name": "front_shin.R_023",
      "rotation": [
        -0.2199179232120514,
        0.019026050344109535,
        -0.02778003178536892,
        0.9749371409416199
      ],
      "scale": [
        1.0,
        1.0000001192092896,
        0.9999999403953552
      ],
      "translation": [
        2.655906428117305e-08,
        0.26475054025650024,
        3.259629011154175e-08
      ]
    },
    {
      "children": [
        36
      ],
      "name": "front_foot.R_024",
      "rotation": [
        -0.055394332855939865,
        -0.0238492451608181,
        0.014139591716229916,
        0.9980795383453369
      ],
      "scale": [
        1.0,
        1.0,
        1.0000001192092896
      ],
      "translation": [
        3.725290298461914e-09,
        0.2725106179714203,
        -2.9802322387695313e-08
      ]
    },
    {
      "children": [
        37
      ],
      "name": "front_toe.R_025",
      "rotation": [
        -0.005104306153953075,
        0.8290662169456482,
        -0.5591156482696533,
        0.0035929398145526648
      ],
      "scale": [
        1.0000001192092896,
        1.000000238418579,
        1.0
      ],
      "translation": [
        1.2689270079135895e-08,
        0.15398314595222473,
        3.236345946788788e-08
      ]
    },
    {
      "name": "front_toe.R_end_042",
      "rotation": [
        5.800481622797449e-18,
        -4.336808689942018e-19,
        2.5155579107596953e-36,
        1.0
      ],
      "translation": [
        2.7755575615628914e-17,
        0.08967328071594238,
        0.0
      ]
    },
    {
      "children": [
        39
      ],
      "name": "breast.L_026",
      "rotation": [
        0.5285906195640564,
        1.3645880869717075e-07,
        -2.996520720444096e-07,
        0.8488770127296448
      ],
      "scale": [
        1.0,
        0.9999999403953552,
        1.0
      ],
      "translation": [
        0.03400002419948578,
        0.08726926892995834,
        0.01138260867446661
      ]
    },
    {
      "name": "breast.L_end_043",
      "rotation": [
        2.4370014703955527e-17,
        -3.225340649367145e-40,
        -1.3234889800848443e-23,
        1.0
      ],
      "translation": [
        -6.938893903907228e-18,
        0.2681312561035156,
        1.3877787807814457e-17
      ]
    },
    {
      "children": [
        41
      ],
      "name": "breast.R_027",
      "rotation": [
        0.5285905003547668,
        4.675878528814792e-07,
        -4.435895561982761e-08,
        0.848876953125
      ],
      "scale": [
        1.0,
        0.9999998807907104,
        0.9999999403953552
      ],
      "translation": [
        -0.03399999439716339,
        0.08726926892995834,
        0.01138265524059534
      ]
    },
    {
      "name": "breast.R_end_044",
      "rotation": [
        2.3031241494102234e-18,
        -2.6469779601696886e-23,
        1.1580528575742387e-23,
        1.0
      ],
      "translation": [
        0.0,
        0.2681312561035156,
        6.938893903907228e-18
      ]
    },
    {
      "children": [
        43
      ],
      "name": "pelvis.L_028",
      "rotation": [
        0.4251805245876312,
        0.6966182589530945,
        -0.45570945739746094,
        -0.35534995794296265
      ],
      "scale": [
        0.9999998807907104,
        0.9999998211860657,
        0.9999999403953552
      ],
      "translation": [
        4.4309257418717607e-07,
        -0.13335007429122925,
        0.2477879375219345
      ]
    },
    {
      "name": "pelvis.L_end_045",
      "rotation": [
        2.7755575615628914e-17,
        -1.925929944387236e-34,
        -6.938893903907228e-18,
        1.0
      ],
      "translation": [
        0.0,
        0.2796963155269623,
        0.0
      ]
    },
    {
      "children": [
        45
      ],
      "name": "pelvis.R_029",
      "rotation": [
        -0.4251812994480133,
        0.6966188549995422,
        -0.4557086229324341,
        0.3553486764431
      ],
      "scale": [
        0.9999998807907104,
        0.9999999403953552,
        0.9999998807907104
      ],
      "translation": [
        4.612784891833144e-07,
        -0.13335005939006805,
        0.24778792262077332
      ]
    },
    {
      "name": "pelvis.R_end_046",
      "rotation": [
        1.3877787807814457e-17,
        2.7755575615628914e-17,
        -2.0816681711721685e-17,
        1.0
      ],
      "translation": [
        -1.1102230246251565e-16,
        0.2796963155269623,
        -2.7755575615628914e-17
      ]
    },
    {
      "children": [
        47
      ],
      "name": "thigh.L_030",
      "rotation": [
        0.7178069353103638,
        7.169886657720781e-07,
        -5.510452751877892e-07,
        0.6962422132492065
      ],
      "scale": [
        1.0,
        0.9999999403953552,
        0.9999999403953552
      ],
      "translation": [
        0.15757408738136292,
        -0.1882931888103485,
        0.13239677250385284
      ]
    },
    {
      "children": [
        48
      ],
      "name": "shin.L_031",
      "rotation": [
        0.19263619184494019,
        -0.008404144085943699,
        0.022243069484829903,
        0.9809821248054504
      ],
      "scale": [
        0.9999999403953552,
        1.0,
        0.9999999403953552
      ],
      "translation": [
        -5.0099684401061495e-09,
        0.373225599527359,
        -7.135000146263337e-09
      ]
    },
    {
      "children": [
        49
      ],
      "name": "foot.L_032",
      "rotation": [
        -0.2861427962779999,
        0.013729185797274113,
        -0.016593893989920616,
        0.957944929599762
      ],
      "scale": [
        1.0,
        1.0,
        0.9999999403953552
      ],
      "translation": [
        1.909211277961731e-08,
        0.2879818379878998,
        -5.727633833885193e-08
      ]
    },
    {
      "children": [
        50
      ],
      "name": "toe.L_033",
      "rotation": [
        0.005228695925325155,
        0.7455964684486389,
        -0.6663730144500732,
        -0.0023516612127423286
      ],
      "scale": [
        0.9999999403953552,
        1.000000238418579,
        0.9999999403953552
      ],
      "translation": [
        -1.3445969671010971e-08,
        0.23803703486919403,
        -2.8347130864858627e-08
      ]
    },
    {
      "name": "toe.L_end_047",
      "rotation": [
        5.948091175926924e-18,
        7.872214512883957e-41,
        1.3234889800848443e-23,
        1.0
      ],
      "translation": [
        0.0,
        0.10121986269950867,
        1.1102230246251565e-16
      ]
    },
    {
      "children": [
        52
      ],
      "name": "thigh.R_034",
      "rotation": [
        0.5060094594955444,
        -0.005142358131706715,
        0.003741350956261158,
        0.8625044822692871
      ],
      "scale": [
        1.0,
        1.0,
        0.9999998807907104
      ],
      "translation": [
        -0.15757355093955994,
        -0.1882932037115097,
        0.13239732384681702
      ]
    },
    {
      "children": [
        53
      ],
      "name": "shin.R_035",
      "rotation": [
        0.3384900391101837,
        0.006206221878528595,
        -0.033600542694330215,
        0.9403494000434875
      ],
      "scale": [
        0.9999998807907104,
        0.9999998807907104,
        0.9999997615814209
      ],
      "translation": [
        -1.6996636986732483e-08,
        0.3732256591320038,
        1.0884832590818405e-08
      ]
    },
    {
      "children": [
        54
      ],
      "name": "foot.R_036",
      "rotation": [
        -0.3664470314979553,
        -0.013772228732705116,
        0.01987668313086033,
        0.9301246404647827
      ],
      "scale": [
        1.0,
        1.0000001192092896,
        1.0
      ],
      "translation": [
        -1.862645149230957e-09,
        0.28798186779022217,
        1.234002411365509e-08
      ]
    },
    {
      "children": [
        55
      ],
      "name": "toe.R_037",
      "rotation": [
        -0.0062879459001123905,
        0.9004315137863159,
        -0.4349502921104431,
        -0.0013579262886196375
      ],
      "scale": [
        0.9999999403953552,
        1.0000001192092896,
        1.0000001192092896
      ],
      "translation": [
        -2.444721758365631e-09,
        0.2380370795726776,
        2.9802322387695313e-08
      ]
    },
    {
      "name": "toe.R_end_048",
      "rotation": [
        -3.5985347731151696e-17,
        1.734723475976807e-18,
        6.242462750041758e-35,
        1.0
      ],
      "translation": [
        0.0,
        0.10121986269950867,
        1.1102230246251565e-16
      ]
    },
    {
      "matrix": [
        100.00000792568959,
        5.135096019515117e-07,
        1.1061205814813903e-12,
        0.0,
        -5.135095393074199e-07,
        99.99999572647366,
        4.3711368217409175e-06,
        0.0,
        -1.0836742729651698e-12,
        -4.371136950562312e-06,
        99.99999867356473,
        0.0,
        -6.2786891703581205e-06,
        1.2897003976775068e-05,
        -1.5452309570784806e-13,
        1.0
      ],
      "name": "Object_56"
    },
    {
      "mesh": 0,
      "name": "Object_57",
      "skin": 0
    },
    {
      "name": "Plane",
      "rotation": [
        2.1855694143368964e-08,
        -3.552713678800501e-15,
        5.293955920339377e-23,
        1.0
      ],
      "scale": [
        100.0,
        100.0,
        100.0
      ],
      "translation": [
        -5.960463568044361e-06,
        1.1920928955078125e-05,
        -1.0658141036401503e-12
      ]
    }
  ],
  "samplers": [
    {
      "magFilter": 9729,
      "minFilter": 9987,
      "wrapS": 10497,
      "wrapT": 10497
    }
  ],
  "scene": 0,
  "scenes": [
    {
      "name": "Sketchfab_Scene",
      "nodes": [
        0
      ]
    }
  ],
  "skins": [
    {
      "inverseBindMatrices": 4,
      "joints": [
        6,
        7,
        8,
        9,
        10,
        11,
        12,
        13,
        14,
        15,
        16,
        17,
        18,
        19,
        20,
        21,
        22,
        23,
        24,
        25,
        26,
        27,
        28,
        29,
        30,
        31,
        32,
        33,
        34,
        35,
        36,
        37,
        38,
        39,
        40,
        41,
        42,
        43,
        44,
        45,
        46,
        47,
        48,
        49,
        50,
        51,
        52,
        53,
        54,
        55
      ],
      "skeleton": 6
    }
  ],
  "textures": [
    {
      "sampler": 0,
      "source": 0
    }
  ]
}
