{
  "accessors": [
    {
      "bufferView": 2,
      "componentType": 5126,
      "count": 2411,
      "max": [
        157.20309448242188,
        72.58189392089844,
        46.40403366088867
      ],
      "min": [
        -75.365478515625,
        -12.081413269042969,
        -50.66128158569336
      ],
      "type": "VEC3"
    },
    {
      "bufferView": 2,
      "byteOffset": 28932,
      "componentType": 5126,
      "count": 2411,
      "max": [
        0.9999999403953552,
        1.0,
        1.0
      ],
      "min": [
        -0.9999999403953552,
        -1.0,
        -1.0
      ],
      "type": "VEC3"
    },
    {
      "bufferView": 3,
      "componentType": 5126,
      "count": 2411,
      "max": [
        1.0,
        1.0,
        1.0,
        1.0
      ],
      "min": [
        -1.0,
        -1.0,
        -1.0,
        -1.0
      ],
      "type": "VEC4"
    },
    {
      "bufferView": 1,
      "componentType": 5126,
      "count": 2411,
      "max": [
        0.9712106585502625,
        0.9996742010116577
      ],
      "min": [
        0.0003257773059885949,
        0.0009756088256835938
      ],
      "type": "VEC2"
    },
    {
      "bufferView": 0,
      "componentType": 5125,
      "count": 9048,
      "type": "SCALAR"
    },
    {
      "bufferView": 2,
      "byteOffset": 57864,
      "componentType": 5126,
      "count": 2110,
      "max": [
        24.050636291503906,
        24.05063819885254,
        7.758990287780762
      ],
      "min": [
        -24.050636291503906,
        -24.05063819885254,
        -7.758990287780762
      ],
      "type": "VEC3"
    },
    {
      "bufferView": 2,
      "byteOffset": 83184,
      "componentType": 5126,
      "count": 2110,
      "max": [
        1.0,
        1.0,
        0.9997572302818298
      ],
      "min": [
        -1.0,
        -1.0,
        -0.9997572302818298
      ],
      "type": "VEC3"
    },
    {
      "bufferView": 3,
      "byteOffset": 38576,
      "componentType": 5126,
      "count": 2110,
      "max": [
        0.9999924898147583,
        0.9978747963905334,
        0.9918622374534607,
        1.0
      ],
      "min": [
        -0.9965155124664307,
        -0.9978747963905334,
        -1.0,
        -1.0
      ],
      "type": "VEC4"
    },
    {
      "bufferView": 1,
      "byteOffset": 19288,
      "componentType": 5126,
      "count": 2110,
      "max": [
        0.9828708171844482,
        0.9996742010116577
      ],
      "min": [
        0.47930997610092163,
        0.33398687839508057
      ],
      "type": "VEC2"
    },
    {
      "bufferView": 0,
      "byteOffset": 36192,
      "componentType": 5125,
      "count": 8220,
      "type": "SCALAR"
    }
  ],
  "asset": {
    "extras": {
      "author": "Mehdi Shahsavan (https://sketchfab.com/ahmagh2e)",
      "license": "CC-BY-4.0 (http://creativecommons.org/licenses/by/4.0/)",
      "source": "https://sketchfab.com/3d-models/wheelbarrow-13-mb-4bc60cee597d4330998d411d71ac58e3",
      "title": "Wheelbarrow_13_MB"
    },
    "generator": "Sketchfab-16.59.0",
    "version": "2.0"
  },
  "bufferViews": [
    {
      "buffer": 0,
      "byteLength": 69072,
      "name": "floatBufferViews",
      "target": 34963
    },
    {
      "buffer": 0,
      "byteLength": 36168,
      "byteOffset": 69072,
      "byteStride": 8,
      "name": "floatBufferViews",
      "target": 34962
    },
    {
      "buffer": 0,
      "byteLength": 108504,
      "byteOffset": 105240,
      "byteStride": 12,
      "name": "floatBufferViews",
      "target": 34962
    },
    {
      "buffer": 0,
      "byteLength": 72336,
      "byteOffset": 213744,
      "byteStride": 16,
      "name": "floatBufferViews",
      "target": 34962
    }
  ],
  "buffers": [
    {
      "byteLength": 286080,
      "uri": "scene.bin"
    }
  ],
  "images": [
    {
      "uri": "textures/material_baseColor.png"
    },
    {
      "uri": "textures/material_metallicRoughness.png"
    },
    {
      "uri": "textures/material_normal.png"
    }
  ],
  "materials": [
    {
      "doubleSided": true,
      "name": "material",
      "normalTexture": {
        "index": 2
      },
      "pbrMetallicRoughness": {
        "baseColorTexture": {
          "index": 0
        },
        "metallicRoughnessTexture": {
          "index": 1
        }
      }
    }
  ],
  "meshes": [
    {
      "name": "Base_01_0",
      "primitives": [
        {
          "attributes": {
            "NORMAL": 1,
            "POSITION": 0,
            "TANGENT": 2,
            "TEXCOORD_0": 3
          },
          "indices": 4,
          "material": 0,
          "mode": 4
        }
      ]
    },
    {
      "name": "Weel_01_0",
      "primitives": [
        {
          "attributes": {
            "NORMAL": 6,
            "POSITION": 5,
            "TANGENT": 7,
            "TEXCOORD_0": 8
          },
          "indices": 9,
          "material": 0,
          "mode": 4
        }
      ]
    }
  ],
  "nodes": [
    {
      "children": [
        1
      ],
      "matrix": [
        1.0,
        0.0,
        0.0,
        0.0,
        0.0,
        2.220446049250313e-16,
        -1.0,
        0.0,
        0.0,
        1.0,
        2.220446049250313e-16,
        0.0,
        0.0,
        0.0,
        0.0,
        1.0
      ],
      "name": "Sketchfab_model"
    },
    {
      "children": [
        2
      ],
      "matrix": [
        0.009999999776482582,
        0.0,
        0.0,
        0.0,
        0.0,
        0.0,
        0.009999999776482582,
        0.0,
        0.0,
        -0.009999999776482582,
        0.0,
        0.0,
        0.0,
        0.0,
        0.0,
        1.0
      ],
      "name": "d1d29fbc5e5f4d7d92860e995e347b32.fbx"
    },
    {
      "children": [
        3,
        5
      ],
      "name": "RootNode"
    },
    {
      "children": [
        4
      ],
      "matrix": [
        0.6588072978810391,
        -0.4376364076760502,
        0.6119210071039282,
        0.0,
        0.3206555168495548,
        0.8991520309026733,
        0.29783496241634044,
        0.0,
        -0.6805534393217249,
        1.1102230246251565e-16,
        0.7326984483587851,
        0.0,
        -308.0023193359375,
        206.7588348388672,
        -268.0981140136719,
        1.0
      ],
      "name": "CINEMA_4D_Editor"
    },
    {
      "name": "Object_4"
    },
    {
      "children": [
        6,
        7
      ],
      "matrix": [
        1.0,
        0.0,
        0.0,
        0.0,
        0.0,
        1.0,
        0.0,
        0.0,
        0.0,
        0.0,
        1.0,
        0.0,
        -43.88761520385742,
        12.081413269042969,
        2.1173806190490723,
        1.0
      ],
      "name": "Base"
    },
    {
      "mesh": 0,
      "name": "Base_01_0"
    },
    {
      "children": [
        8
      ],
      "matrix": [
        1.0,
        0.0,
        0.0,
        0.0,
        0.0,
        1.0,
        0.0,
        0.0,
        0.0,
        0.0,
        1.0,
        0.0,
        -44.15385437011719,
        12.081604957580566,
        -2.1286747455596924,
        1.0
      ],
      "name": "Weel"
    },
    {
      "mesh": 1,
      "name": "Weel_01_0"
    }
  ],
  "samplers": [
    {
      "magFilter": 9729,
      "minFilter": 9987,
      "wrapS": 10497,
      "wrapT": 10497
    }
  ],
  "scene": 0,
  "scenes": [
    {
      "name": "Sketchfab_Scene",
      "nodes": [
        0
      ]
    }
  ],
  "textures": [
    {
      "sampler": 0,
      "source": 0
    },
    {
      "sampler": 0,
      "source": 1
    },
    {
      "sampler": 0,
      "source": 2
    }
  ]
}
