{
  "accessors": [
    {
      "bufferView": 2,
      "componentType": 5126,
      "count": 4,
      "max": [
        19.11867332458496,
        19.11867332458496,
        0.0
      ],
      "min": [
        0.0,
        0.0,
        0.0
      ],
      "type": "VEC3"
    },
    {
      "bufferView": 2,
      "byteOffset": 48,
      "componentType": 5126,
      "count": 4,
      "max": [
        0.0,
        -0.0,
        1.0
      ],
      "min": [
        0.0,
        -0.0,
        1.0
      ],
      "type": "VEC3"
    },
    {
      "bufferView": 1,
      "componentType": 5126,
      "count": 4,
      "max": [
        0.9998999834060669,
        0.9998999834060669
      ],
      "min": [
        9.999999747378752e-05,
        9.999999747378752e-05
      ],
      "type": "VEC2"
    },
    {
      "bufferView": 0,
      "componentType": 5125,
      "count": 6,
      "type": "SCALAR"
    },
    {
      "bufferView": 2,
      "byteOffset": 96,
      "componentType": 5126,
      "count": 1199,
      "max": [
        12.016399383544922,
        10.912895202636719,
        0.0885929986834526
      ],
      "min": [
        8.692949295043945,
        7.858141899108887,
        0.08695399761199951
      ],
      "type": "VEC3"
    },
    {
      "bufferView": 2,
      "byteOffset": 14484,
      "componentType": 5126,
      "count": 1199,
      "max": [
        0.8682234883308411,
        0.8589609861373901,
        0.9995953440666199
      ],
      "min": [
        -0.8950362801551819,
        -0.856878936290741,
        -1.0
      ],
      "type": "VEC3"
    },
    {
      "bufferView": 1,
      "byteOffset": 32,
      "componentType": 5126,
      "count": 1199,
      "max": [
        0.9121000170707703,
        0.29820001125335693
      ],
      "min": [
        0.7784000039100647,
        0.0
      ],
      "type": "VEC2"
    },
    {
      "bufferView": 0,
      "byteOffset": 24,
      "componentType": 5125,
      "count": 1989,
      "type": "SCALAR"
    },
    {
      "bufferView": 2,
      "byteOffset": 28872,
      "componentType": 5126,
      "count": 65532,
      "max": [
        12.585026741027832,
        12.286828994750977,
        11.086932182312012
      ],
      "min": [
        8.692949295043945,
        7.857779502868652,
        0.08695399761199951
      ],
      "type": "VEC3"
    },
    {
      "bufferView": 2,
      "byteOffset": 815256,
      "componentType": 5126,
      "count": 65532,
      "max": [
        0.9999443292617798,
        0.9999663829803467,
        0.9998683929443359
      ],
      "min": [
        -0.9999980926513672,
        -0.9999984502792358,
        -0.9987691640853882
      ],
      "type": "VEC3"
    },
    {
      "bufferView": 1,
      "byteOffset": 9624,
      "componentType": 5126,
      "count": 65532,
      "max": [
        0.9121000170707703,
        0.9915000200271606
      ],
      "min": [
        0.0,
        0.0
      ],
      "type": "VEC2"
    },
    {
      "bufferView": 0,
      "byteOffset": 7980,
      "componentType": 5125,
      "count": 346374,
      "type": "SCALAR"
    },
    {
      "bufferView": 2,
      "byteOffset": 1601640,
      "componentType": 5126,
      "count": 48779,
      "max": [
        13.674707412719727,
        11.013628959655762,
        10.580547332763672
      ],
      "min": [
        9.060018539428711,
        8.132254600524902,
        2.165189027786255
      ],
      "type": "VEC3"
    },
    {
      "bufferView": 2,
      "byteOffset": 2186988,
      "componentType": 5126,
      "count": 48779,
      "max": [
        0.9999443292617798,
        0.9999743700027466,
        0.9999970197677612
      ],
      "min": [
        -0.9999717473983765,
        -0.999950647354126,
        -0.9987716674804688
      ],
      "type": "VEC3"
    },
    {
      "bufferView": 1,
      "byteOffset": 533880,
      "componentType": 5126,
      "count": 48779,
      "max": [
        0.8528000116348267,
        1.0
      ],
      "min": [
        0.0,
        0.0
      ],
      "type": "VEC2"
    },
    {
      "bufferView": 0,
      "byteOffset": 1393476,
      "componentType": 5125,
      "count": 229929,
      "type": "SCALAR"
    }
  ],
  "asset": {
    "extras": {
      "author": "Siesta (https://sketchfab.com/siesta)",
      "license": "CC-BY-4.0 (http://creativecommons.org/licenses/by/4.0/)",
      "source": "https://sketchfab.com/3d-models/hand-276a1721479b4540b8180f1f2e1fc05d",
      "title": "Hand"
    },
    "generator": "Sketchfab-12.68.0",
    "version": "2.0"
  },
  "bufferViews": [
    {
      "buffer": 0,
      "byteLength": 2313192,
      "name": "floatBufferViews",
      "target": 34963
    },
    {
      "buffer": 0,
      "byteLength": 924112,
      "byteOffset": 2313192,
      "byteStride": 8,
      "name": "floatBufferViews",
      "target": 34962
    },
    {
      "buffer": 0,
      "byteLength": 2772336,
      "byteOffset": 3237304,
      "byteStride": 12,
      "name": "floatBufferViews",
      "target": 34962
    }
  ],
  "buffers": [
    {
      "byteLength": 6009640,
      "uri": "scene.bin"
    }
  ],
  "images": [
    {
      "uri": "textures/Material_baseColor.png"
    },
    {
      "uri": "textures/newhand.bmp_baseColor.png"
    }
  ],
  "materials": [
    {
      "alphaMode": "BLEND",
      "doubleSided": true,
      "name": "Material",
      "pbrMetallicRoughness": {
        "baseColorFactor": [
          1.0,
          1.0,
          1.0,
          0.12
        ],
        "baseColorTexture": {
          "index": 0
        },
        "metallicFactor": 0.0
      }
    },
    {
      "doubleSided": true,
      "name": "newhand.bmp",
      "pbrMetallicRoughness": {
        "baseColorTexture": {
          "index": 1
        },
        "metallicFactor": 0.0,
        "roughnessFactor": 0.7578125
      }
    }
  ],
  "meshes": [
    {
      "name": "Object_0",
      "primitives": [
        {
          "attributes": {
            "NORMAL": 1,
            "POSITION": 0,
            "TEXCOORD_0": 2
          },
          "indices": 3,
          "material": 0,
          "mode": 4
        }
      ]
    },
    {
      "name": "Object_1",
      "primitives": [
        {
          "attributes": {
            "NORMAL": 5,
            "POSITION": 4,
            "TEXCOORD_0": 6
          },
          "indices": 7,
          "material": 1,
          "mode": 4
        }
      ]
    },
    {
      "name": "Object_2",
      "primitives": [
        {
          "attributes": {
            "NORMAL": 9,
            "POSITION": 8,
            "TEXCOORD_0": 10
          },
          "indices": 11,
          "material": 1,
          "mode": 4
        }
      ]
    },
    {
      "name": "Object_3",
      "primitives": [
        {
          "attributes": {
            "NORMAL": 13,
            "POSITION": 12,
            "TEXCOORD_0": 14
          },
          "indices": 15,
          "material": 1,
          "mode": 4
        }
      ]
    }
  ],
  "nodes": [
    {
      "children": [
        1
      ],
      "matrix": [
        0.3109908998012543,
        0.0,
        0.0,
        0.0,
        0.0,
        6.90538514816495e-17,
        -0.3109908998012543,
        0.0,
        0.0,
        0.3109908998012543,
        6.90538514816495e-17,
        0.0,
        0.0,
        0.0,
        0.0,
        1.0
      ],
      "name": "Sketchfab_model"
    },
    {
      "children": [
        2
      ],
      "matrix": [
        1.0,
        0.0,
        0.0,
        0.0,
        0.0,
        1.0,
        0.0,
        0.0,
        0.0,
        0.0,
        1.0,
        0.0,
        -10.55933666229248,
        -9.55933666229248,
        0.0,
        1.0
      ],
      "name": "hand.obj.cleaner.gles"
    },
    {
      "children": [
        3,
        4,
        5,
        6
      ],
      "name": "Object_2"
    },
    {
      "mesh": 0,
      "name": "Object_3"
    },
    {
      "mesh": 1,
      "name": "Object_4"
    },
    {
      "mesh": 2,
      "name": "Object_5"
    },
    {
      "mesh": 3,
      "name": "Object_6"
    }
  ],
  "samplers": [
    {
      "magFilter": 9729,
      "minFilter": 9987,
      "wrapS": 10497,
      "wrapT": 10497
    }
  ],
  "scene": 0,
  "scenes": [
    {
      "name": "Sketchfab_Scene",
      "nodes": [
        0
      ]
    }
  ],
  "textures": [
    {
      "sampler": 0,
      "source": 0
    },
    {
      "sampler": 0,
      "source": 1
    }
  ]
}
