{
  "accessors": [
    {
      "bufferView": 2,
      "componentType": 5126,
      "count": 14,
      "max": [
        5.4784650802612305,
        3.0207748413085938,
        -0.0
      ],
      "min": [
        1.458775281906128,
        -3.2043538093566895,
        -7.62939350806846e-07
      ],
      "type": "VEC3"
    },
    {
      "bufferView": 2,
      "byteOffset": 168,
      "componentType": 5126,
      "count": 14,
      "max": [
        0.0,
        3.094748137755232e-07,
        -1.0
      ],
      "min": [
        -2.8734466468449682e-05,
        -1.4096488030190812e-06,
        -1.0
      ],
      "type": "VEC3"
    },
    {
      "bufferView": 1,
      "componentType": 5126,
      "count": 14,
      "max": [
        2.264096975326538,
        -0.22938752174377441
      ],
      "min": [
        -0.8484674692153931,
        -2.2392327785491943
      ],
      "type": "VEC2"
    },
    {
      "bufferView": 1,
      "byteOffset": 112,
      "componentType": 5126,
      "count": 14,
      "max": [
        0.9799999594688416,
        0.6398911476135254
      ],
      "min": [
        0.019999999552965164,
        0.019999999552965164
      ],
      "type": "VEC2"
    },
    {
      "bufferView": 1,
      "byteOffset": 224,
      "componentType": 5126,
      "count": 14,
      "max": [
        2.264096975326538,
        -0.22938752174377441
      ],
      "min": [
        -0.8484674692153931,
        -2.2392327785491943
      ],
      "type": "VEC2"
    },
    {
      "bufferView": 1,
      "byteOffset": 336,
      "componentType": 5126,
      "count": 14,
      "max": [
        2.264096975326538,
        -0.22938752174377441
      ],
      "min": [
        -0.8484674692153931,
        -2.2392327785491943
      ],
      "type": "VEC2"
    },
    {
      "bufferView": 0,
      "componentType": 5125,
      "count": 36,
      "type": "SCALAR"
    }
  ],
  "asset": {
    "extras": {
      "author": "jamesdeantv1 (https://sketchfab.com/jamesdeantv1)",
      "license": "CC-BY-4.0 (http://creativecommons.org/licenses/by/4.0/)",
      "source": "https://sketchfab.com/3d-models/floor-parquet-relax-555f9b9eaf7340fdb4d1b8dd9f35da5d",
      "title": "Floor_Parquet_Relax"
    },
    "generator": "Sketchfab-12.68.0",
    "version": "2.0"
  },
  "bufferViews": [
    {
      "buffer": 0,
      "byteLength": 144,
      "name": "floatBufferViews",
      "target": 34963
    },
    {
      "buffer": 0,
      "byteLength": 448,
      "byteOffset": 144,
      "byteStride": 8,
      "name": "floatBufferViews",
      "target": 34962
    },
    {
      "buffer": 0,
      "byteLength": 336,
      "byteOffset": 592,
      "byteStride": 12,
      "name": "floatBufferViews",
      "target": 34962
    }
  ],
  "buffers": [
    {
      "byteLength": 928,
      "uri": "scene.bin"
    }
  ],
  "images": [
    {
      "uri": "textures/Wood_Parquet_Interior_Mobile_baseColor.jpeg"
    },
    {
      "uri": "textures/Wood_Parquet_Interior_Mobile_metallicRoughness.png"
    }
  ],
  "materials": [
    {
      "name": "Wood_Parquet_Interior_Mobile",
      "pbrMetallicRoughness": {
        "baseColorFactor": [
          0.862745,
          0.862745,
          0.862745,
          1.0
        ],
        "baseColorTexture": {
          "index": 0
        },
        "metallicRoughnessTexture": {
          "index": 1
        }
      }
    }
  ],
  "meshes": [
    {
      "name": "Object_0",
      "primitives": [
        {
          "attributes": {
            "NORMAL": 1,
            "POSITION": 0,
            "TEXCOORD_0": 2,
            "TEXCOORD_1": 3,
            "TEXCOORD_2": 4,
            "TEXCOORD_3": 5
          },
          "indices": 6,
          "material": 0,
          "mode": 4
        }
      ]
    }
  ],
  "nodes": [
    {
      "children": [
        1
      ],
      "matrix": [
        1.0,
        0.0,
        0.0,
        0.0,
        0.0,
        2.220446049250313e-16,
        -1.0,
        0.0,
        0.0,
        1.0,
        2.220446049250313e-16,
        0.0,
        0.0,
        0.0,
        0.0,
        1.0
      ],
      "name": "Sketchfab_model"
    },
    {
      "children": [
        2
      ],
      "name": "root"
    },
    {
      "children": [
        3
      ],
      "matrix": [
        1.0,
        0.0,
        0.0,
        0.0,
        0.0,
        2.220446049250313e-16,
        1.0,
        0.0,
        0.0,
        -1.0,
        2.220446049250313e-16,
        0.0,
        0.0,
        0.0,
        0.0,
        1.0
      ],
      "name": "GLTF_SceneRootNode"
    },
    {
      "children": [
        4
      ],
      "name": "UnityGlTF_root_0"
    },
    {
      "children": [
        5
      ],
      "matrix": [
        1.0,
        0.0,
        0.0,
        0.0,
        0.0,
        -1.1920930376163597e-07,
        1.0,
        0.0,
        0.0,
        -1.0,
        -1.1920930376163597e-07,
        0.0,
        -5.300748825073242,
        0.19288340210914612,
        1.386955976486206,
        1.0
      ],
      "name": "node_Floor_Parquet_Relax_-8250_1"
    },
    {
      "mesh": 0,
      "name": "Object_5"
    }
  ],
  "samplers": [
    {
      "magFilter": 9729,
      "minFilter": 9987,
      "wrapS": 10497,
      "wrapT": 10497
    }
  ],
  "scene": 0,
  "scenes": [
    {
      "name": "Sketchfab_Scene",
      "nodes": [
        0
      ]
    }
  ],
  "textures": [
    {
      "sampler": 0,
      "source": 0
    },
    {
      "sampler": 0,
      "source": 1
    }
  ]
}
