{
  "accessors": [
    {
      "bufferView": 2,
      "componentType": 5126,
      "count": 6145,
      "max": [
        4.102400302886963,
        22.741361618041992,
        2.535393476486206
      ],
      "min": [
        -2.7832705974578857,
        1.0815773010253906,
        -0.5882062911987305
      ],
      "type": "VEC3"
    },
    {
      "bufferView": 2,
      "byteOffset": 73740,
      "componentType": 5126,
      "count": 6145,
      "max": [
        0.9999370574951172,
        1.0,
        0.9999972581863403
      ],
      "min": [
        -0.9999996423721313,
        -1.0,
        -0.9998663663864136
      ],
      "type": "VEC3"
    },
    {
      "bufferView": 3,
      "componentType": 5126,
      "count": 6145,
      "max": [
        0.9988380670547485,
        0.9999996423721313,
        0.9998959898948669,
        1.0
      ],
      "min": [
        -0.9999490976333618,
        -0.9996713995933533,
        -0.9998958706855774,
        -1.0
      ],
      "type": "VEC4"
    },
    {
      "bufferView": 1,
      "componentType": 5126,
      "count": 6145,
      "max": [
        1.0,
        0.9919673800468445
      ],
      "min": [
        0.0,
        0.0077782245352864265
      ],
      "type": "VEC2"
    },
    {
      "bufferView": 1,
      "byteOffset": 49160,
      "componentType": 5126,
      "count": 6145,
      "max": [
        1.0,
        0.9919673800468445
      ],
      "min": [
        0.0,
        0.0077782245352864265
      ],
      "type": "VEC2"
    },
    {
      "bufferView": 1,
      "byteOffset": 98320,
      "componentType": 5126,
      "count": 6145,
      "max": [
        1.0,
        0.9919673800468445
      ],
      "min": [
        0.0,
        0.0077782245352864265
      ],
      "type": "VEC2"
    },
    {
      "bufferView": 1,
      "byteOffset": 147480,
      "componentType": 5126,
      "count": 6145,
      "max": [
        1.0,
        0.9919673800468445
      ],
      "min": [
        0.0,
        0.0077782245352864265
      ],
      "type": "VEC2"
    },
    {
      "bufferView": 1,
      "byteOffset": 196640,
      "componentType": 5126,
      "count": 6145,
      "max": [
        1.0,
        0.9919673800468445
      ],
      "min": [
        0.0,
        0.0077782245352864265
      ],
      "type": "VEC2"
    },
    {
      "bufferView": 0,
      "componentType": 5125,
      "count": 34380,
      "type": "SCALAR"
    }
  ],
  "asset": {
    "extras": {
      "author": "LOLONI (https://sketchfab.com/loloni)",
      "license": "CC-BY-4.0 (http://creativecommons.org/licenses/by/4.0/)",
      "source": "https://sketchfab.com/3d-models/ax-with-skull-ad828dd9728e4ee6b8a2d7b985fd4b3e",
      "title": "Ax with skull"
    },
    "generator": "Sketchfab-16.7.0",
    "version": "2.0"
  },
  "bufferViews": [
    {
      "buffer": 0,
      "byteLength": 137520,
      "name": "floatBufferViews",
      "target": 34963
    },
    {
      "buffer": 0,
      "byteLength": 245800,
      "byteOffset": 137520,
      "byteStride": 8,
      "name": "floatBufferViews",
      "target": 34962
    },
    {
      "buffer": 0,
      "byteLength": 147480,
      "byteOffset": 383320,
      "byteStride": 12,
      "name": "floatBufferViews",
      "target": 34962
    },
    {
      "buffer": 0,
      "byteLength": 98320,
      "byteOffset": 530800,
      "byteStride": 16,
      "name": "floatBufferViews",
      "target": 34962
    }
  ],
  "buffers": [
    {
      "byteLength": 629120,
      "uri": "scene.bin"
    }
  ],
  "images": [
    {
      "uri": "textures/StingrayPBS3_baseColor.png"
    },
    {
      "uri": "textures/StingrayPBS3_metallicRoughness.png"
    },
    {
      "uri": "textures/StingrayPBS3_normal.png"
    }
  ],
  "materials": [
    {
      "doubleSided": true,
      "name": "StingrayPBS3",
      "normalTexture": {
        "index": 2
      },
      "occlusionTexture": {
        "index": 1
      },
      "pbrMetallicRoughness": {
        "baseColorTexture": {
          "index": 0
        },
        "metallicRoughnessTexture": {
          "index": 1
        }
      }
    }
  ],
  "meshes": [
    {
      "name": "HachaTerminada_low_StingrayPBS3_0",
      "primitives": [
        {
          "attributes": {
            "NORMAL": 1,
            "POSITION": 0,
            "TANGENT": 2,
            "TEXCOORD_0": 3,
            "TEXCOORD_1": 4,
            "TEXCOORD_2": 5,
            "TEXCOORD_3": 6,
            "TEXCOORD_4": 7
          },
          "indices": 8,
          "material": 0,
          "mode": 4
        }
      ]
    }
  ],
  "nodes": [
    {
      "children": [
        1
      ],
      "matrix": [
        1.0,
        0.0,
        0.0,
        0.0,
        0.0,
        2.220446049250313e-16,
        -1.0,
        0.0,
        0.0,
        1.0,
        2.220446049250313e-16,
        0.0,
        0.0,
        0.0,
        0.0,
        1.0
      ],
      "name": "Sketchfab_model"
    },
    {
      "children": [
        2
      ],
      "matrix": [
        0.009999999776482582,
        0.0,
        0.0,
        0.0,
        0.0,
        0.0,
        0.009999999776482582,
        0.0,
        0.0,
        -0.009999999776482582,
        0.0,
        0.0,
        0.0,
        0.0,
        0.0,
        1.0
      ],
      "name": "hachaFinal_low.fbx"
    },
    {
      "children": [
        3
      ],
      "name": "RootNode"
    },
    {
      "children": [
        4
      ],
      "name": "HachaTerminada_low"
    },
    {
      "mesh": 0,
      "name": "HachaTerminada_low_StingrayPBS3_0"
    }
  ],
  "samplers": [
    {
      "magFilter": 9729,
      "minFilter": 9987,
      "wrapS": 10497,
      "wrapT": 10497
    }
  ],
  "scene": 0,
  "scenes": [
    {
      "name": "Sketchfab_Scene",
      "nodes": [
        0
      ]
    }
  ],
  "textures": [
    {
      "sampler": 0,
      "source": 0
    },
    {
      "sampler": 0,
      "source": 1
    },
    {
      "sampler": 0,
      "source": 2
    }
  ]
}
