{
  "accessors": [
    {
      "bufferView": 2,
      "componentType": 5126,
      "count": 280,
      "max": [
        129.07400512695313,
        53.51279830932617,
        52.9375
      ],
      "min": [
        125.13700103759766,
        49.576499938964844,
        49.8125
      ],
      "type": "VEC3"
    },
    {
      "bufferView": 2,
      "byteOffset": 3360,
      "componentType": 5126,
      "count": 280,
      "max": [
        1.0,
        1.0,
        1.0
      ],
      "min": [
        -1.0,
        -1.0,
        0.0
      ],
      "type": "VEC3"
    },
    {
      "bufferView": 1,
      "componentType": 5126,
      "count": 280,
      "max": [
        93.41000366210938,
        52.4375
      ],
      "min": [
        -92.5791015625,
        10.769700050354004
      ],
      "type": "VEC2"
    },
    {
      "bufferView": 0,
      "componentType": 5125,
      "count": 540,
      "type": "SCALAR"
    },
    {
      "bufferView": 2,
      "byteOffset": 6720,
      "componentType": 5126,
      "count": 214,
      "max": [
        260.0060119628906,
        1.8870099782943726,
        45.10200119018555
      ],
      "min": [
        258.7560119628906,
        1.7338000535964966,
        43.85200119018555
      ],
      "type": "VEC3"
    },
    {
      "bufferView": 2,
      "byteOffset": 9288,
      "componentType": 5126,
      "count": 214,
      "max": [
        1.0,
        1.0171705162124735e-17,
        1.0
      ],
      "min": [
        -1.0,
        -1.0,
        -1.0
      ],
      "type": "VEC3"
    },
    {
      "bufferView": 1,
      "byteOffset": 2240,
      "componentType": 5126,
      "count": 214,
      "max": [
        0.5375000238418579,
        1.162500023841858
      ],
      "min": [
        -0.5375000238418579,
        -1.6181500583911657e-14
      ],
      "type": "VEC2"
    },
    {
      "bufferView": 0,
      "byteOffset": 2160,
      "componentType": 5125,
      "count": 354,
      "type": "SCALAR"
    },
    {
      "bufferView": 2,
      "byteOffset": 11856,
      "componentType": 5126,
      "count": 10,
      "max": [
        259.95599365234375,
        1.9213000535964966,
        44.76430130004883
      ],
      "min": [
        259.7040100097656,
        1.9213000535964966,
        44.189701080322266
      ],
      "type": "VEC3"
    },
    {
      "bufferView": 2,
      "byteOffset": 11976,
      "componentType": 5126,
      "count": 10,
      "max": [
        0.0,
        -1.0,
        0.0
      ],
      "min": [
        0.0,
        -1.0,
        0.0
      ],
      "type": "VEC3"
    },
    {
      "bufferView": 1,
      "byteOffset": 3952,
      "componentType": 5126,
      "count": 10,
      "max": [
        0.5745689868927002,
        0.9122840166091919
      ],
      "min": [
        0.3228909969329834,
        0.3377160131931305
      ],
      "type": "VEC2"
    },
    {
      "bufferView": 0,
      "byteOffset": 3576,
      "componentType": 5125,
      "count": 24,
      "type": "SCALAR"
    },
    {
      "bufferView": 2,
      "byteOffset": 12096,
      "componentType": 5126,
      "count": 192,
      "max": [
        256.57598876953125,
        2.888969898223877,
        33.18220138549805
      ],
      "min": [
        255.9010009765625,
        2.361030101776123,
        31.14859962463379
      ],
      "type": "VEC3"
    },
    {
      "bufferView": 2,
      "byteOffset": 14400,
      "componentType": 5126,
      "count": 192,
      "max": [
        0.997248649597168,
        1.0,
        0.997248649597168
      ],
      "min": [
        -0.997248649597168,
        -1.0,
        -0.997248649597168
      ],
      "type": "VEC3"
    },
    {
      "bufferView": 1,
      "byteOffset": 4032,
      "componentType": 5126,
      "count": 192,
      "max": [
        3.0083398818969727,
        2.2975800037384033
      ],
      "min": [
        -3.0083398818969727,
        -13.302300453186035
      ],
      "type": "VEC2"
    },
    {
      "bufferView": 0,
      "byteOffset": 3672,
      "componentType": 5125,
      "count": 384,
      "type": "SCALAR"
    },
    {
      "bufferView": 2,
      "byteOffset": 16704,
      "componentType": 5126,
      "count": 228,
      "max": [
        247.75799560546875,
        10.113800048828125,
        31.469100952148438
      ],
      "min": [
        231.5989990234375,
        10.113800048828125,
        15.723299980163574
      ],
      "type": "VEC3"
    },
    {
      "bufferView": 2,
      "byteOffset": 19440,
      "componentType": 5126,
      "count": 228,
      "max": [
        0.0,
        1.0,
        0.0
      ],
      "min": [
        0.0,
        0.9999999403953552,
        0.0
      ],
      "type": "VEC3"
    },
    {
      "bufferView": 1,
      "byteOffset": 5568,
      "componentType": 5126,
      "count": 228,
      "max": [
        44.85749816894531,
        42.437599182128906
      ],
      "min": [
        -45.83580017089844,
        -45.93410110473633
      ],
      "type": "VEC2"
    },
    {
      "bufferView": 0,
      "byteOffset": 5208,
      "componentType": 5125,
      "count": 678,
      "type": "SCALAR"
    },
    {
      "bufferView": 2,
      "byteOffset": 22176,
      "componentType": 5126,
      "count": 8602,
      "max": [
        248.51300048828125,
        10.113800048828125,
        32.829898834228516
      ],
      "min": [
        230.66900634765625,
        -7.010839939117432,
        14.98550033569336
      ],
      "type": "VEC3"
    },
    {
      "bufferView": 2,
      "byteOffset": 125400,
      "componentType": 5126,
      "count": 8602,
      "max": [
        1.0,
        1.0,
        1.0
      ],
      "min": [
        -1.0,
        -1.0,
        -1.0
      ],
      "type": "VEC3"
    },
    {
      "bufferView": 1,
      "byteOffset": 7392,
      "componentType": 5126,
      "count": 8602,
      "max": [
        137.61099243164063,
        53.338600158691406
      ],
      "min": [
        -137.61099243164063,
        -67.85600280761719
      ],
      "type": "VEC2"
    },
    {
      "bufferView": 0,
      "byteOffset": 7920,
      "componentType": 5125,
      "count": 17565,
      "type": "SCALAR"
    },
    {
      "bufferView": 2,
      "byteOffset": 228624,
      "componentType": 5126,
      "count": 2724,
      "max": [
        244.1820068359375,
        -14.339599609375,
        28.498600006103516
      ],
      "min": [
        235.0,
        -14.495499610900879,
        19.31679916381836
      ],
      "type": "VEC3"
    },
    {
      "bufferView": 2,
      "byteOffset": 261312,
      "componentType": 5126,
      "count": 2724,
      "max": [
        1.0,
        7.405350183399843e-16,
        1.0
      ],
      "min": [
        -1.0,
        -1.0,
        -1.0
      ],
      "type": "VEC3"
    },
    {
      "bufferView": 1,
      "byteOffset": 76208,
      "componentType": 5126,
      "count": 2724,
      "max": [
        25.766000747680664,
        27.904399871826172
      ],
      "min": [
        -25.766000747680664,
        -27.904399871826172
      ],
      "type": "VEC2"
    },
    {
      "bufferView": 0,
      "byteOffset": 78180,
      "componentType": 5125,
      "count": 5664,
      "type": "SCALAR"
    },
    {
      "bufferView": 2,
      "byteOffset": 294000,
      "componentType": 5126,
      "count": 1169,
      "max": [
        55.62630081176758,
        57.72200012207031,
        40.644798278808594
      ],
      "min": [
        37.680999755859375,
        45.42490005493164,
        26.203399658203125
      ],
      "type": "VEC3"
    },
    {
      "bufferView": 2,
      "byteOffset": 308028,
      "componentType": 5126,
      "count": 1169,
      "max": [
        0.9912720918655396,
        0.9961791038513184,
        0.9934108853340149
      ],
      "min": [
        -0.992369532585144,
        -0.9961791038513184,
        -0.9989214539527893
      ],
      "type": "VEC3"
    },
    {
      "bufferView": 1,
      "byteOffset": 98000,
      "componentType": 5126,
      "count": 1169,
      "max": [
        18.474199295043945,
        15.77400016784668
      ],
      "min": [
        -18.477399826049805,
        -2.420109987258911
      ],
      "type": "VEC2"
    },
    {
      "bufferView": 0,
      "byteOffset": 100836,
      "componentType": 5125,
      "count": 1773,
      "type": "SCALAR"
    },
    {
      "bufferView": 2,
      "byteOffset": 322056,
      "componentType": 5126,
      "count": 15,
      "max": [
        261.23699951171875,
        0.7688450217247009,
        39.35200119018555
      ],
      "min": [
        257.5249938964844,
        4.440889980918258e-16,
        34.35200119018555
      ],
      "type": "VEC3"
    },
    {
      "bufferView": 2,
      "byteOffset": 322236,
      "componentType": 5126,
      "count": 15,
      "max": [
        0.6754259467124939,
        -0.7071068286895752,
        1.9651108789762604e-16
      ],
      "min": [
        -0.7071068286895752,
        -1.0,
        -1.0418698480618987e-16
      ],
      "type": "VEC3"
    },
    {
      "bufferView": 1,
      "byteOffset": 107352,
      "componentType": 5126,
      "count": 15,
      "max": [
        0.8744419813156128,
        0.9046019911766052
      ],
      "min": [
        0.172092005610466,
        0.22157999873161316
      ],
      "type": "VEC2"
    },
    {
      "bufferView": 0,
      "byteOffset": 107928,
      "componentType": 5125,
      "count": 39,
      "type": "SCALAR"
    },
    {
      "bufferView": 2,
      "byteOffset": 322416,
      "componentType": 5126,
      "count": 1082,
      "max": [
        167.02499389648438,
        57.72200012207031,
        50.50149917602539
      ],
      "min": [
        37.680999755859375,
        39.5166015625,
        22.5
      ],
      "type": "VEC3"
    },
    {
      "bufferView": 2,
      "byteOffset": 335400,
      "componentType": 5126,
      "count": 1082,
      "max": [
        1.0,
        1.0,
        1.0
      ],
      "min": [
        -1.0,
        -1.0,
        -1.0
      ],
      "type": "VEC3"
    },
    {
      "bufferView": 1,
      "byteOffset": 107472,
      "componentType": 5126,
      "count": 1082,
      "max": [
        38.76380157470703,
        50.00149917602539
      ],
      "min": [
        -38.76380157470703,
        -17.69930076599121
      ],
      "type": "VEC2"
    },
    {
      "bufferView": 0,
      "byteOffset": 108084,
      "componentType": 5125,
      "count": 2220,
      "type": "SCALAR"
    },
    {
      "bufferView": 2,
      "byteOffset": 348384,
      "componentType": 5126,
      "count": 1154,
      "max": [
        191.44500732421875,
        53.972999572753906,
        61.62770080566406
      ],
      "min": [
        67.31759643554688,
        44.521400451660156,
        28.125
      ],
      "type": "VEC3"
    },
    {
      "bufferView": 2,
      "byteOffset": 362232,
      "componentType": 5126,
      "count": 1154,
      "max": [
        1.0,
        1.0,
        1.0
      ],
      "min": [
        -1.0,
        -1.0,
        -1.0
      ],
      "type": "VEC3"
    },
    {
      "bufferView": 1,
      "byteOffset": 116128,
      "componentType": 5126,
      "count": 1154,
      "max": [
        93.87020111083984,
        51.875
      ],
      "min": [
        -93.87020111083984,
        -5.450729846954346
      ],
      "type": "VEC2"
    },
    {
      "bufferView": 0,
      "byteOffset": 116964,
      "componentType": 5125,
      "count": 2442,
      "type": "SCALAR"
    },
    {
      "bufferView": 2,
      "byteOffset": 376080,
      "componentType": 5126,
      "count": 7869,
      "max": [
        87.73909759521484,
        59.73529815673828,
        50.50149917602539
      ],
      "min": [
        35.66379928588867,
        43.01319885253906,
        0.5
      ],
      "type": "VEC3"
    },
    {
      "bufferView": 2,
      "byteOffset": 470508,
      "componentType": 5126,
      "count": 7869,
      "max": [
        0.9999920129776001,
        0.9999920129776001,
        1.0
      ],
      "min": [
        -0.9999920129776001,
        -0.9999920129776001,
        -1.0
      ],
      "type": "VEC3"
    },
    {
      "bufferView": 1,
      "byteOffset": 125360,
      "componentType": 5126,
      "count": 7869,
      "max": [
        38.80459976196289,
        59.84469985961914
      ],
      "min": [
        -38.80459976196289,
        -31.355899810791016
      ],
      "type": "VEC2"
    },
    {
      "bufferView": 0,
      "byteOffset": 126732,
      "componentType": 5125,
      "count": 15651,
      "type": "SCALAR"
    },
    {
      "bufferView": 2,
      "byteOffset": 564936,
      "componentType": 5126,
      "count": 3186,
      "max": [
        190.10400390625,
        51.55649948120117,
        60.45159912109375
      ],
      "min": [
        68.64920043945313,
        48.95050048828125,
        50.5
      ],
      "type": "VEC3"
    },
    {
      "bufferView": 2,
      "byteOffset": 603168,
      "componentType": 5126,
      "count": 3186,
      "max": [
        0.9980267882347107,
        0.9980267882347107,
        1.0
      ],
      "min": [
        -0.9980267882347107,
        -1.0,
        -1.0
      ],
      "type": "VEC3"
    },
    {
      "bufferView": 1,
      "byteOffset": 188312,
      "componentType": 5126,
      "count": 3186,
      "max": [
        92.33390045166016,
        51.775001525878906
      ],
      "min": [
        -2.059390068054199,
        -4.782080173492432
      ],
      "type": "VEC2"
    },
    {
      "bufferView": 0,
      "byteOffset": 189336,
      "componentType": 5125,
      "count": 9078,
      "type": "SCALAR"
    },
    {
      "bufferView": 2,
      "byteOffset": 641400,
      "componentType": 5126,
      "count": 6610,
      "max": [
        144.55099487304688,
        61.442100524902344,
        49.8125
      ],
      "min": [
        55.147098541259766,
        40.76139831542969,
        23.38479995727539
      ],
      "type": "VEC3"
    },
    {
      "bufferView": 2,
      "byteOffset": 720720,
      "componentType": 5126,
      "count": 6610,
      "max": [
        1.0,
        1.0,
        1.0
      ],
      "min": [
        -1.0,
        -1.0,
        -1.0
      ],
      "type": "VEC3"
    },
    {
      "bufferView": 1,
      "byteOffset": 213800,
      "componentType": 5126,
      "count": 6610,
      "max": [
        106.9530029296875,
        49.3125
      ],
      "min": [
        -106.9530029296875,
        -16.5
      ],
      "type": "VEC2"
    },
    {
      "bufferView": 0,
      "byteOffset": 225648,
      "componentType": 5125,
      "count": 13350,
      "type": "SCALAR"
    },
    {
      "bufferView": 2,
      "byteOffset": 800040,
      "componentType": 5126,
      "count": 291,
      "max": [
        128.08999633789063,
        49.8401985168457,
        52.375
      ],
      "min": [
        126.12200164794922,
        49.83890151977539,
        50.375
      ],
      "type": "VEC3"
    },
    {
      "bufferView": 2,
      "byteOffset": 803532,
      "componentType": 5126,
      "count": 291,
      "max": [
        1.128170064590699e-16,
        1.0,
        0.0
      ],
      "min": [
        -1.2503799782205495e-16,
        -1.0,
        -8.881779961836516e-16
      ],
      "type": "VEC3"
    },
    {
      "bufferView": 1,
      "byteOffset": 266680,
      "componentType": 5126,
      "count": 291,
      "max": [
        92.4259033203125,
        51.875
      ],
      "min": [
        -1.1543699502944946,
        0.0
      ],
      "type": "VEC2"
    },
    {
      "bufferView": 0,
      "byteOffset": 279048,
      "componentType": 5125,
      "count": 807,
      "type": "SCALAR"
    },
    {
      "bufferView": 2,
      "byteOffset": 807024,
      "componentType": 5126,
      "count": 1767,
      "max": [
        220.8509979248047,
        59.670501708984375,
        50.75490188598633
      ],
      "min": [
        35.66379928588867,
        43.76490020751953,
        20.5
      ],
      "type": "VEC3"
    },
    {
      "bufferView": 2,
      "byteOffset": 828228,
      "componentType": 5126,
      "count": 1767,
      "max": [
        0.9921111464500427,
        0.9959205389022827,
        1.0
      ],
      "min": [
        -0.9919589757919312,
        -0.9977673292160034,
        -1.0
      ],
      "type": "VEC3"
    },
    {
      "bufferView": 1,
      "byteOffset": 269008,
      "componentType": 5126,
      "count": 1767,
      "max": [
        37.9650993347168,
        47.191001892089844
      ],
      "min": [
        -37.9650993347168,
        -0.0877889022231102
      ],
      "type": "VEC2"
    },
    {
      "bufferView": 0,
      "byteOffset": 282276,
      "componentType": 5125,
      "count": 3417,
      "type": "SCALAR"
    },
    {
      "bufferView": 2,
      "byteOffset": 849432,
      "componentType": 5126,
      "count": 9907,
      "max": [
        222.87399291992188,
        59.711299896240234,
        49.76190185546875
      ],
      "min": [
        144.63699340820313,
        43.247100830078125,
        17.940900802612305
      ],
      "type": "VEC3"
    },
    {
      "bufferView": 2,
      "byteOffset": 968316,
      "componentType": 5126,
      "count": 9907,
      "max": [
        0.9999679923057556,
        0.9988872408866882,
        1.0
      ],
      "min": [
        -0.9999679923057556,
        -0.9988872408866882,
        -1.0
      ],
      "type": "VEC3"
    },
    {
      "bufferView": 1,
      "byteOffset": 283144,
      "componentType": 5126,
      "count": 9907,
      "max": [
        16.16900062561035,
        16.034500122070313
      ],
      "min": [
        -16.16900062561035,
        -8.6145601272583
      ],
      "type": "VEC2"
    },
    {
      "bufferView": 0,
      "byteOffset": 295944,
      "componentType": 5125,
      "count": 19905,
      "type": "SCALAR"
    },
    {
      "bufferView": 2,
      "byteOffset": 1087200,
      "componentType": 5126,
      "count": 5797,
      "max": [
        220.8509979248047,
        60.46500015258789,
        61.25490188598633
      ],
      "min": [
        87.79280090332031,
        42.56439971923828,
        0.7533959746360779
      ],
      "type": "VEC3"
    },
    {
      "bufferView": 2,
      "byteOffset": 1156764,
      "componentType": 5126,
      "count": 5797,
      "max": [
        0.9999679923057556,
        0.9999679923057556,
        1.0
      ],
      "min": [
        -0.9999679923057556,
        -0.9999679923057556,
        -1.0
      ],
      "type": "VEC3"
    },
    {
      "bufferView": 1,
      "byteOffset": 362400,
      "componentType": 5126,
      "count": 5797,
      "max": [
        76.49210357666016,
        59.387298583984375
      ],
      "min": [
        -76.49210357666016,
        -30.611000061035156
      ],
      "type": "VEC2"
    },
    {
      "bufferView": 0,
      "byteOffset": 375564,
      "componentType": 5125,
      "count": 10611,
      "type": "SCALAR"
    },
    {
      "bufferView": 2,
      "byteOffset": 1226328,
      "componentType": 5126,
      "count": 9344,
      "max": [
        244.1820068359375,
        -14.495499610900879,
        28.498600006103516
      ],
      "min": [
        235.0,
        -16.956499099731445,
        19.31679916381836
      ],
      "type": "VEC3"
    },
    {
      "bufferView": 2,
      "byteOffset": 1338456,
      "componentType": 5126,
      "count": 9344,
      "max": [
        1.0,
        1.0,
        1.0
      ],
      "min": [
        -1.0,
        -1.0,
        -1.0
      ],
      "type": "VEC3"
    },
    {
      "bufferView": 1,
      "byteOffset": 408776,
      "componentType": 5126,
      "count": 9344,
      "max": [
        25.766000747680664,
        27.904399871826172
      ],
      "min": [
        -25.766000747680664,
        -27.904399871826172
      ],
      "type": "VEC2"
    },
    {
      "bufferView": 0,
      "byteOffset": 418008,
      "componentType": 5125,
      "count": 16095,
      "type": "SCALAR"
    },
    {
      "bufferView": 2,
      "byteOffset": 1450584,
      "componentType": 5126,
      "count": 934,
      "max": [
        248.0659942626953,
        11.828700065612793,
        21.186199188232422
      ],
      "min": [
        231.12100219726563,
        6.115940093994141,
        12.871899604797363
      ],
      "type": "VEC3"
    },
    {
      "bufferView": 2,
      "byteOffset": 1461792,
      "componentType": 5126,
      "count": 934,
      "max": [
        1.0,
        1.0,
        1.0
      ],
      "min": [
        -1.0,
        -1.0,
        -1.0
      ],
      "type": "VEC3"
    },
    {
      "bufferView": 1,
      "byteOffset": 483528,
      "componentType": 5126,
      "count": 934,
      "max": [
        63.9375,
        58.32509994506836
      ],
      "min": [
        -63.9375,
        -61.9375
      ],
      "type": "VEC2"
    },
    {
      "bufferView": 0,
      "byteOffset": 482388,
      "componentType": 5125,
      "count": 2142,
      "type": "SCALAR"
    },
    {
      "bufferView": 2,
      "byteOffset": 1473000,
      "componentType": 5126,
      "count": 21198,
      "max": [
        248.51300048828125,
        -7.03311014175415,
        32.829898834228516
      ],
      "min": [
        230.66900634765625,
        -14.339599609375,
        12.871899604797363
      ],
      "type": "VEC3"
    },
    {
      "bufferView": 2,
      "byteOffset": 1727376,
      "componentType": 5126,
      "count": 21198,
      "max": [
        1.0,
        1.0,
        1.0
      ],
      "min": [
        -1.0,
        -1.0,
        -1.0
      ],
      "type": "VEC3"
    },
    {
      "bufferView": 1,
      "byteOffset": 491000,
      "componentType": 5126,
      "count": 21198,
      "max": [
        56.33599853515625,
        52.186798095703125
      ],
      "min": [
        -61.54650115966797,
        -61.9375
      ],
      "type": "VEC2"
    },
    {
      "bufferView": 0,
      "byteOffset": 490956,
      "componentType": 5125,
      "count": 39270,
      "type": "SCALAR"
    },
    {
      "bufferView": 2,
      "byteOffset": 1981752,
      "componentType": 5126,
      "count": 9234,
      "max": [
        248.29299926757813,
        15.0693998336792,
        32.609798431396484
      ],
      "min": [
        230.88900756835938,
        -8.887760162353516,
        15.205599784851074
      ],
      "type": "VEC3"
    },
    {
      "bufferView": 2,
      "byteOffset": 2092560,
      "componentType": 5126,
      "count": 9234,
      "max": [
        1.0,
        1.0,
        1.0
      ],
      "min": [
        -1.0,
        -1.0,
        -1.0
      ],
      "type": "VEC3"
    },
    {
      "bufferView": 1,
      "byteOffset": 660584,
      "componentType": 5126,
      "count": 9234,
      "max": [
        236.36399841308594,
        851.3259887695313
      ],
      "min": [
        -272.8039855957031,
        -73.67579650878906
      ],
      "type": "VEC2"
    },
    {
      "bufferView": 0,
      "byteOffset": 648036,
      "componentType": 5125,
      "count": 18312,
      "type": "SCALAR"
    },
    {
      "bufferView": 2,
      "byteOffset": 2203368,
      "componentType": 5126,
      "count": 5844,
      "max": [
        246.48800659179688,
        10.947999954223633,
        30.80470085144043
      ],
      "min": [
        232.69400024414063,
        -8.887760162353516,
        17.010700225830078
      ],
      "type": "VEC3"
    },
    {
      "bufferView": 2,
      "byteOffset": 2273496,
      "componentType": 5126,
      "count": 5844,
      "max": [
        1.0,
        1.0,
        1.0
      ],
      "min": [
        -1.0,
        -1.0,
        -1.0
      ],
      "type": "VEC3"
    },
    {
      "bufferView": 1,
      "byteOffset": 734456,
      "componentType": 5126,
      "count": 5844,
      "max": [
        83.70719909667969,
        75.31580352783203
      ],
      "min": [
        -83.70719909667969,
        -73.67579650878906
      ],
      "type": "VEC2"
    },
    {
      "bufferView": 0,
      "byteOffset": 721284,
      "componentType": 5125,
      "count": 14850,
      "type": "SCALAR"
    },
    {
      "bufferView": 2,
      "byteOffset": 2343624,
      "componentType": 5126,
      "count": 9012,
      "max": [
        259.47698974609375,
        8.048290252685547,
        44.94419860839844
      ],
      "min": [
        232.24899291992188,
        -22.602500915527344,
        16.565500259399414
      ],
      "type": "VEC3"
    },
    {
      "bufferView": 2,
      "byteOffset": 2451768,
      "componentType": 5126,
      "count": 9012,
      "max": [
        1.0,
        1.0,
        1.0
      ],
      "min": [
        -1.0,
        -1.0,
        -1.0
      ],
      "type": "VEC3"
    },
    {
      "bufferView": 1,
      "byteOffset": 781208,
      "componentType": 5126,
      "count": 9012,
      "max": [
        236.36399841308594,
        851.3259887695313
      ],
      "min": [
        -272.8039855957031,
        -24.088600158691406
      ],
      "type": "VEC2"
    },
    {
      "bufferView": 0,
      "byteOffset": 780684,
      "componentType": 5125,
      "count": 17094,
      "type": "SCALAR"
    },
    {
      "bufferView": 2,
      "byteOffset": 2559912,
      "componentType": 5126,
      "count": 7566,
      "max": [
        243.89199829101563,
        -14.139599800109863,
        28.208599090576172
      ],
      "min": [
        235.2899932861328,
        -16.907899856567383,
        19.606800079345703
      ],
      "type": "VEC3"
    },
    {
      "bufferView": 2,
      "byteOffset": 2650704,
      "componentType": 5126,
      "count": 7566,
      "max": [
        1.0,
        1.0,
        1.0
      ],
      "min": [
        -1.0,
        -1.0,
        -1.0
      ],
      "type": "VEC3"
    },
    {
      "bufferView": 1,
      "byteOffset": 853304,
      "componentType": 5126,
      "count": 7566,
      "max": [
        14.620200157165527,
        9.170069694519043
      ],
      "min": [
        -14.620200157165527,
        -9.170069694519043
      ],
      "type": "VEC2"
    },
    {
      "bufferView": 0,
      "byteOffset": 849060,
      "componentType": 5125,
      "count": 17883,
      "type": "SCALAR"
    },
    {
      "bufferView": 2,
      "byteOffset": 2741496,
      "componentType": 5126,
      "count": 6054,
      "max": [
        259.6449890136719,
        8.053669929504395,
        44.54719924926758
      ],
      "min": [
        231.12100219726563,
        -16.907899856567383,
        17.15489959716797
      ],
      "type": "VEC3"
    },
    {
      "bufferView": 2,
      "byteOffset": 2814144,
      "componentType": 5126,
      "count": 6054,
      "max": [
        1.0,
        1.0,
        1.0
      ],
      "min": [
        -1.0,
        -1.0,
        -1.0
      ],
      "type": "VEC3"
    },
    {
      "bufferView": 1,
      "byteOffset": 913832,
      "componentType": 5126,
      "count": 6054,
      "max": [
        60.67679977416992,
        48.36280059814453
      ],
      "min": [
        -61.78139877319336,
        -37.395999908447266
      ],
      "type": "VEC2"
    },
    {
      "bufferView": 0,
      "byteOffset": 920592,
      "componentType": 5125,
      "count": 12783,
      "type": "SCALAR"
    },
    {
      "bufferView": 2,
      "byteOffset": 2886792,
      "componentType": 5126,
      "count": 1687,
      "max": [
        246.19900512695313,
        11.233200073242188,
        30.50860023498535
      ],
      "min": [
        245.48599243164063,
        10.455699920654297,
        29.79560089111328
      ],
      "type": "VEC3"
    },
    {
      "bufferView": 2,
      "byteOffset": 2907036,
      "componentType": 5126,
      "count": 1687,
      "max": [
        0.9423912167549133,
        1.0,
        0.9423912167549133
      ],
      "min": [
        -0.7071068286895752,
        -1.0,
        -0.7071068286895752
      ],
      "type": "VEC3"
    },
    {
      "bufferView": 1,
      "byteOffset": 962264,
      "componentType": 5126,
      "count": 1687,
      "max": [
        236.36399841308594,
        851.3259887695313
      ],
      "min": [
        -272.8039855957031,
        -2.7752299156663662e-12
      ],
      "type": "VEC2"
    },
    {
      "bufferView": 0,
      "byteOffset": 971724,
      "componentType": 5125,
      "count": 3213,
      "type": "SCALAR"
    },
    {
      "bufferView": 2,
      "byteOffset": 2927280,
      "componentType": 5126,
      "count": 1694,
      "max": [
        263.385986328125,
        5.37608003616333,
        46.61149978637695
      ],
      "min": [
        255.74899291992188,
        -0.1260789930820465,
        33.458499908447266
      ],
      "type": "VEC3"
    },
    {
      "bufferView": 2,
      "byteOffset": 2947608,
      "componentType": 5126,
      "count": 1694,
      "max": [
        1.0,
        1.0,
        1.0
      ],
      "min": [
        -1.0,
        -1.0,
        -1.0
      ],
      "type": "VEC3"
    },
    {
      "bufferView": 1,
      "byteOffset": 975760,
      "componentType": 5126,
      "count": 1694,
      "max": [
        5.3480401039123535,
        3.1509199142456055
      ],
      "min": [
        -5.3480401039123535,
        -10.989899635314941
      ],
      "type": "VEC2"
    },
    {
      "bufferView": 0,
      "byteOffset": 984576,
      "componentType": 5125,
      "count": 2772,
      "type": "SCALAR"
    },
    {
      "bufferView": 2,
      "byteOffset": 2967936,
      "componentType": 5126,
      "count": 1926,
      "max": [
        165.19700622558594,
        45.5791015625,
        40.58489990234375
      ],
      "min": [
        151.49600219726563,
        38.806800842285156,
        31.332000732421875
      ],
      "type": "VEC3"
    },
    {
      "bufferView": 2,
      "byteOffset": 2991048,
      "componentType": 5126,
      "count": 1926,
      "max": [
        1.0,
        1.0,
        1.0
      ],
      "min": [
        -1.0,
        -1.0,
        -1.0
      ],
      "type": "VEC3"
    },
    {
      "bufferView": 1,
      "byteOffset": 989312,
      "componentType": 5126,
      "count": 1926,
      "max": [
        20.559900283813477,
        21.459299087524414
      ],
      "min": [
        -20.559900283813477,
        -18.75469970703125
      ],
      "type": "VEC2"
    },
    {
      "bufferView": 0,
      "byteOffset": 995664,
      "componentType": 5125,
      "count": 3858,
      "type": "SCALAR"
    },
    {
      "bufferView": 2,
      "byteOffset": 3014160,
      "componentType": 5126,
      "count": 6202,
      "max": [
        144.55099487304688,
        60.411800384521484,
        43.76020050048828
      ],
      "min": [
        87.77680206298828,
        41.520599365234375,
        26.789600372314453
      ],
      "type": "VEC3"
    },
    {
      "bufferView": 2,
      "byteOffset": 3088584,
      "componentType": 5126,
      "count": 6202,
      "max": [
        0.9999679923057556,
        0.9998422265052795,
        1.0
      ],
      "min": [
        -0.9999679923057556,
        -0.9998422265052795,
        -0.9998422265052795
      ],
      "type": "VEC3"
    },
    {
      "bufferView": 1,
      "byteOffset": 1004720,
      "componentType": 5126,
      "count": 6202,
      "max": [
        76.49420166015625,
        42.36040115356445
      ],
      "min": [
        -76.49420166015625,
        -8.6145601272583
      ],
      "type": "VEC2"
    },
    {
      "bufferView": 0,
      "byteOffset": 1011096,
      "componentType": 5125,
      "count": 12420,
      "type": "SCALAR"
    },
    {
      "bufferView": 2,
      "byteOffset": 3163008,
      "componentType": 5126,
      "count": 1695,
      "max": [
        262.0060119628906,
        5.25,
        44.94609832763672
      ],
      "min": [
        256.7560119628906,
        0.0,
        29.611499786376953
      ],
      "type": "VEC3"
    },
    {
      "bufferView": 2,
      "byteOffset": 3183348,
      "componentType": 5126,
      "count": 1695,
      "max": [
        1.0,
        1.0,
        1.0
      ],
      "min": [
        -1.0,
        -1.0,
        -1.0
      ],
      "type": "VEC3"
    },
    {
      "bufferView": 1,
      "byteOffset": 1054336,
      "componentType": 5126,
      "count": 1695,
      "max": [
        3.023550033569336,
        15.334600448608398
      ],
      "min": [
        -5.160560131072998,
        -2.118499994277954
      ],
      "type": "VEC2"
    },
    {
      "bufferView": 0,
      "byteOffset": 1060776,
      "componentType": 5125,
      "count": 2733,
      "type": "SCALAR"
    },
    {
      "bufferView": 2,
      "byteOffset": 3203688,
      "componentType": 5126,
      "count": 1484,
      "max": [
        261.5140075683594,
        3.3162500858306885,
        45.87329864501953
      ],
      "min": [
        256.07501220703125,
        1.8870099782943726,
        33.14500045776367
      ],
      "type": "VEC3"
    },
    {
      "bufferView": 2,
      "byteOffset": 3221496,
      "componentType": 5126,
      "count": 1484,
      "max": [
        1.0,
        1.0,
        1.0
      ],
      "min": [
        -1.0,
        -1.0,
        -1.0
      ],
      "type": "VEC3"
    },
    {
      "bufferView": 1,
      "byteOffset": 1067896,
      "componentType": 5126,
      "count": 1484,
      "max": [
        2.85794997215271,
        2.272089958190918
      ],
      "min": [
        -2.85794997215271,
        -11.302399635314941
      ],
      "type": "VEC2"
    },
    {
      "bufferView": 0,
      "byteOffset": 1071708,
      "componentType": 5125,
      "count": 3192,
      "type": "SCALAR"
    }
  ],
  "asset": {
    "extras": {
      "author": "Ogunyemi.Yusuf.Oyesola (https://sketchfab.com/Ogunyemi.Yusuf.Oyesola)",
      "license": "CC-BY-4.0 (http://creativecommons.org/licenses/by/4.0/)",
      "source": "https://sketchfab.com/3d-models/pipe-6d10930858aa40f3ae2b175937f0eae5",
      "title": "pipe"
    },
    "generator": "Sketchfab-12.65.0",
    "version": "2.0"
  },
  "bufferViews": [
    {
      "buffer": 0,
      "byteLength": 1084476,
      "name": "floatBufferViews",
      "target": 34963
    },
    {
      "buffer": 0,
      "byteLength": 1079768,
      "byteOffset": 1084476,
      "byteStride": 8,
      "name": "floatBufferViews",
      "target": 34962
    },
    {
      "buffer": 0,
      "byteLength": 3239304,
      "byteOffset": 2164244,
      "byteStride": 12,
      "name": "floatBufferViews",
      "target": 34962
    }
  ],
  "buffers": [
    {
      "byteLength": 5403548,
      "uri": "scene.bin"
    }
  ],
  "materials": [
    {
      "doubleSided": true,
      "name": "Cladding_Stucco_White",
      "pbrMetallicRoughness": {
        "metallicFactor": 0.0,
        "roughnessFactor": 0.6
      }
    },
    {
      "doubleSided": true,
      "name": "Color_001",
      "pbrMetallicRoughness": {
        "metallicFactor": 0.0,
        "roughnessFactor": 0.6
      }
    },
    {
      "doubleSided": true,
      "name": "Color_002",
      "pbrMetallicRoughness": {
        "metallicFactor": 0.0,
        "roughnessFactor": 0.6
      }
    },
    {
      "doubleSided": true,
      "name": "Color_003",
      "pbrMetallicRoughness": {
        "metallicFactor": 0.0,
        "roughnessFactor": 0.6
      }
    },
    {
      "doubleSided": true,
      "name": "Color_009",
      "pbrMetallicRoughness": {
        "metallicFactor": 0.0,
        "roughnessFactor": 0.6
      }
    },
    {
      "doubleSided": true,
      "name": "Color_C11",
      "pbrMetallicRoughness": {
        "metallicFactor": 0.0,
        "roughnessFactor": 0.6
      }
    },
    {
      "doubleSided": true,
      "name": "Color_D01",
      "pbrMetallicRoughness": {
        "metallicFactor": 0.0,
        "roughnessFactor": 0.6
      }
    },
    {
      "doubleSided": true,
      "name": "Color_D02",
      "pbrMetallicRoughness": {
        "metallicFactor": 0.0,
        "roughnessFactor": 0.6
      }
    },
    {
      "doubleSided": true,
      "name": "Color_G06",
      "pbrMetallicRoughness": {
        "metallicFactor": 0.0,
        "roughnessFactor": 0.6
      }
    },
    {
      "doubleSided": true,
      "name": "Color_H05",
      "pbrMetallicRoughness": {
        "metallicFactor": 0.0,
        "roughnessFactor": 0.6
      }
    },
    {
      "doubleSided": true,
      "name": "Color_H07",
      "pbrMetallicRoughness": {
        "metallicFactor": 0.0,
        "roughnessFactor": 0.6
      }
    },
    {
      "doubleSided": true,
      "name": "Color_I02",
      "pbrMetallicRoughness": {
        "metallicFactor": 0.0,
        "roughnessFactor": 0.6
      }
    },
    {
      "doubleSided": true,
      "name": "Color_I03",
      "pbrMetallicRoughness": {
        "metallicFactor": 0.0,
        "roughnessFactor": 0.6
      }
    },
    {
      "doubleSided": true,
      "name": "Color_M02",
      "pbrMetallicRoughness": {
        "metallicFactor": 0.0,
        "roughnessFactor": 0.6
      }
    },
    {
      "doubleSided": true,
      "name": "Color_M05",
      "pbrMetallicRoughness": {
        "metallicFactor": 0.0,
        "roughnessFactor": 0.6
      }
    },
    {
      "doubleSided": true,
      "name": "Color_M07",
      "pbrMetallicRoughness": {
        "metallicFactor": 0.0,
        "roughnessFactor": 0.6
      }
    },
    {
      "doubleSided": true,
      "name": "FrontColor",
      "pbrMetallicRoughness": {
        "metallicFactor": 0.0,
        "roughnessFactor": 0.6
      }
    },
    {
      "doubleSided": true,
      "name": "material",
      "pbrMetallicRoughness": {
        "metallicFactor": 0.0,
        "roughnessFactor": 0.6
      }
    },
    {
      "doubleSided": true,
      "name": "Charcoal",
      "pbrMetallicRoughness": {
        "metallicFactor": 0.0,
        "roughnessFactor": 0.6
      }
    },
    {
      "doubleSided": true,
      "name": "Color_003_1",
      "pbrMetallicRoughness": {
        "metallicFactor": 0.0,
        "roughnessFactor": 0.6
      }
    },
    {
      "doubleSided": true,
      "name": "Color_003_2",
      "pbrMetallicRoughness": {
        "metallicFactor": 0.0,
        "roughnessFactor": 0.6
      }
    },
    {
      "doubleSided": true,
      "name": "Color_003_3",
      "pbrMetallicRoughness": {
        "metallicFactor": 0.0,
        "roughnessFactor": 0.6
      }
    },
    {
      "doubleSided": true,
      "name": "FireBrick",
      "pbrMetallicRoughness": {
        "metallicFactor": 0.0,
        "roughnessFactor": 0.6
      }
    },
    {
      "doubleSided": true,
      "name": "Silver",
      "pbrMetallicRoughness": {
        "metallicFactor": 0.0,
        "roughnessFactor": 0.6
      }
    },
    {
      "doubleSided": true,
      "name": "fireext3",
      "pbrMetallicRoughness": {
        "metallicFactor": 0.0,
        "roughnessFactor": 0.6
      }
    }
  ],
  "meshes": [
    {
      "name": "Object_0",
      "primitives": [
        {
          "attributes": {
            "NORMAL": 1,
            "POSITION": 0,
            "TEXCOORD_0": 2
          },
          "indices": 3,
          "material": 1,
          "mode": 4
        }
      ]
    },
    {
      "name": "Object_1",
      "primitives": [
        {
          "attributes": {
            "NORMAL": 5,
            "POSITION": 4,
            "TEXCOORD_0": 6
          },
          "indices": 7,
          "material": 9,
          "mode": 4
        }
      ]
    },
    {
      "name": "Object_2",
      "primitives": [
        {
          "attributes": {
            "NORMAL": 9,
            "POSITION": 8,
            "TEXCOORD_0": 10
          },
          "indices": 11,
          "material": 8,
          "mode": 4
        }
      ]
    },
    {
      "name": "Object_3",
      "primitives": [
        {
          "attributes": {
            "NORMAL": 13,
            "POSITION": 12,
            "TEXCOORD_0": 14
          },
          "indices": 15,
          "material": 7,
          "mode": 4
        }
      ]
    },
    {
      "name": "Object_4",
      "primitives": [
        {
          "attributes": {
            "NORMAL": 17,
            "POSITION": 16,
            "TEXCOORD_0": 18
          },
          "indices": 19,
          "material": 10,
          "mode": 4
        }
      ]
    },
    {
      "name": "Object_5",
      "primitives": [
        {
          "attributes": {
            "NORMAL": 21,
            "POSITION": 20,
            "TEXCOORD_0": 22
          },
          "indices": 23,
          "material": 10,
          "mode": 4
        }
      ]
    },
    {
      "name": "Object_6",
      "primitives": [
        {
          "attributes": {
            "NORMAL": 25,
            "POSITION": 24,
            "TEXCOORD_0": 26
          },
          "indices": 27,
          "material": 15,
          "mode": 4
        }
      ]
    },
    {
      "name": "Object_7",
      "primitives": [
        {
          "attributes": {
            "NORMAL": 29,
            "POSITION": 28,
            "TEXCOORD_0": 30
          },
          "indices": 31,
          "material": 21,
          "mode": 4
        }
      ]
    },
    {
      "name": "Object_8",
      "primitives": [
        {
          "attributes": {
            "NORMAL": 33,
            "POSITION": 32,
            "TEXCOORD_0": 34
          },
          "indices": 35,
          "material": 24,
          "mode": 4
        }
      ]
    },
    {
      "name": "Object_9",
      "primitives": [
        {
          "attributes": {
            "NORMAL": 37,
            "POSITION": 36,
            "TEXCOORD_0": 38
          },
          "indices": 39,
          "material": 0,
          "mode": 4
        }
      ]
    },
    {
      "name": "Object_10",
      "primitives": [
        {
          "attributes": {
            "NORMAL": 41,
            "POSITION": 40,
            "TEXCOORD_0": 42
          },
          "indices": 43,
          "material": 2,
          "mode": 4
        }
      ]
    },
    {
      "name": "Object_11",
      "primitives": [
        {
          "attributes": {
            "NORMAL": 45,
            "POSITION": 44,
            "TEXCOORD_0": 46
          },
          "indices": 47,
          "material": 3,
          "mode": 4
        }
      ]
    },
    {
      "name": "Object_12",
      "primitives": [
        {
          "attributes": {
            "NORMAL": 49,
            "POSITION": 48,
            "TEXCOORD_0": 50
          },
          "indices": 51,
          "material": 4,
          "mode": 4
        }
      ]
    },
    {
      "name": "Object_13",
      "primitives": [
        {
          "attributes": {
            "NORMAL": 53,
            "POSITION": 52,
            "TEXCOORD_0": 54
          },
          "indices": 55,
          "material": 5,
          "mode": 4
        }
      ]
    },
    {
      "name": "Object_14",
      "primitives": [
        {
          "attributes": {
            "NORMAL": 57,
            "POSITION": 56,
            "TEXCOORD_0": 58
          },
          "indices": 59,
          "material": 6,
          "mode": 4
        }
      ]
    },
    {
      "name": "Object_15",
      "primitives": [
        {
          "attributes": {
            "NORMAL": 61,
            "POSITION": 60,
            "TEXCOORD_0": 62
          },
          "indices": 63,
          "material": 11,
          "mode": 4
        }
      ]
    },
    {
      "name": "Object_16",
      "primitives": [
        {
          "attributes": {
            "NORMAL": 65,
            "POSITION": 64,
            "TEXCOORD_0": 66
          },
          "indices": 67,
          "material": 12,
          "mode": 4
        }
      ]
    },
    {
      "name": "Object_17",
      "primitives": [
        {
          "attributes": {
            "NORMAL": 69,
            "POSITION": 68,
            "TEXCOORD_0": 70
          },
          "indices": 71,
          "material": 12,
          "mode": 4
        }
      ]
    },
    {
      "name": "Object_18",
      "primitives": [
        {
          "attributes": {
            "NORMAL": 73,
            "POSITION": 72,
            "TEXCOORD_0": 74
          },
          "indices": 75,
          "material": 13,
          "mode": 4
        }
      ]
    },
    {
      "name": "Object_19",
      "primitives": [
        {
          "attributes": {
            "NORMAL": 77,
            "POSITION": 76,
            "TEXCOORD_0": 78
          },
          "indices": 79,
          "material": 13,
          "mode": 4
        }
      ]
    },
    {
      "name": "Object_20",
      "primitives": [
        {
          "attributes": {
            "NORMAL": 81,
            "POSITION": 80,
            "TEXCOORD_0": 82
          },
          "indices": 83,
          "material": 13,
          "mode": 4
        }
      ]
    },
    {
      "name": "Object_21",
      "primitives": [
        {
          "attributes": {
            "NORMAL": 85,
            "POSITION": 84,
            "TEXCOORD_0": 86
          },
          "indices": 87,
          "material": 14,
          "mode": 4
        }
      ]
    },
    {
      "name": "Object_22",
      "primitives": [
        {
          "attributes": {
            "NORMAL": 89,
            "POSITION": 88,
            "TEXCOORD_0": 90
          },
          "indices": 91,
          "material": 14,
          "mode": 4
        }
      ]
    },
    {
      "name": "Object_23",
      "primitives": [
        {
          "attributes": {
            "NORMAL": 93,
            "POSITION": 92,
            "TEXCOORD_0": 94
          },
          "indices": 95,
          "material": 16,
          "mode": 4
        }
      ]
    },
    {
      "name": "Object_24",
      "primitives": [
        {
          "attributes": {
            "NORMAL": 97,
            "POSITION": 96,
            "TEXCOORD_0": 98
          },
          "indices": 99,
          "material": 16,
          "mode": 4
        }
      ]
    },
    {
      "name": "Object_25",
      "primitives": [
        {
          "attributes": {
            "NORMAL": 101,
            "POSITION": 100,
            "TEXCOORD_0": 102
          },
          "indices": 103,
          "material": 16,
          "mode": 4
        }
      ]
    },
    {
      "name": "Object_26",
      "primitives": [
        {
          "attributes": {
            "NORMAL": 105,
            "POSITION": 104,
            "TEXCOORD_0": 106
          },
          "indices": 107,
          "material": 17,
          "mode": 4
        }
      ]
    },
    {
      "name": "Object_27",
      "primitives": [
        {
          "attributes": {
            "NORMAL": 109,
            "POSITION": 108,
            "TEXCOORD_0": 110
          },
          "indices": 111,
          "material": 18,
          "mode": 4
        }
      ]
    },
    {
      "name": "Object_28",
      "primitives": [
        {
          "attributes": {
            "NORMAL": 113,
            "POSITION": 112,
            "TEXCOORD_0": 114
          },
          "indices": 115,
          "material": 19,
          "mode": 4
        }
      ]
    },
    {
      "name": "Object_29",
      "primitives": [
        {
          "attributes": {
            "NORMAL": 117,
            "POSITION": 116,
            "TEXCOORD_0": 118
          },
          "indices": 119,
          "material": 20,
          "mode": 4
        }
      ]
    },
    {
      "name": "Object_30",
      "primitives": [
        {
          "attributes": {
            "NORMAL": 121,
            "POSITION": 120,
            "TEXCOORD_0": 122
          },
          "indices": 123,
          "material": 22,
          "mode": 4
        }
      ]
    },
    {
      "name": "Object_31",
      "primitives": [
        {
          "attributes": {
            "NORMAL": 125,
            "POSITION": 124,
            "TEXCOORD_0": 126
          },
          "indices": 127,
          "material": 23,
          "mode": 4
        }
      ]
    }
  ],
  "nodes": [
    {
      "children": [
        1
      ],
      "matrix": [
        1.0,
        0.0,
        0.0,
        0.0,
        0.0,
        2.220446049250313e-16,
        -1.0,
        0.0,
        0.0,
        1.0,
        2.220446049250313e-16,
        0.0,
        0.0,
        0.0,
        0.0,
        1.0
      ],
      "name": "Sketchfab_model"
    },
    {
      "children": [
        2,
        3,
        4,
        5,
        6,
        7,
        8,
        9,
        10,
        11,
        12,
        13,
        14,
        15,
        16,
        17,
        18,
        19,
        20,
        21,
        22,
        23,
        24,
        25,
        26,
        27,
        28,
        29,
        30,
        31,
        32,
        33
      ],
      "name": "pipe.obj.cleaner.materialmerger.gles"
    },
    {
      "mesh": 0,
      "name": "Object_2"
    },
    {
      "mesh": 1,
      "name": "Object_3"
    },
    {
      "mesh": 2,
      "name": "Object_4"
    },
    {
      "mesh": 3,
      "name": "Object_5"
    },
    {
      "mesh": 4,
      "name": "Object_6"
    },
    {
      "mesh": 5,
      "name": "Object_7"
    },
    {
      "mesh": 6,
      "name": "Object_8"
    },
    {
      "mesh": 7,
      "name": "Object_9"
    },
    {
      "mesh": 8,
      "name": "Object_10"
    },
    {
      "mesh": 9,
      "name": "Object_11"
    },
    {
      "mesh": 10,
      "name": "Object_12"
    },
    {
      "mesh": 11,
      "name": "Object_13"
    },
    {
      "mesh": 12,
      "name": "Object_14"
    },
    {
      "mesh": 13,
      "name": "Object_15"
    },
    {
      "mesh": 14,
      "name": "Object_16"
    },
    {
      "mesh": 15,
      "name": "Object_17"
    },
    {
      "mesh": 16,
      "name": "Object_18"
    },
    {
      "mesh": 17,
      "name": "Object_19"
    },
    {
      "mesh": 18,
      "name": "Object_20"
    },
    {
      "mesh": 19,
      "name": "Object_21"
    },
    {
      "mesh": 20,
      "name": "Object_22"
    },
    {
      "mesh": 21,
      "name": "Object_23"
    },
    {
      "mesh": 22,
      "name": "Object_24"
    },
    {
      "mesh": 23,
      "name": "Object_25"
    },
    {
      "mesh": 24,
      "name": "Object_26"
    },
    {
      "mesh": 25,
      "name": "Object_27"
    },
    {
      "mesh": 26,
      "name": "Object_28"
    },
    {
      "mesh": 27,
      "name": "Object_29"
    },
    {
      "mesh": 28,
      "name": "Object_30"
    },
    {
      "mesh": 29,
      "name": "Object_31"
    },
    {
      "mesh": 30,
      "name": "Object_32"
    },
    {
      "mesh": 31,
      "name": "Object_33"
    }
  ],
  "scene": 0,
  "scenes": [
    {
      "name": "Sketchfab_Scene",
      "nodes": [
        0
      ]
    }
  ]
}
