{
  "accessors": [
    {
      "bufferView": 2,
      "componentType": 5126,
      "count": 9858,
      "max": [
        1.0,
        1.5561810731887817,
        2.26250958442688
      ],
      "min": [
        -1.2668054103851318,
        -1.5561810731887817,
        0.0
      ],
      "type": "VEC3"
    },
    {
      "bufferView": 2,
      "byteOffset": 118296,
      "componentType": 5126,
      "count": 9858,
      "max": [
        1.0,
        1.0,
        1.0
      ],
      "min": [
        -1.0,
        -1.0,
        -1.0
      ],
      "type": "VEC3"
    },
    {
      "bufferView": 3,
      "componentType": 5126,
      "count": 9858,
      "max": [
        1.0,
        1.0,
        1.0,
        1.0
      ],
      "min": [
        -1.0,
        -1.0,
        -1.0,
        -1.0
      ],
      "type": "VEC4"
    },
    {
      "bufferView": 1,
      "componentType": 5126,
      "count": 9858,
      "max": [
        0.9932925701141357,
        0.9941051602363586
      ],
      "min": [
        0.005894863978028297,
        0.005894859321415424
      ],
      "type": "VEC2"
    },
    {
      "bufferView": 0,
      "componentType": 5125,
      "count": 38802,
      "type": "SCALAR"
    },
    {
      "bufferView": 2,
      "byteOffset": 236592,
      "componentType": 5126,
      "count": 1089,
      "max": [
        1.054395079612732,
        0.7742365002632141,
        2.0848135948181152
      ],
      "min": [
        0.8897198438644409,
        -1.3660635948181152,
        0.40385371446609497
      ],
      "type": "VEC3"
    },
    {
      "bufferView": 2,
      "byteOffset": 249660,
      "componentType": 5126,
      "count": 1089,
      "max": [
        1.0,
        0.1807980090379715,
        0.22790075838565826
      ],
      "min": [
        0.9736843705177307,
        -0.18079812824726105,
        -0.22790078818798065
      ],
      "type": "VEC3"
    },
    {
      "bufferView": 3,
      "byteOffset": 157728,
      "componentType": 5126,
      "count": 1089,
      "max": [
        0.22789901494979858,
        0.0038335807621479034,
        -0.9736769199371338,
        1.0
      ],
      "min": [
        -0.22789908945560455,
        -0.003936682362109423,
        -1.0,
        1.0
      ],
      "type": "VEC4"
    },
    {
      "bufferView": 1,
      "byteOffset": 78864,
      "componentType": 5126,
      "count": 1089,
      "max": [
        0.8283161520957947,
        0.548244059085846
      ],
      "min": [
        0.6585112810134888,
        0.3320639133453369
      ],
      "type": "VEC2"
    },
    {
      "bufferView": 0,
      "byteOffset": 155208,
      "componentType": 5125,
      "count": 6144,
      "type": "SCALAR"
    }
  ],
  "asset": {
    "extras": {
      "author": "crow (https://sketchfab.com/crow.bite)",
      "license": "CC-BY-4.0 (http://creativecommons.org/licenses/by/4.0/)",
      "source": "https://sketchfab.com/3d-models/retro-crt-television-29314bf8b66f49f98ad50dffe4950abf",
      "title": "Retro CRT Television"
    },
    "generator": "Sketchfab-16.45.0",
    "version": "2.0"
  },
  "bufferViews": [
    {
      "buffer": 0,
      "byteLength": 179784,
      "name": "floatBufferViews",
      "target": 34963
    },
    {
      "buffer": 0,
      "byteLength": 87576,
      "byteOffset": 179784,
      "byteStride": 8,
      "name": "floatBufferViews",
      "target": 34962
    },
    {
      "buffer": 0,
      "byteLength": 262728,
      "byteOffset": 267360,
      "byteStride": 12,
      "name": "floatBufferViews",
      "target": 34962
    },
    {
      "buffer": 0,
      "byteLength": 175152,
      "byteOffset": 530088,
      "byteStride": 16,
      "name": "floatBufferViews",
      "target": 34962
    }
  ],
  "buffers": [
    {
      "byteLength": 705240,
      "uri": "scene.bin"
    }
  ],
  "images": [
    {
      "uri": "textures/tvsimple_baseColor.png"
    },
    {
      "uri": "textures/tvsimple_metallicRoughness.png"
    },
    {
      "uri": "textures/tvsimple_normal.png"
    }
  ],
  "materials": [
    {
      "doubleSided": true,
      "name": "tvsimple",
      "normalTexture": {
        "index": 2
      },
      "occlusionTexture": {
        "index": 1
      },
      "pbrMetallicRoughness": {
        "baseColorTexture": {
          "index": 0
        },
        "metallicRoughnessTexture": {
          "index": 1
        }
      }
    }
  ],
  "meshes": [
    {
      "name": "Cube_tvsimple_0",
      "primitives": [
        {
          "attributes": {
            "NORMAL": 1,
            "POSITION": 0,
            "TANGENT": 2,
            "TEXCOORD_0": 3
          },
          "indices": 4,
          "material": 0,
          "mode": 4
        }
      ]
    },
    {
      "name": "Cube.001_tvsimple_0",
      "primitives": [
        {
          "attributes": {
            "NORMAL": 6,
            "POSITION": 5,
            "TANGENT": 7,
            "TEXCOORD_0": 8
          },
          "indices": 9,
          "material": 0,
          "mode": 4
        }
      ]
    }
  ],
  "nodes": [
    {
      "children": [
        1
      ],
      "matrix": [
        1.0,
        0.0,
        0.0,
        0.0,
        0.0,
        2.220446049250313e-16,
        -1.0,
        0.0,
        0.0,
        1.0,
        2.220446049250313e-16,
        0.0,
        0.0,
        0.0,
        0.0,
        1.0
      ],
      "name": "Sketchfab_model"
    },
    {
      "children": [
        2
      ],
      "matrix": [
        0.009999999776482582,
        0.0,
        0.0,
        0.0,
        0.0,
        0.0,
        0.009999999776482582,
        0.0,
        0.0,
        -0.009999999776482582,
        0.0,
        0.0,
        0.0,
        0.0,
        0.0,
        1.0
      ],
      "name": "TV_Textures.fbx"
    },
    {
      "children": [
        3,
        5
      ],
      "name": "RootNode"
    },
    {
      "children": [
        4
      ],
      "matrix": [
        100.0,
        0.0,
        0.0,
        0.0,
        0.0,
        -2.8212996916465727e-05,
        -99.99999999999602,
        0.0,
        0.0,
        99.99999999999602,
        -2.8212996916465727e-05,
        0.0,
        0.0,
        0.0,
        0.0,
        1.0
      ],
      "name": "Cube"
    },
    {
      "mesh": 0,
      "name": "Cube_tvsimple_0"
    },
    {
      "children": [
        6
      ],
      "matrix": [
        100.0,
        0.0,
        0.0,
        0.0,
        0.0,
        -2.8212996916465727e-05,
        -99.99999999999602,
        0.0,
        0.0,
        99.99999999999602,
        -2.8212996916465727e-05,
        0.0,
        0.0,
        0.0,
        0.0,
        1.0
      ],
      "name": "Cube.001"
    },
    {
      "mesh": 1,
      "name": "Cube.001_tvsimple_0"
    }
  ],
  "samplers": [
    {
      "magFilter": 9729,
      "minFilter": 9987,
      "wrapS": 10497,
      "wrapT": 10497
    }
  ],
  "scene": 0,
  "scenes": [
    {
      "name": "Sketchfab_Scene",
      "nodes": [
        0
      ]
    }
  ],
  "textures": [
    {
      "sampler": 0,
      "source": 0
    },
    {
      "sampler": 0,
      "source": 1
    },
    {
      "sampler": 0,
      "source": 2
    }
  ]
}
