{
  "accessors": [
    {
      "bufferView": 3,
      "componentType": 5126,
      "count": 7788,
      "max": [
        0.07440013438463211,
        0.142836332321167,
        0.08147022128105164
      ],
      "min": [
        -0.0698632299900055,
        0.0024344762787222862,
        -0.07685322314500809
      ],
      "type": "VEC3"
    },
    {
      "bufferView": 3,
      "byteOffset": 93456,
      "componentType": 5126,
      "count": 7788,
      "max": [
        0.999119758605957,
        0.9993888139724731,
        0.9993107914924622
      ],
      "min": [
        -0.9993516802787781,
        -0.9992207288742065,
        -0.999908447265625
      ],
      "type": "VEC3"
    },
    {
      "bufferView": 4,
      "componentType": 5126,
      "count": 7788,
      "max": [
        0.99998939037323,
        0.9974542260169983,
        0.9999558329582214,
        1.0
      ],
      "min": [
        -0.9940310120582581,
        -0.9996906518936157,
        -0.9999775886535645,
        -1.0
      ],
      "type": "VEC4"
    },
    {
      "bufferView": 2,
      "componentType": 5126,
      "count": 7788,
      "max": [
        1.9746090173721313,
        0.9951170086860657
      ],
      "min": [
        0.00344299990683794,
        0.005199015140533447
      ],
      "type": "VEC2"
    },
    {
      "bufferView": 1,
      "componentType": 5125,
      "count": 20532,
      "type": "SCALAR"
    },
    {
      "bufferView": 3,
      "byteOffset": 186912,
      "componentType": 5126,
      "count": 2546,
      "max": [
        0.15155954658985138,
        0.0649372786283493,
        0.023370636627078056
      ],
      "min": [
        0.11726963520050049,
        -0.0649372786283493,
        -0.023370632901787758
      ],
      "type": "VEC3"
    },
    {
      "bufferView": 3,
      "byteOffset": 217464,
      "componentType": 5126,
      "count": 2546,
      "max": [
        0.9999669790267944,
        0.9999958276748657,
        0.9998112916946411
      ],
      "min": [
        -0.998805046081543,
        -0.9983661770820618,
        -0.9998835921287537
      ],
      "type": "VEC3"
    },
    {
      "bufferView": 4,
      "byteOffset": 124608,
      "componentType": 5126,
      "count": 2546,
      "max": [
        0.9995054006576538,
        0.9899815320968628,
        0.9988781809806824,
        -1.0
      ],
      "min": [
        -0.9993301630020142,
        -0.9993999004364014,
        -0.9990634918212891,
        -1.0
      ],
      "type": "VEC4"
    },
    {
      "bufferView": 2,
      "byteOffset": 62304,
      "componentType": 5126,
      "count": 2546,
      "max": [
        0.9916989803314209,
        0.9902340173721313
      ],
      "min": [
        0.00559999980032444,
        0.018950998783111572
      ],
      "type": "VEC2"
    },
    {
      "bufferView": 1,
      "byteOffset": 82128,
      "componentType": 5125,
      "count": 12525,
      "type": "SCALAR"
    },
    {
      "bufferView": 3,
      "byteOffset": 248016,
      "componentType": 5126,
      "count": 4265,
      "max": [
        -0.5538712739944458,
        1.4089844226837158,
        0.1018928810954094
      ],
      "min": [
        -0.6156074404716492,
        0.6709261536598206,
        -0.09612932801246643
      ],
      "type": "VEC3"
    },
    {
      "bufferView": 3,
      "byteOffset": 299196,
      "componentType": 5126,
      "count": 4265,
      "max": [
        1.0,
        1.0,
        0.9998222589492798
      ],
      "min": [
        -1.0,
        -0.9999946355819702,
        -0.9999182820320129
      ],
      "type": "VEC3"
    },
    {
      "bufferView": 4,
      "byteOffset": 165344,
      "componentType": 5126,
      "count": 4265,
      "max": [
        1.0,
        0.9999879598617554,
        0.9999996423721313,
        1.0
      ],
      "min": [
        -0.9999997019767761,
        -0.9981770515441895,
        -0.9999268651008606,
        -1.0
      ],
      "type": "VEC4"
    },
    {
      "bufferView": 2,
      "byteOffset": 82672,
      "componentType": 5126,
      "count": 4265,
      "max": [
        0.9951170086860657,
        0.9970700144767761
      ],
      "min": [
        0.0022700000554323196,
        0.004683971405029297
      ],
      "type": "VEC2"
    },
    {
      "bufferView": 1,
      "byteOffset": 132228,
      "componentType": 5125,
      "count": 15027,
      "type": "SCALAR"
    },
    {
      "bufferView": 3,
      "byteOffset": 350376,
      "componentType": 5126,
      "count": 4304,
      "max": [
        -0.5611106753349304,
        1.4089841842651367,
        0.10065297037363052
      ],
      "min": [
        -0.6222699880599976,
        0.6715853810310364,
        -0.09536462277173996
      ],
      "type": "VEC3"
    },
    {
      "bufferView": 3,
      "byteOffset": 402024,
      "componentType": 5126,
      "count": 4304,
      "max": [
        1.0,
        1.0,
        0.9998736381530762
      ],
      "min": [
        -0.9994308948516846,
        -0.9999033808708191,
        -0.9999182224273682
      ],
      "type": "VEC3"
    },
    {
      "bufferView": 4,
      "byteOffset": 233584,
      "componentType": 5126,
      "count": 4304,
      "max": [
        0.9999998211860657,
        0.9999851584434509,
        0.9999986886978149,
        1.0
      ],
      "min": [
        -1.0,
        -0.9984256625175476,
        -0.9999292492866516,
        -1.0
      ],
      "type": "VEC4"
    },
    {
      "bufferView": 2,
      "byteOffset": 116792,
      "componentType": 5126,
      "count": 4304,
      "max": [
        0.9951170086860657,
        0.9970700144767761
      ],
      "min": [
        0.0022700000554323196,
        0.004683971405029297
      ],
      "type": "VEC2"
    },
    {
      "bufferView": 1,
      "byteOffset": 192336,
      "componentType": 5125,
      "count": 15075,
      "type": "SCALAR"
    },
    {
      "bufferView": 5,
      "componentType": 5126,
      "count": 25,
      "max": [
        1.0,
        1.0000001192092896,
        0.0,
        0.0,
        0.0,
        1.0,
        1.0,
        0.0,
        1.0,
        0.0,
        1.0,
        0.0,
        0.06076439842581749,
        0.030551552772521973,
        0.0,
        1.0
      ],
      "min": [
        3.4695918316174357e-07,
        0.0,
        0.0,
        0.0,
        0.0,
        0.0,
        0.0,
        0.0,
        0.0,
        -4.554051429295214e-07,
        0.0,
        0.0,
        -0.036919280886650085,
        -0.05730956047773361,
        -0.13453520834445953,
        1.0
      ],
      "type": "MAT4"
    },
    {
      "bufferView": 5,
      "byteOffset": 1600,
      "componentType": 5126,
      "count": 10,
      "max": [
        1.0,
        1.0,
        6.36510606000229e-07,
        0.0,
        1.849476660709115e-07,
        1.0,
        1.0,
        0.0,
        1.0,
        0.1175229549407959,
        1.0,
        0.0,
        0.13441461324691772,
        0.0,
        0.0635843276977539,
        1.0
      ],
      "min": [
        -1.0,
        0.0,
        -6.0502034102682956e-06,
        0.0,
        -6.36244052998336e-08,
        -0.9930700063705444,
        0.0,
        0.0,
        0.0,
        -6.784060246900481e-07,
        -0.9996248483657837,
        0.0,
        -0.005210362374782562,
        -0.13441479206085205,
        -0.06103440746665001,
        1.0
      ],
      "type": "MAT4"
    },
    {
      "bufferView": 5,
      "byteOffset": 2240,
      "componentType": 5126,
      "count": 68,
      "max": [
        1.0,
        1.0,
        6.043112534825923e-06,
        0.0,
        0.008756770752370358,
        1.0,
        1.0000001192092896,
        0.0,
        1.0000001192092896,
        1.0000001192092896,
        1.0,
        0.0,
        0.07781952619552612,
        0.6917371153831482,
        1.3550666570663452,
        1.0
      ],
      "min": [
        -1.0,
        -0.9848081469535828,
        -1.0,
        0.0,
        -0.0763058066368103,
        -0.9961944818496704,
        -1.0000001192092896,
        0.0,
        -1.0000001192092896,
        -1.0000001192092896,
        -9.994931815526797e-07,
        0.0,
        -0.6126333475112915,
        -1.2736982107162476,
        -1.3550643920898438,
        1.0
      ],
      "type": "MAT4"
    },
    {
      "bufferView": 0,
      "componentType": 5123,
      "count": 7788,
      "type": "VEC4"
    },
    {
      "bufferView": 4,
      "byteOffset": 302448,
      "componentType": 5126,
      "count": 7788,
      "max": [
        1.0,
        0.0,
        0.0,
        0.0
      ],
      "min": [
        1.0,
        0.0,
        0.0,
        0.0
      ],
      "type": "VEC4"
    },
    {
      "bufferView": 0,
      "byteOffset": 62304,
      "componentType": 5123,
      "count": 2546,
      "type": "VEC4"
    },
    {
      "bufferView": 4,
      "byteOffset": 427056,
      "componentType": 5126,
      "count": 2546,
      "max": [
        1.0,
        0.49803900718688965,
        0.2982458770275116,
        0.0
      ],
      "min": [
        0.3640347123146057,
        0.0,
        0.0,
        0.0
      ],
      "type": "VEC4"
    },
    {
      "bufferView": 0,
      "byteOffset": 82672,
      "componentType": 5123,
      "count": 4265,
      "type": "VEC4"
    },
    {
      "bufferView": 4,
      "byteOffset": 467792,
      "componentType": 5126,
      "count": 4265,
      "max": [
        1.0,
        0.49803900718688965,
        0.31979718804359436,
        0.0
      ],
      "min": [
        0.35051560401916504,
        0.0,
        0.0,
        0.0
      ],
      "type": "VEC4"
    },
    {
      "bufferView": 0,
      "byteOffset": 116792,
      "componentType": 5123,
      "count": 4304,
      "type": "VEC4"
    },
    {
      "bufferView": 4,
      "byteOffset": 536032,
      "componentType": 5126,
      "count": 4304,
      "max": [
        1.0,
        0.49803900718688965,
        0.3214285671710968,
        0.0
      ],
      "min": [
        0.3538458049297333,
        0.0,
        0.0,
        0.0
      ],
      "type": "VEC4"
    }
  ],
  "asset": {
    "extras": {
      "author": "That one larry (https://sketchfab.com/Professor_E12)",
      "license": "CC-BY-4.0 (http://creativecommons.org/licenses/by/4.0/)",
      "source": "https://sketchfab.com/3d-models/gore-da43bd4ec3ff4958b35f7ce3b130296c",
      "title": "Gore"
    },
    "generator": "Sketchfab-16.64.0",
    "version": "2.0"
  },
  "bufferViews": [
    {
      "buffer": 0,
      "byteLength": 151224,
      "byteStride": 8,
      "name": "shortBufferViews",
      "target": 34962
    },
    {
      "buffer": 0,
      "byteLength": 252636,
      "byteOffset": 151224,
      "name": "floatBufferViews",
      "target": 34963
    },
    {
      "buffer": 0,
      "byteLength": 151224,
      "byteOffset": 403860,
      "byteStride": 8,
      "name": "floatBufferViews",
      "target": 34962
    },
    {
      "buffer": 0,
      "byteLength": 453672,
      "byteOffset": 555084,
      "byteStride": 12,
      "name": "floatBufferViews",
      "target": 34962
    },
    {
      "buffer": 0,
      "byteLength": 604896,
      "byteOffset": 1008756,
      "byteStride": 16,
      "name": "floatBufferViews",
      "target": 34962
    },
    {
      "buffer": 0,
      "byteLength": 6592,
      "byteOffset": 1613652,
      "name": "floatBufferViews"
    }
  ],
  "buffers": [
    {
      "byteLength": 1620244,
      "uri": "scene.bin"
    }
  ],
  "extensionsUsed": [
    "KHR_materials_specular"
  ],
  "images": [
    {
      "uri": "textures/Male_LB_Head_Diff_baseColor.png"
    },
    {
      "uri": "textures/Male_LB_Head_Diff_metallicRoughness.png"
    },
    {
      "uri": "textures/Male_LB_Head_Diff_normal.png"
    },
    {
      "uri": "textures/Male_LK_ThroatChunk_Diff_baseColor.png"
    },
    {
      "uri": "textures/Male_LK_ThroatChunk_Diff_normal.png"
    },
    {
      "uri": "textures/Male_GN_VerticalSlice_Diff_baseColor.png"
    },
    {
      "uri": "textures/Male_GN_VerticalSlice_Diff_normal.png"
    }
  ],
  "materials": [
    {
      "doubleSided": true,
      "extensions": {
        "KHR_materials_specular": {
          "specularColorFactor": [
            1.0,
            1.0,
            1.0
          ],
          "specularFactor": 1.0
        }
      },
      "name": "Male_LB_Head_Diff",
      "normalTexture": {
        "index": 2
      },
      "pbrMetallicRoughness": {
        "baseColorTexture": {
          "index": 0
        },
        "metallicRoughnessTexture": {
          "index": 1
        }
      }
    },
    {
      "doubleSided": true,
      "extensions": {
        "KHR_materials_specular": {
          "specularColorFactor": [
            1.0,
            1.0,
            1.0
          ],
          "specularFactor": 1.0
        }
      },
      "name": "Male_LK_ThroatChunk_Diff",
      "normalTexture": {
        "index": 4
      },
      "pbrMetallicRoughness": {
        "baseColorTexture": {
          "index": 3
        },
        "metallicRoughnessTexture": {
          "index": 1
        }
      }
    },
    {
      "doubleSided": true,
      "extensions": {
        "KHR_materials_specular": {
          "specularColorFactor": [
            1.0,
            1.0,
            1.0
          ],
          "specularFactor": 1.0
        }
      },
      "name": "Male_GN_VerticalSlice_Diff",
      "normalTexture": {
        "index": 6
      },
      "pbrMetallicRoughness": {
        "baseColorTexture": {
          "index": 5
        },
        "metallicRoughnessTexture": {
          "index": 1
        }
      }
    }
  ],
  "meshes": [
    {
      "name": "Object_0",
      "primitives": [
        {
          "attributes": {
            "JOINTS_0": 23,
            "NORMAL": 1,
            "POSITION": 0,
            "TANGENT": 2,
            "TEXCOORD_0": 3,
            "TEXCOORD_1": 3,
            "TEXCOORD_2": 3,
            "TEXCOORD_3": 3,
            "WEIGHTS_0": 24
          },
          "indices": 4,
          "material": 0,
          "mode": 4
        }
      ]
    },
    {
      "name": "Object_1",
      "primitives": [
        {
          "attributes": {
            "JOINTS_0": 25,
            "NORMAL": 6,
            "POSITION": 5,
            "TANGENT": 7,
            "TEXCOORD_0": 8,
            "TEXCOORD_1": 8,
            "TEXCOORD_2": 8,
            "TEXCOORD_3": 8,
            "WEIGHTS_0": 26
          },
          "indices": 9,
          "material": 1,
          "mode": 4
        }
      ]
    },
    {
      "name": "Object_2",
      "primitives": [
        {
          "attributes": {
            "JOINTS_0": 27,
            "NORMAL": 11,
            "POSITION": 10,
            "TANGENT": 12,
            "TEXCOORD_0": 13,
            "TEXCOORD_1": 13,
            "TEXCOORD_2": 13,
            "TEXCOORD_3": 13,
            "WEIGHTS_0": 28
          },
          "indices": 14,
          "material": 2,
          "mode": 4
        }
      ]
    },
    {
      "name": "Object_3",
      "primitives": [
        {
          "attributes": {
            "JOINTS_0": 29,
            "NORMAL": 16,
            "POSITION": 15,
            "TANGENT": 17,
            "TEXCOORD_0": 18,
            "TEXCOORD_1": 18,
            "TEXCOORD_2": 18,
            "TEXCOORD_3": 18,
            "WEIGHTS_0": 30
          },
          "indices": 19,
          "material": 2,
          "mode": 4
        }
      ]
    }
  ],
  "nodes": [
    {
      "children": [
        1
      ],
      "matrix": [
        1.0,
        0.0,
        0.0,
        0.0,
        0.0,
        2.220446049250313e-16,
        -1.0,
        0.0,
        0.0,
        1.0,
        2.220446049250313e-16,
        0.0,
        0.0,
        0.0,
        0.0,
        1.0
      ],
      "name": "Sketchfab_model"
    },
    {
      "children": [
        2
      ],
      "name": "root"
    },
    {
      "children": [
        3,
        32,
        46
      ],
      "matrix": [
        1.0,
        0.0,
        0.0,
        0.0,
        0.0,
        2.220446049250313e-16,
        1.0,
        0.0,
        0.0,
        -1.0,
        2.220446049250313e-16,
        0.0,
        0.0,
        0.0,
        0.0,
        1.0
      ],
      "name": "GLTF_SceneRootNode"
    },
    {
      "children": [
        4
      ],
      "name": "SmashableHead_ARM_25"
    },
    {
      "children": [
        5,
        7,
        6
      ],
      "name": "GLTF_created_0"
    },
    {
      "children": [
        8
      ],
      "name": "GLTF_created_0_rootJoint"
    },
    {
      "name": "Male_LB_HeadSmash_Sk.smd_24"
    },
    {
      "mesh": 0,
      "name": "Object_7",
      "skin": 0
    },
    {
      "children": [
        9
      ],
      "name": "Reference_23",
      "rotation": [
        -0.5000001192092896,
        -0.4999999403953552,
        -0.4999999403953552,
        0.5000000596046448
      ]
    },
    {
      "children": [
        10,
        11,
        12,
        13,
        14,
        15,
        16,
        17,
        18,
        19,
        20,
        21,
        22,
        23,
        24,
        25,
        26,
        27,
        28,
        29,
        30,
        31
      ],
      "name": "Root_22"
    },
    {
      "name": "Chunk_0_0",
      "translation": [
        -0.02005157247185707,
        0.003929024562239647,
        0.021745119243860245
      ]
    },
    {
      "name": "Chunk_1_1",
      "translation": [
        -0.0509418360888958,
        -0.02072898857295513,
        0.049248289316892624
      ]
    },
    {
      "name": "Chunk_2_2",
      "scale": [
        1.0,
        0.9999999403953552,
        1.0
      ],
      "translation": [
        -0.05371924489736557,
        0.01869673654437065,
        0.0747869461774826
      ]
    },
    {
      "name": "Chunk_3_3",
      "translation": [
        -0.045183777809143066,
        -0.0038612820208072662,
        0.11448364704847336
      ]
    },
    {
      "name": "Chunk_4_4",
      "translation": [
        -0.04382894188165665,
        0.038816049695014954,
        0.08914823085069656
      ]
    },
    {
      "name": "Chunk_5_5",
      "scale": [
        1.0,
        0.9999999403953552,
        1.0
      ],
      "translation": [
        0.00833224132657051,
        -0.030551550909876823,
        0.052703119814395905
      ]
    },
    {
      "name": "Chunk_6_6",
      "translation": [
        -0.0011516106314957142,
        0.028112847357988358,
        0.02696123532950878
      ]
    },
    {
      "name": "Chunk_7_7",
      "translation": [
        -0.06076439842581749,
        -0.022422539070248604,
        0.08406756818294525
      ]
    },
    {
      "name": "Chunk_8_8",
      "scale": [
        1.0,
        0.9999999403953552,
        1.0
      ],
      "translation": [
        -0.051416024565696716,
        -0.003116123378276825,
        0.038341861218214035
      ]
    },
    {
      "name": "Chunk_9_9",
      "scale": [
        1.0,
        0.9999999403953552,
        1.0
      ],
      "translation": [
        0.02425156533718109,
        0.030551552772521973,
        0.04003540799021721
      ]
    },
    {
      "name": "Chunk_10_10",
      "translation": [
        -0.015580614097416401,
        0.037799909710884094,
        0.12559331953525543
      ]
    },
    {
      "name": "Chunk_11_11",
      "rotation": [
        0.0,
        0.0,
        -6.1110796423236025e-09,
        1.0
      ],
      "translation": [
        -0.002574188867583871,
        0.03793540596961975,
        0.039832182228565216
      ]
    },
    {
      "name": "Chunk_12_12",
      "translation": [
        0.031296711415052414,
        0.04145798087120056,
        0.0548708550632
      ]
    },
    {
      "name": "Chunk_13_13",
      "translation": [
        0.024319307878613472,
        0.05114506185054779,
        0.0872514396905899
      ]
    },
    {
      "name": "Chunk_14_14",
      "rotation": [
        0.0,
        0.0,
        -1.2222074019518914e-08,
        1.0
      ],
      "translation": [
        -0.00399676663801074,
        0.030754776671528816,
        0.02906123362481594
      ]
    },
    {
      "name": "Chunk_15_15",
      "translation": [
        0.014767712913453579,
        0.034141868352890015,
        0.1307416707277298
      ]
    },
    {
      "name": "Chunk_16_16",
      "translation": [
        0.013141908682882786,
        0.037461213767528534,
        0.039696697145700455
      ]
    },
    {
      "name": "Chunk_17_17",
      "translation": [
        -0.006570954341441393,
        0.05730956047773361,
        0.08135789632797241
      ]
    },
    {
      "name": "Chunk_18_18",
      "rotation": [
        0.0,
        0.0,
        4.888801186098135e-08,
        1.0
      ],
      "translation": [
        -0.024590272456407547,
        0.011854816228151321,
        0.13453520834445953
      ]
    },
    {
      "name": "Chunk_19_19",
      "rotation": [
        0.0,
        0.0,
        4.888862648044778e-08,
        1.0
      ],
      "scale": [
        1.0,
        0.9999999403953552,
        1.0
      ],
      "translation": [
        0.03109348937869072,
        0.006570953875780106,
        0.07160308212041855
      ]
    },
    {
      "name": "Chunk_20_20",
      "rotation": [
        0.0,
        0.0,
        4.8888026071836066e-08,
        1.0
      ],
      "translation": [
        -0.016122547909617424,
        -0.012667713686823845,
        0.10588043928146362
      ]
    },
    {
      "name": "Chunk_21_21",
      "translation": [
        0.036919280886650085,
        -0.003996767103672028,
        0.08955466747283936
      ]
    },
    {
      "children": [
        33
      ],
      "matrix": [
        1.0,
        0.0,
        0.0,
        0.0,
        0.0,
        1.0,
        0.0,
        0.0,
        0.0,
        0.0,
        1.0,
        0.0,
        0.13441459834575653,
        0.0,
        0.0,
        1.0
      ],
      "name": "ThroatChunk_ARM_36"
    },
    {
      "children": [
        34,
        36,
        35
      ],
      "name": "GLTF_created_1"
    },
    {
      "children": [
        37
      ],
      "name": "GLTF_created_1_rootJoint"
    },
    {
      "name": "Male_LK_ThroatChunk.smd_35"
    },
    {
      "mesh": 1,
      "name": "Object_36",
      "skin": 1
    },
    {
      "children": [
        38
      ],
      "name": "Reference_34",
      "rotation": [
        -0.5000001192092896,
        -0.4999999403953552,
        -0.4999999403953552,
        0.5000000596046448
      ]
    },
    {
      "children": [
        39
      ],
      "name": "Root_33"
    },
    {
      "children": [
        40,
        43
      ],
      "name": "Scale_32",
      "rotation": [
        0.0,
        0.0,
        1.4210854715202004e-14,
        1.0
      ]
    },
    {
      "children": [
        41
      ],
      "name": "Chunk_01_28",
      "rotation": [
        0.49310582876205444,
        -0.4931057095527649,
        -0.5068003535270691,
        0.5068005919456482
      ],
      "scale": [
        1.0,
        1.0000001192092896,
        1.0000001192092896
      ],
      "translation": [
        0.0003342512936796993,
        -1.1953760203908814e-10,
        0.0074126217514276505
      ]
    },
    {
      "children": [
        42
      ],
      "name": "Chunk_02_27",
      "rotation": [
        -0.4931041896343231,
        0.4931073486804962,
        0.5067989230155945,
        0.5068020224571228
      ],
      "translation": [
        2.166967050243329e-08,
        0.024692999199032784,
        -0.00010254626249661669
      ]
    },
    {
      "name": "Chunk_03_26",
      "rotation": [
        -2.243625749596967e-13,
        -1.5497345629000847e-08,
        2.899373449660736e-14,
        1.0
      ],
      "translation": [
        0.0006816841778345406,
        -4.618053495164531e-09,
        0.028941670432686806
      ]
    },
    {
      "children": [
        44
      ],
      "name": "Chunk_04_31",
      "rotation": [
        -0.4697013199329376,
        0.4697011709213257,
        -0.5285647511482239,
        0.5285648703575134
      ],
      "scale": [
        1.0,
        1.0000001192092896,
        1.0000001192092896
      ],
      "translation": [
        0.0005420487141236663,
        -1.9385174021557816e-10,
        -0.009164097718894482
      ]
    },
    {
      "children": [
        45
      ],
      "name": "Chunk_05_30",
      "rotation": [
        0.46970123052597046,
        -0.46970120072364807,
        0.5285646915435791,
        0.5285648703575134
      ],
      "scale": [
        1.0,
        1.0,
        0.9999999403953552
      ],
      "translation": [
        2.4394546382922044e-09,
        0.023862646892666817,
        -0.002858166117221117
      ]
    },
    {
      "name": "Chunk_06_29",
      "rotation": [
        -9.777663478871546e-08,
        -8.784993354993276e-08,
        -1.2222081124946271e-08,
        1.0
      ],
      "translation": [
        0.004702224861830473,
        1.0479928924667092e-08,
        -0.030387097969651222
      ]
    },
    {
      "children": [
        47
      ],
      "matrix": [
        1.0,
        0.0,
        0.0,
        0.0,
        0.0,
        1.0,
        0.0,
        0.0,
        0.0,
        0.0,
        1.0,
        0.0,
        -0.5880703926086426,
        0.0,
        0.0,
        1.0
      ],
      "name": "VerticalSlice_ARM_106"
    },
    {
      "children": [
        48,
        50,
        52,
        49,
        51
      ],
      "name": "GLTF_created_2"
    },
    {
      "children": [
        53
      ],
      "name": "GLTF_created_2_rootJoint"
    },
    {
      "name": "Male_GN_VerticalSlice_Left.smd_104"
    },
    {
      "mesh": 2,
      "name": "Object_50",
      "skin": 2
    },
    {
      "name": "Male_GN_VerticalSlice_Right.smd_105"
    },
    {
      "mesh": 3,
      "name": "Object_52",
      "skin": 2
    },
    {
      "children": [
        54
      ],
      "name": "Reference_103",
      "rotation": [
        -0.5000001192092896,
        -0.4999999403953552,
        -0.4999999403953552,
        0.5000000596046448
      ]
    },
    {
      "children": [
        55,
        118,
        119
      ],
      "name": "ValveBiped.Bip01_Pelvis_102",
      "rotation": [
        0.7071070671081543,
        -4.741917081219071e-09,
        -4.741904202631986e-09,
        0.7071065902709961
      ],
      "translation": [
        0.0,
        0.0,
        0.7736113667488098
      ]
    },
    {
      "children": [
        56
      ],
      "name": "ValveBiped.Bip01_Spine_99",
      "rotation": [
        -2.32259704802118e-08,
        -1.574586860897398e-08,
        -0.03818074241280556,
        0.9992708563804626
      ],
      "translation": [
        -0.014903197064995766,
        0.0514838732779026,
        2.620894257177042e-08
      ]
    },
    {
      "children": [
        57
      ],
      "name": "ValveBiped.Bip01_Spine1_98",
      "rotation": [
        1.1345914208149566e-09,
        4.826337658414559e-07,
        0.005552433431148529,
        0.999984622001648
      ],
      "scale": [
        0.9999999403953552,
        0.9999998807907104,
        1.0
      ],
      "translation": [
        -1.663491389081173e-08,
        0.03793531656265259,
        -7.644253940952694e-08
      ]
    },
    {
      "children": [
        58
      ],
      "name": "ValveBiped.Bip01_Spine2_97",
      "rotation": [
        1.2288673412186313e-09,
        3.353882505052752e-08,
        0.02315545454621315,
        0.9997319579124451
      ],
      "scale": [
        0.9999999403953552,
        1.0,
        1.0
      ],
      "translation": [
        4.904154593532439e-08,
        0.06435464322566986,
        -1.0152790608231044e-08
      ]
    },
    {
      "children": [
        59,
        116,
        117
      ],
      "name": "ValveBiped.Bip01_Spine4_96",
      "rotation": [
        6.777585437323097e-11,
        1.9473084478249802e-08,
        0.013858040794730186,
        0.9999039769172668
      ],
      "scale": [
        0.9999999403953552,
        1.0,
        1.0
      ],
      "translation": [
        1.2369696378300432e-09,
        0.10025788843631744,
        3.475774690286926e-08
      ]
    },
    {
      "children": [
        60
      ],
      "name": "ValveBiped.Bip01_Neck1_93",
      "rotation": [
        -1.7545196406842933e-09,
        -4.720551416426133e-08,
        -0.03245031461119652,
        0.9994733929634094
      ],
      "scale": [
        0.9999999403953552,
        1.0,
        1.0
      ],
      "translation": [
        -1.966969875866198e-08,
        0.1619030237197876,
        -8.320633071434713e-08
      ]
    },
    {
      "children": [
        61,
        62,
        63,
        64,
        65,
        66,
        67,
        68,
        69,
        70,
        71,
        72,
        73,
        74,
        75,
        76,
        77,
        78,
        79,
        80,
        81,
        82,
        83,
        84,
        85,
        86,
        87,
        88,
        89,
        90,
        91,
        92,
        93,
        94,
        95,
        96,
        97,
        98,
        99,
        100,
        101,
        102,
        104,
        105,
        106,
        107,
        108,
        109,
        110,
        111,
        112,
        113,
        114,
        115
      ],
      "name": "ValveBiped.Bip01_Head1_92",
      "rotation": [
        1.618015943449791e-09,
        1.8721104666497013e-09,
        -2.980232949312267e-08,
        1.0
      ],
      "translation": [
        -5.425135896075517e-10,
        0.08670932799577713,
        1.0778042280890077e-07
      ]
    },
    {
      "name": "CenterBrowEnd_37",
      "rotation": [
        -0.4857659339904785,
        -0.513839840888977,
        -0.48576611280441284,
        0.5138399600982666
      ],
      "scale": [
        1.0000001192092896,
        1.0000001192092896,
        1.0
      ],
      "translation": [
        0.08298445492982864,
        0.0835813358426094,
        1.0091692814739872e-07
      ]
    },
    {
      "name": "CenterBrow_38",
      "rotation": [
        -0.4857659339904785,
        -0.513839840888977,
        -0.48576608300209045,
        0.5138399600982666
      ],
      "scale": [
        1.0,
        1.0,
        0.9999999403953552
      ],
      "translation": [
        0.08405366539955139,
        0.06081773713231087,
        6.732955625921022e-06
      ]
    },
    {
      "name": "CenterLowerLipEnd_39",
      "rotation": [
        -0.48576590418815613,
        -0.513839840888977,
        -0.48576605319976807,
        0.5138399600982666
      ],
      "scale": [
        1.0000001192092896,
        1.0000001192092896,
        1.0
      ],
      "translation": [
        0.08826591074466705,
        -0.012059873901307583,
        1.0926346050155189e-07
      ]
    },
    {
      "name": "CenterLowerLip_40",
      "rotation": [
        -0.4857659637928009,
        -0.513839840888977,
        -0.48576611280441284,
        0.5138399004936218
      ],
      "scale": [
        1.0000001192092896,
        1.0,
        1.0
      ],
      "translation": [
        0.08915453404188156,
        -0.0017983524594455957,
        1.0390861149289776e-07
      ]
    },
    {
      "name": "CenterNoseBridge_41",
      "rotation": [
        -0.4857659339904785,
        -0.513839840888977,
        -0.48576611280441284,
        0.5138399600982666
      ],
      "scale": [
        1.0000001192092896,
        1.0000001192092896,
        1.0
      ],
      "translation": [
        0.08856941014528275,
        0.05326848104596138,
        6.805127128473032e-08
      ]
    },
    {
      "name": "CenterNoseTip_42",
      "rotation": [
        -0.4857659637928009,
        -0.513839840888977,
        -0.48576611280441284,
        0.5138399004936218
      ],
      "scale": [
        1.0000001192092896,
        1.0,
        1.0
      ],
      "translation": [
        0.10426577180624008,
        0.02811039239168167,
        1.049565128141694e-07
      ]
    },
    {
      "name": "CenterUpperLipEnd_43",
      "rotation": [
        -0.48576590418815613,
        -0.513839840888977,
        -0.48576605319976807,
        0.5138399600982666
      ],
      "scale": [
        1.0000001192092896,
        1.0000001192092896,
        1.0
      ],
      "translation": [
        0.09341828525066376,
        0.01094572152942419,
        1.0146185758230786e-07
      ]
    },
    {
      "name": "CenterUpperLip_44",
      "rotation": [
        -0.48576590418815613,
        -0.513839840888977,
        -0.48576605319976807,
        0.5138399600982666
      ],
      "scale": [
        1.0000001192092896,
        1.0000001192092896,
        1.0
      ],
      "translation": [
        0.09079927206039429,
        0.0033417108934372663,
        1.028220353305187e-07
      ]
    },
    {
      "name": "head jaw_45",
      "rotation": [
        -0.7068283557891846,
        -0.01985127106308937,
        0.019851217046380043,
        0.7068278193473816
      ],
      "scale": [
        1.0,
        1.0,
        0.9999999403953552
      ],
      "translation": [
        0.021638166159391403,
        0.014014537446200848,
        6.363162441402892e-08
      ]
    },
    {
      "name": "LeftEye_46",
      "rotation": [
        -0.4857656955718994,
        -0.513839602470398,
        -0.48576632142066956,
        0.5138401985168457
      ],
      "scale": [
        1.0000001192092896,
        1.0000001192092896,
        1.0
      ],
      "translation": [
        0.06787699460983276,
        0.0526411198079586,
        -0.024562973529100418
      ]
    },
    {
      "name": "LeftFrown_47",
      "rotation": [
        -0.6455889344215393,
        -0.2884714603424072,
        -0.25178173184394836,
        0.6607610583305359
      ],
      "scale": [
        1.0,
        1.0000001192092896,
        1.0
      ],
      "translation": [
        0.0768810287117958,
        -0.02521766535937786,
        -0.019563691690564156
      ]
    },
    {
      "name": "LeftInBrowEnd_48",
      "rotation": [
        -0.502575159072876,
        -0.49741318821907043,
        -0.4684200882911682,
        0.5296989679336548
      ],
      "translation": [
        0.08185817301273346,
        0.08394553512334824,
        -0.00988354254513979
      ]
    },
    {
      "name": "RightInBrowEnd_49",
      "rotation": [
        0.49741241335868835,
        -0.502574622631073,
        0.5296998023986816,
        0.4684206545352936
      ],
      "scale": [
        1.000000238418579,
        1.000000238418579,
        1.0
      ],
      "translation": [
        0.08185816556215286,
        0.08394555002450943,
        0.009883741848170757
      ]
    },
    {
      "name": "LeftInBrow_50",
      "rotation": [
        -0.5025759339332581,
        -0.49741411209106445,
        -0.4684191942214966,
        0.5296980142593384
      ],
      "scale": [
        0.9999999403953552,
        0.9999999403953552,
        0.9999999403953552
      ],
      "translation": [
        0.08446252346038818,
        0.0636831521987915,
        -0.009273890405893326
      ]
    },
    {
      "name": "LeftInLowCheek_51",
      "rotation": [
        -0.6688246130943298,
        -0.2295079380273819,
        -0.1916082203388214,
        0.6806512475013733
      ],
      "scale": [
        0.9999999403953552,
        1.0,
        1.0
      ],
      "translation": [
        0.06963077932596207,
        0.01914810948073864,
        -0.03829431161284447
      ]
    },
    {
      "name": "LeftInLowerLipEnd_52",
      "rotation": [
        -0.5717398524284363,
        -0.4160677194595337,
        -0.3833242654800415,
        0.5941916704177856
      ],
      "scale": [
        0.9999999403953552,
        0.9999998211860657,
        1.0
      ],
      "translation": [
        0.0869169607758522,
        -0.012562991119921207,
        -0.008379649370908737
      ]
    },
    {
      "name": "RightInLowerLipEnd_53",
      "rotation": [
        0.416068434715271,
        -0.5717402696609497,
        0.5941913723945618,
        0.38332322239875793
      ],
      "scale": [
        0.9999999403953552,
        0.9999997615814209,
        1.0
      ],
      "translation": [
        0.08691694587469101,
        -0.012562979012727737,
        0.008379805833101273
      ]
    },
    {
      "name": "LeftInLowerLip_54",
      "rotation": [
        -0.5639112591743469,
        -0.426617294549942,
        -0.39429715275764465,
        0.5869680643081665
      ],
      "scale": [
        0.9999998807907104,
        0.9999997615814209,
        1.0
      ],
      "translation": [
        0.08795627951622009,
        -0.0018453868106007576,
        -0.006638603284955025
      ]
    },
    {
      "name": "RightInLowerLip_55",
      "rotation": [
        0.4266183078289032,
        -0.5639116764068604,
        0.5869674682617188,
        0.3942963480949402
      ],
      "scale": [
        1.0000001192092896,
        1.0000001192092896,
        1.0
      ],
      "translation": [
        0.08795627951622009,
        -0.0018453770317137241,
        0.00663880817592144
      ]
    },
    {
      "name": "LeftInUpperLipEnd_56",
      "rotation": [
        -0.5633315443992615,
        -0.42738649249076843,
        -0.395093709230423,
        0.5864293575286865
      ],
      "translation": [
        0.09190266579389572,
        0.01159357838332653,
        -0.008501490578055382
      ]
    },
    {
      "name": "RightInUpperLipEnd_57",
      "rotation": [
        0.42738527059555054,
        -0.5633307695388794,
        0.5864303708076477,
        0.3950945734977722
      ],
      "scale": [
        0.9999998807907104,
        0.9999995231628418,
        0.9999999403953552
      ],
      "translation": [
        0.09190264344215393,
        0.011593589559197426,
        0.0085016880184412
      ]
    },
    {
      "name": "LeftInUpperLip_58",
      "rotation": [
        -0.5636765956878662,
        -0.4269274175167084,
        -0.39461997151374817,
        0.5867510437965393
      ],
      "scale": [
        1.0000001192092896,
        1.000000238418579,
        1.0
      ],
      "translation": [
        0.08942550420761108,
        0.003278112504631281,
        -0.007092553656548262
      ]
    },
    {
      "name": "LeftJawMuscle_59",
      "rotation": [
        -0.7021090984344482,
        -0.08392301946878433,
        -0.04438450559973717,
        0.7057122588157654
      ],
      "scale": [
        0.9999999403953552,
        0.9999998807907104,
        0.9999997615814209
      ],
      "translation": [
        0.030471518635749817,
        0.007990754209458828,
        -0.05006776377558708
      ]
    },
    {
      "name": "RightJawMuscle_60",
      "rotation": [
        0.08392342925071716,
        -0.7021086812019348,
        0.7057125568389893,
        0.0443846769630909
      ],
      "scale": [
        0.9999999403953552,
        1.0000001192092896,
        1.0
      ],
      "translation": [
        0.030471529811620712,
        0.007990590296685696,
        0.05006792023777962
      ]
    },
    {
      "name": "LeftLowerSmile_61",
      "rotation": [
        -0.6695226430892944,
        -0.2274644374847412,
        -0.18952763080596924,
        0.6812331676483154
      ],
      "scale": [
        0.9999999403953552,
        1.0000001192092896,
        1.0
      ],
      "translation": [
        0.06825864315032959,
        -0.006650533527135849,
        -0.03185884281992912
      ]
    },
    {
      "name": "LeftMouthCornerEnd_62",
      "rotation": [
        -0.6455334424972534,
        -0.28859445452690125,
        -0.25190889835357666,
        0.6607131361961365
      ],
      "scale": [
        0.9999999403953552,
        0.9999999403953552,
        1.0
      ],
      "translation": [
        0.0788140743970871,
        -0.0026375988963991404,
        -0.023743418976664543
      ]
    },
    {
      "name": "LeftMouthCorner_63",
      "rotation": [
        -0.6455332636833191,
        -0.28859442472457886,
        -0.251909077167511,
        0.6607131958007813
      ],
      "scale": [
        0.9999998807907104,
        0.9999998807907104,
        0.9999998807907104
      ],
      "translation": [
        0.08135385066270828,
        -0.0002629900991450995,
        -0.018371548503637314
      ]
    },
    {
      "name": "LeftNostril_64",
      "rotation": [
        -0.5440576076507568,
        -0.45166558027267456,
        -0.42041754722595215,
        0.5685495734214783
      ],
      "scale": [
        0.9999998807907104,
        0.9999998211860657,
        0.9999999403953552
      ],
      "translation": [
        0.08528715372085571,
        0.030307253822684288,
        -0.014537196606397629
      ]
    },
    {
      "name": "RightNostril_65",
      "rotation": [
        0.4516650438308716,
        -0.5440572500228882,
        0.5685501098632813,
        0.4204178750514984
      ],
      "translation": [
        0.08528714627027512,
        0.03030739352107048,
        0.014537353068590164
      ]
    },
    {
      "name": "LeftOutLowerLipEnd_66",
      "rotation": [
        -0.6227807402610779,
        -0.3348805010318756,
        -0.29939767718315125,
        0.6405936479568481
      ],
      "scale": [
        1.0,
        1.0,
        0.9999998807907104
      ],
      "translation": [
        0.0831356942653656,
        -0.011438826099038124,
        -0.01570935733616352
      ]
    },
    {
      "name": "RightOutLowerLipEnd_67",
      "rotation": [
        0.3348803222179413,
        -0.6227799654006958,
        0.6405940651893616,
        0.2993985414505005
      ],
      "scale": [
        0.9999998807907104,
        0.9999998211860657,
        0.9999999403953552
      ],
      "translation": [
        0.0831357017159462,
        -0.011438801884651184,
        0.01570950262248516
      ]
    },
    {
      "name": "LeftOutLowerLip_68",
      "rotation": [
        -0.5971874594688416,
        -0.3786397874355316,
        -0.3445242941379547,
        0.6174966096878052
      ],
      "scale": [
        0.9999998211860657,
        0.9999996423721313,
        0.9999998211860657
      ],
      "translation": [
        0.08480869233608246,
        -0.001975094201043248,
        -0.01244415994733572
      ]
    },
    {
      "name": "LeftOutUpperLipEnd_69",
      "rotation": [
        -0.6164451837539673,
        -0.3464028537273407,
        -0.3112592101097107,
        0.634915828704834
      ],
      "translation": [
        0.08749891072511673,
        0.00870615802705288,
        -0.015411162748932838
      ]
    },
    {
      "name": "RightOutUpperLipEnd_70",
      "rotation": [
        0.34640300273895264,
        -0.616445004940033,
        0.6349160075187683,
        0.31125909090042114
      ],
      "scale": [
        1.0,
        1.0,
        0.9999998807907104
      ],
      "translation": [
        0.08749891072511673,
        0.008706538937985897,
        0.01541135273873806
      ]
    },
    {
      "name": "LeftOutUpperLip_71",
      "rotation": [
        -0.6026971340179443,
        -0.36980706453323364,
        -0.3353962004184723,
        0.6225017309188843
      ],
      "scale": [
        0.9999998807907104,
        0.9999998211860657,
        0.9999998807907104
      ],
      "translation": [
        0.0858418419957161,
        0.002941163955256343,
        -0.013026617467403412
      ]
    },
    {
      "name": "LeftPuff_72",
      "rotation": [
        -0.6894974112510681,
        -0.15682350099086761,
        -0.11787787824869156,
        0.6972119808197021
      ],
      "scale": [
        1.0,
        0.9999999403953552,
        0.9999998807907104
      ],
      "translation": [
        0.04770888015627861,
        0.002371274633333087,
        -0.04382218420505524
      ]
    },
    {
      "name": "RightPuff_73",
      "rotation": [
        0.1568242311477661,
        -0.6894968152046204,
        0.6972123384475708,
        0.11787822842597961
      ],
      "scale": [
        0.9999998807907104,
        1.0,
        0.9999999403953552
      ],
      "translation": [
        0.04770887270569801,
        0.0023715784773230553,
        0.043822333216667175
      ]
    },
    {
      "name": "LeftUpperNasal_74",
      "rotation": [
        -0.5542290806770325,
        -0.4391222596168518,
        -0.40732571482658386,
        0.5780030488967896
      ],
      "scale": [
        0.9999999403953552,
        0.9999999403953552,
        0.9999998807907104
      ],
      "translation": [
        0.08244892954826355,
        0.0378279946744442,
        -0.01656281016767025
      ]
    },
    {
      "name": "RightUpperNasal_75",
      "rotation": [
        0.4391233026981354,
        -0.5542296767234802,
        0.5780024528503418,
        0.4073246419429779
      ],
      "scale": [
        1.0,
        1.0000001192092896,
        1.0
      ],
      "translation": [
        0.08244892209768295,
        0.03782801702618599,
        0.016562948003411293
      ]
    },
    {
      "name": "LeftUpperSmile_76",
      "rotation": [
        -0.6422696709632874,
        -0.2957881987094879,
        -0.2592730224132538,
        0.6578575372695923
      ],
      "scale": [
        1.0,
        1.0,
        0.9999999403953552
      ],
      "translation": [
        0.0788402110338211,
        0.014882616698741913,
        -0.02851257659494877
      ]
    },
    {
      "name": "LowerTeeth_77",
      "rotation": [
        -0.4857659637928009,
        -0.513839840888977,
        -0.48576611280441284,
        0.5138399004936218
      ],
      "scale": [
        1.0000001192092896,
        1.0,
        1.0
      ],
      "translation": [
        0.07071705162525177,
        -0.007177090737968683,
        8.2809947343776e-08
      ]
    },
    {
      "children": [
        103
      ],
      "name": "TongueBase_79",
      "rotation": [
        -0.48576590418815613,
        -0.513839840888977,
        -0.48576605319976807,
        0.5138399600982666
      ],
      "scale": [
        1.0000001192092896,
        1.0000001192092896,
        1.0
      ],
      "translation": [
        0.06635732203722,
        -0.0017975617665797472,
        7.35838696641622e-08
      ]
    },
    {
      "name": "TongueTip_78",
      "rotation": [
        -1.9096976444643587e-08,
        3.627229716585134e-08,
        -6.480237857431348e-07,
        1.0
      ],
      "translation": [
        1.1035184854790714e-07,
        0.009043530561029911,
        -0.00041339881136082113
      ]
    },
    {
      "name": "UpperTeeth_80",
      "rotation": [
        -0.4857659637928009,
        -0.513839840888977,
        -0.48576611280441284,
        0.5138399004936218
      ],
      "scale": [
        1.0000001192092896,
        1.0,
        1.0
      ],
      "translation": [
        0.07002339512109756,
        0.005166089627891779,
        7.402438484405138e-08
      ]
    },
    {
      "name": "RightEye_81",
      "rotation": [
        0.513839840888977,
        -0.48576590418815613,
        0.5138399600982666,
        0.4857660233974457
      ],
      "scale": [
        1.0,
        1.0,
        0.9999999403953552
      ],
      "translation": [
        0.0678769126534462,
        0.05264103040099144,
        0.02456323429942131
      ]
    },
    {
      "name": "RightFrown_82",
      "rotation": [
        0.2884713113307953,
        -0.6455885767936707,
        0.6607615351676941,
        0.2517816722393036
      ],
      "scale": [
        0.9999999403953552,
        0.9999997019767761,
        0.9999999403953552
      ],
      "translation": [
        0.07688098400831223,
        -0.025217877700924873,
        0.01956389658153057
      ]
    },
    {
      "name": "RightInBrow_83",
      "rotation": [
        0.49741247296333313,
        -0.5025745630264282,
        0.5296996831893921,
        0.46842071413993835
      ],
      "scale": [
        0.9999998807907104,
        0.9999995231628418,
        0.9999998807907104
      ],
      "translation": [
        0.08446265757083893,
        0.0636831745505333,
        0.009273942559957504
      ]
    },
    {
      "name": "RightInLowCheek_84",
      "rotation": [
        0.229508176445961,
        -0.668824315071106,
        0.6806516051292419,
        0.19160765409469604
      ],
      "scale": [
        0.9999999403953552,
        0.9999999403953552,
        1.0
      ],
      "translation": [
        0.06963081657886505,
        0.019148048013448715,
        0.03829449787735939
      ]
    },
    {
      "name": "RightInUpperLip_85",
      "rotation": [
        0.42692869901657104,
        -0.5636774301528931,
        0.5867503881454468,
        0.3946184515953064
      ],
      "scale": [
        0.9999999403953552,
        0.9999998807907104,
        1.0
      ],
      "translation": [
        0.08942557871341705,
        0.003278246847912669,
        0.007092636544257402
      ]
    },
    {
      "name": "RightLowerSmile_86",
      "rotation": [
        0.22746442258358002,
        -0.669522225856781,
        0.6812335848808289,
        0.18952800333499908
      ],
      "scale": [
        1.0,
        0.9999997615814209,
        0.9999998807907104
      ],
      "translation": [
        0.06825854629278183,
        -0.006650610361248255,
        0.031859058886766434
      ]
    },
    {
      "name": "RightMouthCornerEnd_87",
      "rotation": [
        0.2885951101779938,
        -0.64553302526474,
        0.660713255405426,
        0.25190871953964233
      ],
      "scale": [
        1.0,
        0.9999999403953552,
        1.0
      ],
      "translation": [
        0.07881414145231247,
        -0.0026375597808510065,
        0.023743601515889168
      ]
    },
    {
      "name": "RightMouthCorner_88",
      "rotation": [
        0.28859519958496094,
        -0.64553302526474,
        0.660713255405426,
        0.2519086003303528
      ],
      "scale": [
        1.0000001192092896,
        0.9999998211860657,
        0.9999999403953552
      ],
      "translation": [
        0.08135387301445007,
        -0.0002628417278174311,
        0.01837167516350746
      ]
    },
    {
      "name": "RightOutLowerLip_89",
      "rotation": [
        0.3786391317844391,
        -0.5971872806549072,
        0.6174973249435425,
        0.3445242941379547
      ],
      "scale": [
        1.0000001192092896,
        1.0000001192092896,
        1.0
      ],
      "translation": [
        0.08480866998434067,
        -0.0019750772044062614,
        0.012444236315786839
      ]
    },
    {
      "name": "RightOutUpperLip_90",
      "rotation": [
        0.3698069155216217,
        -0.602696418762207,
        0.6225020885467529,
        0.33539682626724243
      ],
      "scale": [
        1.0,
        1.0,
        0.9999998807907104
      ],
      "translation": [
        0.08584173768758774,
        0.0029409383423626423,
        0.013026870787143707
      ]
    },
    {
      "name": "RightUpperSmile_91",
      "rotation": [
        0.29578784108161926,
        -0.6422693133354187,
        0.65785813331604,
        0.2592729330062866
      ],
      "scale": [
        1.0,
        0.9999999403953552,
        0.9999999403953552
      ],
      "translation": [
        0.0788402110338211,
        0.014882420189678669,
        0.02851261757314205
      ]
    },
    {
      "name": "ValveBiped.Bip01_L_Clavicle_94",
      "rotation": [
        0.6427819728851318,
        -0.0028144598472863436,
        -0.003354370826855302,
        0.7660366892814636
      ],
      "scale": [
        1.0,
        0.9999999403953552,
        1.0
      ],
      "translation": [
        -0.006774199660867453,
        0.09754835814237595,
        -0.03996776044368744
      ]
    },
    {
      "name": "ValveBiped.Bip01_R_Clavicle_95",
      "rotation": [
        0.0028151574078947306,
        0.6427825689315796,
        0.7660361528396606,
        0.003354673972353339
      ],
      "scale": [
        1.0,
        1.0000001192092896,
        1.0000001192092896
      ],
      "translation": [
        -0.006774217821657658,
        0.0975450798869133,
        0.039967551827430725
      ]
    },
    {
      "name": "ValveBiped.Bip01_L_Thigh_100",
      "rotation": [
        0.0436190590262413,
        -5.560863769460411e-07,
        2.4656110042542423e-08,
        0.9990482330322266
      ],
      "translation": [
        -0.010838688351213932,
        -0.021677302196621895,
        -0.06977401673793793
      ]
    },
    {
      "name": "ValveBiped.Bip01_R_Thigh_101",
      "rotation": [
        -9.90917499166244e-08,
        0.04361977428197861,
        0.9990482926368713,
        2.89280450260776e-07
      ],
      "scale": [
        1.0,
        1.0000001192092896,
        1.000014305114746
      ],
      "translation": [
        -0.010838688351213932,
        -0.021677320823073387,
        0.06977404654026031
      ]
    }
  ],
  "samplers": [
    {
      "magFilter": 9729,
      "minFilter": 9987,
      "wrapS": 10497,
      "wrapT": 10497
    }
  ],
  "scene": 0,
  "scenes": [
    {
      "name": "Sketchfab_Scene",
      "nodes": [
        0
      ]
    }
  ],
  "skins": [
    {
      "inverseBindMatrices": 20,
      "joints": [
        5,
        8,
        9,
        10,
        11,
        12,
        13,
        14,
        15,
        16,
        17,
        18,
        19,
        20,
        21,
        22,
        23,
        24,
        25,
        26,
        27,
        28,
        29,
        30,
        31
      ],
      "skeleton": 5
    },
    {
      "inverseBindMatrices": 21,
      "joints": [
        34,
        37,
        38,
        39,
        40,
        41,
        42,
        43,
        44,
        45
      ],
      "skeleton": 34
    },
    {
      "inverseBindMatrices": 22,
      "joints": [
        48,
        53,
        54,
        55,
        56,
        57,
        58,
        59,
        60,
        61,
        62,
        63,
        64,
        65,
        66,
        67,
        68,
        69,
        70,
        71,
        72,
        73,
        74,
        75,
        76,
        77,
        78,
        79,
        80,
        81,
        82,
        83,
        84,
        85,
        86,
        87,
        88,
        89,
        90,
        91,
        92,
        93,
        94,
        95,
        96,
        97,
        98,
        99,
        100,
        101,
        102,
        103,
        104,
        105,
        106,
        107,
        108,
        109,
        110,
        111,
        112,
        113,
        114,
        115,
        116,
        117,
        118,
        119
      ],
      "skeleton": 48
    }
  ],
  "textures": [
    {
      "sampler": 0,
      "source": 0
    },
    {
      "sampler": 0,
      "source": 1
    },
    {
      "sampler": 0,
      "source": 2
    },
    {
      "sampler": 0,
      "source": 3
    },
    {
      "sampler": 0,
      "source": 4
    },
    {
      "sampler": 0,
      "source": 5
    },
    {
      "sampler": 0,
      "source": 6
    }
  ]
}
