{
  "accessors": [
    {
      "bufferView": 2,
      "componentType": 5126,
      "count": 120,
      "max": [
        40.00000762939453,
        46.903072357177734,
        17.678754806518555
      ],
      "min": [
        -40.00000762939453,
        3.217468500137329,
        -17.63933753967285
      ],
      "type": "VEC3"
    },
    {
      "bufferView": 2,
      "byteOffset": 1440,
      "componentType": 5126,
      "count": 120,
      "max": [
        1.0,
        1.0,
        1.0
      ],
      "min": [
        -1.0,
        -1.0,
        -1.0
      ],
      "type": "VEC3"
    },
    {
      "bufferView": 3,
      "componentType": 5126,
      "count": 120,
      "max": [
        1.0,
        0.002503159921616316,
        1.0,
        1.0
      ],
      "min": [
        -1.0,
        -1.0,
        -1.0,
        -1.0
      ],
      "type": "VEC4"
    },
    {
      "bufferView": 1,
      "componentType": 5126,
      "count": 120,
      "max": [
        1.4809033870697021,
        0.9953578114509583
      ],
      "min": [
        0.0010215102229267359,
        0.0010215102229267359
      ],
      "type": "VEC2"
    },
    {
      "bufferView": 1,
      "byteOffset": 960,
      "componentType": 5126,
      "count": 120,
      "max": [
        1.4809033870697021,
        0.9953578114509583
      ],
      "min": [
        0.0010215102229267359,
        0.0010215102229267359
      ],
      "type": "VEC2"
    },
    {
      "bufferView": 1,
      "byteOffset": 1920,
      "componentType": 5126,
      "count": 120,
      "max": [
        1.4809033870697021,
        0.9953578114509583
      ],
      "min": [
        0.0010215102229267359,
        0.0010215102229267359
      ],
      "type": "VEC2"
    },
    {
      "bufferView": 0,
      "componentType": 5125,
      "count": 228,
      "type": "SCALAR"
    },
    {
      "bufferView": 2,
      "byteOffset": 2880,
      "componentType": 5126,
      "count": 1046,
      "max": [
        40.115692138671875,
        49.2451286315918,
        17.995067596435547
      ],
      "min": [
        -40.11568832397461,
        0.1224244013428688,
        -18.952138900756836
      ],
      "type": "VEC3"
    },
    {
      "bufferView": 2,
      "byteOffset": 15432,
      "componentType": 5126,
      "count": 1046,
      "max": [
        1.0,
        1.0,
        1.0
      ],
      "min": [
        -1.0,
        -1.0,
        -1.0
      ],
      "type": "VEC3"
    },
    {
      "bufferView": 3,
      "byteOffset": 1920,
      "componentType": 5126,
      "count": 1046,
      "max": [
        1.0,
        1.0,
        1.0,
        1.0
      ],
      "min": [
        -1.0,
        -1.0,
        -1.0,
        1.0
      ],
      "type": "VEC4"
    },
    {
      "bufferView": 1,
      "byteOffset": 2880,
      "componentType": 5126,
      "count": 1046,
      "max": [
        1.8686082363128662,
        0.9282550811767578
      ],
      "min": [
        0.001830922905355692,
        0.23769062757492065
      ],
      "type": "VEC2"
    },
    {
      "bufferView": 1,
      "byteOffset": 11248,
      "componentType": 5126,
      "count": 1046,
      "max": [
        1.8686082363128662,
        0.9282550811767578
      ],
      "min": [
        0.001830922905355692,
        0.23769062757492065
      ],
      "type": "VEC2"
    },
    {
      "bufferView": 1,
      "byteOffset": 19616,
      "componentType": 5126,
      "count": 1046,
      "max": [
        1.8686082363128662,
        0.9282550811767578
      ],
      "min": [
        0.001830922905355692,
        0.23769062757492065
      ],
      "type": "VEC2"
    },
    {
      "bufferView": 0,
      "byteOffset": 912,
      "componentType": 5125,
      "count": 2880,
      "type": "SCALAR"
    },
    {
      "bufferView": 2,
      "byteOffset": 27984,
      "componentType": 5126,
      "count": 264,
      "max": [
        41.9670295715332,
        49.06512451171875,
        17.75716209411621
      ],
      "min": [
        -41.96702575683594,
        0.4909569025039673,
        -17.75716781616211
      ],
      "type": "VEC3"
    },
    {
      "bufferView": 2,
      "byteOffset": 31152,
      "componentType": 5126,
      "count": 264,
      "max": [
        1.0,
        0.9995930194854736,
        1.0
      ],
      "min": [
        -1.0,
        -0.9999995231628418,
        -1.0
      ],
      "type": "VEC3"
    },
    {
      "bufferView": 3,
      "byteOffset": 18656,
      "componentType": 5126,
      "count": 264,
      "max": [
        1.0,
        1.0,
        1.0,
        1.0
      ],
      "min": [
        -1.0,
        -1.0,
        -1.0,
        1.0
      ],
      "type": "VEC4"
    },
    {
      "bufferView": 1,
      "byteOffset": 27984,
      "componentType": 5126,
      "count": 264,
      "max": [
        1.9468947649002075,
        0.9767182469367981
      ],
      "min": [
        0.2196781188249588,
        0.0010071153519675136
      ],
      "type": "VEC2"
    },
    {
      "bufferView": 1,
      "byteOffset": 30096,
      "componentType": 5126,
      "count": 264,
      "max": [
        1.9468947649002075,
        0.9767182469367981
      ],
      "min": [
        0.2196781188249588,
        0.0010071153519675136
      ],
      "type": "VEC2"
    },
    {
      "bufferView": 1,
      "byteOffset": 32208,
      "componentType": 5126,
      "count": 264,
      "max": [
        1.9468947649002075,
        0.9767182469367981
      ],
      "min": [
        0.2196781188249588,
        0.0010071153519675136
      ],
      "type": "VEC2"
    },
    {
      "bufferView": 0,
      "byteOffset": 12432,
      "componentType": 5125,
      "count": 504,
      "type": "SCALAR"
    }
  ],
  "asset": {
    "extras": {
      "author": "Star1194 (https://sketchfab.com/Star1194)",
      "license": "CC-BY-4.0 (http://creativecommons.org/licenses/by/4.0/)",
      "source": "https://sketchfab.com/3d-models/the-gun-box-8b0f1aaedde8409cb7f5d4e4eb040214",
      "title": "The gun box"
    },
    "generator": "Sketchfab-17.3.0",
    "version": "2.0"
  },
  "bufferViews": [
    {
      "buffer": 0,
      "byteLength": 14448,
      "name": "floatBufferViews",
      "target": 34963
    },
    {
      "buffer": 0,
      "byteLength": 34320,
      "byteOffset": 14448,
      "byteStride": 8,
      "name": "floatBufferViews",
      "target": 34962
    },
    {
      "buffer": 0,
      "byteLength": 34320,
      "byteOffset": 48768,
      "byteStride": 12,
      "name": "floatBufferViews",
      "target": 34962
    },
    {
      "buffer": 0,
      "byteLength": 22880,
      "byteOffset": 83088,
      "byteStride": 16,
      "name": "floatBufferViews",
      "target": 34962
    }
  ],
  "buffers": [
    {
      "byteLength": 105968,
      "uri": "scene.bin"
    }
  ],
  "images": [
    {
      "uri": "textures/M_Militaly_Crates_01_baseColor.png"
    },
    {
      "uri": "textures/M_Militaly_Crates_01_metallicRoughness.png"
    },
    {
      "uri": "textures/M_Militaly_Crates_01_normal.png"
    }
  ],
  "materials": [
    {
      "doubleSided": true,
      "name": "M_Militaly_Crates_01",
      "normalTexture": {
        "index": 2
      },
      "pbrMetallicRoughness": {
        "baseColorTexture": {
          "index": 0
        },
        "metallicRoughnessTexture": {
          "index": 1
        }
      }
    }
  ],
  "meshes": [
    {
      "name": "Box_Low._M_Militaly_Crates_01_0",
      "primitives": [
        {
          "attributes": {
            "NORMAL": 1,
            "POSITION": 0,
            "TANGENT": 2,
            "TEXCOORD_0": 3,
            "TEXCOORD_1": 4,
            "TEXCOORD_2": 5
          },
          "indices": 6,
          "material": 0,
          "mode": 4
        }
      ]
    },
    {
      "name": "Metal_Detales_Low.002_M_Militaly_Crates_01_0",
      "primitives": [
        {
          "attributes": {
            "NORMAL": 8,
            "POSITION": 7,
            "TANGENT": 9,
            "TEXCOORD_0": 10,
            "TEXCOORD_1": 11,
            "TEXCOORD_2": 12
          },
          "indices": 13,
          "material": 0,
          "mode": 4
        }
      ]
    },
    {
      "name": "Wood_Detals_Low.003_M_Militaly_Crates_01_0",
      "primitives": [
        {
          "attributes": {
            "NORMAL": 15,
            "POSITION": 14,
            "TANGENT": 16,
            "TEXCOORD_0": 17,
            "TEXCOORD_1": 18,
            "TEXCOORD_2": 19
          },
          "indices": 20,
          "material": 0,
          "mode": 4
        }
      ]
    }
  ],
  "nodes": [
    {
      "children": [
        1
      ],
      "matrix": [
        1.0,
        0.0,
        0.0,
        0.0,
        0.0,
        2.220446049250313e-16,
        -1.0,
        0.0,
        0.0,
        1.0,
        2.220446049250313e-16,
        0.0,
        0.0,
        0.0,
        0.0,
        1.0
      ],
      "name": "Sketchfab_model"
    },
    {
      "children": [
        2
      ],
      "matrix": [
        0.009999999776482582,
        0.0,
        0.0,
        0.0,
        0.0,
        0.0,
        0.009999999776482582,
        0.0,
        0.0,
        -0.009999999776482582,
        0.0,
        0.0,
        0.0,
        0.0,
        0.0,
        1.0
      ],
      "name": "b7741f3cf70a4acdab722b9a05e496dc.fbx"
    },
    {
      "children": [
        3,
        5,
        7
      ],
      "name": "RootNode"
    },
    {
      "children": [
        4
      ],
      "name": "Box_Low."
    },
    {
      "mesh": 0,
      "name": "Box_Low._M_Militaly_Crates_01_0"
    },
    {
      "children": [
        6
      ],
      "matrix": [
        -0.9999999999999889,
        1.2246467991473394e-16,
        1.5099579909783712e-07,
        0.0,
        1.2246469840638756e-16,
        1.0,
        1.2246467991473394e-16,
        0.0,
        -1.5099579909783712e-07,
        1.2246469840638756e-16,
        -0.9999999999999889,
        0.0,
        0.0,
        0.0,
        0.0,
        1.0
      ],
      "name": "Metal_Detales_Low.002"
    },
    {
      "mesh": 1,
      "name": "Metal_Detales_Low.002_M_Militaly_Crates_01_0"
    },
    {
      "children": [
        8
      ],
      "name": "Wood_Detals_Low.003"
    },
    {
      "mesh": 2,
      "name": "Wood_Detals_Low.003_M_Militaly_Crates_01_0"
    }
  ],
  "samplers": [
    {
      "magFilter": 9729,
      "minFilter": 9987,
      "wrapS": 10497,
      "wrapT": 10497
    }
  ],
  "scene": 0,
  "scenes": [
    {
      "name": "Sketchfab_Scene",
      "nodes": [
        0
      ]
    }
  ],
  "textures": [
    {
      "sampler": 0,
      "source": 0
    },
    {
      "sampler": 0,
      "source": 1
    },
    {
      "sampler": 0,
      "source": 2
    }
  ]
}
