{
  "accessors": [
    {
      "bufferView": 3,
      "componentType": 5126,
      "count": 4540,
      "max": [
        32.0535888671875,
        21.586036682128906,
        24.72209930419922
      ],
      "min": [
        -32.0535888671875,
        -11.448592185974121,
        -45.01544189453125
      ],
      "type": "VEC3"
    },
    {
      "bufferView": 3,
      "byteOffset": 54480,
      "componentType": 5126,
      "count": 4540,
      "max": [
        0.999910831451416,
        0.9994438290596008,
        0.9990682601928711
      ],
      "min": [
        -0.9999108910560608,
        -0.999374270439148,
        -0.999149739742279
      ],
      "type": "VEC3"
    },
    {
      "bufferView": 4,
      "componentType": 5126,
      "count": 4540,
      "max": [
        0.9999356865882874,
        0.9995623230934143,
        0.9991497993469238,
        1.0
      ],
      "min": [
        -0.9999357461929321,
        -0.9996785521507263,
        -0.9991675019264221,
        -1.0
      ],
      "type": "VEC4"
    },
    {
      "bufferView": 2,
      "componentType": 5126,
      "count": 4540,
      "max": [
        0.9859278202056885,
        0.9960330128669739
      ],
      "min": [
        0.003966981079429388,
        0.009023666381835938
      ],
      "type": "VEC2"
    },
    {
      "bufferView": 1,
      "componentType": 5125,
      "count": 22656,
      "type": "SCALAR"
    },
    {
      "bufferView": 3,
      "byteOffset": 108960,
      "componentType": 5126,
      "count": 5649,
      "max": [
        2.0777597427368164,
        8.967511177062988,
        84.61485290527344
      ],
      "min": [
        -2.0777597427368164,
        -13.859010696411133,
        -30.996797561645508
      ],
      "type": "VEC3"
    },
    {
      "bufferView": 3,
      "byteOffset": 176748,
      "componentType": 5126,
      "count": 5649,
      "max": [
        1.0,
        1.0,
        1.0
      ],
      "min": [
        -1.0,
        -1.0,
        -1.0
      ],
      "type": "VEC3"
    },
    {
      "bufferView": 4,
      "byteOffset": 72640,
      "componentType": 5126,
      "count": 5649,
      "max": [
        1.0,
        1.0,
        1.0,
        1.0
      ],
      "min": [
        -1.0,
        -1.0,
        -1.0,
        -1.0
      ],
      "type": "VEC4"
    },
    {
      "bufferView": 2,
      "byteOffset": 36320,
      "componentType": 5126,
      "count": 5649,
      "max": [
        0.9963730573654175,
        0.997439444065094
      ],
      "min": [
        0.0025284970179200172,
        0.002527475357055664
      ],
      "type": "VEC2"
    },
    {
      "bufferView": 2,
      "byteOffset": 81512,
      "componentType": 5126,
      "count": 5649,
      "max": [
        0.9963730573654175,
        0.997439444065094
      ],
      "min": [
        0.0025284970179200172,
        0.002527475357055664
      ],
      "type": "VEC2"
    },
    {
      "bufferView": 1,
      "byteOffset": 90624,
      "componentType": 5125,
      "count": 20094,
      "type": "SCALAR"
    },
    {
      "bufferView": 3,
      "byteOffset": 244536,
      "componentType": 5126,
      "count": 146,
      "max": [
        1.1229686737060547,
        -0.5787802934646606,
        6.932870864868164
      ],
      "min": [
        -1.1229686737060547,
        -1.329455852508545,
        -0.6900097131729126
      ],
      "type": "VEC3"
    },
    {
      "bufferView": 3,
      "byteOffset": 246288,
      "componentType": 5126,
      "count": 146,
      "max": [
        1.0,
        1.0,
        1.0
      ],
      "min": [
        -1.0,
        -1.0,
        -1.0
      ],
      "type": "VEC3"
    },
    {
      "bufferView": 4,
      "byteOffset": 163024,
      "componentType": 5126,
      "count": 146,
      "max": [
        1.0,
        0.00038542639231309295,
        1.0,
        1.0
      ],
      "min": [
        -0.991851270198822,
        -1.0,
        -0.9918514490127563,
        -1.0
      ],
      "type": "VEC4"
    },
    {
      "bufferView": 2,
      "byteOffset": 126704,
      "componentType": 5126,
      "count": 146,
      "max": [
        0.967854380607605,
        0.9466056823730469
      ],
      "min": [
        0.0025379506405442953,
        0.19497191905975342
      ],
      "type": "VEC2"
    },
    {
      "bufferView": 2,
      "byteOffset": 127872,
      "componentType": 5126,
      "count": 146,
      "max": [
        0.967854380607605,
        0.9466056823730469
      ],
      "min": [
        0.0025379506405442953,
        0.19497191905975342
      ],
      "type": "VEC2"
    },
    {
      "bufferView": 1,
      "byteOffset": 171000,
      "componentType": 5125,
      "count": 372,
      "type": "SCALAR"
    },
    {
      "bufferView": 3,
      "byteOffset": 248040,
      "componentType": 5126,
      "count": 757,
      "max": [
        2.3605504035949707,
        5.127872943878174,
        13.36949348449707
      ],
      "min": [
        -2.3605504035949707,
        -3.112405776977539,
        -29.927936553955078
      ],
      "type": "VEC3"
    },
    {
      "bufferView": 3,
      "byteOffset": 257124,
      "componentType": 5126,
      "count": 757,
      "max": [
        1.0,
        1.0,
        1.0
      ],
      "min": [
        -1.0,
        -1.0,
        -1.0
      ],
      "type": "VEC3"
    },
    {
      "bufferView": 4,
      "byteOffset": 165360,
      "componentType": 5126,
      "count": 757,
      "max": [
        1.0,
        1.0,
        1.0,
        1.0
      ],
      "min": [
        -1.0,
        -1.0,
        -1.0,
        -1.0
      ],
      "type": "VEC4"
    },
    {
      "bufferView": 2,
      "byteOffset": 129040,
      "componentType": 5126,
      "count": 757,
      "max": [
        0.8415430188179016,
        0.9469785094261169
      ],
      "min": [
        0.002531577367335558,
        0.13926565647125244
      ],
      "type": "VEC2"
    },
    {
      "bufferView": 2,
      "byteOffset": 135096,
      "componentType": 5126,
      "count": 757,
      "max": [
        0.8415430188179016,
        0.9469785094261169
      ],
      "min": [
        0.002531577367335558,
        0.13926565647125244
      ],
      "type": "VEC2"
    },
    {
      "bufferView": 1,
      "byteOffset": 172488,
      "componentType": 5125,
      "count": 2370,
      "type": "SCALAR"
    },
    {
      "bufferView": 3,
      "byteOffset": 266208,
      "componentType": 5126,
      "count": 114,
      "max": [
        0.34629327058792114,
        0.2040310502052307,
        0.6513572335243225
      ],
      "min": [
        -0.34629327058792114,
        -3.3438735008239746,
        -0.6729262471199036
      ],
      "type": "VEC3"
    },
    {
      "bufferView": 3,
      "byteOffset": 267576,
      "componentType": 5126,
      "count": 114,
      "max": [
        1.0,
        0.569150447845459,
        1.0
      ],
      "min": [
        -1.0,
        -0.8677770495414734,
        -1.0
      ],
      "type": "VEC3"
    },
    {
      "bufferView": 4,
      "byteOffset": 177472,
      "componentType": 5126,
      "count": 114,
      "max": [
        1.0,
        1.0,
        0.8677771091461182,
        1.0
      ],
      "min": [
        -8.391849405597895e-05,
        -5.091662751510739e-05,
        -0.5691505670547485,
        -1.0
      ],
      "type": "VEC4"
    },
    {
      "bufferView": 2,
      "byteOffset": 141152,
      "componentType": 5126,
      "count": 114,
      "max": [
        0.9865975975990295,
        0.3664602041244507
      ],
      "min": [
        0.04475875943899155,
        0.002529621124267578
      ],
      "type": "VEC2"
    },
    {
      "bufferView": 2,
      "byteOffset": 142064,
      "componentType": 5126,
      "count": 114,
      "max": [
        0.9865975975990295,
        0.3664602041244507
      ],
      "min": [
        0.04475875943899155,
        0.002529621124267578
      ],
      "type": "VEC2"
    },
    {
      "bufferView": 1,
      "byteOffset": 181968,
      "componentType": 5125,
      "count": 318,
      "type": "SCALAR"
    },
    {
      "bufferView": 3,
      "byteOffset": 268944,
      "componentType": 5126,
      "count": 455,
      "max": [
        0.9951230883598328,
        0.9951237440109253,
        3.393480062484741
      ],
      "min": [
        -0.9951230883598328,
        -0.9951222538948059,
        -3.474639654159546
      ],
      "type": "VEC3"
    },
    {
      "bufferView": 3,
      "byteOffset": 274404,
      "componentType": 5126,
      "count": 455,
      "max": [
        1.0,
        1.0,
        1.0
      ],
      "min": [
        -1.0,
        -1.0,
        -1.0
      ],
      "type": "VEC3"
    },
    {
      "bufferView": 4,
      "byteOffset": 179296,
      "componentType": 5126,
      "count": 455,
      "max": [
        1.0,
        0.9999992847442627,
        1.0,
        1.0
      ],
      "min": [
        -0.9999992251396179,
        -0.9999995827674866,
        -0.9311937689781189,
        -1.0
      ],
      "type": "VEC4"
    },
    {
      "bufferView": 2,
      "byteOffset": 142976,
      "componentType": 5126,
      "count": 455,
      "max": [
        0.9964232444763184,
        0.9169179797172546
      ],
      "min": [
        0.4150215685367584,
        0.0025027990341186523
      ],
      "type": "VEC2"
    },
    {
      "bufferView": 2,
      "byteOffset": 146616,
      "componentType": 5126,
      "count": 455,
      "max": [
        0.9964232444763184,
        0.9169179797172546
      ],
      "min": [
        0.4150215685367584,
        0.0025027990341186523
      ],
      "type": "VEC2"
    },
    {
      "bufferView": 1,
      "byteOffset": 183240,
      "componentType": 5125,
      "count": 1314,
      "type": "SCALAR"
    },
    {
      "bufferView": 5,
      "componentType": 5126,
      "count": 50,
      "max": [
        1.0,
        0.82325679063797,
        0.989981472492218,
        0.0,
        0.8594661951065063,
        1.0,
        0.6253894567489624,
        0.0,
        0.6010922193527222,
        0.8836162090301514,
        1.0,
        0.0,
        24.98717498779297,
        8.177143096923828,
        13.586137771606445,
        1.0
      ],
      "min": [
        -0.9998274445533752,
        -0.82325679063797,
        -0.989981472492218,
        0.0,
        -0.8594661951065063,
        -0.5712948441505432,
        -0.6028426289558411,
        0.0,
        -0.6010922193527222,
        -0.519698441028595,
        -0.9432644844055176,
        0.0,
        -24.98717498779297,
        -27.09673500061035,
        -47.666839599609375,
        1.0
      ],
      "type": "MAT4"
    },
    {
      "bufferView": 0,
      "componentType": 5123,
      "count": 4540,
      "type": "VEC4"
    },
    {
      "bufferView": 4,
      "byteOffset": 186576,
      "componentType": 5126,
      "count": 4540,
      "max": [
        1.0,
        0.499908447265625,
        0.31274136900901794,
        0.1750137358903885
      ],
      "min": [
        0.3291119933128357,
        0.0,
        0.0,
        0.0
      ],
      "type": "VEC4"
    },
    {
      "bufferView": 6,
      "componentType": 5126,
      "count": 65,
      "max": [
        2.633333444595337
      ],
      "min": [
        0.0
      ],
      "type": "SCALAR"
    },
    {
      "bufferView": 7,
      "componentType": 5126,
      "count": 65,
      "max": [
        8.881784197001252e-16,
        1.8729265928268433,
        20.244998931884766
      ],
      "min": [
        -1.3322676295501878e-15,
        1.8729265928268433,
        20.244998931884766
      ],
      "type": "VEC3"
    },
    {
      "bufferView": 6,
      "byteOffset": 260,
      "componentType": 5126,
      "count": 78,
      "max": [
        2.633333444595337
      ],
      "min": [
        0.0
      ],
      "type": "SCALAR"
    },
    {
      "bufferView": 8,
      "componentType": 5126,
      "count": 78,
      "max": [
        3.469446951953614e-17,
        0.017550071701407433,
        0.033058132976293564,
        1.0
      ],
      "min": [
        -0.22358928620815277,
        -4.163336342344337e-17,
        -6.559423143537302e-17,
        0.9740485548973083
      ],
      "type": "VEC4"
    },
    {
      "bufferView": 6,
      "byteOffset": 572,
      "componentType": 5126,
      "count": 108,
      "max": [
        4.133333206176758
      ],
      "min": [
        0.0
      ],
      "type": "SCALAR"
    },
    {
      "bufferView": 7,
      "byteOffset": 780,
      "componentType": 5126,
      "count": 108,
      "max": [
        5.3290705182007514e-15,
        1.2925868034362793,
        48.850563049316406
      ],
      "min": [
        -5.3290705182007514e-15,
        1.2925868034362793,
        40.63466262817383
      ],
      "type": "VEC3"
    },
    {
      "bufferView": 6,
      "byteOffset": 1004,
      "componentType": 5126,
      "count": 109,
      "max": [
        4.133333206176758
      ],
      "min": [
        0.0
      ],
      "type": "SCALAR"
    },
    {
      "bufferView": 8,
      "byteOffset": 1248,
      "componentType": 5126,
      "count": 109,
      "max": [
        2.7755575615628914e-17,
        1.1102230246251565e-16,
        9.926548515462597e-17,
        1.0
      ],
      "min": [
        -5.551115123125783e-17,
        -8.326672684688674e-17,
        -5.204170427930421e-17,
        1.0
      ],
      "type": "VEC4"
    },
    {
      "bufferView": 6,
      "byteOffset": 1440,
      "componentType": 5126,
      "count": 16,
      "max": [
        0.5
      ],
      "min": [
        0.0
      ],
      "type": "SCALAR"
    },
    {
      "bufferView": 8,
      "byteOffset": 2992,
      "componentType": 5126,
      "count": 16,
      "max": [
        0.13501526415348053,
        0.0,
        0.0,
        1.0
      ],
      "min": [
        1.3234889800848443e-23,
        0.0,
        0.0,
        0.9908435344696045
      ],
      "type": "VEC4"
    },
    {
      "bufferView": 6,
      "byteOffset": 1504,
      "componentType": 5126,
      "count": 68,
      "max": [
        2.299999952316284
      ],
      "min": [
        0.0
      ],
      "type": "SCALAR"
    },
    {
      "bufferView": 7,
      "byteOffset": 2076,
      "componentType": 5126,
      "count": 68,
      "max": [
        10.111776351928711,
        4.885919570922852,
        31.237041473388672
      ],
      "min": [
        -0.1718003749847412,
        -40.464683532714844,
        12.455410957336426
      ],
      "type": "VEC3"
    },
    {
      "bufferView": 6,
      "byteOffset": 1776,
      "componentType": 5126,
      "count": 68,
      "max": [
        2.299999952316284
      ],
      "min": [
        0.0
      ],
      "type": "SCALAR"
    },
    {
      "bufferView": 8,
      "byteOffset": 3248,
      "componentType": 5126,
      "count": 68,
      "max": [
        4.85722573273506e-17,
        0.04741464927792549,
        0.36177384853363037,
        1.0
      ],
      "min": [
        -0.45513710379600525,
        -0.19220486283302307,
        -2.211772431870429e-17,
        0.823069155216217
      ],
      "type": "VEC4"
    },
    {
      "bufferView": 6,
      "byteOffset": 2048,
      "componentType": 5126,
      "count": 172,
      "max": [
        5.9666666984558105
      ],
      "min": [
        0.0
      ],
      "type": "SCALAR"
    },
    {
      "bufferView": 7,
      "byteOffset": 2892,
      "componentType": 5126,
      "count": 172,
      "max": [
        5.0829620361328125,
        1.4272974729537964,
        17.380937576293945
      ],
      "min": [
        -15.371257781982422,
        -10.631784439086914,
        -22.403390884399414
      ],
      "type": "VEC3"
    },
    {
      "bufferView": 6,
      "byteOffset": 2736,
      "componentType": 5126,
      "count": 157,
      "max": [
        5.9666666984558105
      ],
      "min": [
        0.0
      ],
      "type": "SCALAR"
    },
    {
      "bufferView": 8,
      "byteOffset": 4336,
      "componentType": 5126,
      "count": 157,
      "max": [
        0.19310542941093445,
        0.5331470966339111,
        0.32891231775283813,
        1.0
      ],
      "min": [
        -0.38736748695373535,
        0.0,
        -0.2536923289299011,
        0.7175577878952026
      ],
      "type": "VEC4"
    },
    {
      "bufferView": 6,
      "byteOffset": 3364,
      "componentType": 5126,
      "count": 113,
      "max": [
        5.9666666984558105
      ],
      "min": [
        0.0
      ],
      "type": "SCALAR"
    },
    {
      "bufferView": 7,
      "byteOffset": 4956,
      "componentType": 5126,
      "count": 113,
      "max": [
        43.85837173461914,
        -32.23347473144531,
        18.95151710510254
      ],
      "min": [
        -4.264107704162598,
        -45.4412841796875,
        -34.951942443847656
      ],
      "type": "VEC3"
    },
    {
      "bufferView": 6,
      "byteOffset": 3816,
      "componentType": 5126,
      "count": 63,
      "max": [
        5.9666666984558105
      ],
      "min": [
        0.0
      ],
      "type": "SCALAR"
    },
    {
      "bufferView": 7,
      "byteOffset": 6312,
      "componentType": 5126,
      "count": 63,
      "max": [
        -33.32102966308594,
        2.0290582180023193,
        -22.246484756469727
      ],
      "min": [
        -46.723838806152344,
        -13.955771446228027,
        -28.3912296295166
      ],
      "type": "VEC3"
    },
    {
      "bufferView": 6,
      "byteOffset": 4068,
      "componentType": 5126,
      "count": 81,
      "max": [
        2.866666555404663
      ],
      "min": [
        0.0
      ],
      "type": "SCALAR"
    },
    {
      "bufferView": 7,
      "byteOffset": 7068,
      "componentType": 5126,
      "count": 81,
      "max": [
        -1.4210854715202004e-14,
        1.4210854715202004e-14,
        -3.037506341934204
      ],
      "min": [
        -2.1316282072803006e-14,
        0.0,
        -3.037506341934204
      ],
      "type": "VEC3"
    },
    {
      "bufferView": 6,
      "byteOffset": 4392,
      "componentType": 5126,
      "count": 87,
      "max": [
        2.866666555404663
      ],
      "min": [
        0.0
      ],
      "type": "SCALAR"
    },
    {
      "bufferView": 8,
      "byteOffset": 6848,
      "componentType": 5126,
      "count": 87,
      "max": [
        0.1582038849592209,
        -0.022263560444116592,
        0.008074062876403332,
        0.9992913007736206
      ],
      "min": [
        -0.035502977669239044,
        -0.05557846277952194,
        -0.029766103252768517,
        0.986706554889679
      ],
      "type": "VEC4"
    },
    {
      "bufferView": 6,
      "byteOffset": 4740,
      "componentType": 5126,
      "count": 160,
      "max": [
        5.333333492279053
      ],
      "min": [
        0.0
      ],
      "type": "SCALAR"
    },
    {
      "bufferView": 7,
      "byteOffset": 8040,
      "componentType": 5126,
      "count": 160,
      "max": [
        2.1316282072803006e-14,
        7.105427357601002e-15,
        -5.012237548828125
      ],
      "min": [
        1.0658141036401503e-14,
        -7.105427357601002e-15,
        -5.012237548828125
      ],
      "type": "VEC3"
    },
    {
      "bufferView": 6,
      "byteOffset": 5380,
      "componentType": 5126,
      "count": 161,
      "max": [
        5.333333492279053
      ],
      "min": [
        0.0
      ],
      "type": "SCALAR"
    },
    {
      "bufferView": 8,
      "byteOffset": 8240,
      "componentType": 5126,
      "count": 161,
      "max": [
        0.08169520646333694,
        0.15427938103675842,
        0.02878681756556034,
        0.9968948364257813
      ],
      "min": [
        -0.1695813089609146,
        -0.0058015077374875546,
        -0.1713053435087204,
        0.9741548299789429
      ],
      "type": "VEC4"
    },
    {
      "bufferView": 6,
      "byteOffset": 6024,
      "componentType": 5126,
      "count": 161,
      "max": [
        5.333333492279053
      ],
      "min": [
        0.0
      ],
      "type": "SCALAR"
    },
    {
      "bufferView": 8,
      "byteOffset": 10816,
      "componentType": 5126,
      "count": 161,
      "max": [
        0.28473272919654846,
        -0.1372678130865097,
        -0.2089792788028717,
        0.9459651708602905
      ],
      "min": [
        0.18651556968688965,
        -0.2139677107334137,
        -0.2751474678516388,
        0.8975703120231628
      ],
      "type": "VEC4"
    },
    {
      "bufferView": 6,
      "byteOffset": 6668,
      "componentType": 5126,
      "count": 158,
      "max": [
        5.333333492279053
      ],
      "min": [
        0.0
      ],
      "type": "SCALAR"
    },
    {
      "bufferView": 7,
      "byteOffset": 9960,
      "componentType": 5126,
      "count": 158,
      "max": [
        2.1316282072803006e-14,
        1.7763568394002505e-14,
        -2.2330517768859863
      ],
      "min": [
        7.105427357601002e-15,
        3.552713678800501e-15,
        -2.2330517768859863
      ],
      "type": "VEC3"
    },
    {
      "bufferView": 6,
      "byteOffset": 7300,
      "componentType": 5126,
      "count": 161,
      "max": [
        5.333333492279053
      ],
      "min": [
        0.0
      ],
      "type": "SCALAR"
    },
    {
      "bufferView": 8,
      "byteOffset": 13392,
      "componentType": 5126,
      "count": 161,
      "max": [
        0.06832197308540344,
        0.10490838438272476,
        -0.002411080291494727,
        0.9979339838027954
      ],
      "min": [
        -0.5951963067054749,
        -0.009905461221933365,
        -0.15393710136413574,
        0.795708417892456
      ],
      "type": "VEC4"
    },
    {
      "bufferView": 6,
      "byteOffset": 7944,
      "componentType": 5126,
      "count": 154,
      "max": [
        5.333333492279053
      ],
      "min": [
        0.0
      ],
      "type": "SCALAR"
    },
    {
      "bufferView": 7,
      "byteOffset": 11856,
      "componentType": 5126,
      "count": 154,
      "max": [
        0.0,
        -5.3290705182007514e-15,
        -3.0677490234375
      ],
      "min": [
        -1.4210854715202004e-14,
        -1.4210854715202004e-14,
        -3.0677490234375
      ],
      "type": "VEC3"
    },
    {
      "bufferView": 6,
      "byteOffset": 8560,
      "componentType": 5126,
      "count": 161,
      "max": [
        5.333333492279053
      ],
      "min": [
        0.0
      ],
      "type": "SCALAR"
    },
    {
      "bufferView": 8,
      "byteOffset": 15968,
      "componentType": 5126,
      "count": 161,
      "max": [
        0.029062435030937195,
        0.2087012231349945,
        0.04552588239312172,
        0.9996097087860107
      ],
      "min": [
        -0.5463786721229553,
        0.012163517065346241,
        -0.0835626870393753,
        0.8093836307525635
      ],
      "type": "VEC4"
    },
    {
      "bufferView": 6,
      "byteOffset": 9204,
      "componentType": 5126,
      "count": 95,
      "max": [
        3.133333444595337
      ],
      "min": [
        0.0
      ],
      "type": "SCALAR"
    },
    {
      "bufferView": 8,
      "byteOffset": 18544,
      "componentType": 5126,
      "count": 95,
      "max": [
        0.060922663658857346,
        0.11766152828931808,
        0.5683180093765259,
        0.8931171894073486
      ],
      "min": [
        -0.2830878794193268,
        -0.2087859958410263,
        0.4444710314273834,
        0.8140526413917542
      ],
      "type": "VEC4"
    },
    {
      "bufferView": 6,
      "byteOffset": 9584,
      "componentType": 5126,
      "count": 157,
      "max": [
        5.333333492279053
      ],
      "min": [
        0.0
      ],
      "type": "SCALAR"
    },
    {
      "bufferView": 7,
      "byteOffset": 13704,
      "componentType": 5126,
      "count": 157,
      "max": [
        -1.4210854715202004e-14,
        -7.105427357601002e-15,
        -2.7107412815093994
      ],
      "min": [
        -2.842170943040401e-14,
        -2.842170943040401e-14,
        -2.7107412815093994
      ],
      "type": "VEC3"
    },
    {
      "bufferView": 6,
      "byteOffset": 10212,
      "componentType": 5126,
      "count": 161,
      "max": [
        5.333333492279053
      ],
      "min": [
        0.0
      ],
      "type": "SCALAR"
    },
    {
      "bufferView": 8,
      "byteOffset": 20064,
      "componentType": 5126,
      "count": 161,
      "max": [
        0.024253254756331444,
        0.21231313049793243,
        -0.0003497892466839403,
        0.9993614554405212
      ],
      "min": [
        -0.7199603319168091,
        -0.010209469124674797,
        -0.29381462931632996,
        0.685200572013855
      ],
      "type": "VEC4"
    },
    {
      "bufferView": 6,
      "byteOffset": 10856,
      "componentType": 5126,
      "count": 150,
      "max": [
        5.333333492279053
      ],
      "min": [
        0.0
      ],
      "type": "SCALAR"
    },
    {
      "bufferView": 7,
      "byteOffset": 15588,
      "componentType": 5126,
      "count": 150,
      "max": [
        1.4210854715202004e-14,
        7.105427357601002e-15,
        -3.295424699783325
      ],
      "min": [
        -7.105427357601002e-15,
        -7.105427357601002e-15,
        -3.295424699783325
      ],
      "type": "VEC3"
    },
    {
      "bufferView": 6,
      "byteOffset": 11456,
      "componentType": 5126,
      "count": 161,
      "max": [
        5.333333492279053
      ],
      "min": [
        0.0
      ],
      "type": "SCALAR"
    },
    {
      "bufferView": 8,
      "byteOffset": 22640,
      "componentType": 5126,
      "count": 161,
      "max": [
        0.061238642781972885,
        0.16223986446857452,
        0.017318570986390114,
        0.9999012351036072
      ],
      "min": [
        -0.5848702192306519,
        0.013349028304219246,
        -0.0918298065662384,
        0.793721079826355
      ],
      "type": "VEC4"
    },
    {
      "bufferView": 6,
      "byteOffset": 12100,
      "componentType": 5126,
      "count": 95,
      "max": [
        3.133333444595337
      ],
      "min": [
        0.0
      ],
      "type": "SCALAR"
    },
    {
      "bufferView": 8,
      "byteOffset": 25216,
      "componentType": 5126,
      "count": 95,
      "max": [
        0.06810334324836731,
        0.0026136748492717743,
        0.6157347559928894,
        0.8369945287704468
      ],
      "min": [
        -0.22216539084911346,
        -0.12706881761550903,
        0.5297709107398987,
        0.7634454965591431
      ],
      "type": "VEC4"
    },
    {
      "bufferView": 6,
      "byteOffset": 12480,
      "componentType": 5126,
      "count": 152,
      "max": [
        5.333333492279053
      ],
      "min": [
        0.0
      ],
      "type": "SCALAR"
    },
    {
      "bufferView": 7,
      "byteOffset": 17388,
      "componentType": 5126,
      "count": 152,
      "max": [
        4.6674060172335885e-09,
        -1.1068266303482233e-09,
        -2.509448766708374
      ],
      "min": [
        4.667384700951516e-09,
        -1.1068408412029385e-09,
        -2.509448766708374
      ],
      "type": "VEC3"
    },
    {
      "bufferView": 6,
      "byteOffset": 13088,
      "componentType": 5126,
      "count": 161,
      "max": [
        5.333333492279053
      ],
      "min": [
        0.0
      ],
      "type": "SCALAR"
    },
    {
      "bufferView": 8,
      "byteOffset": 26736,
      "componentType": 5126,
      "count": 161,
      "max": [
        0.014188681729137897,
        0.0057711536064743996,
        0.048417769372463226,
        0.9987072944641113
      ],
      "min": [
        -0.485637366771698,
        -0.02391778491437435,
        -0.04916411638259888,
        0.8731328845024109
      ],
      "type": "VEC4"
    },
    {
      "bufferView": 6,
      "byteOffset": 13732,
      "componentType": 5126,
      "count": 89,
      "max": [
        3.133333444595337
      ],
      "min": [
        0.0
      ],
      "type": "SCALAR"
    },
    {
      "bufferView": 7,
      "byteOffset": 19212,
      "componentType": 5126,
      "count": 89,
      "max": [
        0.0,
        -3.552713678800501e-15,
        -2.9420864582061768
      ],
      "min": [
        -1.4210854715202004e-14,
        -1.7763568394002505e-14,
        -2.9420864582061768
      ],
      "type": "VEC3"
    },
    {
      "bufferView": 6,
      "byteOffset": 14088,
      "componentType": 5126,
      "count": 95,
      "max": [
        3.133333444595337
      ],
      "min": [
        0.0
      ],
      "type": "SCALAR"
    },
    {
      "bufferView": 8,
      "byteOffset": 29312,
      "componentType": 5126,
      "count": 95,
      "max": [
        -0.09605526179075241,
        0.09286646544933319,
        0.004315187223255634,
        0.9944885969161987
      ],
      "min": [
        -0.6294551491737366,
        0.02153768762946129,
        -0.05866105481982231,
        0.7724660038948059
      ],
      "type": "VEC4"
    },
    {
      "bufferView": 6,
      "byteOffset": 14468,
      "componentType": 5126,
      "count": 161,
      "max": [
        5.333333492279053
      ],
      "min": [
        0.0
      ],
      "type": "SCALAR"
    },
    {
      "bufferView": 8,
      "byteOffset": 30832,
      "componentType": 5126,
      "count": 161,
      "max": [
        0.7070422172546387,
        0.7735281586647034,
        0.38303282856941223,
        0.43297716975212097
      ],
      "min": [
        0.46592020988464355,
        0.6698768138885498,
        0.0011046009603887796,
        0.20096907019615173
      ],
      "type": "VEC4"
    },
    {
      "bufferView": 6,
      "byteOffset": 15112,
      "componentType": 5126,
      "count": 156,
      "max": [
        5.333333492279053
      ],
      "min": [
        0.0
      ],
      "type": "SCALAR"
    },
    {
      "bufferView": 7,
      "byteOffset": 20280,
      "componentType": 5126,
      "count": 156,
      "max": [
        -7.105427357601002e-15,
        0.0,
        -1.8977560997009277
      ],
      "min": [
        -2.1316282072803006e-14,
        -1.4210854715202004e-14,
        -1.8977560997009277
      ],
      "type": "VEC3"
    },
    {
      "bufferView": 6,
      "byteOffset": 15736,
      "componentType": 5126,
      "count": 161,
      "max": [
        5.333333492279053
      ],
      "min": [
        0.0
      ],
      "type": "SCALAR"
    },
    {
      "bufferView": 8,
      "byteOffset": 33408,
      "componentType": 5126,
      "count": 161,
      "max": [
        -0.04476951062679291,
        0.027581240981817245,
        0.15439115464687347,
        0.9898566603660583
      ],
      "min": [
        -0.46004003286361694,
        -0.030949678272008896,
        0.059662651270627975,
        0.8776010870933533
      ],
      "type": "VEC4"
    },
    {
      "bufferView": 6,
      "byteOffset": 16380,
      "componentType": 5126,
      "count": 94,
      "max": [
        3.133333444595337
      ],
      "min": [
        0.0
      ],
      "type": "SCALAR"
    },
    {
      "bufferView": 7,
      "byteOffset": 22152,
      "componentType": 5126,
      "count": 94,
      "max": [
        0.0,
        2.842170943040401e-14,
        -1.9251525402069092
      ],
      "min": [
        -1.4210854715202004e-14,
        1.4210854715202004e-14,
        -1.9251525402069092
      ],
      "type": "VEC3"
    },
    {
      "bufferView": 6,
      "byteOffset": 16756,
      "componentType": 5126,
      "count": 95,
      "max": [
        3.133333444595337
      ],
      "min": [
        0.0
      ],
      "type": "SCALAR"
    },
    {
      "bufferView": 8,
      "byteOffset": 35984,
      "componentType": 5126,
      "count": 95,
      "max": [
        0.033782850950956345,
        -0.0013184781419113278,
        0.001386140240356326,
        0.9990958571434021
      ],
      "min": [
        -0.5775647759437561,
        -0.040993787348270416,
        -0.07116283476352692,
        0.8143035769462585
      ],
      "type": "VEC4"
    },
    {
      "bufferView": 6,
      "byteOffset": 17136,
      "componentType": 5126,
      "count": 161,
      "max": [
        5.333333492279053
      ],
      "min": [
        0.0
      ],
      "type": "SCALAR"
    },
    {
      "bufferView": 8,
      "byteOffset": 37504,
      "componentType": 5126,
      "count": 161,
      "max": [
        0.6527374386787415,
        0.7040173411369324,
        0.5404722094535828,
        0.5412257313728333
      ],
      "min": [
        0.37722280621528625,
        0.5221757292747498,
        0.09096278995275497,
        0.23367947340011597
      ],
      "type": "VEC4"
    },
    {
      "bufferView": 6,
      "byteOffset": 17780,
      "componentType": 5126,
      "count": 95,
      "max": [
        3.133333444595337
      ],
      "min": [
        0.0
      ],
      "type": "SCALAR"
    },
    {
      "bufferView": 8,
      "byteOffset": 40080,
      "componentType": 5126,
      "count": 95,
      "max": [
        0.11975104361772537,
        0.9829891324043274,
        -0.10527832061052322,
        -0.08899080753326416
      ],
      "min": [
        -0.09152425825595856,
        0.9678016901016235,
        -0.18426774442195892,
        -0.19377844035625458
      ],
      "type": "VEC4"
    },
    {
      "bufferView": 6,
      "byteOffset": 18160,
      "componentType": 5126,
      "count": 179,
      "max": [
        5.9666666984558105
      ],
      "min": [
        0.0
      ],
      "type": "SCALAR"
    },
    {
      "bufferView": 7,
      "byteOffset": 23280,
      "componentType": 5126,
      "count": 179,
      "max": [
        3.552713678800501e-15,
        1.4210854715202004e-14,
        -25.331451416015625
      ],
      "min": [
        -1.4210854715202004e-14,
        0.0,
        -25.331451416015625
      ],
      "type": "VEC3"
    },
    {
      "bufferView": 6,
      "byteOffset": 18876,
      "componentType": 5126,
      "count": 180,
      "max": [
        5.9666666984558105
      ],
      "min": [
        0.0
      ],
      "type": "SCALAR"
    },
    {
      "bufferView": 8,
      "byteOffset": 41600,
      "componentType": 5126,
      "count": 180,
      "max": [
        0.1731841266155243,
        0.25959473848342896,
        0.07346644997596741,
        0.9998716115951538
      ],
      "min": [
        -0.28118324279785156,
        -0.07506440579891205,
        -0.20288635790348053,
        0.9217272400856018
      ],
      "type": "VEC4"
    },
    {
      "bufferView": 6,
      "byteOffset": 19596,
      "componentType": 5126,
      "count": 180,
      "max": [
        5.9666666984558105
      ],
      "min": [
        0.0
      ],
      "type": "SCALAR"
    },
    {
      "bufferView": 7,
      "byteOffset": 25428,
      "componentType": 5126,
      "count": 180,
      "max": [
        2.842170943040401e-14,
        -1.021405182655144e-14,
        -29.602209091186523
      ],
      "min": [
        1.0658141036401503e-14,
        -2.3092638912203256e-14,
        -29.602209091186523
      ],
      "type": "VEC3"
    },
    {
      "bufferView": 6,
      "byteOffset": 20316,
      "componentType": 5126,
      "count": 180,
      "max": [
        5.9666666984558105
      ],
      "min": [
        0.0
      ],
      "type": "SCALAR"
    },
    {
      "bufferView": 8,
      "byteOffset": 44480,
      "componentType": 5126,
      "count": 180,
      "max": [
        0.3183395564556122,
        -0.17636504769325256,
        0.6079796552658081,
        0.9567323327064514
      ],
      "min": [
        -0.23177357017993927,
        -0.5955168604850769,
        -0.4197126030921936,
        0.6432562470436096
      ],
      "type": "VEC4"
    },
    {
      "bufferView": 6,
      "byteOffset": 21036,
      "componentType": 5126,
      "count": 132,
      "max": [
        5.9666666984558105
      ],
      "min": [
        0.0
      ],
      "type": "SCALAR"
    },
    {
      "bufferView": 7,
      "byteOffset": 27588,
      "componentType": 5126,
      "count": 132,
      "max": [
        28.059581756591797,
        -4.788178443908691,
        43.985008239746094
      ],
      "min": [
        -2.3902766704559326,
        -25.72869873046875,
        5.823101043701172
      ],
      "type": "VEC3"
    },
    {
      "bufferView": 6,
      "byteOffset": 21564,
      "componentType": 5126,
      "count": 180,
      "max": [
        5.9666666984558105
      ],
      "min": [
        0.0
      ],
      "type": "SCALAR"
    },
    {
      "bufferView": 8,
      "byteOffset": 47360,
      "componentType": 5126,
      "count": 180,
      "max": [
        0.6547995209693909,
        0.9777212142944336,
        0.3721936047077179,
        0.08028405159711838
      ],
      "min": [
        0.19235247373580933,
        0.6511174440383911,
        -0.2607734799385071,
        -0.44410818815231323
      ],
      "type": "VEC4"
    },
    {
      "bufferView": 6,
      "byteOffset": 22284,
      "componentType": 5126,
      "count": 157,
      "max": [
        5.333333492279053
      ],
      "min": [
        0.0
      ],
      "type": "SCALAR"
    },
    {
      "bufferView": 7,
      "byteOffset": 29172,
      "componentType": 5126,
      "count": 157,
      "max": [
        1.865174681370263e-14,
        1.1546319456101628e-14,
        -3.037506341934204
      ],
      "min": [
        1.4210854715202004e-14,
        8.881784197001252e-15,
        -3.037506341934204
      ],
      "type": "VEC3"
    },
    {
      "bufferView": 6,
      "byteOffset": 22912,
      "componentType": 5126,
      "count": 161,
      "max": [
        5.333333492279053
      ],
      "min": [
        0.0
      ],
      "type": "SCALAR"
    },
    {
      "bufferView": 8,
      "byteOffset": 50240,
      "componentType": 5126,
      "count": 161,
      "max": [
        -0.0618298165500164,
        0.04317746311426163,
        0.08507706224918365,
        0.9939506649971008
      ],
      "min": [
        -0.19962051510810852,
        0.03163992986083031,
        0.0798429623246193,
        0.9756600260734558
      ],
      "type": "VEC4"
    },
    {
      "bufferView": 6,
      "byteOffset": 23556,
      "componentType": 5126,
      "count": 161,
      "max": [
        5.333333492279053
      ],
      "min": [
        0.0
      ],
      "type": "SCALAR"
    },
    {
      "bufferView": 7,
      "byteOffset": 31056,
      "componentType": 5126,
      "count": 161,
      "max": [
        -2.3092638912203256e-14,
        8.881784197001252e-15,
        -5.012237548828125
      ],
      "min": [
        -3.019806626980426e-14,
        5.3290705182007514e-15,
        -5.012237548828125
      ],
      "type": "VEC3"
    },
    {
      "bufferView": 6,
      "byteOffset": 24200,
      "componentType": 5126,
      "count": 161,
      "max": [
        5.333333492279053
      ],
      "min": [
        0.0
      ],
      "type": "SCALAR"
    },
    {
      "bufferView": 8,
      "byteOffset": 52816,
      "componentType": 5126,
      "count": 161,
      "max": [
        -0.20402351021766663,
        -0.08857618272304535,
        0.13220533728599548,
        0.9659453630447388
      ],
      "min": [
        -0.2965986728668213,
        -0.1009615808725357,
        0.12300711125135422,
        0.9416502714157104
      ],
      "type": "VEC4"
    },
    {
      "bufferView": 6,
      "byteOffset": 24844,
      "componentType": 5126,
      "count": 160,
      "max": [
        5.333333492279053
      ],
      "min": [
        0.0
      ],
      "type": "SCALAR"
    },
    {
      "bufferView": 8,
      "byteOffset": 55392,
      "componentType": 5126,
      "count": 160,
      "max": [
        0.32703766226768494,
        0.2554859519004822,
        0.3070054054260254,
        0.8620812892913818
      ],
      "min": [
        0.32452595233917236,
        0.23926226794719696,
        0.30625107884407043,
        0.8567284345626831
      ],
      "type": "VEC4"
    },
    {
      "bufferView": 6,
      "byteOffset": 25484,
      "componentType": 5126,
      "count": 158,
      "max": [
        5.9666666984558105
      ],
      "min": [
        0.0
      ],
      "type": "SCALAR"
    },
    {
      "bufferView": 7,
      "byteOffset": 32988,
      "componentType": 5126,
      "count": 158,
      "max": [
        1.211925138022707e-08,
        4.432720857039385e-11,
        -2.2330517768859863
      ],
      "min": [
        1.211924782751339e-08,
        4.432365585671505e-11,
        -2.2330517768859863
      ],
      "type": "VEC3"
    },
    {
      "bufferView": 6,
      "byteOffset": 26116,
      "componentType": 5126,
      "count": 180,
      "max": [
        5.9666666984558105
      ],
      "min": [
        0.0
      ],
      "type": "SCALAR"
    },
    {
      "bufferView": 8,
      "byteOffset": 57952,
      "componentType": 5126,
      "count": 180,
      "max": [
        -0.05192215368151665,
        0.01683078706264496,
        0.030704738572239876,
        0.9979419708251953
      ],
      "min": [
        -0.5219786167144775,
        -0.03903971612453461,
        -0.01535656675696373,
        0.8526980876922607
      ],
      "type": "VEC4"
    },
    {
      "bufferView": 6,
      "byteOffset": 26836,
      "componentType": 5126,
      "count": 177,
      "max": [
        5.9666666984558105
      ],
      "min": [
        0.0
      ],
      "type": "SCALAR"
    },
    {
      "bufferView": 7,
      "byteOffset": 34884,
      "componentType": 5126,
      "count": 177,
      "max": [
        3.552713678800501e-15,
        8.881784197001252e-16,
        -3.0677490234375
      ],
      "min": [
        0.0,
        -3.552713678800501e-15,
        -3.0677490234375
      ],
      "type": "VEC3"
    },
    {
      "bufferView": 6,
      "byteOffset": 27544,
      "componentType": 5126,
      "count": 180,
      "max": [
        5.9666666984558105
      ],
      "min": [
        0.0
      ],
      "type": "SCALAR"
    },
    {
      "bufferView": 8,
      "byteOffset": 60832,
      "componentType": 5126,
      "count": 180,
      "max": [
        0.053815681487321854,
        0.02076270431280136,
        -0.013792915269732475,
        0.9994847178459167
      ],
      "min": [
        0.003669861238449812,
        -0.036721277981996536,
        -0.025928886607289314,
        0.9979982376098633
      ],
      "type": "VEC4"
    },
    {
      "bufferView": 6,
      "byteOffset": 28264,
      "componentType": 5126,
      "count": 159,
      "max": [
        5.333333492279053
      ],
      "min": [
        0.0
      ],
      "type": "SCALAR"
    },
    {
      "bufferView": 7,
      "byteOffset": 37008,
      "componentType": 5126,
      "count": 159,
      "max": [
        2.6645352591003757e-14,
        0.0,
        -2.7107412815093994
      ],
      "min": [
        2.1316282072803006e-14,
        -3.552713678800501e-15,
        -2.7107412815093994
      ],
      "type": "VEC3"
    },
    {
      "bufferView": 6,
      "byteOffset": 28900,
      "componentType": 5126,
      "count": 161,
      "max": [
        5.333333492279053
      ],
      "min": [
        0.0
      ],
      "type": "SCALAR"
    },
    {
      "bufferView": 8,
      "byteOffset": 63712,
      "componentType": 5126,
      "count": 161,
      "max": [
        -0.5290209650993347,
        0.09451791644096375,
        0.046614039689302444,
        0.8422569632530212
      ],
      "min": [
        -0.5655217170715332,
        0.09255894273519516,
        0.042501647025346756,
        0.8181962966918945
      ],
      "type": "VEC4"
    },
    {
      "bufferView": 6,
      "byteOffset": 29544,
      "componentType": 5126,
      "count": 160,
      "max": [
        5.333333492279053
      ],
      "min": [
        0.0
      ],
      "type": "SCALAR"
    },
    {
      "bufferView": 7,
      "byteOffset": 38916,
      "componentType": 5126,
      "count": 160,
      "max": [
        1.7763568394002505e-15,
        0.0,
        -2.9420864582061768
      ],
      "min": [
        -3.552713678800501e-15,
        -6.217248937900877e-15,
        -2.9420864582061768
      ],
      "type": "VEC3"
    },
    {
      "bufferView": 6,
      "byteOffset": 30184,
      "componentType": 5126,
      "count": 161,
      "max": [
        5.333333492279053
      ],
      "min": [
        0.0
      ],
      "type": "SCALAR"
    },
    {
      "bufferView": 8,
      "byteOffset": 66288,
      "componentType": 5126,
      "count": 161,
      "max": [
        -0.21436528861522675,
        0.05921028554439545,
        0.055402517318725586,
        0.9737049341201782
      ],
      "min": [
        -0.35100677609443665,
        0.053635720163583755,
        0.03949844837188721,
        0.9336639046669006
      ],
      "type": "VEC4"
    },
    {
      "bufferView": 6,
      "byteOffset": 30828,
      "componentType": 5126,
      "count": 161,
      "max": [
        5.333333492279053
      ],
      "min": [
        0.0
      ],
      "type": "SCALAR"
    },
    {
      "bufferView": 7,
      "byteOffset": 40836,
      "componentType": 5126,
      "count": 161,
      "max": [
        3.2380853554059286e-10,
        9.680078960627725e-11,
        -1.8977560997009277
      ],
      "min": [
        3.2380143011323526e-10,
        9.679368417891965e-11,
        -1.8977560997009277
      ],
      "type": "VEC3"
    },
    {
      "bufferView": 6,
      "byteOffset": 31472,
      "componentType": 5126,
      "count": 161,
      "max": [
        5.333333492279053
      ],
      "min": [
        0.0
      ],
      "type": "SCALAR"
    },
    {
      "bufferView": 8,
      "byteOffset": 68864,
      "componentType": 5126,
      "count": 161,
      "max": [
        -0.11071742326021194,
        -0.006266161799430847,
        -0.014188755303621292,
        0.9937106370925903
      ],
      "min": [
        -0.2845291793346405,
        -0.00891299918293953,
        -0.015540191903710365,
        0.9585209488868713
      ],
      "type": "VEC4"
    },
    {
      "bufferView": 6,
      "byteOffset": 32116,
      "componentType": 5126,
      "count": 161,
      "max": [
        5.333333492279053
      ],
      "min": [
        0.0
      ],
      "type": "SCALAR"
    },
    {
      "bufferView": 8,
      "byteOffset": 71440,
      "componentType": 5126,
      "count": 161,
      "max": [
        -0.4686228334903717,
        0.7252333760261536,
        0.44934603571891785,
        -0.27806317806243896
      ],
      "min": [
        -0.49232232570648193,
        0.6916558146476746,
        0.3928564190864563,
        -0.31637483835220337
      ],
      "type": "VEC4"
    },
    {
      "bufferView": 6,
      "byteOffset": 32760,
      "componentType": 5126,
      "count": 180,
      "max": [
        5.9666666984558105
      ],
      "min": [
        0.0
      ],
      "type": "SCALAR"
    },
    {
      "bufferView": 7,
      "byteOffset": 42768,
      "componentType": 5126,
      "count": 180,
      "max": [
        3.375077994860476e-14,
        1.4210854715202004e-14,
        -25.331451416015625
      ],
      "min": [
        2.220446049250313e-14,
        7.105427357601002e-15,
        -25.331451416015625
      ],
      "type": "VEC3"
    },
    {
      "bufferView": 6,
      "byteOffset": 33480,
      "componentType": 5126,
      "count": 180,
      "max": [
        5.9666666984558105
      ],
      "min": [
        0.0
      ],
      "type": "SCALAR"
    },
    {
      "bufferView": 8,
      "byteOffset": 74016,
      "componentType": 5126,
      "count": 180,
      "max": [
        0.0132452929392457,
        0.267894446849823,
        0.06476516276597977,
        0.9947730302810669
      ],
      "min": [
        -0.29486384987831116,
        -0.347395122051239,
        -0.05085968226194382,
        0.9179566502571106
      ],
      "type": "VEC4"
    },
    {
      "bufferView": 6,
      "byteOffset": 34200,
      "componentType": 5126,
      "count": 179,
      "max": [
        5.9666666984558105
      ],
      "min": [
        0.0
      ],
      "type": "SCALAR"
    },
    {
      "bufferView": 7,
      "byteOffset": 44928,
      "componentType": 5126,
      "count": 179,
      "max": [
        0.0,
        -2.3092638912203256e-14,
        -29.602209091186523
      ],
      "min": [
        -1.7763568394002505e-14,
        -3.197442310920451e-14,
        -29.602209091186523
      ],
      "type": "VEC3"
    },
    {
      "bufferView": 6,
      "byteOffset": 34916,
      "componentType": 5126,
      "count": 180,
      "max": [
        5.9666666984558105
      ],
      "min": [
        0.0
      ],
      "type": "SCALAR"
    },
    {
      "bufferView": 8,
      "byteOffset": 76896,
      "componentType": 5126,
      "count": 180,
      "max": [
        0.18584950268268585,
        0.6136374473571777,
        0.11948062479496002,
        0.9532146453857422
      ],
      "min": [
        -0.03203011304140091,
        0.26936742663383484,
        -0.31611648201942444,
        0.7659212350845337
      ],
      "type": "VEC4"
    },
    {
      "bufferView": 6,
      "byteOffset": 35636,
      "componentType": 5126,
      "count": 125,
      "max": [
        5.9666666984558105
      ],
      "min": [
        0.0
      ],
      "type": "SCALAR"
    },
    {
      "bufferView": 7,
      "byteOffset": 47076,
      "componentType": 5126,
      "count": 125,
      "max": [
        -15.986672401428223,
        19.899621963500977,
        21.378816604614258
      ],
      "min": [
        -62.02730941772461,
        0.9490704536437988,
        -17.226505279541016
      ],
      "type": "VEC3"
    },
    {
      "bufferView": 6,
      "byteOffset": 36136,
      "componentType": 5126,
      "count": 180,
      "max": [
        5.9666666984558105
      ],
      "min": [
        0.0
      ],
      "type": "SCALAR"
    },
    {
      "bufferView": 8,
      "byteOffset": 79776,
      "componentType": 5126,
      "count": 180,
      "max": [
        0.21161146461963654,
        0.9959017634391785,
        0.2665503919124603,
        0.2784274220466614
      ],
      "min": [
        -0.19716747105121613,
        0.9320313334465027,
        0.008318145759403706,
        -0.18643812835216522
      ],
      "type": "VEC4"
    }
  ],
  "animations": [
    {
      "channels": [
        {
          "sampler": 0,
          "target": {
            "node": 60,
            "path": "translation"
          }
        },
        {
          "sampler": 1,
          "target": {
            "node": 60,
            "path": "rotation"
          }
        },
        {
          "sampler": 2,
          "target": {
            "node": 62,
            "path": "translation"
          }
        },
        {
          "sampler": 3,
          "target": {
            "node": 62,
            "path": "rotation"
          }
        },
        {
          "sampler": 4,
          "target": {
            "node": 64,
            "path": "rotation"
          }
        },
        {
          "sampler": 5,
          "target": {
            "node": 66,
            "path": "translation"
          }
        },
        {
          "sampler": 6,
          "target": {
            "node": 66,
            "path": "rotation"
          }
        },
        {
          "sampler": 7,
          "target": {
            "node": 57,
            "path": "translation"
          }
        },
        {
          "sampler": 8,
          "target": {
            "node": 57,
            "path": "rotation"
          }
        },
        {
          "sampler": 9,
          "target": {
            "node": 68,
            "path": "translation"
          }
        },
        {
          "sampler": 10,
          "target": {
            "node": 69,
            "path": "translation"
          }
        },
        {
          "sampler": 11,
          "target": {
            "node": 14,
            "path": "translation"
          }
        },
        {
          "sampler": 12,
          "target": {
            "node": 14,
            "path": "rotation"
          }
        },
        {
          "sampler": 13,
          "target": {
            "node": 13,
            "path": "translation"
          }
        },
        {
          "sampler": 14,
          "target": {
            "node": 13,
            "path": "rotation"
          }
        },
        {
          "sampler": 15,
          "target": {
            "node": 12,
            "path": "rotation"
          }
        },
        {
          "sampler": 16,
          "target": {
            "node": 18,
            "path": "translation"
          }
        },
        {
          "sampler": 17,
          "target": {
            "node": 18,
            "path": "rotation"
          }
        },
        {
          "sampler": 18,
          "target": {
            "node": 17,
            "path": "translation"
          }
        },
        {
          "sampler": 19,
          "target": {
            "node": 17,
            "path": "rotation"
          }
        },
        {
          "sampler": 20,
          "target": {
            "node": 16,
            "path": "rotation"
          }
        },
        {
          "sampler": 21,
          "target": {
            "node": 22,
            "path": "translation"
          }
        },
        {
          "sampler": 22,
          "target": {
            "node": 22,
            "path": "rotation"
          }
        },
        {
          "sampler": 23,
          "target": {
            "node": 21,
            "path": "translation"
          }
        },
        {
          "sampler": 24,
          "target": {
            "node": 21,
            "path": "rotation"
          }
        },
        {
          "sampler": 25,
          "target": {
            "node": 20,
            "path": "rotation"
          }
        },
        {
          "sampler": 26,
          "target": {
            "node": 27,
            "path": "translation"
          }
        },
        {
          "sampler": 27,
          "target": {
            "node": 27,
            "path": "rotation"
          }
        },
        {
          "sampler": 28,
          "target": {
            "node": 26,
            "path": "translation"
          }
        },
        {
          "sampler": 29,
          "target": {
            "node": 26,
            "path": "rotation"
          }
        },
        {
          "sampler": 30,
          "target": {
            "node": 25,
            "path": "rotation"
          }
        },
        {
          "sampler": 31,
          "target": {
            "node": 31,
            "path": "translation"
          }
        },
        {
          "sampler": 32,
          "target": {
            "node": 31,
            "path": "rotation"
          }
        },
        {
          "sampler": 33,
          "target": {
            "node": 30,
            "path": "translation"
          }
        },
        {
          "sampler": 34,
          "target": {
            "node": 30,
            "path": "rotation"
          }
        },
        {
          "sampler": 35,
          "target": {
            "node": 29,
            "path": "rotation"
          }
        },
        {
          "sampler": 36,
          "target": {
            "node": 24,
            "path": "rotation"
          }
        },
        {
          "sampler": 37,
          "target": {
            "node": 11,
            "path": "translation"
          }
        },
        {
          "sampler": 38,
          "target": {
            "node": 11,
            "path": "rotation"
          }
        },
        {
          "sampler": 39,
          "target": {
            "node": 10,
            "path": "translation"
          }
        },
        {
          "sampler": 40,
          "target": {
            "node": 10,
            "path": "rotation"
          }
        },
        {
          "sampler": 41,
          "target": {
            "node": 9,
            "path": "translation"
          }
        },
        {
          "sampler": 42,
          "target": {
            "node": 9,
            "path": "rotation"
          }
        },
        {
          "sampler": 43,
          "target": {
            "node": 38,
            "path": "translation"
          }
        },
        {
          "sampler": 44,
          "target": {
            "node": 38,
            "path": "rotation"
          }
        },
        {
          "sampler": 45,
          "target": {
            "node": 37,
            "path": "translation"
          }
        },
        {
          "sampler": 46,
          "target": {
            "node": 37,
            "path": "rotation"
          }
        },
        {
          "sampler": 47,
          "target": {
            "node": 36,
            "path": "rotation"
          }
        },
        {
          "sampler": 48,
          "target": {
            "node": 42,
            "path": "translation"
          }
        },
        {
          "sampler": 49,
          "target": {
            "node": 42,
            "path": "rotation"
          }
        },
        {
          "sampler": 50,
          "target": {
            "node": 41,
            "path": "translation"
          }
        },
        {
          "sampler": 51,
          "target": {
            "node": 41,
            "path": "rotation"
          }
        },
        {
          "sampler": 52,
          "target": {
            "node": 46,
            "path": "translation"
          }
        },
        {
          "sampler": 53,
          "target": {
            "node": 46,
            "path": "rotation"
          }
        },
        {
          "sampler": 54,
          "target": {
            "node": 50,
            "path": "translation"
          }
        },
        {
          "sampler": 55,
          "target": {
            "node": 50,
            "path": "rotation"
          }
        },
        {
          "sampler": 56,
          "target": {
            "node": 55,
            "path": "translation"
          }
        },
        {
          "sampler": 57,
          "target": {
            "node": 55,
            "path": "rotation"
          }
        },
        {
          "sampler": 58,
          "target": {
            "node": 53,
            "path": "rotation"
          }
        },
        {
          "sampler": 59,
          "target": {
            "node": 35,
            "path": "translation"
          }
        },
        {
          "sampler": 60,
          "target": {
            "node": 35,
            "path": "rotation"
          }
        },
        {
          "sampler": 61,
          "target": {
            "node": 34,
            "path": "translation"
          }
        },
        {
          "sampler": 62,
          "target": {
            "node": 34,
            "path": "rotation"
          }
        },
        {
          "sampler": 63,
          "target": {
            "node": 33,
            "path": "translation"
          }
        },
        {
          "sampler": 64,
          "target": {
            "node": 33,
            "path": "rotation"
          }
        }
      ],
      "name": "allanims",
      "samplers": [
        {
          "input": 38,
          "interpolation": "LINEAR",
          "output": 39
        },
        {
          "input": 40,
          "interpolation": "LINEAR",
          "output": 41
        },
        {
          "input": 42,
          "interpolation": "LINEAR",
          "output": 43
        },
        {
          "input": 44,
          "interpolation": "LINEAR",
          "output": 45
        },
        {
          "input": 46,
          "interpolation": "LINEAR",
          "output": 47
        },
        {
          "input": 48,
          "interpolation": "LINEAR",
          "output": 49
        },
        {
          "input": 50,
          "interpolation": "LINEAR",
          "output": 51
        },
        {
          "input": 52,
          "interpolation": "LINEAR",
          "output": 53
        },
        {
          "input": 54,
          "interpolation": "LINEAR",
          "output": 55
        },
        {
          "input": 56,
          "interpolation": "LINEAR",
          "output": 57
        },
        {
          "input": 58,
          "interpolation": "LINEAR",
          "output": 59
        },
        {
          "input": 60,
          "interpolation": "LINEAR",
          "output": 61
        },
        {
          "input": 62,
          "interpolation": "LINEAR",
          "output": 63
        },
        {
          "input": 64,
          "interpolation": "LINEAR",
          "output": 65
        },
        {
          "input": 66,
          "interpolation": "LINEAR",
          "output": 67
        },
        {
          "input": 68,
          "interpolation": "LINEAR",
          "output": 69
        },
        {
          "input": 70,
          "interpolation": "LINEAR",
          "output": 71
        },
        {
          "input": 72,
          "interpolation": "LINEAR",
          "output": 73
        },
        {
          "input": 74,
          "interpolation": "LINEAR",
          "output": 75
        },
        {
          "input": 76,
          "interpolation": "LINEAR",
          "output": 77
        },
        {
          "input": 78,
          "interpolation": "LINEAR",
          "output": 79
        },
        {
          "input": 80,
          "interpolation": "LINEAR",
          "output": 81
        },
        {
          "input": 82,
          "interpolation": "LINEAR",
          "output": 83
        },
        {
          "input": 84,
          "interpolation": "LINEAR",
          "output": 85
        },
        {
          "input": 86,
          "interpolation": "LINEAR",
          "output": 87
        },
        {
          "input": 88,
          "interpolation": "LINEAR",
          "output": 89
        },
        {
          "input": 90,
          "interpolation": "LINEAR",
          "output": 91
        },
        {
          "input": 92,
          "interpolation": "LINEAR",
          "output": 93
        },
        {
          "input": 94,
          "interpolation": "LINEAR",
          "output": 95
        },
        {
          "input": 96,
          "interpolation": "LINEAR",
          "output": 97
        },
        {
          "input": 98,
          "interpolation": "LINEAR",
          "output": 99
        },
        {
          "input": 100,
          "interpolation": "LINEAR",
          "output": 101
        },
        {
          "input": 102,
          "interpolation": "LINEAR",
          "output": 103
        },
        {
          "input": 104,
          "interpolation": "LINEAR",
          "output": 105
        },
        {
          "input": 106,
          "interpolation": "LINEAR",
          "output": 107
        },
        {
          "input": 108,
          "interpolation": "LINEAR",
          "output": 109
        },
        {
          "input": 110,
          "interpolation": "LINEAR",
          "output": 111
        },
        {
          "input": 112,
          "interpolation": "LINEAR",
          "output": 113
        },
        {
          "input": 114,
          "interpolation": "LINEAR",
          "output": 115
        },
        {
          "input": 116,
          "interpolation": "LINEAR",
          "output": 117
        },
        {
          "input": 118,
          "interpolation": "LINEAR",
          "output": 119
        },
        {
          "input": 120,
          "interpolation": "LINEAR",
          "output": 121
        },
        {
          "input": 122,
          "interpolation": "LINEAR",
          "output": 123
        },
        {
          "input": 124,
          "interpolation": "LINEAR",
          "output": 125
        },
        {
          "input": 126,
          "interpolation": "LINEAR",
          "output": 127
        },
        {
          "input": 128,
          "interpolation": "LINEAR",
          "output": 129
        },
        {
          "input": 130,
          "interpolation": "LINEAR",
          "output": 131
        },
        {
          "input": 132,
          "interpolation": "LINEAR",
          "output": 133
        },
        {
          "input": 134,
          "interpolation": "LINEAR",
          "output": 135
        },
        {
          "input": 136,
          "interpolation": "LINEAR",
          "output": 137
        },
        {
          "input": 138,
          "interpolation": "LINEAR",
          "output": 139
        },
        {
          "input": 140,
          "interpolation": "LINEAR",
          "output": 141
        },
        {
          "input": 142,
          "interpolation": "LINEAR",
          "output": 143
        },
        {
          "input": 144,
          "interpolation": "LINEAR",
          "output": 145
        },
        {
          "input": 146,
          "interpolation": "LINEAR",
          "output": 147
        },
        {
          "input": 148,
          "interpolation": "LINEAR",
          "output": 149
        },
        {
          "input": 150,
          "interpolation": "LINEAR",
          "output": 151
        },
        {
          "input": 152,
          "interpolation": "LINEAR",
          "output": 153
        },
        {
          "input": 154,
          "interpolation": "LINEAR",
          "output": 155
        },
        {
          "input": 156,
          "interpolation": "LINEAR",
          "output": 157
        },
        {
          "input": 158,
          "interpolation": "LINEAR",
          "output": 159
        },
        {
          "input": 160,
          "interpolation": "LINEAR",
          "output": 161
        },
        {
          "input": 162,
          "interpolation": "LINEAR",
          "output": 163
        },
        {
          "input": 164,
          "interpolation": "LINEAR",
          "output": 165
        },
        {
          "input": 166,
          "interpolation": "LINEAR",
          "output": 167
        }
      ]
    }
  ],
  "asset": {
    "extras": {
      "author": "DJMaesen (https://sketchfab.com/bumstrum)",
      "license": "CC-BY-4.0 (http://creativecommons.org/licenses/by/4.0/)",
      "source": "https://sketchfab.com/3d-models/shotgun-animated-eb711e053b47404b9feb5370c0afba85",
      "title": "shotgun animated"
    },
    "generator": "Sketchfab-16.56.0",
    "version": "2.0"
  },
  "bufferViews": [
    {
      "buffer": 0,
      "byteLength": 36320,
      "byteStride": 8,
      "name": "shortBufferViews",
      "target": 34962
    },
    {
      "buffer": 0,
      "byteLength": 188496,
      "byteOffset": 36320,
      "name": "floatBufferViews",
      "target": 34963
    },
    {
      "buffer": 0,
      "byteLength": 150256,
      "byteOffset": 224816,
      "byteStride": 8,
      "name": "floatBufferViews",
      "target": 34962
    },
    {
      "buffer": 0,
      "byteLength": 279864,
      "byteOffset": 375072,
      "byteStride": 12,
      "name": "floatBufferViews",
      "target": 34962
    },
    {
      "buffer": 0,
      "byteLength": 259216,
      "byteOffset": 654936,
      "byteStride": 16,
      "name": "floatBufferViews",
      "target": 34962
    },
    {
      "buffer": 0,
      "byteLength": 3200,
      "byteOffset": 914152,
      "name": "floatBufferViews"
    },
    {
      "buffer": 0,
      "byteLength": 36856,
      "byteOffset": 917352,
      "name": "floatBufferViews"
    },
    {
      "buffer": 0,
      "byteLength": 48576,
      "byteOffset": 954208,
      "byteStride": 12,
      "name": "floatBufferViews"
    },
    {
      "buffer": 0,
      "byteLength": 82656,
      "byteOffset": 1002784,
      "byteStride": 16,
      "name": "floatBufferViews"
    }
  ],
  "buffers": [
    {
      "byteLength": 1085440,
      "uri": "scene.bin"
    }
  ],
  "extensionsUsed": [
    "KHR_materials_specular"
  ],
  "images": [
    {
      "uri": "textures/arms_baseColor.png"
    },
    {
      "uri": "textures/arms_metallicRoughness.png"
    },
    {
      "uri": "textures/arms_normal.png"
    },
    {
      "uri": "textures/shotgun_baseColor.png"
    },
    {
      "uri": "textures/shotgun_metallicRoughness.png"
    },
    {
      "uri": "textures/shotgun_normal.png"
    }
  ],
  "materials": [
    {
      "extensions": {
        "KHR_materials_specular": {
          "specularColorFactor": [
            1.0,
            1.0,
            1.0
          ],
          "specularFactor": 0.06251178033550396
        }
      },
      "name": "arms",
      "normalTexture": {
        "index": 2
      },
      "occlusionTexture": {
        "index": 1
      },
      "pbrMetallicRoughness": {
        "baseColorTexture": {
          "index": 0
        },
        "metallicRoughnessTexture": {
          "index": 1
        }
      }
    },
    {
      "extensions": {
        "KHR_materials_specular": {
          "specularColorFactor": [
            1.0,
            1.0,
            1.0
          ],
          "specularFactor": 0.5124445944220491
        }
      },
      "name": "shotgun",
      "normalTexture": {
        "index": 5
      },
      "occlusionTexture": {
        "index": 4
      },
      "pbrMetallicRoughness": {
        "baseColorTexture": {
          "index": 3
        },
        "metallicRoughnessTexture": {
          "index": 4
        }
      }
    }
  ],
  "meshes": [
    {
      "name": "arms_arms_0",
      "primitives": [
        {
          "attributes": {
            "JOINTS_0": 36,
            "NORMAL": 1,
            "POSITION": 0,
            "TANGENT": 2,
            "TEXCOORD_0": 3,
            "TEXCOORD_1": 3,
            "TEXCOORD_2": 3,
            "WEIGHTS_0": 37
          },
          "indices": 4,
          "material": 0,
          "mode": 4
        }
      ]
    },
    {
      "name": "base_shotgun_0",
      "primitives": [
        {
          "attributes": {
            "NORMAL": 6,
            "POSITION": 5,
            "TANGENT": 7,
            "TEXCOORD_0": 8,
            "TEXCOORD_1": 9
          },
          "indices": 10,
          "material": 1,
          "mode": 4
        }
      ]
    },
    {
      "name": "loader_shotgun_0",
      "primitives": [
        {
          "attributes": {
            "NORMAL": 12,
            "POSITION": 11,
            "TANGENT": 13,
            "TEXCOORD_0": 14,
            "TEXCOORD_1": 15
          },
          "indices": 16,
          "material": 1,
          "mode": 4
        }
      ]
    },
    {
      "name": "pump_shotgun_0",
      "primitives": [
        {
          "attributes": {
            "NORMAL": 18,
            "POSITION": 17,
            "TANGENT": 19,
            "TEXCOORD_0": 20,
            "TEXCOORD_1": 21
          },
          "indices": 22,
          "material": 1,
          "mode": 4
        }
      ]
    },
    {
      "name": "trigger_shotgun_0",
      "primitives": [
        {
          "attributes": {
            "NORMAL": 24,
            "POSITION": 23,
            "TANGENT": 25,
            "TEXCOORD_0": 26,
            "TEXCOORD_1": 27
          },
          "indices": 28,
          "material": 1,
          "mode": 4
        }
      ]
    },
    {
      "name": "slug_shotgun_0",
      "primitives": [
        {
          "attributes": {
            "NORMAL": 30,
            "POSITION": 29,
            "TANGENT": 31,
            "TEXCOORD_0": 32,
            "TEXCOORD_1": 33
          },
          "indices": 34,
          "material": 1,
          "mode": 4
        }
      ]
    }
  ],
  "nodes": [
    {
      "children": [
        1
      ],
      "matrix": [
        1.0,
        0.0,
        0.0,
        0.0,
        0.0,
        2.220446049250313e-16,
        -1.0,
        0.0,
        0.0,
        1.0,
        2.220446049250313e-16,
        0.0,
        0.0,
        0.0,
        0.0,
        1.0
      ],
      "name": "Sketchfab_model"
    },
    {
      "children": [
        2
      ],
      "matrix": [
        1.0,
        0.0,
        0.0,
        0.0,
        0.0,
        0.0,
        1.0,
        0.0,
        0.0,
        -1.0,
        0.0,
        0.0,
        0.0,
        0.0,
        0.0,
        1.0
      ],
      "name": "87609278d20444cbb6322398b56b1f3f.fbx"
    },
    {
      "children": [
        3
      ],
      "name": "Object_2"
    },
    {
      "children": [
        4
      ],
      "name": "RootNode"
    },
    {
      "children": [
        5,
        7,
        6,
        57,
        68,
        69,
        70
      ],
      "name": "Object_4"
    },
    {
      "children": [
        8
      ],
      "name": "_rootJoint"
    },
    {
      "matrix": [
        1.0,
        0.0,
        -3.469446951953614e-18,
        0.0,
        0.0,
        1.0,
        0.0,
        0.0,
        3.469446951953614e-18,
        0.0,
        1.0,
        0.0,
        -7.105427357601002e-15,
        2.9451502559423304,
        -17.67090153565373,
        1.0
      ],
      "name": "Object_6"
    },
    {
      "mesh": 0,
      "name": "Object_7",
      "skin": 0
    },
    {
      "children": [
        9,
        33
      ],
      "name": "root_01",
      "translation": [
        5.664815902709961,
        -0.9105344414710999,
        -49.004573822021484
      ]
    },
    {
      "children": [
        10
      ],
      "name": "L_arm_02",
      "rotation": [
        0.3525462746620178,
        0.9317578077316284,
        0.082136370241642,
        -0.028145063668489456
      ],
      "translation": [
        12.028849601745605,
        -10.91136646270752,
        42.5084228515625
      ]
    },
    {
      "children": [
        11
      ],
      "name": "L_elbow_03",
      "rotation": [
        -0.09657448530197144,
        -0.4310506582260132,
        0.3920937478542328,
        0.8069270253181458
      ],
      "translation": [
        2.4868995751603507e-14,
        -2.042810365310288e-14,
        -29.602209091186523
      ]
    },
    {
      "children": [
        12,
        16,
        20,
        24
      ],
      "name": "L_wrist_04",
      "rotation": [
        -0.01602991856634617,
        0.1724235713481903,
        0.14446187019348145,
        0.9742401838302612
      ],
      "translation": [
        -3.552713678800501e-15,
        -1.0658141036401503e-14,
        -25.331451416015625
      ]
    },
    {
      "children": [
        13
      ],
      "name": "L_thumb1_05",
      "rotation": [
        0.20302066206932068,
        -0.14233826100826263,
        -0.2089793086051941,
        0.9459652900695801
      ],
      "translation": [
        1.921784520149231,
        -0.13238033652305603,
        -3.445862293243408
      ]
    },
    {
      "children": [
        14
      ],
      "name": "L_thumb2_00",
      "rotation": [
        0.036620285362005234,
        0.042482804507017136,
        -0.05527036637067795,
        0.9968948364257813
      ],
      "translation": [
        1.0658141036401503e-14,
        1.7763568394002505e-15,
        -5.012237548828125
      ]
    },
    {
      "children": [
        15
      ],
      "name": "L_thumb3_06",
      "rotation": [
        0.04274308308959007,
        -0.05557847395539284,
        0.008074062876403332,
        0.9975064396858215
      ],
      "translation": [
        -1.7763568394002505e-14,
        7.993605777301127e-15,
        -3.037506341934204
      ]
    },
    {
      "name": "L_thumb_07",
      "rotation": [
        -4.806943176838274e-10,
        -7.09620695538149e-11,
        -7.289249891948758e-17,
        1.0
      ],
      "translation": [
        4.3075232269984554e-10,
        -2.917898145327058e-09,
        -3.0350866317749023
      ]
    },
    {
      "children": [
        17
      ],
      "name": "L_point1_08",
      "rotation": [
        0.022105736657977104,
        0.11766152828931808,
        0.5683180689811707,
        0.8140526413917542
      ],
      "translation": [
        -0.4178546965122223,
        3.726349353790283,
        -11.628993034362793
      ]
    },
    {
      "children": [
        18
      ],
      "name": "L_point2_09",
      "rotation": [
        -0.1762816160917282,
        0.06719212234020233,
        0.04552588239312172,
        0.9809879660606384
      ],
      "translation": [
        7.105427357601002e-15,
        -5.3290705182007514e-15,
        -3.0677490234375
      ]
    },
    {
      "children": [
        19
      ],
      "name": "L_point3_010",
      "rotation": [
        -0.2513439655303955,
        0.06374495476484299,
        -0.002411081688478589,
        0.9657935500144958
      ],
      "translation": [
        0.0,
        1.4210854715202004e-14,
        -2.2330517768859863
      ]
    },
    {
      "name": "L_point_011",
      "rotation": [
        2.3592239273284576e-16,
        -6.661338147750939e-16,
        -8.326672684688674e-17,
        1.0
      ],
      "translation": [
        7.105427357601002e-15,
        1.4210854715202004e-14,
        -2.7088754177093506
      ]
    },
    {
      "children": [
        21
      ],
      "name": "L_middle1_012",
      "rotation": [
        -0.1878919154405594,
        -0.05213693901896477,
        0.6157348155975342,
        0.7634454965591431
      ],
      "translation": [
        -2.097245931625366,
        1.682554006576538,
        -11.499493598937988
      ]
    },
    {
      "children": [
        22
      ],
      "name": "L_middle2_013",
      "rotation": [
        -0.21662470698356628,
        0.01334902923554182,
        0.002962354337796569,
        0.9761592149734497
      ],
      "translation": [
        -7.105427357601002e-15,
        -3.552713678800501e-15,
        -3.295424699783325
      ]
    },
    {
      "children": [
        23
      ],
      "name": "L_middle3_014",
      "rotation": [
        -0.3516257107257843,
        -0.009563037194311619,
        -0.0035922059323638678,
        0.9360849261283875
      ],
      "translation": [
        -2.842170943040401e-14,
        -7.105427357601002e-15,
        -2.7107412815093994
      ]
    },
    {
      "name": "L_middle_015",
      "rotation": [
        -7.7021722333370235e-16,
        -2.2343238370581275e-15,
        -1.7209147018072146e-30,
        1.0
      ],
      "translation": [
        7.105427357601002e-15,
        -1.4210854715202004e-14,
        -3.2042477130889893
      ]
    },
    {
      "children": [
        25,
        29
      ],
      "name": "palm_016",
      "rotation": [
        -0.09152426570653915,
        0.9773896336555481,
        -0.16856297850608826,
        -0.08899080753326416
      ],
      "translation": [
        -0.9503613114356995,
        -2.6020636558532715,
        -7.522320747375488
      ]
    },
    {
      "children": [
        26
      ],
      "name": "L_ring1_017",
      "rotation": [
        0.5236353874206543,
        0.7422972321510315,
        0.27672702074050903,
        0.31340542435646057
      ],
      "translation": [
        0.7034117579460144,
        2.7781155109405518,
        3.4729979038238525
      ]
    },
    {
      "children": [
        27
      ],
      "name": "L_ring2_018",
      "rotation": [
        -0.2717331647872925,
        0.041799020022153854,
        0.004315187688916922,
        0.9614548087120056
      ],
      "translation": [
        7.105427357601002e-15,
        0.0,
        -2.9420864582061768
      ]
    },
    {
      "children": [
        28
      ],
      "name": "L_ring3_019",
      "rotation": [
        -0.1836189329624176,
        -0.0239177867770195,
        0.04450871795415878,
        0.9816980361938477
      ],
      "translation": [
        4.667384700951516e-09,
        -1.1068408412029385e-09,
        -2.509448766708374
      ]
    },
    {
      "name": "L_ring_020",
      "rotation": [
        -1.3739009929736312e-15,
        3.469446951953614e-17,
        8.326672684688674e-17,
        1.0
      ],
      "translation": [
        0.0,
        -7.105427357601002e-15,
        -2.948970317840576
      ]
    },
    {
      "children": [
        30
      ],
      "name": "L_pink1_021",
      "rotation": [
        0.4870004951953888,
        0.5732368230819702,
        0.502935528755188,
        0.42577680945396423
      ],
      "translation": [
        -0.2106703370809555,
        -0.227929025888443,
        3.35941743850708
      ]
    },
    {
      "children": [
        31
      ],
      "name": "L_pink2_022",
      "rotation": [
        0.033782850950956345,
        -0.04097294807434082,
        0.0013861401239410043,
        0.9985880255699158
      ],
      "translation": [
        7.105427357601002e-15,
        2.1316282072803006e-14,
        -1.9251525402069092
      ]
    },
    {
      "children": [
        32
      ],
      "name": "L_pink3_023",
      "rotation": [
        -0.11113102734088898,
        0.018657363951206207,
        0.13353438675403595,
        0.9846168756484985
      ],
      "translation": [
        -7.105427357601002e-15,
        0.0,
        -1.8977560997009277
      ]
    },
    {
      "name": "L_pink_024",
      "rotation": [
        -8.98586760555986e-16,
        -7.91033905045424e-16,
        5.551115123125783e-17,
        1.0
      ],
      "translation": [
        0.0,
        -1.7763568394002505e-14,
        -1.9852255582809448
      ]
    },
    {
      "children": [
        34
      ],
      "name": "R_arm_025",
      "rotation": [
        -0.037844132632017136,
        0.9914008975028992,
        0.09610629081726074,
        0.08034703135490417
      ],
      "translation": [
        -15.986672401428223,
        9.519944190979004,
        -11.126171112060547
      ]
    },
    {
      "children": [
        35
      ],
      "name": "R_elbow_026",
      "rotation": [
        0.013214592821896076,
        0.13340289890766144,
        -0.1315799355506897,
        0.9821995496749878
      ],
      "translation": [
        -7.105427357601002e-15,
        -2.842170943040401e-14,
        -29.602209091186523
      ]
    },
    {
      "children": [
        36,
        40,
        44,
        48
      ],
      "name": "R_wrist_027",
      "rotation": [
        -0.19910196959972382,
        -0.06931222975254059,
        -0.04750968888401985,
        0.976369321346283
      ],
      "translation": [
        3.019806626980426e-14,
        5.773159728050814e-15,
        -25.331451416015625
      ]
    },
    {
      "children": [
        37
      ],
      "name": "R_thumb1_028",
      "rotation": [
        0.32452595233917236,
        0.23926228284835815,
        0.3070054054260254,
        0.8620812892913818
      ],
      "translation": [
        -1.921784520149231,
        -0.13238033652305603,
        -3.445862293243408
      ]
    },
    {
      "children": [
        38
      ],
      "name": "R_thumb2_029",
      "rotation": [
        -0.2965987026691437,
        -0.1009615883231163,
        0.12300710380077362,
        0.9416502714157104
      ],
      "translation": [
        -1.0658141036401503e-14,
        1.5543122344752192e-15,
        -5.012237548828125
      ]
    },
    {
      "children": [
        39
      ],
      "name": "R_thumb3_030",
      "rotation": [
        -0.19962051510810852,
        0.03163992986083031,
        0.08507706224918365,
        0.9756600260734558
      ],
      "translation": [
        1.0658141036401503e-14,
        1.199040866595169e-14,
        -3.037506341934204
      ]
    },
    {
      "name": "R_thumb_031",
      "rotation": [
        -4.806946507507348e-10,
        7.096195853151244e-11,
        1.391189908191492e-17,
        1.0
      ],
      "translation": [
        -4.3075676359194404e-10,
        -2.9179023641745516e-09,
        -3.0350866317749023
      ]
    },
    {
      "children": [
        41
      ],
      "name": "R_point1_032",
      "rotation": [
        0.07056140899658203,
        -0.00045571118243969977,
        -0.4804641902446747,
        0.8741711974143982
      ],
      "translation": [
        0.4178546965122223,
        3.726349353790283,
        -11.628993034362793
      ]
    },
    {
      "children": [
        42
      ],
      "name": "R_point2_033",
      "rotation": [
        0.053815681487321854,
        0.02076270431280136,
        -0.025928886607289314,
        0.9979982376098633
      ],
      "translation": [
        1.3322676295501878e-15,
        1.7763568394002505e-15,
        -3.0677490234375
      ]
    },
    {
      "children": [
        43
      ],
      "name": "R_point3_034",
      "rotation": [
        -0.3868052661418915,
        0.014556079171597958,
        -0.015245196409523487,
        0.9219204783439636
      ],
      "translation": [
        1.2119253156583909e-08,
        4.432543221355445e-11,
        -2.2330517768859863
      ]
    },
    {
      "name": "R_point_035",
      "rotation": [
        -5.699316019125433e-10,
        -1.6864751817280421e-09,
        7.450580596923828e-09,
        1.0
      ],
      "translation": [
        9.136901901740657e-09,
        -3.0877451706601278e-09,
        -2.7088754177093506
      ]
    },
    {
      "children": [
        45
      ],
      "name": "R_middle1_036",
      "rotation": [
        -0.513214111328125,
        0.35316017270088196,
        -0.40878158807754517,
        0.6669234037399292
      ],
      "translation": [
        2.097245931625366,
        1.682554006576538,
        -11.499493598937988
      ]
    },
    {
      "children": [
        46
      ],
      "name": "R_middle2_037",
      "rotation": [
        -0.17708618938922882,
        -0.02511613257229328,
        0.02497047185897827,
        0.9835578799247742
      ],
      "translation": [
        -2.6645352591003757e-15,
        -1.3322676295501878e-14,
        -3.295424699783325
      ]
    },
    {
      "children": [
        47
      ],
      "name": "R_middle3_038",
      "rotation": [
        -0.5655217170715332,
        0.09255895018577576,
        0.04661404341459274,
        0.8181964159011841
      ],
      "translation": [
        2.398081733190338e-14,
        3.1086244689504383e-15,
        -2.7107412815093994
      ]
    },
    {
      "name": "R_middle_039",
      "rotation": [
        -8.604228440844963e-16,
        2.4424906541753444e-15,
        -1.1796119636642288e-16,
        1.0
      ],
      "translation": [
        -2.842170943040401e-14,
        -1.7763568394002505e-14,
        -3.2042477130889893
      ]
    },
    {
      "children": [
        49,
        53
      ],
      "name": "palm_2_040",
      "rotation": [
        -0.10146398097276688,
        0.9750837683677673,
        -0.18933570384979248,
        -0.05539754405617714
      ],
      "translation": [
        0.9503613114356995,
        -2.6020636558532715,
        -7.522320747375488
      ]
    },
    {
      "children": [
        50
      ],
      "name": "R_ring1_041",
      "rotation": [
        -0.37320175766944885,
        0.6563820838928223,
        0.5128089189529419,
        -0.40854623913764954
      ],
      "translation": [
        -0.7034117579460144,
        2.7781155109405518,
        3.4729979038238525
      ]
    },
    {
      "children": [
        51
      ],
      "name": "R_ring2_042",
      "rotation": [
        -0.35100677609443665,
        0.05921028554439545,
        0.03949844837188721,
        0.9336639046669006
      ],
      "translation": [
        8.881784197001252e-16,
        -5.3290705182007514e-15,
        -2.9420864582061768
      ]
    },
    {
      "children": [
        52
      ],
      "name": "R_ring3_043",
      "rotation": [
        -0.29428815841674805,
        0.03777199611067772,
        0.04813568666577339,
        0.9537560939788818
      ],
      "translation": [
        -4.6673882536651945e-09,
        -1.1068443939166173e-09,
        -2.509448766708374
      ]
    },
    {
      "name": "R_ring_044",
      "rotation": [
        -1.510944147575799e-15,
        -1.1102230246251565e-16,
        1.0408340855860843e-17,
        1.0
      ],
      "translation": [
        -2.6645352591003757e-15,
        -1.4210854715202004e-14,
        -2.948970317840576
      ]
    },
    {
      "children": [
        54
      ],
      "name": "R_pink1_045",
      "rotation": [
        -0.4686228036880493,
        0.6916558146476746,
        0.44934600591659546,
        -0.316374808549881
      ],
      "translation": [
        0.2106703370809555,
        -0.227929025888443,
        3.35941743850708
      ]
    },
    {
      "children": [
        55
      ],
      "name": "R_pink2_046",
      "rotation": [
        -0.46450820565223694,
        0.07018482685089111,
        0.05523234233260155,
        0.8810536861419678
      ],
      "translation": [
        -3.552713678800501e-15,
        4.440892098500626e-15,
        -1.9251525402069092
      ]
    },
    {
      "children": [
        56
      ],
      "name": "R_pink3_047",
      "rotation": [
        -0.2845291793346405,
        -0.006266161799430847,
        -0.015540191903710365,
        0.9585209488868713
      ],
      "translation": [
        3.2380231829165496e-10,
        9.679723689259845e-11,
        -1.8977560997009277
      ]
    },
    {
      "name": "R_pink_048",
      "rotation": [
        -3.6639438011354386e-11,
        -8.179510957440073e-10,
        -2.151356748116332e-16,
        1.0
      ],
      "translation": [
        3.2476279443471867e-09,
        -1.4549605964475631e-10,
        -1.9852255582809448
      ]
    },
    {
      "children": [
        58,
        60,
        62,
        64,
        66
      ],
      "name": "shotgun",
      "rotation": [
        8.146033536604591e-08,
        0.0,
        0.0,
        1.0
      ],
      "translation": [
        0.0,
        -0.5541921854019165,
        -2.1277964115142822
      ]
    },
    {
      "children": [
        59
      ],
      "name": "base",
      "rotation": [
        2.6469779601696886e-23,
        0.0,
        0.0,
        1.0
      ],
      "translation": [
        0.0,
        3.3306690738754696e-16,
        2.6645352591003757e-15
      ]
    },
    {
      "mesh": 1,
      "name": "base_shotgun_0"
    },
    {
      "children": [
        61
      ],
      "name": "loader",
      "rotation": [
        2.6469779601696886e-23,
        0.0,
        0.0,
        1.0
      ],
      "translation": [
        0.0,
        1.8729265928268433,
        20.244998931884766
      ]
    },
    {
      "mesh": 2,
      "name": "loader_shotgun_0"
    },
    {
      "children": [
        63
      ],
      "name": "pump",
      "rotation": [
        2.6469779601696886e-23,
        0.0,
        0.0,
        1.0
      ],
      "translation": [
        0.0,
        1.2925868034362793,
        48.850563049316406
      ]
    },
    {
      "mesh": 3,
      "name": "pump_shotgun_0"
    },
    {
      "children": [
        65
      ],
      "name": "trigger",
      "rotation": [
        2.6469779601696886e-23,
        0.0,
        0.0,
        1.0
      ],
      "translation": [
        0.0,
        0.5827575922012329,
        11.103859901428223
      ]
    },
    {
      "mesh": 4,
      "name": "trigger_shotgun_0"
    },
    {
      "children": [
        67
      ],
      "name": "slug",
      "rotation": [
        2.6469779601696886e-23,
        0.0,
        0.0,
        1.0
      ],
      "translation": [
        -1.498101645787766e-16,
        1.6347836256027222,
        31.237041473388672
      ]
    },
    {
      "mesh": 5,
      "name": "slug_shotgun_0"
    },
    {
      "name": "L_arm_Pole",
      "rotation": [
        0.00041522199171595275,
        0.9801000356674194,
        0.033054232597351074,
        0.19573239982128143
      ],
      "translation": [
        37.34520721435547,
        -35.898624420166016,
        -29.113672256469727
      ]
    },
    {
      "name": "R_arm_Pole",
      "rotation": [
        0.05847400799393654,
        0.978354275226593,
        0.021234100684523582,
        -0.19736480712890625
      ],
      "translation": [
        -35.78328323364258,
        -4.689932823181152,
        -28.3912296295166
      ]
    },
    {
      "name": "arms",
      "rotation": [
        0.004987511318176985,
        -0.004960996564477682,
        0.025715965777635574,
        0.9996446371078491
      ],
      "translation": [
        0.0,
        2.945150136947632,
        -17.670902252197266
      ]
    }
  ],
  "samplers": [
    {
      "magFilter": 9729,
      "minFilter": 9987,
      "wrapS": 10497,
      "wrapT": 10497
    }
  ],
  "scene": 0,
  "scenes": [
    {
      "name": "Sketchfab_Scene",
      "nodes": [
        0
      ]
    }
  ],
  "skins": [
    {
      "inverseBindMatrices": 35,
      "joints": [
        5,
        8,
        9,
        10,
        11,
        12,
        13,
        14,
        15,
        16,
        17,
        18,
        19,
        20,
        21,
        22,
        23,
        24,
        25,
        26,
        27,
        28,
        29,
        30,
        31,
        32,
        33,
        34,
        35,
        36,
        37,
        38,
        39,
        40,
        41,
        42,
        43,
        44,
        45,
        46,
        47,
        48,
        49,
        50,
        51,
        52,
        53,
        54,
        55,
        56
      ],
      "skeleton": 5
    }
  ],
  "textures": [
    {
      "sampler": 0,
      "source": 0
    },
    {
      "sampler": 0,
      "source": 1
    },
    {
      "sampler": 0,
      "source": 2
    },
    {
      "sampler": 0,
      "source": 3
    },
    {
      "sampler": 0,
      "source": 4
    },
    {
      "sampler": 0,
      "source": 5
    }
  ]
}
