{
  "accessors": [
    {
      "bufferView": 2,
      "componentType": 5126,
      "count": 2482,
      "max": [
        2.765458345413208,
        1.6925969123840332,
        0.40454891324043274
      ],
      "min": [
        -2.8915328979492188,
        -0.5994574427604675,
        -0.6598423719406128
      ],
      "type": "VEC3"
    },
    {
      "bufferView": 2,
      "byteOffset": 29784,
      "componentType": 5126,
      "count": 2482,
      "max": [
        1.0,
        1.0,
        1.0
      ],
      "min": [
        -1.0,
        -1.0,
        -1.0
      ],
      "type": "VEC3"
    },
    {
      "bufferView": 3,
      "componentType": 5126,
      "count": 2482,
      "max": [
        1.0,
        1.0,
        1.0,
        1.0
      ],
      "min": [
        -0.9993743896484375,
        -1.0,
        -1.0,
        1.0
      ],
      "type": "VEC4"
    },
    {
      "bufferView": 1,
      "componentType": 5126,
      "count": 2482,
      "max": [
        0.9468669295310974,
        0.9997094869613647
      ],
      "min": [
        0.00029050264856778085,
        0.00029050264856778085
      ],
      "type": "VEC2"
    },
    {
      "bufferView": 1,
      "byteOffset": 19856,
      "componentType": 5126,
      "count": 2482,
      "max": [
        0.9468669295310974,
        0.9997094869613647
      ],
      "min": [
        0.00029050264856778085,
        0.00029050264856778085
      ],
      "type": "VEC2"
    },
    {
      "bufferView": 1,
      "byteOffset": 39712,
      "componentType": 5126,
      "count": 2482,
      "max": [
        0.9468669295310974,
        0.9997094869613647
      ],
      "min": [
        0.00029050264856778085,
        0.00029050264856778085
      ],
      "type": "VEC2"
    },
    {
      "bufferView": 1,
      "byteOffset": 59568,
      "componentType": 5126,
      "count": 2482,
      "max": [
        0.9468669295310974,
        0.9997094869613647
      ],
      "min": [
        0.00029050264856778085,
        0.00029050264856778085
      ],
      "type": "VEC2"
    },
    {
      "bufferView": 0,
      "componentType": 5125,
      "count": 9276,
      "type": "SCALAR"
    }
  ],
  "asset": {
    "extras": {
      "author": "Incg5764 (https://sketchfab.com/incg5764)",
      "license": "CC-BY-4.0 (http://creativecommons.org/licenses/by/4.0/)",
      "source": "https://sketchfab.com/3d-models/rusty-steel-door-lock-a36ce37e97c843a78a48b08adbf322e8",
      "title": "Rusty Steel Door Lock"
    },
    "generator": "Sketchfab-14.20.0",
    "version": "2.0"
  },
  "bufferViews": [
    {
      "buffer": 0,
      "byteLength": 37104,
      "name": "floatBufferViews",
      "target": 34963
    },
    {
      "buffer": 0,
      "byteLength": 79424,
      "byteOffset": 37104,
      "byteStride": 8,
      "name": "floatBufferViews",
      "target": 34962
    },
    {
      "buffer": 0,
      "byteLength": 59568,
      "byteOffset": 116528,
      "byteStride": 12,
      "name": "floatBufferViews",
      "target": 34962
    },
    {
      "buffer": 0,
      "byteLength": 39712,
      "byteOffset": 176096,
      "byteStride": 16,
      "name": "floatBufferViews",
      "target": 34962
    }
  ],
  "buffers": [
    {
      "byteLength": 215808,
      "uri": "scene.bin"
    }
  ],
  "images": [
    {
      "uri": "textures/main_baseColor.jpeg"
    },
    {
      "uri": "textures/main_metallicRoughness.png"
    },
    {
      "uri": "textures/main_normal.png"
    }
  ],
  "materials": [
    {
      "doubleSided": true,
      "name": "main",
      "normalTexture": {
        "index": 2
      },
      "pbrMetallicRoughness": {
        "baseColorTexture": {
          "index": 0
        },
        "metallicRoughnessTexture": {
          "index": 1
        }
      }
    }
  ],
  "meshes": [
    {
      "name": "Object_0",
      "primitives": [
        {
          "attributes": {
            "NORMAL": 1,
            "POSITION": 0,
            "TANGENT": 2,
            "TEXCOORD_0": 3,
            "TEXCOORD_1": 4,
            "TEXCOORD_2": 5,
            "TEXCOORD_3": 6
          },
          "indices": 7,
          "material": 0,
          "mode": 4
        }
      ]
    }
  ],
  "nodes": [
    {
      "children": [
        1
      ],
      "matrix": [
        1.0,
        0.0,
        0.0,
        0.0,
        0.0,
        2.220446049250313e-16,
        -1.0,
        0.0,
        0.0,
        1.0,
        2.220446049250313e-16,
        0.0,
        0.0,
        0.0,
        0.0,
        1.0
      ],
      "name": "Sketchfab_model"
    },
    {
      "children": [
        2
      ],
      "name": "root"
    },
    {
      "children": [
        3
      ],
      "matrix": [
        1.0,
        0.0,
        0.0,
        0.0,
        0.0,
        2.220446049250313e-16,
        1.0,
        0.0,
        0.0,
        -1.0,
        2.220446049250313e-16,
        0.0,
        0.0,
        0.0,
        0.0,
        1.0
      ],
      "name": "GLTF_SceneRootNode"
    },
    {
      "children": [
        4
      ],
      "name": "lock door_0"
    },
    {
      "mesh": 0,
      "name": "Object_4"
    }
  ],
  "samplers": [
    {
      "magFilter": 9729,
      "minFilter": 9987,
      "wrapS": 10497,
      "wrapT": 10497
    }
  ],
  "scene": 0,
  "scenes": [
    {
      "name": "Sketchfab_Scene",
      "nodes": [
        0
      ]
    }
  ],
  "textures": [
    {
      "sampler": 0,
      "source": 0
    },
    {
      "sampler": 0,
      "source": 1
    },
    {
      "sampler": 0,
      "source": 2
    }
  ]
}
