{
  "accessors": [
    {
      "bufferView": 1,
      "componentType": 5126,
      "count": 4030,
      "max": [
        6.18790340423584,
        9.092659950256348,
        0.12017890065908432
      ],
      "min": [
        -6.202404975891113,
        -9.004612922668457,
        -0.06476955115795135
      ],
      "type": "VEC3"
    },
    {
      "bufferView": 1,
      "byteOffset": 48360,
      "componentType": 5126,
      "count": 4030,
      "max": [
        0.9999988675117493,
        0.9999879598617554,
        0.9999998211860657
      ],
      "min": [
        -0.9999946355819702,
        -0.9999945163726807,
        -1.0
      ],
      "type": "VEC3"
    },
    {
      "bufferView": 0,
      "componentType": 5125,
      "count": 15876,
      "type": "SCALAR"
    }
  ],
  "asset": {
    "extras": {
      "author": "sketchFabUser (https://sketchfab.com/carrot_Stinky)",
      "license": "CC-BY-4.0 (http://creativecommons.org/licenses/by/4.0/)",
      "source": "https://sketchfab.com/3d-models/wrinkled-piece-of-paper-8391cea3a08f42ec97a94a0f0f759cf4",
      "title": "Wrinkled Piece Of Paper"
    },
    "generator": "Sketchfab-17.1.0",
    "version": "2.0"
  },
  "bufferViews": [
    {
      "buffer": 0,
      "byteLength": 63504,
      "name": "floatBufferViews",
      "target": 34963
    },
    {
      "buffer": 0,
      "byteLength": 96720,
      "byteOffset": 63504,
      "byteStride": 12,
      "name": "floatBufferViews",
      "target": 34962
    }
  ],
  "buffers": [
    {
      "byteLength": 160224,
      "uri": "scene.bin"
    }
  ],
  "materials": [
    {
      "doubleSided": true,
      "name": "Scene_-_Root",
      "pbrMetallicRoughness": {
        "metallicFactor": 0.0,
        "roughnessFactor": 0.6
      }
    }
  ],
  "meshes": [
    {
      "name": "Object_0",
      "primitives": [
        {
          "attributes": {
            "NORMAL": 1,
            "POSITION": 0
          },
          "indices": 2,
          "material": 0,
          "mode": 4
        }
      ]
    }
  ],
  "nodes": [
    {
      "children": [
        1
      ],
      "matrix": [
        1.0,
        0.0,
        0.0,
        0.0,
        0.0,
        2.220446049250313e-16,
        -1.0,
        0.0,
        0.0,
        1.0,
        2.220446049250313e-16,
        0.0,
        0.0,
        0.0,
        0.0,
        1.0
      ],
      "name": "Sketchfab_model"
    },
    {
      "children": [
        2
      ],
      "name": "01dd6f11a6e049cdb407150e29aa7f29.stl.cleaner.materialmerger.gles"
    },
    {
      "mesh": 0,
      "name": "Object_2"
    }
  ],
  "scene": 0,
  "scenes": [
    {
      "name": "Sketchfab_Scene",
      "nodes": [
        0
      ]
    }
  ]
}
