{
  "accessors": [
    {
      "bufferView": 3,
      "componentType": 5126,
      "count": 5825,
      "max": [
        94.95419311523438,
        199.8438720703125,
        22.99027442932129
      ],
      "min": [
        -94.98974609375,
        0.42606979608535767,
        -14.891510009765625
      ],
      "type": "VEC3"
    },
    {
      "bufferView": 3,
      "byteOffset": 69900,
      "componentType": 5126,
      "count": 5825,
      "max": [
        0.9996818900108337,
        0.9999683499336243,
        1.0
      ],
      "min": [
        -0.9996516704559326,
        -1.0,
        -0.9998042583465576
      ],
      "type": "VEC3"
    },
    {
      "bufferView": 4,
      "componentType": 5126,
      "count": 5825,
      "max": [
        1.0,
        0.9992167949676514,
        0.9999785423278809,
        1.0
      ],
      "min": [
        -0.9999261498451233,
        -0.9999571442604065,
        -0.999891996383667,
        -1.0
      ],
      "type": "VEC4"
    },
    {
      "bufferView": 2,
      "componentType": 5126,
      "count": 5825,
      "max": [
        0.9984920024871826,
        0.9927430152893066
      ],
      "min": [
        0.0013699999544769526,
        0.0004440000047907233
      ],
      "type": "VEC2"
    },
    {
      "bufferView": 2,
      "byteOffset": 46600,
      "componentType": 5126,
      "count": 5825,
      "max": [
        0.9984920024871826,
        0.9927430152893066
      ],
      "min": [
        0.0013699999544769526,
        0.0004440000047907233
      ],
      "type": "VEC2"
    },
    {
      "bufferView": 2,
      "byteOffset": 93200,
      "componentType": 5126,
      "count": 5825,
      "max": [
        0.9984920024871826,
        0.9927430152893066
      ],
      "min": [
        0.0013699999544769526,
        0.0004440000047907233
      ],
      "type": "VEC2"
    },
    {
      "bufferView": 2,
      "byteOffset": 139800,
      "componentType": 5126,
      "count": 5825,
      "max": [
        0.9984920024871826,
        0.9927430152893066
      ],
      "min": [
        0.0013699999544769526,
        0.0004440000047907233
      ],
      "type": "VEC2"
    },
    {
      "bufferView": 2,
      "byteOffset": 186400,
      "componentType": 5126,
      "count": 5825,
      "max": [
        0.9984920024871826,
        0.9927430152893066
      ],
      "min": [
        0.0013699999544769526,
        0.0004440000047907233
      ],
      "type": "VEC2"
    },
    {
      "bufferView": 2,
      "byteOffset": 233000,
      "componentType": 5126,
      "count": 5825,
      "max": [
        0.9984920024871826,
        0.9927430152893066
      ],
      "min": [
        0.0013699999544769526,
        0.0004440000047907233
      ],
      "type": "VEC2"
    },
    {
      "bufferView": 2,
      "byteOffset": 279600,
      "componentType": 5126,
      "count": 5825,
      "max": [
        0.9984920024871826,
        0.9927430152893066
      ],
      "min": [
        0.0013699999544769526,
        0.0004440000047907233
      ],
      "type": "VEC2"
    },
    {
      "bufferView": 2,
      "byteOffset": 326200,
      "componentType": 5126,
      "count": 5825,
      "max": [
        0.9984920024871826,
        0.9927430152893066
      ],
      "min": [
        0.0013699999544769526,
        0.0004440000047907233
      ],
      "type": "VEC2"
    },
    {
      "bufferView": 1,
      "componentType": 5125,
      "count": 29475,
      "type": "SCALAR"
    },
    {
      "bufferView": 5,
      "componentType": 5126,
      "count": 66,
      "max": [
        1.0,
        0.0,
        0.0,
        0.0,
        0.0,
        1.0,
        0.0,
        0.0,
        0.0,
        0.0,
        1.0,
        0.0,
        91.70187377929688,
        0.0,
        8.817414283752441,
        1.0
      ],
      "min": [
        1.0,
        0.0,
        0.0,
        0.0,
        0.0,
        1.0,
        0.0,
        0.0,
        0.0,
        0.0,
        1.0,
        0.0,
        -91.66598510742188,
        -180.06199645996094,
        -14.94166088104248,
        1.0
      ],
      "type": "MAT4"
    },
    {
      "bufferView": 0,
      "componentType": 5123,
      "count": 5825,
      "type": "VEC4"
    },
    {
      "bufferView": 4,
      "byteOffset": 93200,
      "componentType": 5126,
      "count": 5825,
      "max": [
        1.0,
        0.49921008944511414,
        0.3304029405117035,
        0.11166509985923767
      ],
      "min": [
        0.33489280939102173,
        0.0,
        0.0,
        0.0
      ],
      "type": "VEC4"
    },
    {
      "bufferView": 6,
      "componentType": 5126,
      "count": 1263,
      "max": [
        44.96666717529297
      ],
      "min": [
        0.0
      ],
      "type": "SCALAR"
    },
    {
      "bufferView": 7,
      "componentType": 5126,
      "count": 1263,
      "max": [
        -2.302456891811744e-09,
        11.17667293548584,
        5.134539604187012
      ],
      "min": [
        -2.302471102666459e-09,
        11.17667293548584,
        5.134539604187012
      ],
      "type": "VEC3"
    },
    {
      "bufferView": 6,
      "byteOffset": 5052,
      "componentType": 5126,
      "count": 1325,
      "max": [
        44.96666717529297
      ],
      "min": [
        0.0
      ],
      "type": "SCALAR"
    },
    {
      "bufferView": 8,
      "componentType": 5126,
      "count": 1325,
      "max": [
        0.07871933281421661,
        0.48494482040405273,
        0.09500312805175781,
        0.9972841143608093
      ],
      "min": [
        -0.1676371693611145,
        -0.2895509898662567,
        -0.21983718872070313,
        0.8707457780838013
      ],
      "type": "VEC4"
    },
    {
      "bufferView": 6,
      "byteOffset": 10352,
      "componentType": 5126,
      "count": 1325,
      "max": [
        44.96666717529297
      ],
      "min": [
        0.0
      ],
      "type": "SCALAR"
    },
    {
      "bufferView": 8,
      "byteOffset": 21200,
      "componentType": 5126,
      "count": 1325,
      "max": [
        0.066121406853199,
        0.09546089917421341,
        0.016808751970529556,
        0.9998288750648499
      ],
      "min": [
        -0.0022371597588062286,
        -0.05348006635904312,
        -0.040199071168899536,
        0.9935804605484009
      ],
      "type": "VEC4"
    },
    {
      "bufferView": 6,
      "byteOffset": 15652,
      "componentType": 5126,
      "count": 1325,
      "max": [
        44.96666717529297
      ],
      "min": [
        0.0
      ],
      "type": "SCALAR"
    },
    {
      "bufferView": 8,
      "byteOffset": 42400,
      "componentType": 5126,
      "count": 1325,
      "max": [
        -0.03185225650668144,
        0.1155644953250885,
        0.1405622810125351,
        0.9913668036460876
      ],
      "min": [
        -0.19542056322097778,
        -0.23352135717868805,
        0.0449877493083477,
        0.9444472789764404
      ],
      "type": "VEC4"
    },
    {
      "bufferView": 6,
      "byteOffset": 20952,
      "componentType": 5126,
      "count": 1325,
      "max": [
        44.96666717529297
      ],
      "min": [
        0.0
      ],
      "type": "SCALAR"
    },
    {
      "bufferView": 8,
      "byteOffset": 63600,
      "componentType": 5126,
      "count": 1325,
      "max": [
        0.15406419336795807,
        0.3945728838443756,
        0.06487451493740082,
        0.9854868054389954
      ],
      "min": [
        0.07027808576822281,
        0.08954514563083649,
        -0.05351988598704338,
        0.9114878177642822
      ],
      "type": "VEC4"
    },
    {
      "bufferView": 6,
      "byteOffset": 26252,
      "componentType": 5126,
      "count": 1325,
      "max": [
        44.96666717529297
      ],
      "min": [
        0.0
      ],
      "type": "SCALAR"
    },
    {
      "bufferView": 8,
      "byteOffset": 84800,
      "componentType": 5126,
      "count": 1325,
      "max": [
        0.030306145548820496,
        0.0034493894781917334,
        0.18495216965675354,
        0.996353805065155
      ],
      "min": [
        -0.09588168561458588,
        -0.2374081313610077,
        -0.19223837554454803,
        0.9508984088897705
      ],
      "type": "VEC4"
    },
    {
      "bufferView": 6,
      "byteOffset": 31552,
      "componentType": 5126,
      "count": 1325,
      "max": [
        44.96666717529297
      ],
      "min": [
        0.0
      ],
      "type": "SCALAR"
    },
    {
      "bufferView": 8,
      "byteOffset": 106000,
      "componentType": 5126,
      "count": 1325,
      "max": [
        -0.00010378623119322583,
        0.026881327852606773,
        -0.03600672259926796,
        0.9993492960929871
      ],
      "min": [
        -0.0017747196834534407,
        -0.0021109841763973236,
        -0.3162318468093872,
        0.9482993483543396
      ],
      "type": "VEC4"
    },
    {
      "bufferView": 6,
      "byteOffset": 36852,
      "componentType": 5126,
      "count": 1325,
      "max": [
        44.96666717529297
      ],
      "min": [
        0.0
      ],
      "type": "SCALAR"
    },
    {
      "bufferView": 8,
      "byteOffset": 127200,
      "componentType": 5126,
      "count": 1325,
      "max": [
        -4.839201210415922e-06,
        0.051759056746959686,
        -0.01701234094798565,
        0.9998534917831421
      ],
      "min": [
        -0.00014168636698741466,
        0.0018847236642614007,
        -0.5037267208099365,
        0.862311065196991
      ],
      "type": "VEC4"
    },
    {
      "bufferView": 6,
      "byteOffset": 42152,
      "componentType": 5126,
      "count": 1325,
      "max": [
        44.96666717529297
      ],
      "min": [
        0.0
      ],
      "type": "SCALAR"
    },
    {
      "bufferView": 8,
      "byteOffset": 148400,
      "componentType": 5126,
      "count": 1325,
      "max": [
        0.08208375424146652,
        0.11575634777545929,
        -0.1288720667362213,
        0.9916348457336426
      ],
      "min": [
        -0.04176724702119827,
        0.0019143268000334501,
        -0.5117472410202026,
        0.8581105470657349
      ],
      "type": "VEC4"
    },
    {
      "bufferView": 6,
      "byteOffset": 47452,
      "componentType": 5126,
      "count": 1325,
      "max": [
        44.96666717529297
      ],
      "min": [
        0.0
      ],
      "type": "SCALAR"
    },
    {
      "bufferView": 8,
      "byteOffset": 169600,
      "componentType": 5126,
      "count": 1325,
      "max": [
        -0.0001419528853148222,
        0.04340709000825882,
        -0.05061551555991173,
        0.9987151026725769
      ],
      "min": [
        -0.003641128074377775,
        -0.0024853013455867767,
        -0.4898087680339813,
        0.8707410097122192
      ],
      "type": "VEC4"
    },
    {
      "bufferView": 6,
      "byteOffset": 52752,
      "componentType": 5126,
      "count": 1325,
      "max": [
        44.96666717529297
      ],
      "min": [
        0.0
      ],
      "type": "SCALAR"
    },
    {
      "bufferView": 8,
      "byteOffset": 190800,
      "componentType": 5126,
      "count": 1325,
      "max": [
        3.720539461937733e-05,
        0.05961461737751961,
        -0.017041893675923347,
        0.9998537302017212
      ],
      "min": [
        9.209654763253639e-07,
        0.0014619464054703712,
        -0.5837920308113098,
        0.8097116351127625
      ],
      "type": "VEC4"
    },
    {
      "bufferView": 6,
      "byteOffset": 58052,
      "componentType": 5126,
      "count": 1325,
      "max": [
        44.96666717529297
      ],
      "min": [
        0.0
      ],
      "type": "SCALAR"
    },
    {
      "bufferView": 8,
      "byteOffset": 212000,
      "componentType": 5126,
      "count": 1325,
      "max": [
        0.025994598865509033,
        0.15464188158512115,
        -0.20474234223365784,
        0.977817714214325
      ],
      "min": [
        -0.04212275519967079,
        0.021044649183750153,
        -0.5296088457107544,
        0.8469340801239014
      ],
      "type": "VEC4"
    },
    {
      "bufferView": 6,
      "byteOffset": 63352,
      "componentType": 5126,
      "count": 1325,
      "max": [
        44.96666717529297
      ],
      "min": [
        0.0
      ],
      "type": "SCALAR"
    },
    {
      "bufferView": 8,
      "byteOffset": 233200,
      "componentType": 5126,
      "count": 1325,
      "max": [
        -5.625764242722653e-05,
        0.0373685322701931,
        -0.033051200211048126,
        0.9994533658027649
      ],
      "min": [
        -0.0011180998990312219,
        0.0007508470444008708,
        -0.388378381729126,
        0.9207413196563721
      ],
      "type": "VEC4"
    },
    {
      "bufferView": 6,
      "byteOffset": 68652,
      "componentType": 5126,
      "count": 1325,
      "max": [
        44.96666717529297
      ],
      "min": [
        0.0
      ],
      "type": "SCALAR"
    },
    {
      "bufferView": 8,
      "byteOffset": 254400,
      "componentType": 5126,
      "count": 1325,
      "max": [
        -4.255651219864376e-06,
        0.06390507519245148,
        -0.01736924611032009,
        0.9998477101325989
      ],
      "min": [
        -0.00015138568414840847,
        0.0016811639070510864,
        -0.6241480708122253,
        0.7786881923675537
      ],
      "type": "VEC4"
    },
    {
      "bufferView": 6,
      "byteOffset": 73952,
      "componentType": 5126,
      "count": 1325,
      "max": [
        44.96666717529297
      ],
      "min": [
        0.0
      ],
      "type": "SCALAR"
    },
    {
      "bufferView": 8,
      "byteOffset": 275600,
      "componentType": 5126,
      "count": 1325,
      "max": [
        0.0307187307626009,
        0.168992817401886,
        -0.23948265612125397,
        0.9690980911254883
      ],
      "min": [
        -0.0611925832927227,
        0.020159754902124405,
        -0.6277197599411011,
        0.7757686376571655
      ],
      "type": "VEC4"
    },
    {
      "bufferView": 6,
      "byteOffset": 79252,
      "componentType": 5126,
      "count": 1325,
      "max": [
        44.96666717529297
      ],
      "min": [
        0.0
      ],
      "type": "SCALAR"
    },
    {
      "bufferView": 8,
      "byteOffset": 296800,
      "componentType": 5126,
      "count": 1325,
      "max": [
        -2.3941950075823115e-06,
        0.05971261113882065,
        -0.01702842302620411,
        0.9998529553413391
      ],
      "min": [
        -8.253376290667802e-05,
        0.0020228519570082426,
        -0.580299973487854,
        0.8122107982635498
      ],
      "type": "VEC4"
    },
    {
      "bufferView": 6,
      "byteOffset": 84552,
      "componentType": 5126,
      "count": 1325,
      "max": [
        44.96666717529297
      ],
      "min": [
        0.0
      ],
      "type": "SCALAR"
    },
    {
      "bufferView": 8,
      "byteOffset": 318000,
      "componentType": 5126,
      "count": 1325,
      "max": [
        -1.4099766758590704e-06,
        0.06611892580986023,
        -0.01702859438955784,
        0.9998540282249451
      ],
      "min": [
        -5.528073597815819e-05,
        0.0014117466052994132,
        -0.6474635004997253,
        0.7592228055000305
      ],
      "type": "VEC4"
    },
    {
      "bufferView": 6,
      "byteOffset": 89852,
      "componentType": 5126,
      "count": 1325,
      "max": [
        44.96666717529297
      ],
      "min": [
        0.0
      ],
      "type": "SCALAR"
    },
    {
      "bufferView": 8,
      "byteOffset": 339200,
      "componentType": 5126,
      "count": 1325,
      "max": [
        0.036386191844940186,
        0.19228795170783997,
        -0.1493276059627533,
        0.9821857810020447
      ],
      "min": [
        -0.04841860383749008,
        0.0431232713162899,
        -0.6587247252464294,
        0.7495850920677185
      ],
      "type": "VEC4"
    },
    {
      "bufferView": 6,
      "byteOffset": 95152,
      "componentType": 5126,
      "count": 1325,
      "max": [
        44.96666717529297
      ],
      "min": [
        0.0
      ],
      "type": "SCALAR"
    },
    {
      "bufferView": 8,
      "byteOffset": 360400,
      "componentType": 5126,
      "count": 1325,
      "max": [
        0.520958662033081,
        0.017038023099303246,
        0.4330587089061737,
        0.9956324100494385
      ],
      "min": [
        -0.36808523535728455,
        -0.22438746690750122,
        -0.0832989513874054,
        0.8371872901916504
      ],
      "type": "VEC4"
    },
    {
      "bufferView": 6,
      "byteOffset": 100452,
      "componentType": 5126,
      "count": 1325,
      "max": [
        44.96666717529297
      ],
      "min": [
        0.0
      ],
      "type": "SCALAR"
    },
    {
      "bufferView": 8,
      "byteOffset": 381600,
      "componentType": 5126,
      "count": 1325,
      "max": [
        1.2616201274795458e-05,
        0.8705644011497498,
        7.282939350261586e-06,
        0.9463825821876526
      ],
      "min": [
        -6.024124559189659e-06,
        -0.8656364679336548,
        -1.600844188942574e-05,
        -0.4974524676799774
      ],
      "type": "VEC4"
    },
    {
      "bufferView": 6,
      "byteOffset": 105752,
      "componentType": 5126,
      "count": 1325,
      "max": [
        44.96666717529297
      ],
      "min": [
        0.0
      ],
      "type": "SCALAR"
    },
    {
      "bufferView": 8,
      "byteOffset": 402800,
      "componentType": 5126,
      "count": 1325,
      "max": [
        0.20557686686515808,
        0.041147083044052124,
        -0.3013423681259155,
        0.9320617914199829
      ],
      "min": [
        -0.3237970471382141,
        -0.42506247758865356,
        -0.4634387791156769,
        0.7781344056129456
      ],
      "type": "VEC4"
    },
    {
      "bufferView": 6,
      "byteOffset": 111052,
      "componentType": 5126,
      "count": 1325,
      "max": [
        44.96666717529297
      ],
      "min": [
        0.0
      ],
      "type": "SCALAR"
    },
    {
      "bufferView": 8,
      "byteOffset": 424000,
      "componentType": 5126,
      "count": 1325,
      "max": [
        -0.029644830152392387,
        -0.16096942126750946,
        -0.10433843731880188,
        0.9750772714614868
      ],
      "min": [
        -0.04021962732076645,
        -0.24106024205684662,
        -0.20256631076335907,
        0.9556620717048645
      ],
      "type": "VEC4"
    },
    {
      "bufferView": 6,
      "byteOffset": 116352,
      "componentType": 5126,
      "count": 1325,
      "max": [
        44.96666717529297
      ],
      "min": [
        0.0
      ],
      "type": "SCALAR"
    },
    {
      "bufferView": 8,
      "byteOffset": 445200,
      "componentType": 5126,
      "count": 1325,
      "max": [
        0.03857899084687233,
        0.3292286694049835,
        -0.07029406726360321,
        0.9918776750564575
      ],
      "min": [
        -0.11024889349937439,
        -0.32658374309539795,
        -0.17325140535831451,
        0.9294394254684448
      ],
      "type": "VEC4"
    },
    {
      "bufferView": 6,
      "byteOffset": 121652,
      "componentType": 5126,
      "count": 1325,
      "max": [
        44.96666717529297
      ],
      "min": [
        0.0
      ],
      "type": "SCALAR"
    },
    {
      "bufferView": 8,
      "byteOffset": 466400,
      "componentType": 5126,
      "count": 1325,
      "max": [
        0.1523049771785736,
        -0.040123190730810165,
        0.09035834670066833,
        0.9917256236076355
      ],
      "min": [
        0.05890623852610588,
        -0.25076550245285034,
        -0.04982663691043854,
        0.9582369327545166
      ],
      "type": "VEC4"
    },
    {
      "bufferView": 6,
      "byteOffset": 126952,
      "componentType": 5126,
      "count": 1325,
      "max": [
        44.96666717529297
      ],
      "min": [
        0.0
      ],
      "type": "SCALAR"
    },
    {
      "bufferView": 8,
      "byteOffset": 487600,
      "componentType": 5126,
      "count": 1325,
      "max": [
        -0.06834723055362701,
        0.18587832152843475,
        0.08636333793401718,
        0.9939187169075012
      ],
      "min": [
        -0.24222512543201447,
        -0.06217918545007706,
        -0.16446009278297424,
        0.9689106941223145
      ],
      "type": "VEC4"
    },
    {
      "bufferView": 6,
      "byteOffset": 132252,
      "componentType": 5126,
      "count": 1325,
      "max": [
        44.96666717529297
      ],
      "min": [
        0.0
      ],
      "type": "SCALAR"
    },
    {
      "bufferView": 8,
      "byteOffset": 508800,
      "componentType": 5126,
      "count": 1325,
      "max": [
        0.0004242316645104438,
        0.010227471590042114,
        0.3731729984283447,
        0.9999839663505554
      ],
      "min": [
        -0.001936272019520402,
        -0.025356963276863098,
        -0.0595264658331871,
        0.9274131655693054
      ],
      "type": "VEC4"
    },
    {
      "bufferView": 6,
      "byteOffset": 137552,
      "componentType": 5126,
      "count": 1325,
      "max": [
        44.96666717529297
      ],
      "min": [
        0.0
      ],
      "type": "SCALAR"
    },
    {
      "bufferView": 8,
      "byteOffset": 530000,
      "componentType": 5126,
      "count": 1325,
      "max": [
        -5.1464635362208355e-06,
        -0.002422662451863289,
        0.6340441703796387,
        0.9996053576469421
      ],
      "min": [
        -0.00011889903544215485,
        -0.051756601780653,
        0.027987463399767876,
        0.7715628743171692
      ],
      "type": "VEC4"
    },
    {
      "bufferView": 6,
      "byteOffset": 142852,
      "componentType": 5126,
      "count": 1325,
      "max": [
        44.96666717529297
      ],
      "min": [
        0.0
      ],
      "type": "SCALAR"
    },
    {
      "bufferView": 8,
      "byteOffset": 551200,
      "componentType": 5126,
      "count": 1325,
      "max": [
        0.051654163748025894,
        0.1008669063448906,
        0.3720923066139221,
        0.9999934434890747
      ],
      "min": [
        -0.010602151975035667,
        -0.022476237267255783,
        -0.04370949789881706,
        0.9266231656074524
      ],
      "type": "VEC4"
    },
    {
      "bufferView": 6,
      "byteOffset": 148152,
      "componentType": 5126,
      "count": 1325,
      "max": [
        44.96666717529297
      ],
      "min": [
        0.0
      ],
      "type": "SCALAR"
    },
    {
      "bufferView": 8,
      "byteOffset": 572400,
      "componentType": 5126,
      "count": 1325,
      "max": [
        0.0007916270405985415,
        0.01337354350835085,
        0.3888285160064697,
        0.999975323677063
      ],
      "min": [
        -0.0025411020033061504,
        -0.025160253047943115,
        -0.07906979322433472,
        0.9209629893302917
      ],
      "type": "VEC4"
    },
    {
      "bufferView": 6,
      "byteOffset": 153452,
      "componentType": 5126,
      "count": 1325,
      "max": [
        44.96666717529297
      ],
      "min": [
        0.0
      ],
      "type": "SCALAR"
    },
    {
      "bufferView": 8,
      "byteOffset": 593600,
      "componentType": 5126,
      "count": 1325,
      "max": [
        -5.585371582128573e-06,
        -0.002354225143790245,
        0.5442608594894409,
        0.9996111392974854
      ],
      "min": [
        -0.00011012433969881386,
        -0.044409096240997314,
        0.027784399688243866,
        0.8377397656440735
      ],
      "type": "VEC4"
    },
    {
      "bufferView": 6,
      "byteOffset": 158752,
      "componentType": 5126,
      "count": 1325,
      "max": [
        44.96666717529297
      ],
      "min": [
        0.0
      ],
      "type": "SCALAR"
    },
    {
      "bufferView": 8,
      "byteOffset": 614800,
      "componentType": 5126,
      "count": 1325,
      "max": [
        0.0019373808754608035,
        0.018879739567637444,
        0.40380266308784485,
        0.9978395104408264
      ],
      "min": [
        -0.038326773792505264,
        -0.06742256134748459,
        0.04727645963430405,
        0.9138479232788086
      ],
      "type": "VEC4"
    },
    {
      "bufferView": 6,
      "byteOffset": 164052,
      "componentType": 5126,
      "count": 1325,
      "max": [
        44.96666717529297
      ],
      "min": [
        0.0
      ],
      "type": "SCALAR"
    },
    {
      "bufferView": 8,
      "byteOffset": 636000,
      "componentType": 5126,
      "count": 1325,
      "max": [
        0.00022795354016125202,
        0.008381026796996593,
        0.3698914647102356,
        0.9999973177909851
      ],
      "min": [
        -0.0009171534911729395,
        -0.027970055118203163,
        -0.07463165372610092,
        0.9286534190177917
      ],
      "type": "VEC4"
    },
    {
      "bufferView": 6,
      "byteOffset": 169352,
      "componentType": 5126,
      "count": 1325,
      "max": [
        44.96666717529297
      ],
      "min": [
        0.0
      ],
      "type": "SCALAR"
    },
    {
      "bufferView": 8,
      "byteOffset": 657200,
      "componentType": 5126,
      "count": 1325,
      "max": [
        -3.392348389752442e-06,
        -0.0016348123317584395,
        0.620363175868988,
        0.9997716546058655
      ],
      "min": [
        -9.848813351709396e-05,
        -0.05045311152935028,
        0.02130555361509323,
        0.7826902270317078
      ],
      "type": "VEC4"
    },
    {
      "bufferView": 6,
      "byteOffset": 174652,
      "componentType": 5126,
      "count": 1325,
      "max": [
        44.96666717529297
      ],
      "min": [
        0.0
      ],
      "type": "SCALAR"
    },
    {
      "bufferView": 8,
      "byteOffset": 678400,
      "componentType": 5126,
      "count": 1325,
      "max": [
        0.02196437492966652,
        0.004787479527294636,
        0.43784090876579285,
        0.9930509924888611
      ],
      "min": [
        -0.035757798701524734,
        -0.12845706939697266,
        0.04782089591026306,
        0.8957876563072205
      ],
      "type": "VEC4"
    },
    {
      "bufferView": 6,
      "byteOffset": 179952,
      "componentType": 5126,
      "count": 1325,
      "max": [
        44.96666717529297
      ],
      "min": [
        0.0
      ],
      "type": "SCALAR"
    },
    {
      "bufferView": 8,
      "byteOffset": 699600,
      "componentType": 5126,
      "count": 1325,
      "max": [
        1.543128746561706e-06,
        0.0007684160955250263,
        0.35587501525878906,
        0.9999989867210388
      ],
      "min": [
        -4.095103940926492e-05,
        -0.02924586646258831,
        -0.012823711149394512,
        0.9340758323669434
      ],
      "type": "VEC4"
    },
    {
      "bufferView": 6,
      "byteOffset": 185252,
      "componentType": 5126,
      "count": 1325,
      "max": [
        44.96666717529297
      ],
      "min": [
        0.0
      ],
      "type": "SCALAR"
    },
    {
      "bufferView": 8,
      "byteOffset": 720800,
      "componentType": 5126,
      "count": 1325,
      "max": [
        -9.975207149182097e-07,
        -0.0012189899571239948,
        0.4802737534046173,
        0.9998141527175903
      ],
      "min": [
        -2.0913914340781048e-05,
        -0.038815729320049286,
        0.01924005337059498,
        0.8762593269348145
      ],
      "type": "VEC4"
    },
    {
      "bufferView": 6,
      "byteOffset": 190552,
      "componentType": 5126,
      "count": 1325,
      "max": [
        44.96666717529297
      ],
      "min": [
        0.0
      ],
      "type": "SCALAR"
    },
    {
      "bufferView": 8,
      "byteOffset": 742000,
      "componentType": 5126,
      "count": 1325,
      "max": [
        0.021288719028234482,
        -0.01627868413925171,
        0.47568559646606445,
        0.9887070059776306
      ],
      "min": [
        -0.030748382210731506,
        -0.17040704190731049,
        0.04745031148195267,
        0.8789270520210266
      ],
      "type": "VEC4"
    },
    {
      "bufferView": 6,
      "byteOffset": 195852,
      "componentType": 5126,
      "count": 1325,
      "max": [
        44.96666717529297
      ],
      "min": [
        0.0
      ],
      "type": "SCALAR"
    },
    {
      "bufferView": 8,
      "byteOffset": 763200,
      "componentType": 5126,
      "count": 1325,
      "max": [
        0.6022099256515503,
        0.3566407263278961,
        0.4373263716697693,
        0.9909313917160034
      ],
      "min": [
        -0.3578769862651825,
        -0.13544024527072906,
        -0.07030349224805832,
        0.7093749046325684
      ],
      "type": "VEC4"
    },
    {
      "bufferView": 6,
      "byteOffset": 201152,
      "componentType": 5126,
      "count": 1325,
      "max": [
        44.96666717529297
      ],
      "min": [
        0.0
      ],
      "type": "SCALAR"
    },
    {
      "bufferView": 8,
      "byteOffset": 784400,
      "componentType": 5126,
      "count": 1325,
      "max": [
        0.00016534043243154883,
        0.7678083777427673,
        1.3959202078694943e-05,
        0.9089462161064148
      ],
      "min": [
        -1.880709532997571e-05,
        0.41691336035728455,
        -0.00017343630315735936,
        0.6406795382499695
      ],
      "type": "VEC4"
    },
    {
      "bufferView": 6,
      "byteOffset": 206452,
      "componentType": 5126,
      "count": 1325,
      "max": [
        44.96666717529297
      ],
      "min": [
        0.0
      ],
      "type": "SCALAR"
    },
    {
      "bufferView": 8,
      "byteOffset": 805600,
      "componentType": 5126,
      "count": 1325,
      "max": [
        0.17373107373714447,
        0.42012447118759155,
        0.540324866771698,
        0.9093899726867676
      ],
      "min": [
        -0.3498612940311432,
        0.02909843623638153,
        0.20910443365573883,
        0.7344028353691101
      ],
      "type": "VEC4"
    },
    {
      "bufferView": 6,
      "byteOffset": 211752,
      "componentType": 5126,
      "count": 1325,
      "max": [
        44.96666717529297
      ],
      "min": [
        0.0
      ],
      "type": "SCALAR"
    },
    {
      "bufferView": 8,
      "byteOffset": 826800,
      "componentType": 5126,
      "count": 1325,
      "max": [
        -0.04195832088589668,
        0.29154059290885925,
        0.10419582575559616,
        0.968232274055481
      ],
      "min": [
        -0.049645908176898956,
        0.2260691374540329,
        0.04317060858011246,
        0.952542245388031
      ],
      "type": "VEC4"
    },
    {
      "bufferView": 6,
      "byteOffset": 217052,
      "componentType": 5126,
      "count": 1324,
      "max": [
        44.96666717529297
      ],
      "min": [
        0.0
      ],
      "type": "SCALAR"
    },
    {
      "bufferView": 8,
      "byteOffset": 848000,
      "componentType": 5126,
      "count": 1324,
      "max": [
        0.15527571737766266,
        0.03729240968823433,
        0.00884823314845562,
        0.9946181774139404
      ],
      "min": [
        0.09912824630737305,
        0.005854268558323383,
        -0.00804829876869917,
        0.9876812696456909
      ],
      "type": "VEC4"
    },
    {
      "bufferView": 6,
      "byteOffset": 222348,
      "componentType": 5126,
      "count": 1324,
      "max": [
        44.96666717529297
      ],
      "min": [
        0.0
      ],
      "type": "SCALAR"
    },
    {
      "bufferView": 8,
      "byteOffset": 869184,
      "componentType": 5126,
      "count": 1324,
      "max": [
        0.15523727238178253,
        0.038273368030786514,
        0.007843473926186562,
        0.9946059584617615
      ],
      "min": [
        0.09905561059713364,
        0.00791258830577135,
        -0.0087256645783782,
        0.9876790642738342
      ],
      "type": "VEC4"
    },
    {
      "bufferView": 6,
      "byteOffset": 227644,
      "componentType": 5126,
      "count": 1324,
      "max": [
        44.96666717529297
      ],
      "min": [
        0.0
      ],
      "type": "SCALAR"
    },
    {
      "bufferView": 8,
      "byteOffset": 890368,
      "componentType": 5126,
      "count": 1324,
      "max": [
        0.14766594767570496,
        0.03744150698184967,
        0.005006279330700636,
        0.995090126991272
      ],
      "min": [
        0.09438929706811905,
        0.004191027022898197,
        -0.01242185290902853,
        0.9889072775840759
      ],
      "type": "VEC4"
    },
    {
      "bufferView": 6,
      "byteOffset": 232940,
      "componentType": 5126,
      "count": 1325,
      "max": [
        44.96666717529297
      ],
      "min": [
        0.0
      ],
      "type": "SCALAR"
    },
    {
      "bufferView": 8,
      "byteOffset": 911552,
      "componentType": 5126,
      "count": 1325,
      "max": [
        -0.0029777521267533302,
        1.0635784519763547e-07,
        7.82639588692291e-08,
        0.9999955892562866
      ],
      "min": [
        -0.010521728545427322,
        -1.0162565899918263e-07,
        -7.54690461235441e-08,
        0.9999446272850037
      ],
      "type": "VEC4"
    },
    {
      "bufferView": 6,
      "byteOffset": 238240,
      "componentType": 5126,
      "count": 1325,
      "max": [
        44.96666717529297
      ],
      "min": [
        0.0
      ],
      "type": "SCALAR"
    },
    {
      "bufferView": 8,
      "byteOffset": 932752,
      "componentType": 5126,
      "count": 1325,
      "max": [
        -0.09070426970720291,
        0.10597092658281326,
        0.05230960249900818,
        0.991176187992096
      ],
      "min": [
        -0.10250723361968994,
        0.08541852980852127,
        0.03392334654927254,
        0.9887242317199707
      ],
      "type": "VEC4"
    },
    {
      "bufferView": 6,
      "byteOffset": 243540,
      "componentType": 5126,
      "count": 1324,
      "max": [
        44.96666717529297
      ],
      "min": [
        0.0
      ],
      "type": "SCALAR"
    },
    {
      "bufferView": 8,
      "byteOffset": 953952,
      "componentType": 5126,
      "count": 1324,
      "max": [
        0.7151294350624084,
        0.06029205396771431,
        0.04602765664458275,
        0.7036305665969849
      ],
      "min": [
        0.707220733165741,
        0.05406775698065758,
        0.03667623549699783,
        0.6952024698257446
      ],
      "type": "VEC4"
    },
    {
      "bufferView": 6,
      "byteOffset": 248836,
      "componentType": 5126,
      "count": 1324,
      "max": [
        44.96666717529297
      ],
      "min": [
        0.0
      ],
      "type": "SCALAR"
    },
    {
      "bufferView": 8,
      "byteOffset": 975136,
      "componentType": 5126,
      "count": 1324,
      "max": [
        -0.4640025794506073,
        0.006757552735507488,
        -0.06863309442996979,
        0.881783664226532
      ],
      "min": [
        -0.5248284935951233,
        -0.01255012396723032,
        -0.08874034136533737,
        0.8466802835464478
      ],
      "type": "VEC4"
    },
    {
      "bufferView": 6,
      "byteOffset": 254132,
      "componentType": 5126,
      "count": 1325,
      "max": [
        44.96666717529297
      ],
      "min": [
        0.0
      ],
      "type": "SCALAR"
    },
    {
      "bufferView": 8,
      "byteOffset": 996320,
      "componentType": 5126,
      "count": 1325,
      "max": [
        0.0009406976751051843,
        1.7345142566682625e-07,
        2.536989143209212e-07,
        1.0
      ],
      "min": [
        -0.022438963875174522,
        -1.8649112121238431e-07,
        -2.471458060426812e-07,
        0.9997482299804688
      ],
      "type": "VEC4"
    },
    {
      "bufferView": 6,
      "byteOffset": 259432,
      "componentType": 5126,
      "count": 1325,
      "max": [
        44.96666717529297
      ],
      "min": [
        0.0
      ],
      "type": "SCALAR"
    },
    {
      "bufferView": 8,
      "byteOffset": 1017520,
      "componentType": 5126,
      "count": 1325,
      "max": [
        0.24519604444503784,
        0.004068434704095125,
        0.03813100978732109,
        0.9968835115432739
      ],
      "min": [
        0.06645700335502625,
        0.0005556957912631333,
        -0.042437128722667694,
        0.969366192817688
      ],
      "type": "VEC4"
    },
    {
      "bufferView": 6,
      "byteOffset": 264732,
      "componentType": 5126,
      "count": 1325,
      "max": [
        44.96666717529297
      ],
      "min": [
        0.0
      ],
      "type": "SCALAR"
    },
    {
      "bufferView": 8,
      "byteOffset": 1038720,
      "componentType": 5126,
      "count": 1325,
      "max": [
        0.5135589241981506,
        0.0032143660355359316,
        0.10174952447414398,
        0.8694716691970825
      ],
      "min": [
        0.4863651990890503,
        -0.06364962458610535,
        0.06309054046869278,
        0.8526399731636047
      ],
      "type": "VEC4"
    },
    {
      "bufferView": 6,
      "byteOffset": 270032,
      "componentType": 5126,
      "count": 1325,
      "max": [
        44.96666717529297
      ],
      "min": [
        0.0
      ],
      "type": "SCALAR"
    },
    {
      "bufferView": 8,
      "byteOffset": 1059920,
      "componentType": 5126,
      "count": 1325,
      "max": [
        -0.5763732194900513,
        -0.022021621465682983,
        0.17766042053699493,
        0.8011196851730347
      ],
      "min": [
        -0.6272531151771545,
        -0.03984970226883888,
        0.15423175692558289,
        0.7611969113349915
      ],
      "type": "VEC4"
    },
    {
      "bufferView": 6,
      "byteOffset": 275332,
      "componentType": 5126,
      "count": 1324,
      "max": [
        44.96666717529297
      ],
      "min": [
        0.0
      ],
      "type": "SCALAR"
    },
    {
      "bufferView": 7,
      "byteOffset": 15156,
      "componentType": 5126,
      "count": 1324,
      "max": [
        0.9887201189994812,
        69.41148376464844,
        1.6978461742401123
      ],
      "min": [
        0.08232301473617554,
        68.83720397949219,
        0.5004808306694031
      ],
      "type": "VEC3"
    },
    {
      "bufferView": 6,
      "byteOffset": 280628,
      "componentType": 5126,
      "count": 1324,
      "max": [
        44.96666717529297
      ],
      "min": [
        0.0
      ],
      "type": "SCALAR"
    },
    {
      "bufferView": 8,
      "byteOffset": 1081120,
      "componentType": 5126,
      "count": 1324,
      "max": [
        -0.1468164324760437,
        0.024110829457640648,
        0.013078691437840462,
        0.9890353679656982
      ],
      "min": [
        -0.2169511765241623,
        0.002411504276096821,
        -0.01831267587840557,
        0.9760199785232544
      ],
      "type": "VEC4"
    }
  ],
  "animations": [
    {
      "channels": [
        {
          "sampler": 0,
          "target": {
            "node": 12,
            "path": "translation"
          }
        },
        {
          "sampler": 1,
          "target": {
            "node": 12,
            "path": "rotation"
          }
        },
        {
          "sampler": 2,
          "target": {
            "node": 11,
            "path": "rotation"
          }
        },
        {
          "sampler": 3,
          "target": {
            "node": 20,
            "path": "rotation"
          }
        },
        {
          "sampler": 4,
          "target": {
            "node": 19,
            "path": "rotation"
          }
        },
        {
          "sampler": 5,
          "target": {
            "node": 18,
            "path": "rotation"
          }
        },
        {
          "sampler": 6,
          "target": {
            "node": 24,
            "path": "rotation"
          }
        },
        {
          "sampler": 7,
          "target": {
            "node": 23,
            "path": "rotation"
          }
        },
        {
          "sampler": 8,
          "target": {
            "node": 22,
            "path": "rotation"
          }
        },
        {
          "sampler": 9,
          "target": {
            "node": 28,
            "path": "rotation"
          }
        },
        {
          "sampler": 10,
          "target": {
            "node": 27,
            "path": "rotation"
          }
        },
        {
          "sampler": 11,
          "target": {
            "node": 26,
            "path": "rotation"
          }
        },
        {
          "sampler": 12,
          "target": {
            "node": 32,
            "path": "rotation"
          }
        },
        {
          "sampler": 13,
          "target": {
            "node": 31,
            "path": "rotation"
          }
        },
        {
          "sampler": 14,
          "target": {
            "node": 30,
            "path": "rotation"
          }
        },
        {
          "sampler": 15,
          "target": {
            "node": 36,
            "path": "rotation"
          }
        },
        {
          "sampler": 16,
          "target": {
            "node": 35,
            "path": "rotation"
          }
        },
        {
          "sampler": 17,
          "target": {
            "node": 34,
            "path": "rotation"
          }
        },
        {
          "sampler": 18,
          "target": {
            "node": 17,
            "path": "rotation"
          }
        },
        {
          "sampler": 19,
          "target": {
            "node": 16,
            "path": "rotation"
          }
        },
        {
          "sampler": 20,
          "target": {
            "node": 15,
            "path": "rotation"
          }
        },
        {
          "sampler": 21,
          "target": {
            "node": 14,
            "path": "rotation"
          }
        },
        {
          "sampler": 22,
          "target": {
            "node": 44,
            "path": "rotation"
          }
        },
        {
          "sampler": 23,
          "target": {
            "node": 43,
            "path": "rotation"
          }
        },
        {
          "sampler": 24,
          "target": {
            "node": 42,
            "path": "rotation"
          }
        },
        {
          "sampler": 25,
          "target": {
            "node": 48,
            "path": "rotation"
          }
        },
        {
          "sampler": 26,
          "target": {
            "node": 47,
            "path": "rotation"
          }
        },
        {
          "sampler": 27,
          "target": {
            "node": 46,
            "path": "rotation"
          }
        },
        {
          "sampler": 28,
          "target": {
            "node": 52,
            "path": "rotation"
          }
        },
        {
          "sampler": 29,
          "target": {
            "node": 51,
            "path": "rotation"
          }
        },
        {
          "sampler": 30,
          "target": {
            "node": 50,
            "path": "rotation"
          }
        },
        {
          "sampler": 31,
          "target": {
            "node": 56,
            "path": "rotation"
          }
        },
        {
          "sampler": 32,
          "target": {
            "node": 55,
            "path": "rotation"
          }
        },
        {
          "sampler": 33,
          "target": {
            "node": 54,
            "path": "rotation"
          }
        },
        {
          "sampler": 34,
          "target": {
            "node": 60,
            "path": "rotation"
          }
        },
        {
          "sampler": 35,
          "target": {
            "node": 59,
            "path": "rotation"
          }
        },
        {
          "sampler": 36,
          "target": {
            "node": 58,
            "path": "rotation"
          }
        },
        {
          "sampler": 37,
          "target": {
            "node": 41,
            "path": "rotation"
          }
        },
        {
          "sampler": 38,
          "target": {
            "node": 40,
            "path": "rotation"
          }
        },
        {
          "sampler": 39,
          "target": {
            "node": 39,
            "path": "rotation"
          }
        },
        {
          "sampler": 40,
          "target": {
            "node": 38,
            "path": "rotation"
          }
        },
        {
          "sampler": 41,
          "target": {
            "node": 10,
            "path": "rotation"
          }
        },
        {
          "sampler": 42,
          "target": {
            "node": 9,
            "path": "rotation"
          }
        },
        {
          "sampler": 43,
          "target": {
            "node": 8,
            "path": "rotation"
          }
        },
        {
          "sampler": 44,
          "target": {
            "node": 65,
            "path": "rotation"
          }
        },
        {
          "sampler": 45,
          "target": {
            "node": 64,
            "path": "rotation"
          }
        },
        {
          "sampler": 46,
          "target": {
            "node": 63,
            "path": "rotation"
          }
        },
        {
          "sampler": 47,
          "target": {
            "node": 62,
            "path": "rotation"
          }
        },
        {
          "sampler": 48,
          "target": {
            "node": 70,
            "path": "rotation"
          }
        },
        {
          "sampler": 49,
          "target": {
            "node": 69,
            "path": "rotation"
          }
        },
        {
          "sampler": 50,
          "target": {
            "node": 68,
            "path": "rotation"
          }
        },
        {
          "sampler": 51,
          "target": {
            "node": 67,
            "path": "rotation"
          }
        },
        {
          "sampler": 52,
          "target": {
            "node": 7,
            "path": "translation"
          }
        },
        {
          "sampler": 53,
          "target": {
            "node": 7,
            "path": "rotation"
          }
        }
      ],
      "name": "mixamo.com",
      "samplers": [
        {
          "input": 15,
          "interpolation": "LINEAR",
          "output": 16
        },
        {
          "input": 17,
          "interpolation": "LINEAR",
          "output": 18
        },
        {
          "input": 19,
          "interpolation": "LINEAR",
          "output": 20
        },
        {
          "input": 21,
          "interpolation": "LINEAR",
          "output": 22
        },
        {
          "input": 23,
          "interpolation": "LINEAR",
          "output": 24
        },
        {
          "input": 25,
          "interpolation": "LINEAR",
          "output": 26
        },
        {
          "input": 27,
          "interpolation": "LINEAR",
          "output": 28
        },
        {
          "input": 29,
          "interpolation": "LINEAR",
          "output": 30
        },
        {
          "input": 31,
          "interpolation": "LINEAR",
          "output": 32
        },
        {
          "input": 33,
          "interpolation": "LINEAR",
          "output": 34
        },
        {
          "input": 35,
          "interpolation": "LINEAR",
          "output": 36
        },
        {
          "input": 37,
          "interpolation": "LINEAR",
          "output": 38
        },
        {
          "input": 39,
          "interpolation": "LINEAR",
          "output": 40
        },
        {
          "input": 41,
          "interpolation": "LINEAR",
          "output": 42
        },
        {
          "input": 43,
          "interpolation": "LINEAR",
          "output": 44
        },
        {
          "input": 45,
          "interpolation": "LINEAR",
          "output": 46
        },
        {
          "input": 47,
          "interpolation": "LINEAR",
          "output": 48
        },
        {
          "input": 49,
          "interpolation": "LINEAR",
          "output": 50
        },
        {
          "input": 51,
          "interpolation": "LINEAR",
          "output": 52
        },
        {
          "input": 53,
          "interpolation": "LINEAR",
          "output": 54
        },
        {
          "input": 55,
          "interpolation": "LINEAR",
          "output": 56
        },
        {
          "input": 57,
          "interpolation": "LINEAR",
          "output": 58
        },
        {
          "input": 59,
          "interpolation": "LINEAR",
          "output": 60
        },
        {
          "input": 61,
          "interpolation": "LINEAR",
          "output": 62
        },
        {
          "input": 63,
          "interpolation": "LINEAR",
          "output": 64
        },
        {
          "input": 65,
          "interpolation": "LINEAR",
          "output": 66
        },
        {
          "input": 67,
          "interpolation": "LINEAR",
          "output": 68
        },
        {
          "input": 69,
          "interpolation": "LINEAR",
          "output": 70
        },
        {
          "input": 71,
          "interpolation": "LINEAR",
          "output": 72
        },
        {
          "input": 73,
          "interpolation": "LINEAR",
          "output": 74
        },
        {
          "input": 75,
          "interpolation": "LINEAR",
          "output": 76
        },
        {
          "input": 77,
          "interpolation": "LINEAR",
          "output": 78
        },
        {
          "input": 79,
          "interpolation": "LINEAR",
          "output": 80
        },
        {
          "input": 81,
          "interpolation": "LINEAR",
          "output": 82
        },
        {
          "input": 83,
          "interpolation": "LINEAR",
          "output": 84
        },
        {
          "input": 85,
          "interpolation": "LINEAR",
          "output": 86
        },
        {
          "input": 87,
          "interpolation": "LINEAR",
          "output": 88
        },
        {
          "input": 89,
          "interpolation": "LINEAR",
          "output": 90
        },
        {
          "input": 91,
          "interpolation": "LINEAR",
          "output": 92
        },
        {
          "input": 93,
          "interpolation": "LINEAR",
          "output": 94
        },
        {
          "input": 95,
          "interpolation": "LINEAR",
          "output": 96
        },
        {
          "input": 97,
          "interpolation": "LINEAR",
          "output": 98
        },
        {
          "input": 99,
          "interpolation": "LINEAR",
          "output": 100
        },
        {
          "input": 101,
          "interpolation": "LINEAR",
          "output": 102
        },
        {
          "input": 103,
          "interpolation": "LINEAR",
          "output": 104
        },
        {
          "input": 105,
          "interpolation": "LINEAR",
          "output": 106
        },
        {
          "input": 107,
          "interpolation": "LINEAR",
          "output": 108
        },
        {
          "input": 109,
          "interpolation": "LINEAR",
          "output": 110
        },
        {
          "input": 111,
          "interpolation": "LINEAR",
          "output": 112
        },
        {
          "input": 113,
          "interpolation": "LINEAR",
          "output": 114
        },
        {
          "input": 115,
          "interpolation": "LINEAR",
          "output": 116
        },
        {
          "input": 117,
          "interpolation": "LINEAR",
          "output": 118
        },
        {
          "input": 119,
          "interpolation": "LINEAR",
          "output": 120
        },
        {
          "input": 121,
          "interpolation": "LINEAR",
          "output": 122
        }
      ]
    }
  ],
  "asset": {
    "extras": {
      "author": "katymadier (https://sketchfab.com/katymadier)",
      "license": "CC-BY-4.0 (http://creativecommons.org/licenses/by/4.0/)",
      "source": "https://sketchfab.com/3d-models/sitting-talking-5f81c38ad9f24b07aa02d171855ebe9c",
      "title": "Sitting Talking"
    },
    "generator": "Sketchfab-12.64.0",
    "version": "2.0"
  },
  "bufferViews": [
    {
      "buffer": 0,
      "byteLength": 46600,
      "byteStride": 8,
      "name": "shortBufferViews",
      "target": 34962
    },
    {
      "buffer": 0,
      "byteLength": 117900,
      "byteOffset": 46600,
      "name": "floatBufferViews",
      "target": 34963
    },
    {
      "buffer": 0,
      "byteLength": 372800,
      "byteOffset": 164500,
      "byteStride": 8,
      "name": "floatBufferViews",
      "target": 34962
    },
    {
      "buffer": 0,
      "byteLength": 139800,
      "byteOffset": 537300,
      "byteStride": 12,
      "name": "floatBufferViews",
      "target": 34962
    },
    {
      "buffer": 0,
      "byteLength": 186400,
      "byteOffset": 677100,
      "byteStride": 16,
      "name": "floatBufferViews",
      "target": 34962
    },
    {
      "buffer": 0,
      "byteLength": 4224,
      "byteOffset": 863500,
      "name": "floatBufferViews"
    },
    {
      "buffer": 0,
      "byteLength": 285924,
      "byteOffset": 867724,
      "name": "floatBufferViews"
    },
    {
      "buffer": 0,
      "byteLength": 31044,
      "byteOffset": 1153648,
      "byteStride": 12,
      "name": "floatBufferViews"
    },
    {
      "buffer": 0,
      "byteLength": 1102304,
      "byteOffset": 1184692,
      "byteStride": 16,
      "name": "floatBufferViews"
    }
  ],
  "buffers": [
    {
      "byteLength": 2286996,
      "uri": "scene.bin"
    }
  ],
  "extensionsRequired": [
    "KHR_materials_pbrSpecularGlossiness"
  ],
  "extensionsUsed": [
    "KHR_materials_pbrSpecularGlossiness"
  ],
  "images": [
    {
      "uri": "textures/phong1_diffuse.png"
    },
    {
      "uri": "textures/phong1_specularGlossiness.png"
    },
    {
      "uri": "textures/phong1_normal.png"
    }
  ],
  "materials": [
    {
      "doubleSided": true,
      "extensions": {
        "KHR_materials_pbrSpecularGlossiness": {
          "diffuseFactor": [
            1.0,
            1.0,
            1.0,
            1.0
          ],
          "diffuseTexture": {
            "index": 0
          },
          "glossinessFactor": 0.10573712634405641,
          "specularFactor": [
            0.05,
            0.05,
            0.05
          ],
          "specularGlossinessTexture": {
            "index": 1
          }
        }
      },
      "name": "phong1",
      "normalTexture": {
        "index": 2
      }
    }
  ],
  "meshes": [
    {
      "name": "Lola_phong1_0",
      "primitives": [
        {
          "attributes": {
            "JOINTS_0": 13,
            "NORMAL": 1,
            "POSITION": 0,
            "TANGENT": 2,
            "TEXCOORD_0": 3,
            "TEXCOORD_1": 4,
            "TEXCOORD_2": 5,
            "TEXCOORD_3": 6,
            "TEXCOORD_4": 7,
            "TEXCOORD_5": 3,
            "TEXCOORD_6": 3,
            "TEXCOORD_7": 8,
            "TEXCOORD_8": 9,
            "TEXCOORD_9": 10,
            "WEIGHTS_0": 14
          },
          "indices": 11,
          "material": 0,
          "mode": 4
        }
      ]
    }
  ],
  "nodes": [
    {
      "children": [
        1
      ],
      "matrix": [
        0.019355883821845055,
        0.0,
        0.0,
        0.0,
        0.0,
        4.29786957619639e-18,
        -0.019355883821845055,
        0.0,
        0.0,
        0.019355883821845055,
        4.29786957619639e-18,
        0.0,
        0.0,
        0.0,
        0.0,
        1.0
      ],
      "name": "Sketchfab_model"
    },
    {
      "children": [
        2
      ],
      "matrix": [
        1.0,
        0.0,
        0.0,
        0.0,
        0.0,
        0.0,
        1.0,
        0.0,
        0.0,
        -1.0,
        0.0,
        0.0,
        0.0,
        0.0,
        0.0,
        1.0
      ],
      "name": "3314691dac3b4127899bf54b5779ff04.fbx"
    },
    {
      "children": [
        3
      ],
      "name": "Object_2"
    },
    {
      "children": [
        4
      ],
      "name": "RootNode"
    },
    {
      "children": [
        5,
        6,
        72
      ],
      "name": "Object_4"
    },
    {
      "children": [
        7
      ],
      "name": "_rootJoint"
    },
    {
      "mesh": 0,
      "name": "Object_6",
      "skin": 0
    },
    {
      "children": [
        8,
        62,
        67
      ],
      "name": "Hips_01",
      "translation": [
        -0.006779199466109276,
        114.52682495117188,
        -0.3855687081813812
      ]
    },
    {
      "children": [
        9
      ],
      "name": "Spine_02",
      "translation": [
        0.0012083696201443672,
        10.871702194213867,
        -0.8284767270088196
      ]
    },
    {
      "children": [
        10
      ],
      "name": "Spine1_03",
      "translation": [
        0.002231173450127244,
        12.6836519241333,
        -0.9665566086769104
      ]
    },
    {
      "children": [
        11,
        14,
        38
      ],
      "name": "Spine2_04",
      "translation": [
        0.00254991021938622,
        14.495589256286621,
        -1.1046351194381714
      ]
    },
    {
      "children": [
        12
      ],
      "name": "Neck_05",
      "translation": [
        0.0028686481527984142,
        16.307552337646484,
        -1.2427148818969727
      ]
    },
    {
      "children": [
        13
      ],
      "name": "Head_06",
      "translation": [
        -2.302462442926867e-09,
        11.17667293548584,
        5.134539604187012
      ]
    },
    {
      "name": "HeadTop_End_07",
      "translation": [
        -5.770635080892816e-09,
        19.35529899597168,
        1.9808967113494873
      ]
    },
    {
      "children": [
        15
      ],
      "name": "LeftShoulder_08",
      "translation": [
        5.906095504760742,
        14.347039222717285,
        -1.2159521579742432
      ]
    },
    {
      "children": [
        16
      ],
      "name": "LeftArm_09",
      "translation": [
        12.269706726074219,
        -2.0546228885650635,
        0.05353064835071564
      ]
    },
    {
      "children": [
        17
      ],
      "name": "LeftForeArm_010",
      "translation": [
        27.894697189331055,
        -0.00039376039057970047,
        -0.0012098589213564992
      ]
    },
    {
      "children": [
        18,
        22,
        26,
        30,
        34
      ],
      "name": "LeftHand_011",
      "translation": [
        28.325471878051758,
        0.0004087786073796451,
        -0.0013474714942276478
      ]
    },
    {
      "children": [
        19
      ],
      "name": "LeftHandThumb1_012",
      "translation": [
        3.2454724311828613,
        -0.9519861936569214,
        2.4438624382019043
      ]
    },
    {
      "children": [
        20
      ],
      "name": "LeftHandThumb2_013",
      "translation": [
        2.5857388973236084,
        -1.4929015636444092,
        1.492906093597412
      ]
    },
    {
      "children": [
        21
      ],
      "name": "LeftHandThumb3_014",
      "translation": [
        2.9020466804504395,
        -1.6750906705856323,
        1.6742221117019653
      ]
    },
    {
      "name": "LeftHandThumb4_015",
      "translation": [
        2.3168742656707764,
        -1.3380634784698486,
        1.3389025926589966
      ]
    },
    {
      "children": [
        23
      ],
      "name": "LeftHandIndex1_016",
      "translation": [
        9.64490795135498,
        -0.28549429774284363,
        2.4408791065216064
      ]
    },
    {
      "children": [
        24
      ],
      "name": "LeftHandIndex2_017",
      "translation": [
        3.1057302951812744,
        0.00012818565301131457,
        -0.0013095812173560262
      ]
    },
    {
      "children": [
        25
      ],
      "name": "LeftHandIndex3_018",
      "translation": [
        2.847726345062256,
        3.464787369011901e-05,
        -0.00042135012336075306
      ]
    },
    {
      "name": "LeftHandIndex4_019",
      "translation": [
        2.3796486854553223,
        0.09035239368677139,
        -0.018680820241570473
      ]
    },
    {
      "children": [
        27
      ],
      "name": "LeftHandMiddle1_020",
      "translation": [
        9.898595809936523,
        0.0010597830405458808,
        -0.00017954243230633438
      ]
    },
    {
      "children": [
        28
      ],
      "name": "LeftHandMiddle2_021",
      "translation": [
        3.757042646408081,
        -0.00011426211131038144,
        0.0012547540245577693
      ]
    },
    {
      "children": [
        29
      ],
      "name": "LeftHandMiddle3_022",
      "translation": [
        3.615164041519165,
        4.896989412372932e-05,
        -0.0007527711568400264
      ]
    },
    {
      "name": "LeftHandMiddle4_023",
      "translation": [
        3.104557514190674,
        0.20904241502285004,
        -0.02697758562862873
      ]
    },
    {
      "children": [
        31
      ],
      "name": "LeftHandRing1_024",
      "translation": [
        8.985904693603516,
        -0.17414817214012146,
        -2.6645989418029785
      ]
    },
    {
      "children": [
        32
      ],
      "name": "LeftHandRing2_025",
      "translation": [
        3.488802194595337,
        1.2157156561443117e-05,
        -0.000505996635183692
      ]
    },
    {
      "children": [
        33
      ],
      "name": "LeftHandRing3_026",
      "translation": [
        3.5118839740753174,
        4.5017903175903484e-05,
        -0.0011608778731897473
      ]
    },
    {
      "name": "LeftHandRing4_027",
      "translation": [
        3.127049207687378,
        0.10021176189184189,
        -0.0073243072256445885
      ]
    },
    {
      "children": [
        35
      ],
      "name": "LeftHandPinky1_028",
      "translation": [
        7.803064346313477,
        -0.1907035857439041,
        -4.3668646812438965
      ]
    },
    {
      "children": [
        36
      ],
      "name": "LeftHandPinky2_029",
      "translation": [
        3.2188658714294434,
        -2.824558578140568e-06,
        0.0007725055911578238
      ]
    },
    {
      "children": [
        37
      ],
      "name": "LeftHandPinky3_030",
      "translation": [
        2.6223719120025635,
        -2.1970550733385608e-05,
        -0.0011056559160351753
      ]
    },
    {
      "name": "LeftHandPinky4_031",
      "translation": [
        2.2200841903686523,
        -4.691922185884323e-06,
        0.00032655298127792776
      ]
    },
    {
      "children": [
        39
      ],
      "name": "RightShoulder_032",
      "translation": [
        -5.94040060043335,
        14.347039222717285,
        -1.2159521579742432
      ]
    },
    {
      "children": [
        40
      ],
      "name": "RightArm_033",
      "translation": [
        -12.269712448120117,
        -2.0545876026153564,
        0.0535242073237896
      ]
    },
    {
      "children": [
        41
      ],
      "name": "RightForeArm_034",
      "translation": [
        -27.894697189331055,
        -0.0005996340187266469,
        0.0013469895347952843
      ]
    },
    {
      "children": [
        42,
        46,
        50,
        54,
        58
      ],
      "name": "RightHand_035",
      "translation": [
        -28.325471878051758,
        -0.0001871302374638617,
        -0.000953241775278002
      ]
    },
    {
      "children": [
        43
      ],
      "name": "RightHandThumb1_036",
      "translation": [
        -3.245264768600464,
        -0.9520560503005981,
        2.444110870361328
      ]
    },
    {
      "children": [
        44
      ],
      "name": "RightHandThumb2_037",
      "translation": [
        -2.5853350162506104,
        -1.4934725761413574,
        1.4930343627929688
      ]
    },
    {
      "children": [
        45
      ],
      "name": "RightHandThumb3_038",
      "translation": [
        -2.9015085697174072,
        -1.675815463066101,
        1.6744296550750732
      ]
    },
    {
      "name": "RightHandThumb4_039",
      "translation": [
        -2.3165130615234375,
        -1.3386667966842651,
        1.338924527168274
      ]
    },
    {
      "children": [
        47
      ],
      "name": "RightHandIndex1_040",
      "translation": [
        -9.644735336303711,
        -0.285893976688385,
        2.4415159225463867
      ]
    },
    {
      "children": [
        48
      ],
      "name": "RightHandIndex2_041",
      "translation": [
        -3.1057302951812744,
        -0.0008833705214783549,
        -0.001114833285100758
      ]
    },
    {
      "children": [
        49
      ],
      "name": "RightHandIndex3_042",
      "translation": [
        -2.8477261066436768,
        -0.0008836828637868166,
        -0.0001928001584019512
      ]
    },
    {
      "name": "RightHandIndex4_043",
      "translation": [
        -2.3796792030334473,
        0.08958462625741959,
        -0.018491540104150772
      ]
    },
    {
      "children": [
        51
      ],
      "name": "RightHandMiddle1_044",
      "translation": [
        -9.898595809936523,
        0.0005497739766724408,
        0.00046245340490713716
      ]
    },
    {
      "children": [
        52
      ],
      "name": "RightHandMiddle2_045",
      "translation": [
        -3.757042407989502,
        -0.0011776755563914776,
        -0.0012212098808959126
      ]
    },
    {
      "children": [
        53
      ],
      "name": "RightHandMiddle3_046",
      "translation": [
        -3.615163803100586,
        -0.001180070685222745,
        -0.0005264124483801425
      ]
    },
    {
      "name": "RightHandMiddle4_047",
      "translation": [
        -3.1046302318573,
        0.20798325538635254,
        -0.02681438811123371
      ]
    },
    {
      "children": [
        55
      ],
      "name": "RightHandRing1_048",
      "translation": [
        -8.986068725585938,
        -0.17471732199192047,
        -2.6640090942382813
      ]
    },
    {
      "children": [
        56
      ],
      "name": "RightHandRing2_049",
      "translation": [
        -3.488801956176758,
        -0.0011710465187206864,
        -0.00033682005596347153
      ]
    },
    {
      "children": [
        57
      ],
      "name": "RightHandRing3_050",
      "translation": [
        -3.5118839740753174,
        -0.001149248331785202,
        -0.0010403897613286972
      ]
    },
    {
      "name": "RightHandRing4_051",
      "translation": [
        -3.1270835399627686,
        0.09914884716272354,
        -0.007209678180515766
      ]
    },
    {
      "children": [
        59
      ],
      "name": "RightHandPinky1_052",
      "translation": [
        -7.803337574005127,
        -0.1912796050310135,
        -4.366351127624512
      ]
    },
    {
      "children": [
        60
      ],
      "name": "RightHandPinky2_053",
      "translation": [
        -3.2188656330108643,
        -0.001049324870109558,
        0.0008962026331573725
      ]
    },
    {
      "children": [
        61
      ],
      "name": "RightHandPinky3_054",
      "translation": [
        -2.6223716735839844,
        -0.0008759799529798329,
        -0.0010527253616601229
      ]
    },
    {
      "name": "RightHandPinky4_055",
      "translation": [
        -2.2200841903686523,
        -0.0007299503777176142,
        0.0003274960909038782
      ]
    },
    {
      "children": [
        63
      ],
      "name": "LeftUpLeg_056",
      "translation": [
        12.499801635742188,
        -6.039027214050293,
        1.644851803779602
      ]
    },
    {
      "children": [
        64
      ],
      "name": "LeftLeg_057",
      "translation": [
        1.109695315361023,
        -51.63325119018555,
        -0.6115266680717468
      ]
    },
    {
      "children": [
        65
      ],
      "name": "LeftFoot_058",
      "translation": [
        -1.095147728919983,
        -44.274784088134766,
        -2.3666915893554688
      ]
    },
    {
      "children": [
        66
      ],
      "name": "LeftToeBase_059",
      "translation": [
        3.5156307220458984,
        -11.857376098632813,
        16.519258499145508
      ]
    },
    {
      "name": "LeftToe_End_060",
      "translation": [
        1.608323097229004,
        0.02267654612660408,
        7.850593090057373
      ]
    },
    {
      "children": [
        68
      ],
      "name": "RightUpLeg_061",
      "translation": [
        -12.521841049194336,
        -6.040651321411133,
        1.6151962280273438
      ]
    },
    {
      "children": [
        69
      ],
      "name": "RightLeg_00",
      "translation": [
        -1.0954232215881348,
        -51.5977897644043,
        -0.7971494793891907
      ]
    },
    {
      "children": [
        70
      ],
      "name": "RightFoot_062",
      "translation": [
        1.1098929643630981,
        -44.30581283569336,
        -2.150954246520996
      ]
    },
    {
      "children": [
        71
      ],
      "name": "RightToeBase_063",
      "translation": [
        -3.5156409740448,
        -11.8576078414917,
        16.660137176513672
      ]
    },
    {
      "name": "RightToe_End_064",
      "translation": [
        -1.608327031135559,
        0.022565478459000587,
        7.852238655090332
      ]
    },
    {
      "name": "Lola"
    }
  ],
  "samplers": [
    {
      "magFilter": 9729,
      "minFilter": 9987,
      "wrapS": 10497,
      "wrapT": 10497
    }
  ],
  "scene": 0,
  "scenes": [
    {
      "name": "Sketchfab_Scene",
      "nodes": [
        0
      ]
    }
  ],
  "skins": [
    {
      "inverseBindMatrices": 12,
      "joints": [
        5,
        7,
        8,
        9,
        10,
        11,
        12,
        13,
        14,
        15,
        16,
        17,
        18,
        19,
        20,
        21,
        22,
        23,
        24,
        25,
        26,
        27,
        28,
        29,
        30,
        31,
        32,
        33,
        34,
        35,
        36,
        37,
        38,
        39,
        40,
        41,
        42,
        43,
        44,
        45,
        46,
        47,
        48,
        49,
        50,
        51,
        52,
        53,
        54,
        55,
        56,
        57,
        58,
        59,
        60,
        61,
        62,
        63,
        64,
        65,
        66,
        67,
        68,
        69,
        70,
        71
      ],
      "skeleton": 5
    }
  ],
  "textures": [
    {
      "sampler": 0,
      "source": 0
    },
    {
      "sampler": 0,
      "source": 1
    },
    {
      "sampler": 0,
      "source": 2
    }
  ]
}
