{
  "accessors": [
    {
      "bufferView": 3,
      "componentType": 5126,
      "count": 2390,
      "max": [
        -23.858386993408203,
        5.138689041137695,
        0.7096861600875854
      ],
      "min": [
        -29.47930908203125,
        -4.280675888061523,
        -0.7096863389015198
      ],
      "type": "VEC3"
    },
    {
      "bufferView": 3,
      "byteOffset": 28680,
      "componentType": 5126,
      "count": 2390,
      "max": [
        1.0,
        1.0,
        1.0
      ],
      "min": [
        -1.0,
        -1.0,
        -1.0
      ],
      "type": "VEC3"
    },
    {
      "bufferView": 4,
      "componentType": 5126,
      "count": 2390,
      "max": [
        0.7739468812942505,
        1.0,
        1.0,
        1.0
      ],
      "min": [
        -0.9999136328697205,
        -1.0,
        -1.0,
        1.0
      ],
      "type": "VEC4"
    },
    {
      "bufferView": 2,
      "componentType": 5126,
      "count": 2390,
      "max": [
        0.9721910357475281,
        0.9667716026306152
      ],
      "min": [
        0.0039015859365463257,
        0.0028640031814575195
      ],
      "type": "VEC2"
    },
    {
      "bufferView": 1,
      "componentType": 5125,
      "count": 9300,
      "type": "SCALAR"
    },
    {
      "bufferView": 3,
      "byteOffset": 57360,
      "componentType": 5126,
      "count": 7264,
      "max": [
        19.116901397705078,
        6.724201679229736,
        2.392306089401245
      ],
      "min": [
        -19.289209365844727,
        -9.061999320983887,
        -2.3923075199127197
      ],
      "type": "VEC3"
    },
    {
      "bufferView": 3,
      "byteOffset": 144528,
      "componentType": 5126,
      "count": 7264,
      "max": [
        1.0,
        1.0,
        1.0
      ],
      "min": [
        -1.0,
        -1.0,
        -1.0
      ],
      "type": "VEC3"
    },
    {
      "bufferView": 4,
      "byteOffset": 38240,
      "componentType": 5126,
      "count": 7264,
      "max": [
        1.0,
        1.0,
        1.0,
        1.0
      ],
      "min": [
        -1.0,
        -1.0,
        -1.0,
        1.0
      ],
      "type": "VEC4"
    },
    {
      "bufferView": 2,
      "byteOffset": 19120,
      "componentType": 5126,
      "count": 7264,
      "max": [
        0.9988043308258057,
        0.999176561832428
      ],
      "min": [
        0.0012715174816548824,
        0.000646585482172668
      ],
      "type": "VEC2"
    },
    {
      "bufferView": 1,
      "byteOffset": 37200,
      "componentType": 5125,
      "count": 26403,
      "type": "SCALAR"
    },
    {
      "bufferView": 5,
      "componentType": 5126,
      "count": 18,
      "max": [
        1.0,
        0.0,
        0.0,
        0.0,
        0.0,
        1.0,
        0.0,
        0.0,
        0.0,
        0.0,
        1.0,
        0.0,
        26.940656661987305,
        4.580443859100342,
        0.7174673676490784,
        1.0
      ],
      "min": [
        1.0,
        0.0,
        0.0,
        0.0,
        0.0,
        1.0,
        0.0,
        0.0,
        0.0,
        0.0,
        1.0,
        0.0,
        -3.0732264518737793,
        -4.429009437561035,
        0.0,
        1.0
      ],
      "type": "MAT4"
    },
    {
      "bufferView": 0,
      "componentType": 5123,
      "count": 2390,
      "type": "VEC4"
    },
    {
      "bufferView": 4,
      "byteOffset": 154464,
      "componentType": 5126,
      "count": 2390,
      "max": [
        1.0,
        0.0,
        0.0,
        0.0
      ],
      "min": [
        1.0,
        0.0,
        0.0,
        0.0
      ],
      "type": "VEC4"
    },
    {
      "bufferView": 0,
      "byteOffset": 19120,
      "componentType": 5123,
      "count": 7264,
      "type": "VEC4"
    },
    {
      "bufferView": 4,
      "byteOffset": 192704,
      "componentType": 5126,
      "count": 7264,
      "max": [
        1.0,
        0.0,
        0.0,
        0.0
      ],
      "min": [
        1.0,
        0.0,
        0.0,
        0.0
      ],
      "type": "VEC4"
    },
    {
      "bufferView": 6,
      "componentType": 5126,
      "count": 21,
      "max": [
        4.566666603088379
      ],
      "min": [
        0.0
      ],
      "type": "SCALAR"
    },
    {
      "bufferView": 7,
      "componentType": 5126,
      "count": 21,
      "max": [
        6.905354976654053,
        5.253851413726807,
        2.220446049250313e-16
      ],
      "min": [
        6.905354976654053,
        5.253851413726807,
        -2.220446049250313e-16
      ],
      "type": "VEC3"
    },
    {
      "bufferView": 6,
      "byteOffset": 84,
      "componentType": 5126,
      "count": 122,
      "max": [
        4.566666603088379
      ],
      "min": [
        0.0
      ],
      "type": "SCALAR"
    },
    {
      "bufferView": 8,
      "componentType": 5126,
      "count": 122,
      "max": [
        1.3761970941528457e-17,
        1.4180676532713e-17,
        0.0,
        1.0
      ],
      "min": [
        -3.2898370896469125e-18,
        -1.47679979286828e-17,
        -0.1736481785774231,
        0.9848077297210693
      ],
      "type": "VEC4"
    },
    {
      "bufferView": 6,
      "byteOffset": 572,
      "componentType": 5126,
      "count": 23,
      "max": [
        4.166666507720947
      ],
      "min": [
        0.0
      ],
      "type": "SCALAR"
    },
    {
      "bufferView": 7,
      "byteOffset": 252,
      "componentType": 5126,
      "count": 23,
      "max": [
        3.713867664337158,
        5.024094581604004,
        2.220446049250313e-16
      ],
      "min": [
        3.713867664337158,
        5.024094581604004,
        -2.220446049250313e-16
      ],
      "type": "VEC3"
    },
    {
      "bufferView": 6,
      "byteOffset": 664,
      "componentType": 5126,
      "count": 115,
      "max": [
        4.166666507720947
      ],
      "min": [
        0.0
      ],
      "type": "SCALAR"
    },
    {
      "bufferView": 8,
      "byteOffset": 1952,
      "componentType": 5126,
      "count": 115,
      "max": [
        8.062877673592246e-18,
        3.469446951953614e-18,
        0.30070579051971436,
        1.0
      ],
      "min": [
        -7.850290601804892e-18,
        -1.3877787807814457e-17,
        -5.552743014571287e-17,
        0.9537169337272644
      ],
      "type": "VEC4"
    },
    {
      "bufferView": 6,
      "byteOffset": 1124,
      "componentType": 5126,
      "count": 117,
      "max": [
        7.666666507720947
      ],
      "min": [
        0.0
      ],
      "type": "SCALAR"
    },
    {
      "bufferView": 7,
      "byteOffset": 528,
      "componentType": 5126,
      "count": 117,
      "max": [
        5.5363569259643555,
        1.7763568394002505e-15,
        1.7763568394002505e-15
      ],
      "min": [
        1.8055765628814697,
        -1.7763568394002505e-15,
        -1.7763568394002505e-15
      ],
      "type": "VEC3"
    },
    {
      "bufferView": 6,
      "byteOffset": 1592,
      "componentType": 5126,
      "count": 171,
      "max": [
        7.666666507720947
      ],
      "min": [
        0.0
      ],
      "type": "SCALAR"
    },
    {
      "bufferView": 8,
      "byteOffset": 3792,
      "componentType": 5126,
      "count": 171,
      "max": [
        1.1102230246251565e-16,
        7.882149793969617e-17,
        3.122502256758253e-17,
        1.0
      ],
      "min": [
        -5.551115123125783e-17,
        -6.245004513516506e-17,
        -1.143736809625559e-16,
        1.0
      ],
      "type": "VEC4"
    },
    {
      "bufferView": 6,
      "byteOffset": 2276,
      "componentType": 5126,
      "count": 159,
      "max": [
        8.850000381469727
      ],
      "min": [
        0.0
      ],
      "type": "SCALAR"
    },
    {
      "bufferView": 7,
      "byteOffset": 1932,
      "componentType": 5126,
      "count": 159,
      "max": [
        1111.0,
        1.2079226507921703e-13,
        1.8118839761882555e-13
      ],
      "min": [
        2.4774999618530273,
        -7.638334409421077e-14,
        -1.4566126083082054e-13
      ],
      "type": "VEC3"
    },
    {
      "bufferView": 6,
      "byteOffset": 2912,
      "componentType": 5126,
      "count": 206,
      "max": [
        8.850000381469727
      ],
      "min": [
        0.0
      ],
      "type": "SCALAR"
    },
    {
      "bufferView": 8,
      "byteOffset": 6528,
      "componentType": 5126,
      "count": 206,
      "max": [
        1.3877787807814457e-16,
        6.245004513516506e-17,
        5.551115123125783e-17,
        1.0
      ],
      "min": [
        -8.326672684688674e-17,
        -9.8879238130678e-17,
        -8.326672684688674e-17,
        1.0
      ],
      "type": "VEC4"
    },
    {
      "bufferView": 6,
      "byteOffset": 3736,
      "componentType": 5126,
      "count": 262,
      "max": [
        9.833333015441895
      ],
      "min": [
        0.0
      ],
      "type": "SCALAR"
    },
    {
      "bufferView": 7,
      "byteOffset": 3840,
      "componentType": 5126,
      "count": 262,
      "max": [
        -4.478456020355225,
        2.8175361156463623,
        1.7763568394002505e-15
      ],
      "min": [
        -43.4423942565918,
        1.5160095691680908,
        -25.889116287231445
      ],
      "type": "VEC3"
    },
    {
      "bufferView": 6,
      "byteOffset": 4784,
      "componentType": 5126,
      "count": 235,
      "max": [
        9.833333015441895
      ],
      "min": [
        0.0
      ],
      "type": "SCALAR"
    },
    {
      "bufferView": 8,
      "byteOffset": 9824,
      "componentType": 5126,
      "count": 235,
      "max": [
        1.4030666666882017e-16,
        7.19910242530375e-17,
        1.6106405607423406e-16,
        1.0
      ],
      "min": [
        -1.2154729563708117e-16,
        -0.43832677602767944,
        -1.143736809625559e-16,
        0.8988156914710999
      ],
      "type": "VEC4"
    },
    {
      "bufferView": 6,
      "byteOffset": 5724,
      "componentType": 5126,
      "count": 226,
      "max": [
        8.850000381469727
      ],
      "min": [
        0.0
      ],
      "type": "SCALAR"
    },
    {
      "bufferView": 7,
      "byteOffset": 6984,
      "componentType": 5126,
      "count": 226,
      "max": [
        1111.0,
        1.0835776720341528e-13,
        1.163513729807164e-13
      ],
      "min": [
        2.4774999618530273,
        -1.829647544582258e-13,
        -2.717825964282383e-13
      ],
      "type": "VEC3"
    },
    {
      "bufferView": 6,
      "byteOffset": 6628,
      "componentType": 5126,
      "count": 205,
      "max": [
        8.850000381469727
      ],
      "min": [
        0.0
      ],
      "type": "SCALAR"
    },
    {
      "bufferView": 8,
      "byteOffset": 13584,
      "componentType": 5126,
      "count": 205,
      "max": [
        1.3877787807814457e-16,
        9.020562075079397e-17,
        5.551115123125783e-17,
        1.0
      ],
      "min": [
        -1.1102230246251565e-16,
        -9.71445146547012e-17,
        -5.551115123125783e-17,
        1.0
      ],
      "type": "VEC4"
    },
    {
      "bufferView": 6,
      "byteOffset": 7448,
      "componentType": 5126,
      "count": 40,
      "max": [
        9.833333015441895
      ],
      "min": [
        0.0
      ],
      "type": "SCALAR"
    },
    {
      "bufferView": 7,
      "byteOffset": 9696,
      "componentType": 5126,
      "count": 40,
      "max": [
        -4.478456020355225,
        0.4685472548007965,
        1.4416788816452026
      ],
      "min": [
        -46.50180435180664,
        0.4685472548007965,
        -25.284408569335938
      ],
      "type": "VEC3"
    },
    {
      "bufferView": 6,
      "byteOffset": 7608,
      "componentType": 5126,
      "count": 235,
      "max": [
        9.833333015441895
      ],
      "min": [
        0.0
      ],
      "type": "SCALAR"
    },
    {
      "bufferView": 8,
      "byteOffset": 16864,
      "componentType": 5126,
      "count": 235,
      "max": [
        1.1692478538100824e-16,
        7.19910242530375e-17,
        9.539107042710109e-17,
        1.0
      ],
      "min": [
        -1.1692478538100824e-16,
        -0.3535015881061554,
        -1.143736809625559e-16,
        0.9354339241981506
      ],
      "type": "VEC4"
    },
    {
      "bufferView": 6,
      "byteOffset": 8548,
      "componentType": 5126,
      "count": 165,
      "max": [
        8.850000381469727
      ],
      "min": [
        0.0
      ],
      "type": "SCALAR"
    },
    {
      "bufferView": 7,
      "byteOffset": 10176,
      "componentType": 5126,
      "count": 165,
      "max": [
        1111.0,
        1.2789769243681803e-13,
        1.1723955140041653e-13
      ],
      "min": [
        2.4774999618530273,
        -2.4868995751603507e-13,
        -1.1368683772161603e-13
      ],
      "type": "VEC3"
    },
    {
      "bufferView": 6,
      "byteOffset": 9208,
      "componentType": 5126,
      "count": 205,
      "max": [
        8.850000381469727
      ],
      "min": [
        0.0
      ],
      "type": "SCALAR"
    },
    {
      "bufferView": 8,
      "byteOffset": 20624,
      "componentType": 5126,
      "count": 205,
      "max": [
        1.3877787807814457e-16,
        6.245004513516506e-17,
        8.326672684688674e-17,
        1.0
      ],
      "min": [
        -1.1102230246251565e-16,
        -1.3877787807814457e-16,
        -8.326672684688674e-17,
        1.0
      ],
      "type": "VEC4"
    },
    {
      "bufferView": 6,
      "byteOffset": 10028,
      "componentType": 5126,
      "count": 40,
      "max": [
        9.833333015441895
      ],
      "min": [
        0.0
      ],
      "type": "SCALAR"
    },
    {
      "bufferView": 7,
      "byteOffset": 12156,
      "componentType": 5126,
      "count": 40,
      "max": [
        -4.478456020355225,
        -1.2263386249542236,
        0.8912441730499268
      ],
      "min": [
        -46.60352325439453,
        -2.1990134716033936,
        -25.86636734008789
      ],
      "type": "VEC3"
    },
    {
      "bufferView": 6,
      "byteOffset": 10188,
      "componentType": 5126,
      "count": 235,
      "max": [
        9.833333015441895
      ],
      "min": [
        0.0
      ],
      "type": "SCALAR"
    },
    {
      "bufferView": 8,
      "byteOffset": 23904,
      "componentType": 5126,
      "count": 235,
      "max": [
        0.18320728838443756,
        7.19910242530375e-17,
        3.122502256758253e-17,
        1.0
      ],
      "min": [
        -8.326672684688674e-17,
        -0.5773099064826965,
        -0.1610315889120102,
        0.7984415888786316
      ],
      "type": "VEC4"
    },
    {
      "bufferView": 6,
      "byteOffset": 11128,
      "componentType": 5126,
      "count": 166,
      "max": [
        8.850000381469727
      ],
      "min": [
        0.0
      ],
      "type": "SCALAR"
    },
    {
      "bufferView": 7,
      "byteOffset": 12636,
      "componentType": 5126,
      "count": 166,
      "max": [
        1111.0,
        1.652011860642233e-13,
        1.4210854715202004e-13
      ],
      "min": [
        2.4774999618530273,
        -1.5631940186722204e-13,
        -1.3322676295501878e-13
      ],
      "type": "VEC3"
    },
    {
      "bufferView": 6,
      "byteOffset": 11792,
      "componentType": 5126,
      "count": 206,
      "max": [
        8.850000381469727
      ],
      "min": [
        0.0
      ],
      "type": "SCALAR"
    },
    {
      "bufferView": 8,
      "byteOffset": 27664,
      "componentType": 5126,
      "count": 206,
      "max": [
        1.3877787807814457e-16,
        9.107298248878237e-17,
        8.326672684688674e-17,
        1.0
      ],
      "min": [
        -8.326672684688674e-17,
        -6.245004513516506e-17,
        -8.326672684688674e-17,
        1.0
      ],
      "type": "VEC4"
    },
    {
      "bufferView": 6,
      "byteOffset": 12616,
      "componentType": 5126,
      "count": 40,
      "max": [
        9.833333015441895
      ],
      "min": [
        0.0
      ],
      "type": "SCALAR"
    },
    {
      "bufferView": 7,
      "byteOffset": 14628,
      "componentType": 5126,
      "count": 40,
      "max": [
        -4.478456020355225,
        -1.2263000011444092,
        -0.8912000060081482
      ],
      "min": [
        -41.626033782958984,
        -1.2263000011444092,
        -26.901824951171875
      ],
      "type": "VEC3"
    },
    {
      "bufferView": 6,
      "byteOffset": 12776,
      "componentType": 5126,
      "count": 235,
      "max": [
        9.833333015441895
      ],
      "min": [
        0.0
      ],
      "type": "SCALAR"
    },
    {
      "bufferView": 8,
      "byteOffset": 30960,
      "componentType": 5126,
      "count": 235,
      "max": [
        0.21142859756946564,
        7.19910242530375e-17,
        3.122502256758253e-17,
        1.0
      ],
      "min": [
        -8.326672684688674e-17,
        -0.7084804177284241,
        -0.20728106796741486,
        0.7038999795913696
      ],
      "type": "VEC4"
    },
    {
      "bufferView": 6,
      "byteOffset": 13716,
      "componentType": 5126,
      "count": 163,
      "max": [
        8.850000381469727
      ],
      "min": [
        0.0
      ],
      "type": "SCALAR"
    },
    {
      "bufferView": 7,
      "byteOffset": 15108,
      "componentType": 5126,
      "count": 163,
      "max": [
        1111.0,
        1.4033219031261979e-13,
        1.2434497875801753e-13
      ],
      "min": [
        2.4774999618530273,
        -1.5276668818842154e-13,
        -1.865174681370263e-13
      ],
      "type": "VEC3"
    },
    {
      "bufferView": 6,
      "byteOffset": 14368,
      "componentType": 5126,
      "count": 205,
      "max": [
        8.850000381469727
      ],
      "min": [
        0.0
      ],
      "type": "SCALAR"
    },
    {
      "bufferView": 8,
      "byteOffset": 34720,
      "componentType": 5126,
      "count": 205,
      "max": [
        1.3877787807814457e-16,
        1.5157146371347352e-16,
        5.551115123125783e-17,
        1.0
      ],
      "min": [
        -8.326672684688674e-17,
        -7.632783294297951e-17,
        -5.551115123125783e-17,
        1.0
      ],
      "type": "VEC4"
    },
    {
      "bufferView": 6,
      "byteOffset": 15188,
      "componentType": 5126,
      "count": 40,
      "max": [
        9.833333015441895
      ],
      "min": [
        0.0
      ],
      "type": "SCALAR"
    },
    {
      "bufferView": 7,
      "byteOffset": 17064,
      "componentType": 5126,
      "count": 40,
      "max": [
        -4.478456020355225,
        0.4684999883174896,
        -1.4416999816894531
      ],
      "min": [
        -41.621028900146484,
        0.4684999883174896,
        -27.009807586669922
      ],
      "type": "VEC3"
    },
    {
      "bufferView": 6,
      "byteOffset": 15348,
      "componentType": 5126,
      "count": 235,
      "max": [
        9.833333015441895
      ],
      "min": [
        0.0
      ],
      "type": "SCALAR"
    },
    {
      "bufferView": 8,
      "byteOffset": 38000,
      "componentType": 5126,
      "count": 235,
      "max": [
        1.6890354452441962e-16,
        7.19910242530375e-17,
        1.4882032717057115e-16,
        1.0
      ],
      "min": [
        -1.4882032717057115e-16,
        -0.5410148501396179,
        -1.287370965818329e-16,
        0.8410130143165588
      ],
      "type": "VEC4"
    },
    {
      "bufferView": 6,
      "byteOffset": 16288,
      "componentType": 5126,
      "count": 119,
      "max": [
        4.133333206176758
      ],
      "min": [
        0.0
      ],
      "type": "SCALAR"
    },
    {
      "bufferView": 8,
      "byteOffset": 41760,
      "componentType": 5126,
      "count": 119,
      "max": [
        1.0,
        5.947234051376197e-17,
        7.005150409228236e-17,
        1.0
      ],
      "min": [
        -0.8297476172447205,
        -4.12430632144939e-17,
        -5.265566750844312e-17,
        -0.4981825351715088
      ],
      "type": "VEC4"
    },
    {
      "bufferView": 6,
      "byteOffset": 16764,
      "componentType": 5126,
      "count": 317,
      "max": [
        11.333333015441895
      ],
      "min": [
        0.0
      ],
      "type": "SCALAR"
    },
    {
      "bufferView": 8,
      "byteOffset": 43664,
      "componentType": 5126,
      "count": 317,
      "max": [
        3.469446951953614e-18,
        7.750918582404814e-17,
        1.0840373981074839e-16,
        1.0
      ],
      "min": [
        -0.6560590267181396,
        -7.363929081139026e-17,
        -8.310506928541428e-17,
        0.7547096014022827
      ],
      "type": "VEC4"
    },
    {
      "bufferView": 6,
      "byteOffset": 18032,
      "componentType": 5126,
      "count": 17,
      "max": [
        5.5
      ],
      "min": [
        0.0
      ],
      "type": "SCALAR"
    },
    {
      "bufferView": 7,
      "byteOffset": 17544,
      "componentType": 5126,
      "count": 17,
      "max": [
        3.4148917198181152,
        6.279567241668701,
        -0.7174673676490784
      ],
      "min": [
        3.058093309402466,
        6.279567241668701,
        -0.7174673676490784
      ],
      "type": "VEC3"
    },
    {
      "bufferView": 6,
      "byteOffset": 18100,
      "componentType": 5126,
      "count": 51,
      "max": [
        5.5
      ],
      "min": [
        0.0
      ],
      "type": "SCALAR"
    },
    {
      "bufferView": 8,
      "byteOffset": 48736,
      "componentType": 5126,
      "count": 51,
      "max": [
        8.062877673592246e-18,
        3.469446951953614e-18,
        5.635639085094411e-17,
        1.0
      ],
      "min": [
        -2.0816681711721685e-17,
        -1.3877787807814457e-17,
        -5.552743014571287e-17,
        1.0
      ],
      "type": "VEC4"
    },
    {
      "bufferView": 6,
      "byteOffset": 18304,
      "componentType": 5126,
      "count": 136,
      "max": [
        12.0
      ],
      "min": [
        0.0
      ],
      "type": "SCALAR"
    },
    {
      "bufferView": 7,
      "byteOffset": 17748,
      "componentType": 5126,
      "count": 136,
      "max": [
        -14.762775421142578,
        1.241115927696228,
        0.017171766608953476
      ],
      "min": [
        -22.52277946472168,
        -6.95574426651001,
        -5.1901326179504395
      ],
      "type": "VEC3"
    },
    {
      "bufferView": 6,
      "byteOffset": 18848,
      "componentType": 5126,
      "count": 264,
      "max": [
        12.0
      ],
      "min": [
        0.0
      ],
      "type": "SCALAR"
    },
    {
      "bufferView": 8,
      "byteOffset": 49552,
      "componentType": 5126,
      "count": 264,
      "max": [
        0.18543459475040436,
        0.1032114177942276,
        0.2629316747188568,
        1.0
      ],
      "min": [
        -0.296684205532074,
        -0.08136127144098282,
        -0.29666176438331604,
        0.9344912171363831
      ],
      "type": "VEC4"
    },
    {
      "bufferView": 6,
      "byteOffset": 19904,
      "componentType": 5126,
      "count": 21,
      "max": [
        4.566666603088379
      ],
      "min": [
        0.0
      ],
      "type": "SCALAR"
    },
    {
      "bufferView": 7,
      "byteOffset": 19380,
      "componentType": 5126,
      "count": 21,
      "max": [
        6.905354976654053,
        5.253851413726807,
        2.220446049250313e-16
      ],
      "min": [
        6.905354976654053,
        5.253851413726807,
        -2.220446049250313e-16
      ],
      "type": "VEC3"
    },
    {
      "bufferView": 6,
      "byteOffset": 19988,
      "componentType": 5126,
      "count": 122,
      "max": [
        4.566666603088379
      ],
      "min": [
        0.0
      ],
      "type": "SCALAR"
    },
    {
      "bufferView": 8,
      "byteOffset": 53776,
      "componentType": 5126,
      "count": 122,
      "max": [
        1.3761970941528457e-17,
        1.4180676532713e-17,
        0.0,
        1.0
      ],
      "min": [
        -3.2898370896469125e-18,
        -1.47679979286828e-17,
        -0.1736481785774231,
        0.9848077297210693
      ],
      "type": "VEC4"
    },
    {
      "bufferView": 6,
      "byteOffset": 20476,
      "componentType": 5126,
      "count": 23,
      "max": [
        4.166666507720947
      ],
      "min": [
        0.0
      ],
      "type": "SCALAR"
    },
    {
      "bufferView": 7,
      "byteOffset": 19632,
      "componentType": 5126,
      "count": 23,
      "max": [
        3.713867664337158,
        5.024094581604004,
        2.220446049250313e-16
      ],
      "min": [
        3.713867664337158,
        5.024094581604004,
        -2.220446049250313e-16
      ],
      "type": "VEC3"
    },
    {
      "bufferView": 6,
      "byteOffset": 20568,
      "componentType": 5126,
      "count": 115,
      "max": [
        4.166666507720947
      ],
      "min": [
        0.0
      ],
      "type": "SCALAR"
    },
    {
      "bufferView": 8,
      "byteOffset": 55728,
      "componentType": 5126,
      "count": 115,
      "max": [
        8.062877673592246e-18,
        3.469446951953614e-18,
        0.30070579051971436,
        1.0
      ],
      "min": [
        -7.850290601804892e-18,
        -1.3877787807814457e-17,
        -5.552743014571287e-17,
        0.9537169337272644
      ],
      "type": "VEC4"
    },
    {
      "bufferView": 6,
      "byteOffset": 21028,
      "componentType": 5126,
      "count": 48,
      "max": [
        4.183333396911621
      ],
      "min": [
        0.0
      ],
      "type": "SCALAR"
    },
    {
      "bufferView": 7,
      "byteOffset": 19908,
      "componentType": 5126,
      "count": 48,
      "max": [
        1111.0,
        4.440892098500626e-16,
        3.552713678800501e-15
      ],
      "min": [
        2.4775257110595703,
        -5.3290705182007514e-15,
        -1.7763568394002505e-15
      ],
      "type": "VEC3"
    },
    {
      "bufferView": 6,
      "byteOffset": 21220,
      "componentType": 5126,
      "count": 70,
      "max": [
        4.183333396911621
      ],
      "min": [
        0.0
      ],
      "type": "SCALAR"
    },
    {
      "bufferView": 8,
      "byteOffset": 57568,
      "componentType": 5126,
      "count": 70,
      "max": [
        8.326672684688674e-17,
        1.0581813203458523e-16,
        3.2959746043559335e-17,
        1.0
      ],
      "min": [
        -8.326672684688674e-17,
        -5.204170427930421e-17,
        -6.245004513516506e-17,
        1.0
      ],
      "type": "VEC4"
    },
    {
      "bufferView": 6,
      "byteOffset": 21500,
      "componentType": 5126,
      "count": 19,
      "max": [
        0.800000011920929
      ],
      "min": [
        0.0
      ],
      "type": "SCALAR"
    },
    {
      "bufferView": 7,
      "byteOffset": 20484,
      "componentType": 5126,
      "count": 19,
      "max": [
        1111.0,
        9.547918011776346e-15,
        8.881784197001252e-16
      ],
      "min": [
        2.4775257110595703,
        -8.881784197001252e-16,
        -3.8191672047105385e-14
      ],
      "type": "VEC3"
    },
    {
      "bufferView": 6,
      "byteOffset": 21576,
      "componentType": 5126,
      "count": 9,
      "max": [
        0.800000011920929
      ],
      "min": [
        0.0
      ],
      "type": "SCALAR"
    },
    {
      "bufferView": 8,
      "byteOffset": 58688,
      "componentType": 5126,
      "count": 9,
      "max": [
        2.7755575615628914e-17,
        0.0,
        1.1024705597113146e-18,
        1.0
      ],
      "min": [
        0.0,
        -3.39305537481827e-18,
        0.0,
        1.0
      ],
      "type": "VEC4"
    },
    {
      "bufferView": 6,
      "byteOffset": 21612,
      "componentType": 5126,
      "count": 16,
      "max": [
        1.6833332777023315
      ],
      "min": [
        0.0
      ],
      "type": "SCALAR"
    },
    {
      "bufferView": 7,
      "byteOffset": 20712,
      "componentType": 5126,
      "count": 16,
      "max": [
        1111.0,
        5.3290705182007514e-15,
        1.7763568394002505e-15
      ],
      "min": [
        2.4775257110595703,
        -8.881784197001252e-16,
        -1.7763568394002505e-15
      ],
      "type": "VEC3"
    },
    {
      "bufferView": 6,
      "byteOffset": 21676,
      "componentType": 5126,
      "count": 25,
      "max": [
        1.6833332777023315
      ],
      "min": [
        0.0
      ],
      "type": "SCALAR"
    },
    {
      "bufferView": 8,
      "byteOffset": 58832,
      "componentType": 5126,
      "count": 25,
      "max": [
        2.7755575615628914e-17,
        1.0581813203458523e-16,
        6.938893903907228e-18,
        1.0
      ],
      "min": [
        -8.326672684688674e-17,
        -5.204170427930421e-17,
        -2.066026268506852e-18,
        1.0
      ],
      "type": "VEC4"
    },
    {
      "bufferView": 6,
      "byteOffset": 21776,
      "componentType": 5126,
      "count": 27,
      "max": [
        2.5166666507720947
      ],
      "min": [
        0.0
      ],
      "type": "SCALAR"
    },
    {
      "bufferView": 7,
      "byteOffset": 20904,
      "componentType": 5126,
      "count": 27,
      "max": [
        1111.0,
        3.552713678800501e-15,
        2.6645352591003757e-15
      ],
      "min": [
        2.4775257110595703,
        -3.552713678800501e-15,
        -1.7763568394002505e-15
      ],
      "type": "VEC3"
    },
    {
      "bufferView": 6,
      "byteOffset": 21884,
      "componentType": 5126,
      "count": 41,
      "max": [
        2.5166666507720947
      ],
      "min": [
        0.0
      ],
      "type": "SCALAR"
    },
    {
      "bufferView": 8,
      "byteOffset": 59232,
      "componentType": 5126,
      "count": 41,
      "max": [
        8.326672684688674e-17,
        1.0581813203458523e-16,
        3.2959746043559335e-17,
        1.0
      ],
      "min": [
        -8.326672684688674e-17,
        -5.204170427930421e-17,
        -3.729655473350135e-17,
        1.0
      ],
      "type": "VEC4"
    },
    {
      "bufferView": 6,
      "byteOffset": 22048,
      "componentType": 5126,
      "count": 36,
      "max": [
        3.3499999046325684
      ],
      "min": [
        0.0
      ],
      "type": "SCALAR"
    },
    {
      "bufferView": 7,
      "byteOffset": 21228,
      "componentType": 5126,
      "count": 36,
      "max": [
        1111.0,
        3.552713678800501e-15,
        1.7763568394002505e-15
      ],
      "min": [
        2.4775257110595703,
        -1.7763568394002505e-15,
        -5.3290705182007514e-15
      ],
      "type": "VEC3"
    },
    {
      "bufferView": 6,
      "byteOffset": 22192,
      "componentType": 5126,
      "count": 57,
      "max": [
        3.3499999046325684
      ],
      "min": [
        0.0
      ],
      "type": "SCALAR"
    },
    {
      "bufferView": 8,
      "byteOffset": 59888,
      "componentType": 5126,
      "count": 57,
      "max": [
        8.326672684688674e-17,
        1.0581813203458523e-16,
        3.2959746043559335e-17,
        1.0
      ],
      "min": [
        -8.326672684688674e-17,
        -5.204170427930421e-17,
        -6.245004513516506e-17,
        1.0
      ],
      "type": "VEC4"
    },
    {
      "bufferView": 6,
      "byteOffset": 22420,
      "componentType": 5126,
      "count": 110,
      "max": [
        4.133333206176758
      ],
      "min": [
        0.0
      ],
      "type": "SCALAR"
    },
    {
      "bufferView": 8,
      "byteOffset": 60800,
      "componentType": 5126,
      "count": 110,
      "max": [
        1.0,
        4.460123452172443e-17,
        4.8443832574168066e-17,
        1.0
      ],
      "min": [
        -0.8297476172447205,
        -2.815053450578828e-17,
        -8.576944781694963e-18,
        -0.4981825351715088
      ],
      "type": "VEC4"
    },
    {
      "bufferView": 6,
      "byteOffset": 22860,
      "componentType": 5126,
      "count": 41,
      "max": [
        5.0
      ],
      "min": [
        0.0
      ],
      "type": "SCALAR"
    },
    {
      "bufferView": 8,
      "byteOffset": 62560,
      "componentType": 5126,
      "count": 41,
      "max": [
        8.062877673592246e-18,
        3.469446951953614e-18,
        5.635639085094411e-17,
        1.0
      ],
      "min": [
        -7.850290601804892e-18,
        -1.3877787807814457e-17,
        -5.552743014571287e-17,
        1.0
      ],
      "type": "VEC4"
    },
    {
      "bufferView": 6,
      "byteOffset": 23024,
      "componentType": 5126,
      "count": 77,
      "max": [
        4.550000190734863
      ],
      "min": [
        0.0
      ],
      "type": "SCALAR"
    },
    {
      "bufferView": 7,
      "byteOffset": 21660,
      "componentType": 5126,
      "count": 77,
      "max": [
        -14.969597816467285,
        1.241115927696228,
        0.0
      ],
      "min": [
        -22.52277946472168,
        -5.1432929039001465,
        0.0
      ],
      "type": "VEC3"
    },
    {
      "bufferView": 6,
      "byteOffset": 23332,
      "componentType": 5126,
      "count": 77,
      "max": [
        4.550000190734863
      ],
      "min": [
        0.0
      ],
      "type": "SCALAR"
    },
    {
      "bufferView": 8,
      "byteOffset": 63216,
      "componentType": 5126,
      "count": 77,
      "max": [
        0.019735801964998245,
        0.0,
        0.2629316747188568,
        1.0
      ],
      "min": [
        0.0,
        -0.07220126688480377,
        -0.045997727662324905,
        0.9619066715240479
      ],
      "type": "VEC4"
    },
    {
      "bufferView": 6,
      "byteOffset": 23640,
      "componentType": 5126,
      "count": 32,
      "max": [
        7.666666507720947
      ],
      "min": [
        6.666666507720947
      ],
      "type": "SCALAR"
    },
    {
      "bufferView": 7,
      "byteOffset": 22584,
      "componentType": 5126,
      "count": 32,
      "max": [
        5.5363569259643555,
        8.881784197001252e-16,
        1.7763568394002505e-15
      ],
      "min": [
        1.8055765628814697,
        -8.881784197001252e-16,
        -1.7763568394002505e-15
      ],
      "type": "VEC3"
    },
    {
      "bufferView": 6,
      "byteOffset": 23768,
      "componentType": 5126,
      "count": 33,
      "max": [
        7.666666507720947
      ],
      "min": [
        6.666666507720947
      ],
      "type": "SCALAR"
    },
    {
      "bufferView": 8,
      "byteOffset": 64448,
      "componentType": 5126,
      "count": 33,
      "max": [
        3.469446951953614e-18,
        4.5644911461639737e-17,
        1.3877787807814457e-17,
        1.0
      ],
      "min": [
        -3.469446951953614e-18,
        -6.906367838732663e-17,
        -1.3877787807814457e-17,
        1.0
      ],
      "type": "VEC4"
    },
    {
      "bufferView": 6,
      "byteOffset": 23900,
      "componentType": 5126,
      "count": 2,
      "max": [
        8.850000381469727
      ],
      "min": [
        8.83332347869873
      ],
      "type": "SCALAR"
    },
    {
      "bufferView": 7,
      "byteOffset": 22968,
      "componentType": 5126,
      "count": 2,
      "max": [
        1111.0,
        2.1316282072803006e-14,
        3.552713678800501e-15
      ],
      "min": [
        2.4774999618530273,
        -1.7763568394002505e-15,
        -3.552713678800501e-15
      ],
      "type": "VEC3"
    },
    {
      "bufferView": 6,
      "byteOffset": 23908,
      "componentType": 5126,
      "count": 2,
      "max": [
        8.850000381469727
      ],
      "min": [
        8.83332347869873
      ],
      "type": "SCALAR"
    },
    {
      "bufferView": 8,
      "byteOffset": 64976,
      "componentType": 5126,
      "count": 2,
      "max": [
        2.7755575615628914e-17,
        6.938893903907228e-18,
        2.7755575615628914e-17,
        1.0
      ],
      "min": [
        -1.925929944387236e-34,
        6.938893903907228e-18,
        -1.925929944387236e-34,
        1.0
      ],
      "type": "VEC4"
    },
    {
      "bufferView": 6,
      "byteOffset": 23916,
      "componentType": 5126,
      "count": 96,
      "max": [
        9.833333015441895
      ],
      "min": [
        6.666666507720947
      ],
      "type": "SCALAR"
    },
    {
      "bufferView": 7,
      "byteOffset": 22992,
      "componentType": 5126,
      "count": 96,
      "max": [
        -4.478456020355225,
        2.8175361156463623,
        1.7763568394002505e-15
      ],
      "min": [
        -43.4423942565918,
        1.5160095691680908,
        -25.889116287231445
      ],
      "type": "VEC3"
    },
    {
      "bufferView": 6,
      "byteOffset": 24300,
      "componentType": 5126,
      "count": 96,
      "max": [
        9.833333015441895
      ],
      "min": [
        6.666666507720947
      ],
      "type": "SCALAR"
    },
    {
      "bufferView": 8,
      "byteOffset": 65008,
      "componentType": 5126,
      "count": 96,
      "max": [
        1.2154729563708117e-16,
        4.7704895589362195e-17,
        1.0078990623166729e-16,
        1.0
      ],
      "min": [
        -1.4130567585565762e-16,
        -0.43832677602767944,
        -1.0078990623166729e-16,
        0.8988156914710999
      ],
      "type": "VEC4"
    },
    {
      "bufferView": 6,
      "byteOffset": 24684,
      "componentType": 5126,
      "count": 2,
      "max": [
        8.850000381469727
      ],
      "min": [
        8.83332347869873
      ],
      "type": "SCALAR"
    },
    {
      "bufferView": 7,
      "byteOffset": 24144,
      "componentType": 5126,
      "count": 2,
      "max": [
        1111.0,
        1.2434497875801753e-14,
        6.306066779870889e-14
      ],
      "min": [
        2.4774999618530273,
        -1.5276668818842154e-13,
        -4.263256414560601e-14
      ],
      "type": "VEC3"
    },
    {
      "bufferView": 6,
      "byteOffset": 24692,
      "componentType": 5126,
      "count": 2,
      "max": [
        8.850000381469727
      ],
      "min": [
        8.83332347869873
      ],
      "type": "SCALAR"
    },
    {
      "bufferView": 8,
      "byteOffset": 66544,
      "componentType": 5126,
      "count": 2,
      "max": [
        0.0,
        0.0,
        5.551115123125783e-17,
        1.0
      ],
      "min": [
        -2.7755575615628914e-17,
        -6.938893903907228e-18,
        -5.551115123125783e-17,
        1.0
      ],
      "type": "VEC4"
    },
    {
      "bufferView": 6,
      "byteOffset": 24700,
      "componentType": 5126,
      "count": 38,
      "max": [
        9.833333015441895
      ],
      "min": [
        6.666666507720947
      ],
      "type": "SCALAR"
    },
    {
      "bufferView": 7,
      "byteOffset": 24168,
      "componentType": 5126,
      "count": 38,
      "max": [
        -4.478456020355225,
        0.4685472548007965,
        1.4416788816452026
      ],
      "min": [
        -46.50180435180664,
        0.4685472548007965,
        -25.284408569335938
      ],
      "type": "VEC3"
    },
    {
      "bufferView": 6,
      "byteOffset": 24852,
      "componentType": 5126,
      "count": 96,
      "max": [
        9.833333015441895
      ],
      "min": [
        6.666666507720947
      ],
      "type": "SCALAR"
    },
    {
      "bufferView": 8,
      "byteOffset": 66576,
      "componentType": 5126,
      "count": 96,
      "max": [
        1.0384388352299267e-16,
        4.7704895589362195e-17,
        8.231016195164062e-17,
        1.0
      ],
      "min": [
        -1.1692478538100824e-16,
        -0.3535015881061554,
        -7.385735547319394e-17,
        0.9354339241981506
      ],
      "type": "VEC4"
    },
    {
      "bufferView": 6,
      "byteOffset": 25236,
      "componentType": 5126,
      "count": 2,
      "max": [
        8.850000381469727
      ],
      "min": [
        8.83332347869873
      ],
      "type": "SCALAR"
    },
    {
      "bufferView": 7,
      "byteOffset": 24624,
      "componentType": 5126,
      "count": 2,
      "max": [
        1111.0,
        0.0,
        -3.552713678800501e-15
      ],
      "min": [
        2.4774999618530273,
        0.0,
        -2.842170943040401e-14
      ],
      "type": "VEC3"
    },
    {
      "bufferView": 6,
      "byteOffset": 25244,
      "componentType": 5126,
      "count": 2,
      "max": [
        8.850000381469727
      ],
      "min": [
        8.83332347869873
      ],
      "type": "SCALAR"
    },
    {
      "bufferView": 8,
      "byteOffset": 68112,
      "componentType": 5126,
      "count": 2,
      "max": [
        -6.938893903907228e-18,
        2.0816681711721685e-17,
        -2.7755575615628914e-17,
        1.0
      ],
      "min": [
        -1.249000902703301e-16,
        -3.469446951953614e-17,
        -2.7755575615628914e-17,
        1.0
      ],
      "type": "VEC4"
    },
    {
      "bufferView": 6,
      "byteOffset": 25252,
      "componentType": 5126,
      "count": 38,
      "max": [
        9.833333015441895
      ],
      "min": [
        6.666666507720947
      ],
      "type": "SCALAR"
    },
    {
      "bufferView": 7,
      "byteOffset": 24648,
      "componentType": 5126,
      "count": 38,
      "max": [
        -4.478456020355225,
        -1.2263386249542236,
        0.8912441730499268
      ],
      "min": [
        -46.60352325439453,
        -2.1990134716033936,
        -25.86636734008789
      ],
      "type": "VEC3"
    },
    {
      "bufferView": 6,
      "byteOffset": 25404,
      "componentType": 5126,
      "count": 96,
      "max": [
        9.833333015441895
      ],
      "min": [
        6.666666507720947
      ],
      "type": "SCALAR"
    },
    {
      "bufferView": 8,
      "byteOffset": 68144,
      "componentType": 5126,
      "count": 96,
      "max": [
        0.18320727348327637,
        4.7704895589362195e-17,
        2.2551405187698492e-17,
        1.0
      ],
      "min": [
        -5.551115123125783e-17,
        -0.5773099064826965,
        -0.1610316038131714,
        0.7984415888786316
      ],
      "type": "VEC4"
    },
    {
      "bufferView": 6,
      "byteOffset": 25788,
      "componentType": 5126,
      "count": 3,
      "max": [
        8.850000381469727
      ],
      "min": [
        8.83332347869873
      ],
      "type": "SCALAR"
    },
    {
      "bufferView": 7,
      "byteOffset": 25104,
      "componentType": 5126,
      "count": 3,
      "max": [
        1111.0,
        1.4210854715202004e-14,
        6.394884621840902e-14
      ],
      "min": [
        2.4774999618530273,
        -1.2967404927621828e-13,
        -7.105427357601002e-15
      ],
      "type": "VEC3"
    },
    {
      "bufferView": 6,
      "byteOffset": 25800,
      "componentType": 5126,
      "count": 3,
      "max": [
        8.850000381469727
      ],
      "min": [
        8.83332347869873
      ],
      "type": "SCALAR"
    },
    {
      "bufferView": 8,
      "byteOffset": 69680,
      "componentType": 5126,
      "count": 3,
      "max": [
        5.811323644522304e-17,
        8.239936510889834e-18,
        2.7755575615628914e-17,
        1.0
      ],
      "min": [
        -3.642919299551295e-17,
        -7.892991815694472e-17,
        -5.551115123125783e-17,
        1.0
      ],
      "type": "VEC4"
    },
    {
      "bufferView": 6,
      "byteOffset": 25812,
      "componentType": 5126,
      "count": 38,
      "max": [
        9.833333015441895
      ],
      "min": [
        6.666666507720947
      ],
      "type": "SCALAR"
    },
    {
      "bufferView": 7,
      "byteOffset": 25140,
      "componentType": 5126,
      "count": 38,
      "max": [
        -4.478456020355225,
        -1.2263000011444092,
        -0.8912000060081482
      ],
      "min": [
        -41.626033782958984,
        -1.2263000011444092,
        -26.901824951171875
      ],
      "type": "VEC3"
    },
    {
      "bufferView": 6,
      "byteOffset": 25964,
      "componentType": 5126,
      "count": 96,
      "max": [
        9.833333015441895
      ],
      "min": [
        6.666666507720947
      ],
      "type": "SCALAR"
    },
    {
      "bufferView": 8,
      "byteOffset": 69728,
      "componentType": 5126,
      "count": 96,
      "max": [
        0.21142858266830444,
        4.7704895589362195e-17,
        2.2551405187698492e-17,
        1.0
      ],
      "min": [
        -5.551115123125783e-17,
        -0.7084804177284241,
        -0.20728105306625366,
        0.7038999795913696
      ],
      "type": "VEC4"
    },
    {
      "bufferView": 6,
      "byteOffset": 26348,
      "componentType": 5126,
      "count": 2,
      "max": [
        8.850000381469727
      ],
      "min": [
        8.83332347869873
      ],
      "type": "SCALAR"
    },
    {
      "bufferView": 7,
      "byteOffset": 25596,
      "componentType": 5126,
      "count": 2,
      "max": [
        1111.0,
        0.0,
        7.105427357601002e-15
      ],
      "min": [
        2.4774999618530273,
        -9.237055564881302e-14,
        -2.4868995751603507e-14
      ],
      "type": "VEC3"
    },
    {
      "bufferView": 6,
      "byteOffset": 26356,
      "componentType": 5126,
      "count": 2,
      "max": [
        8.850000381469727
      ],
      "min": [
        8.83332347869873
      ],
      "type": "SCALAR"
    },
    {
      "bufferView": 8,
      "byteOffset": 71264,
      "componentType": 5126,
      "count": 2,
      "max": [
        1.3877787807814457e-17,
        3.469446951953614e-17,
        -2.8888949165808538e-34,
        1.0
      ],
      "min": [
        9.62964972193618e-34,
        2.0816681711721685e-17,
        -2.7755575615628914e-17,
        1.0
      ],
      "type": "VEC4"
    },
    {
      "bufferView": 6,
      "byteOffset": 26364,
      "componentType": 5126,
      "count": 38,
      "max": [
        9.833333015441895
      ],
      "min": [
        6.666666507720947
      ],
      "type": "SCALAR"
    },
    {
      "bufferView": 7,
      "byteOffset": 25620,
      "componentType": 5126,
      "count": 38,
      "max": [
        -4.478456020355225,
        0.4684999883174896,
        -1.4416999816894531
      ],
      "min": [
        -41.621028900146484,
        0.4684999883174896,
        -27.009807586669922
      ],
      "type": "VEC3"
    },
    {
      "bufferView": 6,
      "byteOffset": 26516,
      "componentType": 5126,
      "count": 96,
      "max": [
        9.833333015441895
      ],
      "min": [
        6.666666507720947
      ],
      "type": "SCALAR"
    },
    {
      "bufferView": 8,
      "byteOffset": 71296,
      "componentType": 5126,
      "count": 96,
      "max": [
        2.2125624224426417e-16,
        4.7704895589362195e-17,
        2.4133945959811263e-16,
        1.0
      ],
      "min": [
        -1.4882032717057115e-16,
        -0.5410148501396179,
        -1.287370965818329e-16,
        0.8410130143165588
      ],
      "type": "VEC4"
    },
    {
      "bufferView": 6,
      "byteOffset": 26900,
      "componentType": 5126,
      "count": 157,
      "max": [
        11.333333015441895
      ],
      "min": [
        5.333333492279053
      ],
      "type": "SCALAR"
    },
    {
      "bufferView": 8,
      "byteOffset": 72832,
      "componentType": 5126,
      "count": 157,
      "max": [
        3.469446951953614e-18,
        7.648239660351872e-17,
        8.549252429147913e-17,
        1.0
      ],
      "min": [
        -0.6560590267181396,
        -5.707937317609506e-17,
        -7.254160890364259e-17,
        0.7547096014022827
      ],
      "type": "VEC4"
    },
    {
      "bufferView": 6,
      "byteOffset": 27528,
      "componentType": 5126,
      "count": 16,
      "max": [
        5.5
      ],
      "min": [
        5.0
      ],
      "type": "SCALAR"
    },
    {
      "bufferView": 7,
      "byteOffset": 26076,
      "componentType": 5126,
      "count": 16,
      "max": [
        3.4148917198181152,
        6.279567241668701,
        -0.7174673676490784
      ],
      "min": [
        3.058093309402466,
        6.279567241668701,
        -0.7174673676490784
      ],
      "type": "VEC3"
    },
    {
      "bufferView": 6,
      "byteOffset": 27592,
      "componentType": 5126,
      "count": 12,
      "max": [
        5.5
      ],
      "min": [
        5.0
      ],
      "type": "SCALAR"
    },
    {
      "bufferView": 8,
      "byteOffset": 75344,
      "componentType": 5126,
      "count": 12,
      "max": [
        2.0816681711721685e-17,
        1.734723475976807e-18,
        4.336808689942018e-19,
        1.0
      ],
      "min": [
        -2.0816681711721685e-17,
        -6.938893903907228e-18,
        -4.336808689942018e-19,
        1.0
      ],
      "type": "VEC4"
    },
    {
      "bufferView": 6,
      "byteOffset": 27640,
      "componentType": 5126,
      "count": 59,
      "max": [
        12.0
      ],
      "min": [
        5.166666507720947
      ],
      "type": "SCALAR"
    },
    {
      "bufferView": 7,
      "byteOffset": 26268,
      "componentType": 5126,
      "count": 59,
      "max": [
        -14.762775421142578,
        -4.580443859100342,
        0.017171766608953476
      ],
      "min": [
        -15.825278282165527,
        -6.95574426651001,
        -5.1901326179504395
      ],
      "type": "VEC3"
    },
    {
      "bufferView": 6,
      "byteOffset": 27876,
      "componentType": 5126,
      "count": 186,
      "max": [
        12.0
      ],
      "min": [
        5.166666507720947
      ],
      "type": "SCALAR"
    },
    {
      "bufferView": 8,
      "byteOffset": 75536,
      "componentType": 5126,
      "count": 186,
      "max": [
        0.18543459475040436,
        0.1032114177942276,
        0.19165734946727753,
        1.0
      ],
      "min": [
        -0.296684205532074,
        -0.08136127144098282,
        -0.29666176438331604,
        0.9344912171363831
      ],
      "type": "VEC4"
    }
  ],
  "animations": [
    {
      "channels": [
        {
          "sampler": 0,
          "target": {
            "node": 9,
            "path": "translation"
          }
        },
        {
          "sampler": 1,
          "target": {
            "node": 9,
            "path": "rotation"
          }
        },
        {
          "sampler": 2,
          "target": {
            "node": 10,
            "path": "translation"
          }
        },
        {
          "sampler": 3,
          "target": {
            "node": 10,
            "path": "rotation"
          }
        },
        {
          "sampler": 4,
          "target": {
            "node": 13,
            "path": "translation"
          }
        },
        {
          "sampler": 5,
          "target": {
            "node": 13,
            "path": "rotation"
          }
        },
        {
          "sampler": 6,
          "target": {
            "node": 15,
            "path": "translation"
          }
        },
        {
          "sampler": 7,
          "target": {
            "node": 15,
            "path": "rotation"
          }
        },
        {
          "sampler": 8,
          "target": {
            "node": 14,
            "path": "translation"
          }
        },
        {
          "sampler": 9,
          "target": {
            "node": 14,
            "path": "rotation"
          }
        },
        {
          "sampler": 10,
          "target": {
            "node": 17,
            "path": "translation"
          }
        },
        {
          "sampler": 11,
          "target": {
            "node": 17,
            "path": "rotation"
          }
        },
        {
          "sampler": 12,
          "target": {
            "node": 16,
            "path": "translation"
          }
        },
        {
          "sampler": 13,
          "target": {
            "node": 16,
            "path": "rotation"
          }
        },
        {
          "sampler": 14,
          "target": {
            "node": 19,
            "path": "translation"
          }
        },
        {
          "sampler": 15,
          "target": {
            "node": 19,
            "path": "rotation"
          }
        },
        {
          "sampler": 16,
          "target": {
            "node": 18,
            "path": "translation"
          }
        },
        {
          "sampler": 17,
          "target": {
            "node": 18,
            "path": "rotation"
          }
        },
        {
          "sampler": 18,
          "target": {
            "node": 21,
            "path": "translation"
          }
        },
        {
          "sampler": 19,
          "target": {
            "node": 21,
            "path": "rotation"
          }
        },
        {
          "sampler": 20,
          "target": {
            "node": 20,
            "path": "translation"
          }
        },
        {
          "sampler": 21,
          "target": {
            "node": 20,
            "path": "rotation"
          }
        },
        {
          "sampler": 22,
          "target": {
            "node": 23,
            "path": "translation"
          }
        },
        {
          "sampler": 23,
          "target": {
            "node": 23,
            "path": "rotation"
          }
        },
        {
          "sampler": 24,
          "target": {
            "node": 22,
            "path": "translation"
          }
        },
        {
          "sampler": 25,
          "target": {
            "node": 22,
            "path": "rotation"
          }
        },
        {
          "sampler": 26,
          "target": {
            "node": 12,
            "path": "rotation"
          }
        },
        {
          "sampler": 27,
          "target": {
            "node": 11,
            "path": "rotation"
          }
        },
        {
          "sampler": 28,
          "target": {
            "node": 24,
            "path": "translation"
          }
        },
        {
          "sampler": 29,
          "target": {
            "node": 24,
            "path": "rotation"
          }
        },
        {
          "sampler": 30,
          "target": {
            "node": 8,
            "path": "translation"
          }
        },
        {
          "sampler": 31,
          "target": {
            "node": 8,
            "path": "rotation"
          }
        }
      ],
      "name": "Full Sequence",
      "samplers": [
        {
          "input": 15,
          "interpolation": "LINEAR",
          "output": 16
        },
        {
          "input": 17,
          "interpolation": "LINEAR",
          "output": 18
        },
        {
          "input": 19,
          "interpolation": "LINEAR",
          "output": 20
        },
        {
          "input": 21,
          "interpolation": "LINEAR",
          "output": 22
        },
        {
          "input": 23,
          "interpolation": "LINEAR",
          "output": 24
        },
        {
          "input": 25,
          "interpolation": "LINEAR",
          "output": 26
        },
        {
          "input": 27,
          "interpolation": "LINEAR",
          "output": 28
        },
        {
          "input": 29,
          "interpolation": "LINEAR",
          "output": 30
        },
        {
          "input": 31,
          "interpolation": "LINEAR",
          "output": 32
        },
        {
          "input": 33,
          "interpolation": "LINEAR",
          "output": 34
        },
        {
          "input": 35,
          "interpolation": "LINEAR",
          "output": 36
        },
        {
          "input": 37,
          "interpolation": "LINEAR",
          "output": 38
        },
        {
          "input": 39,
          "interpolation": "LINEAR",
          "output": 40
        },
        {
          "input": 41,
          "interpolation": "LINEAR",
          "output": 42
        },
        {
          "input": 43,
          "interpolation": "LINEAR",
          "output": 44
        },
        {
          "input": 45,
          "interpolation": "LINEAR",
          "output": 46
        },
        {
          "input": 47,
          "interpolation": "LINEAR",
          "output": 48
        },
        {
          "input": 49,
          "interpolation": "LINEAR",
          "output": 50
        },
        {
          "input": 51,
          "interpolation": "LINEAR",
          "output": 52
        },
        {
          "input": 53,
          "interpolation": "LINEAR",
          "output": 54
        },
        {
          "input": 55,
          "interpolation": "LINEAR",
          "output": 56
        },
        {
          "input": 57,
          "interpolation": "LINEAR",
          "output": 58
        },
        {
          "input": 59,
          "interpolation": "LINEAR",
          "output": 60
        },
        {
          "input": 61,
          "interpolation": "LINEAR",
          "output": 62
        },
        {
          "input": 63,
          "interpolation": "LINEAR",
          "output": 64
        },
        {
          "input": 65,
          "interpolation": "LINEAR",
          "output": 66
        },
        {
          "input": 67,
          "interpolation": "LINEAR",
          "output": 68
        },
        {
          "input": 69,
          "interpolation": "LINEAR",
          "output": 70
        },
        {
          "input": 71,
          "interpolation": "LINEAR",
          "output": 72
        },
        {
          "input": 73,
          "interpolation": "LINEAR",
          "output": 74
        },
        {
          "input": 75,
          "interpolation": "LINEAR",
          "output": 76
        },
        {
          "input": 77,
          "interpolation": "LINEAR",
          "output": 78
        }
      ]
    },
    {
      "channels": [
        {
          "sampler": 0,
          "target": {
            "node": 9,
            "path": "translation"
          }
        },
        {
          "sampler": 1,
          "target": {
            "node": 9,
            "path": "rotation"
          }
        },
        {
          "sampler": 2,
          "target": {
            "node": 10,
            "path": "translation"
          }
        },
        {
          "sampler": 3,
          "target": {
            "node": 10,
            "path": "rotation"
          }
        },
        {
          "sampler": 4,
          "target": {
            "node": 15,
            "path": "translation"
          }
        },
        {
          "sampler": 5,
          "target": {
            "node": 15,
            "path": "rotation"
          }
        },
        {
          "sampler": 6,
          "target": {
            "node": 17,
            "path": "translation"
          }
        },
        {
          "sampler": 7,
          "target": {
            "node": 17,
            "path": "rotation"
          }
        },
        {
          "sampler": 8,
          "target": {
            "node": 19,
            "path": "translation"
          }
        },
        {
          "sampler": 9,
          "target": {
            "node": 19,
            "path": "rotation"
          }
        },
        {
          "sampler": 10,
          "target": {
            "node": 21,
            "path": "translation"
          }
        },
        {
          "sampler": 11,
          "target": {
            "node": 21,
            "path": "rotation"
          }
        },
        {
          "sampler": 12,
          "target": {
            "node": 23,
            "path": "translation"
          }
        },
        {
          "sampler": 13,
          "target": {
            "node": 23,
            "path": "rotation"
          }
        },
        {
          "sampler": 14,
          "target": {
            "node": 12,
            "path": "rotation"
          }
        },
        {
          "sampler": 15,
          "target": {
            "node": 24,
            "path": "rotation"
          }
        },
        {
          "sampler": 16,
          "target": {
            "node": 8,
            "path": "translation"
          }
        },
        {
          "sampler": 17,
          "target": {
            "node": 8,
            "path": "rotation"
          }
        }
      ],
      "name": "Fire",
      "samplers": [
        {
          "input": 79,
          "interpolation": "LINEAR",
          "output": 80
        },
        {
          "input": 81,
          "interpolation": "LINEAR",
          "output": 82
        },
        {
          "input": 83,
          "interpolation": "LINEAR",
          "output": 84
        },
        {
          "input": 85,
          "interpolation": "LINEAR",
          "output": 86
        },
        {
          "input": 87,
          "interpolation": "LINEAR",
          "output": 88
        },
        {
          "input": 89,
          "interpolation": "LINEAR",
          "output": 90
        },
        {
          "input": 91,
          "interpolation": "LINEAR",
          "output": 92
        },
        {
          "input": 93,
          "interpolation": "LINEAR",
          "output": 94
        },
        {
          "input": 95,
          "interpolation": "LINEAR",
          "output": 96
        },
        {
          "input": 97,
          "interpolation": "LINEAR",
          "output": 98
        },
        {
          "input": 99,
          "interpolation": "LINEAR",
          "output": 100
        },
        {
          "input": 101,
          "interpolation": "LINEAR",
          "output": 102
        },
        {
          "input": 103,
          "interpolation": "LINEAR",
          "output": 104
        },
        {
          "input": 105,
          "interpolation": "LINEAR",
          "output": 106
        },
        {
          "input": 107,
          "interpolation": "LINEAR",
          "output": 108
        },
        {
          "input": 109,
          "interpolation": "LINEAR",
          "output": 110
        },
        {
          "input": 111,
          "interpolation": "LINEAR",
          "output": 112
        },
        {
          "input": 113,
          "interpolation": "LINEAR",
          "output": 114
        }
      ]
    },
    {
      "channels": [
        {
          "sampler": 0,
          "target": {
            "node": 13,
            "path": "translation"
          }
        },
        {
          "sampler": 1,
          "target": {
            "node": 13,
            "path": "rotation"
          }
        },
        {
          "sampler": 2,
          "target": {
            "node": 15,
            "path": "translation"
          }
        },
        {
          "sampler": 3,
          "target": {
            "node": 15,
            "path": "rotation"
          }
        },
        {
          "sampler": 4,
          "target": {
            "node": 14,
            "path": "translation"
          }
        },
        {
          "sampler": 5,
          "target": {
            "node": 14,
            "path": "rotation"
          }
        },
        {
          "sampler": 6,
          "target": {
            "node": 17,
            "path": "translation"
          }
        },
        {
          "sampler": 7,
          "target": {
            "node": 17,
            "path": "rotation"
          }
        },
        {
          "sampler": 8,
          "target": {
            "node": 16,
            "path": "translation"
          }
        },
        {
          "sampler": 9,
          "target": {
            "node": 16,
            "path": "rotation"
          }
        },
        {
          "sampler": 10,
          "target": {
            "node": 19,
            "path": "translation"
          }
        },
        {
          "sampler": 11,
          "target": {
            "node": 19,
            "path": "rotation"
          }
        },
        {
          "sampler": 12,
          "target": {
            "node": 18,
            "path": "translation"
          }
        },
        {
          "sampler": 13,
          "target": {
            "node": 18,
            "path": "rotation"
          }
        },
        {
          "sampler": 14,
          "target": {
            "node": 21,
            "path": "translation"
          }
        },
        {
          "sampler": 15,
          "target": {
            "node": 21,
            "path": "rotation"
          }
        },
        {
          "sampler": 16,
          "target": {
            "node": 20,
            "path": "translation"
          }
        },
        {
          "sampler": 17,
          "target": {
            "node": 20,
            "path": "rotation"
          }
        },
        {
          "sampler": 18,
          "target": {
            "node": 23,
            "path": "translation"
          }
        },
        {
          "sampler": 19,
          "target": {
            "node": 23,
            "path": "rotation"
          }
        },
        {
          "sampler": 20,
          "target": {
            "node": 22,
            "path": "translation"
          }
        },
        {
          "sampler": 21,
          "target": {
            "node": 22,
            "path": "rotation"
          }
        },
        {
          "sampler": 22,
          "target": {
            "node": 11,
            "path": "rotation"
          }
        },
        {
          "sampler": 23,
          "target": {
            "node": 24,
            "path": "translation"
          }
        },
        {
          "sampler": 24,
          "target": {
            "node": 24,
            "path": "rotation"
          }
        },
        {
          "sampler": 25,
          "target": {
            "node": 8,
            "path": "translation"
          }
        },
        {
          "sampler": 26,
          "target": {
            "node": 8,
            "path": "rotation"
          }
        }
      ],
      "name": "Reload",
      "samplers": [
        {
          "input": 115,
          "interpolation": "LINEAR",
          "output": 116
        },
        {
          "input": 117,
          "interpolation": "LINEAR",
          "output": 118
        },
        {
          "input": 119,
          "interpolation": "LINEAR",
          "output": 120
        },
        {
          "input": 121,
          "interpolation": "LINEAR",
          "output": 122
        },
        {
          "input": 123,
          "interpolation": "LINEAR",
          "output": 124
        },
        {
          "input": 125,
          "interpolation": "LINEAR",
          "output": 126
        },
        {
          "input": 127,
          "interpolation": "LINEAR",
          "output": 128
        },
        {
          "input": 129,
          "interpolation": "LINEAR",
          "output": 130
        },
        {
          "input": 131,
          "interpolation": "LINEAR",
          "output": 132
        },
        {
          "input": 133,
          "interpolation": "LINEAR",
          "output": 134
        },
        {
          "input": 135,
          "interpolation": "LINEAR",
          "output": 136
        },
        {
          "input": 137,
          "interpolation": "LINEAR",
          "output": 138
        },
        {
          "input": 139,
          "interpolation": "LINEAR",
          "output": 140
        },
        {
          "input": 141,
          "interpolation": "LINEAR",
          "output": 142
        },
        {
          "input": 143,
          "interpolation": "LINEAR",
          "output": 144
        },
        {
          "input": 145,
          "interpolation": "LINEAR",
          "output": 146
        },
        {
          "input": 147,
          "interpolation": "LINEAR",
          "output": 148
        },
        {
          "input": 149,
          "interpolation": "LINEAR",
          "output": 150
        },
        {
          "input": 151,
          "interpolation": "LINEAR",
          "output": 152
        },
        {
          "input": 153,
          "interpolation": "LINEAR",
          "output": 154
        },
        {
          "input": 155,
          "interpolation": "LINEAR",
          "output": 156
        },
        {
          "input": 157,
          "interpolation": "LINEAR",
          "output": 158
        },
        {
          "input": 159,
          "interpolation": "LINEAR",
          "output": 160
        },
        {
          "input": 161,
          "interpolation": "LINEAR",
          "output": 162
        },
        {
          "input": 163,
          "interpolation": "LINEAR",
          "output": 164
        },
        {
          "input": 165,
          "interpolation": "LINEAR",
          "output": 166
        },
        {
          "input": 167,
          "interpolation": "LINEAR",
          "output": 168
        }
      ]
    }
  ],
  "asset": {
    "extras": {
      "author": "Ole Gunnar Isager (https://sketchfab.com/FrenchBaguette)",
      "license": "CC-BY-4.0 (http://creativecommons.org/licenses/by/4.0/)",
      "source": "https://sketchfab.com/3d-models/smith-wesson-500-magnum-f7dbf63385644ab290b0f56428dcfde6",
      "title": "Smith & Wesson 500 Magnum"
    },
    "generator": "Sketchfab-12.63.0",
    "version": "2.0"
  },
  "bufferViews": [
    {
      "buffer": 0,
      "byteLength": 77232,
      "byteStride": 8,
      "name": "shortBufferViews",
      "target": 34962
    },
    {
      "buffer": 0,
      "byteLength": 142812,
      "byteOffset": 77232,
      "name": "floatBufferViews",
      "target": 34963
    },
    {
      "buffer": 0,
      "byteLength": 77232,
      "byteOffset": 220044,
      "byteStride": 8,
      "name": "floatBufferViews",
      "target": 34962
    },
    {
      "buffer": 0,
      "byteLength": 231696,
      "byteOffset": 297276,
      "byteStride": 12,
      "name": "floatBufferViews",
      "target": 34962
    },
    {
      "buffer": 0,
      "byteLength": 308928,
      "byteOffset": 528972,
      "byteStride": 16,
      "name": "floatBufferViews",
      "target": 34962
    },
    {
      "buffer": 0,
      "byteLength": 1152,
      "byteOffset": 837900,
      "name": "floatBufferViews"
    },
    {
      "buffer": 0,
      "byteLength": 28620,
      "byteOffset": 839052,
      "name": "floatBufferViews"
    },
    {
      "buffer": 0,
      "byteLength": 26976,
      "byteOffset": 867672,
      "byteStride": 12,
      "name": "floatBufferViews"
    },
    {
      "buffer": 0,
      "byteLength": 78512,
      "byteOffset": 894648,
      "byteStride": 16,
      "name": "floatBufferViews"
    }
  ],
  "buffers": [
    {
      "byteLength": 973160,
      "uri": "scene.bin"
    }
  ],
  "images": [
    {
      "uri": "textures/TEX_Bullet_baseColor.jpeg"
    },
    {
      "uri": "textures/TEX_Bullet_metallicRoughness.png"
    },
    {
      "uri": "textures/TEX_Bullet_normal.png"
    },
    {
      "uri": "textures/TEX_Lowpoly_baseColor.png"
    },
    {
      "uri": "textures/TEX_Lowpoly_metallicRoughness.png"
    },
    {
      "uri": "textures/TEX_Lowpoly_normal.png"
    }
  ],
  "materials": [
    {
      "doubleSided": true,
      "name": "TEX_Bullet",
      "normalTexture": {
        "index": 2
      },
      "occlusionTexture": {
        "index": 1
      },
      "pbrMetallicRoughness": {
        "baseColorTexture": {
          "index": 0
        },
        "metallicRoughnessTexture": {
          "index": 1
        }
      }
    },
    {
      "doubleSided": true,
      "name": "TEX_Lowpoly",
      "normalTexture": {
        "index": 5
      },
      "occlusionTexture": {
        "index": 4
      },
      "pbrMetallicRoughness": {
        "baseColorTexture": {
          "index": 3
        },
        "metallicRoughnessTexture": {
          "index": 4
        }
      }
    }
  ],
  "meshes": [
    {
      "name": "Gun_TEX_Bullet_0",
      "primitives": [
        {
          "attributes": {
            "JOINTS_0": 11,
            "NORMAL": 1,
            "POSITION": 0,
            "TANGENT": 2,
            "TEXCOORD_0": 3,
            "WEIGHTS_0": 12
          },
          "indices": 4,
          "material": 0,
          "mode": 4
        }
      ]
    },
    {
      "name": "Gun_TEX_Lowpoly_0",
      "primitives": [
        {
          "attributes": {
            "JOINTS_0": 13,
            "NORMAL": 6,
            "POSITION": 5,
            "TANGENT": 7,
            "TEXCOORD_0": 8,
            "WEIGHTS_0": 14
          },
          "indices": 9,
          "material": 1,
          "mode": 4
        }
      ]
    }
  ],
  "nodes": [
    {
      "children": [
        1
      ],
      "matrix": [
        1.0,
        0.0,
        0.0,
        0.0,
        0.0,
        2.220446049250313e-16,
        -1.0,
        0.0,
        0.0,
        1.0,
        2.220446049250313e-16,
        0.0,
        0.0,
        0.0,
        0.0,
        1.0
      ],
      "name": "Sketchfab_model"
    },
    {
      "children": [
        2
      ],
      "matrix": [
        1.0,
        0.0,
        0.0,
        0.0,
        0.0,
        0.0,
        1.0,
        0.0,
        0.0,
        -1.0,
        0.0,
        0.0,
        0.0,
        0.0,
        0.0,
        1.0
      ],
      "name": "13c3f77b8c784027b12d75355a709c18.fbx"
    },
    {
      "children": [
        3
      ],
      "name": "Object_2"
    },
    {
      "children": [
        4
      ],
      "name": "RootNode"
    },
    {
      "children": [
        5,
        6,
        7,
        25
      ],
      "name": "Object_4"
    },
    {
      "children": [
        8
      ],
      "name": "_rootJoint"
    },
    {
      "mesh": 0,
      "name": "Object_6",
      "skin": 0
    },
    {
      "mesh": 1,
      "name": "Object_7",
      "skin": 0
    },
    {
      "children": [
        9,
        10,
        11,
        24
      ],
      "name": "joint_Base_00",
      "translation": [
        -15.403779983520508,
        -4.580443859100342,
        0.0
      ]
    },
    {
      "name": "joint_Trigger_01",
      "translation": [
        6.905354976654053,
        5.253851413726807,
        0.0
      ]
    },
    {
      "name": "joint_Hammer_02",
      "translation": [
        3.713867664337158,
        5.024094581604004,
        0.0
      ]
    },
    {
      "children": [
        12
      ],
      "name": "joint_Hinge_03",
      "translation": [
        12.87598991394043,
        4.340494155883789,
        -0.24227017164230347
      ]
    },
    {
      "children": [
        13,
        14,
        16,
        18,
        20,
        22
      ],
      "name": "joint_Cylinder_04",
      "translation": [
        0.06465956568717957,
        3.152949571609497,
        0.24227017164230347
      ]
    },
    {
      "name": "joint_Ejector_05",
      "translation": [
        5.5363569259643555,
        0.0,
        0.0
      ]
    },
    {
      "children": [
        15
      ],
      "name": "joint_Bullet1_06",
      "translation": [
        -4.478456020355225,
        1.5160095691680908,
        0.0
      ]
    },
    {
      "name": "joint_BulletLead1_07",
      "translation": [
        2.4775257110595703,
        0.0,
        0.0
      ]
    },
    {
      "children": [
        17
      ],
      "name": "joint_Bullet2_08",
      "translation": [
        -4.478456020355225,
        0.4685472548007965,
        1.4416788816452026
      ]
    },
    {
      "name": "joint_BulletLead2_09",
      "translation": [
        2.4775257110595703,
        -4.440892098500626e-16,
        0.0
      ]
    },
    {
      "children": [
        19
      ],
      "name": "joint_Bullet3_010",
      "translation": [
        -4.478456020355225,
        -1.2263386249542236,
        0.8912441730499268
      ]
    },
    {
      "name": "joint_BulletLead3_011",
      "translation": [
        2.4775257110595703,
        0.0,
        0.0
      ]
    },
    {
      "children": [
        21
      ],
      "name": "joint_Bullet4_012",
      "translation": [
        -4.478456020355225,
        -1.2263000011444092,
        -0.8912000060081482
      ]
    },
    {
      "name": "joint_BulletLead4_013",
      "translation": [
        2.4775257110595703,
        0.0,
        0.0
      ]
    },
    {
      "children": [
        23
      ],
      "name": "joint_Bullet5_014",
      "translation": [
        -4.478456020355225,
        0.4684999883174896,
        -1.4416999816894531
      ]
    },
    {
      "name": "joint_BulletLead5_015",
      "translation": [
        2.4775257110595703,
        0.0,
        0.0
      ]
    },
    {
      "name": "joint_CylinderRelease_016",
      "translation": [
        3.058093309402466,
        6.279567241668701,
        -0.7174673676490784
      ]
    },
    {
      "name": "Gun"
    }
  ],
  "samplers": [
    {
      "magFilter": 9729,
      "minFilter": 9987,
      "wrapS": 10497,
      "wrapT": 10497
    }
  ],
  "scene": 0,
  "scenes": [
    {
      "name": "Sketchfab_Scene",
      "nodes": [
        0
      ]
    }
  ],
  "skins": [
    {
      "inverseBindMatrices": 10,
      "joints": [
        5,
        8,
        9,
        10,
        11,
        12,
        13,
        14,
        15,
        16,
        17,
        18,
        19,
        20,
        21,
        22,
        23,
        24
      ],
      "skeleton": 5
    }
  ],
  "textures": [
    {
      "sampler": 0,
      "source": 0
    },
    {
      "sampler": 0,
      "source": 1
    },
    {
      "sampler": 0,
      "source": 2
    },
    {
      "sampler": 0,
      "source": 3
    },
    {
      "sampler": 0,
      "source": 4
    },
    {
      "sampler": 0,
      "source": 5
    }
  ]
}
